<?xml version="1.0" encoding="UTF-8"?>
<svg width="1021px" height="270px" viewBox="0 0 1021 270" version="1.1" xmlns="http://www.w3.org/2000/svg" xmlns:xlink="http://www.w3.org/1999/xlink">
    <title>graphite-dark</title>
    <g id="graphite-dark" stroke="none" stroke-width="1" fill="none" fill-rule="evenodd">
        <g id="graphics" transform="translate(37.000000, 21.000000)" stroke="#EEEEEE" stroke-width="2">
            <g id="Bottom" transform="translate(0.000000, 163.000000)" fill="#000000">
                <rect id="Key" x="0" y="0" width="74.3118712" height="64.0298507" rx="11"></rect>
                <rect id="Key" x="92.4134809" y="0" width="74.3118712" height="64.0298507" rx="11"></rect>
                <rect id="Key" x="184.826962" y="0" width="74.3118712" height="64.0298507" rx="11"></rect>
                <rect id="Key" x="277.240443" y="0" width="74.3118712" height="64.0298507" rx="11"></rect>
                <rect id="Key" x="369.653924" y="0" width="74.3118712" height="64.0298507" rx="11"></rect>
                <rect id="Key" x="503.034205" y="0" width="74.3118712" height="64.0298507" rx="11"></rect>
                <rect id="Key" x="595.447686" y="0" width="74.3118712" height="64.0298507" rx="11"></rect>
                <rect id="Key" x="687.861167" y="0" width="74.3118712" height="64.0298507" rx="11"></rect>
                <rect id="Key" x="780.274648" y="0" width="74.3118712" height="64.0298507" rx="11"></rect>
                <rect id="Key" x="872.688129" y="0" width="74.3118712" height="64.0298507" rx="11"></rect>
            </g>
            <g id="Middle" transform="translate(0.000000, 80.000000)">
                <rect id="Key" fill="#000000" x="369.653924" y="0.970588235" width="74.3118712" height="64.0588235" rx="11"></rect>
                <rect id="Key" fill="#000000" x="503.034205" y="0.970588235" width="74.3118712" height="64.0588235" rx="11"></rect>
                <rect id="HRM" fill="#4582A8" x="0" y="0" width="74.3118712" height="64.0588235" rx="11"></rect>
                <rect id="HRM" fill="#4582A8" x="92.4134809" y="0" width="74.3118712" height="64.0588235" rx="11"></rect>
                <rect id="HRM" fill="#4582A8" x="184.826962" y="0" width="74.3118712" height="64.0588235" rx="11"></rect>
                <rect id="HRM" fill="#4582A8" x="687.861167" y="0" width="74.3118712" height="64.0588235" rx="11"></rect>
                <rect id="HRM" fill="#4582A8" x="780.274648" y="0" width="74.3118712" height="64.0588235" rx="11"></rect>
                <rect id="HRM" fill="#4582A8" x="872.688129" y="0" width="74.3118712" height="64.0588235" rx="11"></rect>
                <rect id="Shift" fill="#C4A030" x="277.240443" y="0" width="74.3118712" height="64.0588235" rx="11"></rect>
                <rect id="Shift" fill="#C4A030" x="595.447686" y="0" width="74.3118712" height="64.0588235" rx="11"></rect>
            </g>
            <g id="Top" transform="translate(0.000000, -0.000000)" fill="#000000">
                <rect id="Key" x="0" y="0" width="74.3118712" height="64.0298507" rx="11"></rect>
                <rect id="Key" x="92.4134809" y="0" width="74.3118712" height="64.0298507" rx="11"></rect>
                <rect id="Key" x="184.826962" y="0" width="74.3118712" height="64.0298507" rx="11"></rect>
                <rect id="Key" x="277.240443" y="0" width="74.3118712" height="64.0298507" rx="11"></rect>
                <rect id="Key" x="369.653924" y="0" width="74.3118712" height="64.0298507" rx="11"></rect>
                <rect id="Key" x="503.034205" y="0" width="74.3118712" height="64.0298507" rx="11"></rect>
                <rect id="Key" x="595.447686" y="0" width="74.3118712" height="64.0298507" rx="11"></rect>
                <rect id="Key" x="687.861167" y="0" width="74.3118712" height="64.0298507" rx="11"></rect>
                <rect id="Key" x="780.274648" y="0" width="74.3118712" height="64.0298507" rx="11"></rect>
                <rect id="Key" x="872.688129" y="1" width="74.3118712" height="64.0298507" rx="11"></rect>
            </g>
        </g>
        <g id="text" transform="translate(63.850293, 37.830781)" fill="#FFFFFF" fill-rule="nonzero">
            <g id="B" transform="translate(91.356840, 165.499851)">
                <polygon id="Path" points="22.2539062 25.6992188 17.4199219 25.6992188 10.9863281 15.1875 4.5 25.6992188 0 25.6992188 8.52539062 12.375 0.544921875 0 5.22070312 0 11.1621094 9.72070312 17.1035156 0 21.6386719 0 13.6054688 12.4453125"></polygon>
            </g>
            <g id="B" transform="translate(184.092587, 164.499851)">
                <path d="M11.109375,25.6992188 L3.65625,4.23632812 L3.515625,4.23632812 C3.71484375,7.42382812 3.81445313,10.4121094 3.81445313,13.2011719 L3.81445313,25.6992188 L0,25.6992188 L0,0 L5.92382812,0 L13.0605469,20.4433594 L13.1660156,20.4433594 L20.5136719,0 L26.4550781,0 L26.4550781,25.6992188 L22.4121094,25.6992188 L22.4121094,12.9902344 C22.4121094,11.7128906 22.4443359,10.0488281 22.5087891,7.99804687 C22.5732422,5.94726562 22.6289062,4.70507812 22.6757812,4.27148438 L22.5351562,4.27148438 L14.8183594,25.6992188 L11.109375,25.6992188 Z" id="Path"></path>
            </g>
            <g id="B" transform="translate(278.240443, 165.130710)">
                <path d="M12.1992188,3.60351562 C9.78515625,3.60351562 7.88671875,4.45898438 6.50390625,6.16992188 C5.12109375,7.88085937 4.4296875,10.2421875 4.4296875,13.2539063 C4.4296875,16.40625 5.09472656,18.7910156 6.42480469,20.4082031 C7.75488281,22.0253906 9.6796875,22.8339844 12.1992188,22.8339844 C13.2890625,22.8339844 14.34375,22.7255859 15.3632812,22.5087891 C16.3828125,22.2919922 17.4433594,22.0136719 18.5449219,21.6738281 L18.5449219,25.2773438 C16.5292969,26.0390625 14.2441406,26.4199219 11.6894531,26.4199219 C7.92773438,26.4199219 5.0390625,25.2802734 3.0234375,23.0009766 C1.0078125,20.7216797 0,17.4609375 0,13.21875 C0,10.546875 0.489257812,8.20898438 1.46777344,6.20507812 C2.44628906,4.20117188 3.86132812,2.66601562 5.71289062,1.59960938 C7.56445312,0.533203125 9.73828125,0 12.234375,0 C14.859375,0 17.2851562,0.55078125 19.5117188,1.65234375 L18,5.15039062 C17.1328125,4.74023438 16.2158203,4.37988281 15.2490234,4.06933594 C14.2822266,3.75878906 13.265625,3.60351562 12.1992188,3.60351562 Z" id="Path"></path>
            </g>
            <g id="B" transform="translate(368.526970, 165.499851)">
                <path d="M18.0351562,0 L22.3945312,0 L13.3945312,25.6992188 L8.96484375,25.6992188 L0,0 L4.32421875,0 L9.68554688,15.9785156 C9.96679688,16.7402344 10.265625,17.7216797 10.5820312,18.9228516 C10.8984375,20.1240234 11.1035156,21.0175781 11.1972656,21.6035156 C11.3496094,20.7128906 11.5839844,19.6816406 11.9003906,18.5097656 C12.2167969,17.3378906 12.4746094,16.4707031 12.6738281,15.9082031 L18.0351562,0 Z" id="Path"></path>
            </g>
            <g id="B" transform="translate(505.299830, 165.499851)">
                <path d="M19.6171875,25.6992188 L14.7480469,25.6992188 L6.6796875,14.0625 L4.20117188,16.0839844 L4.20117188,25.6992188 L0,25.6992188 L0,0 L4.20117188,0 L4.20117188,12.2695312 C5.34960937,10.8632812 6.4921875,9.50976562 7.62890625,8.20898438 L14.5722656,0 L19.3535156,0 C14.8652344,5.2734375 11.6484375,9.02929688 9.703125,11.2675781 L19.6171875,25.6992188 Z" id="Path"></path>
            </g>
            <g id="B" transform="translate(597.713311, 165.499851)">
                <path d="M17.015625,7.76953125 C17.015625,10.453125 16.1367188,12.5097656 14.3789062,13.9394531 C12.6210938,15.3691406 10.1191406,16.0839844 6.87304688,16.0839844 L4.20117188,16.0839844 L4.20117188,25.6992188 L0,25.6992188 L0,0 L7.40039062,0 C10.6113281,0 13.0166016,0.65625 14.6162109,1.96875 C16.2158203,3.28125 17.015625,5.21484375 17.015625,7.76953125 Z M4.20117188,12.5507812 L6.43359375,12.5507812 C8.58984375,12.5507812 10.171875,12.1757812 11.1796875,11.4257812 C12.1875,10.6757812 12.6914062,9.50390625 12.6914062,7.91015625 C12.6914062,6.43359375 12.2402344,5.33203125 11.3378906,4.60546875 C10.4355469,3.87890625 9.02929688,3.515625 7.11914062,3.515625 L4.20117188,3.515625 L4.20117188,12.5507812 Z" id="Shape"></path>
            </g>
            <g id="B" transform="translate(693.570148, 187.015476)">
                <path d="M6.13476562,0.404296875 C5.57226562,2.58398438 4.54101562,5.390625 3.04101562,8.82421875 L0,8.82421875 C0.80859375,5.66015625 1.41210938,2.71875 1.81054688,0 L5.87109375,0 L6.13476562,0.404296875 Z" id="Path"></path>
            </g>
            <g id="B" transform="translate(787.073472, 186.347507)">
                <path d="M0,2.65429688 C0,1.79882812 0.22265625,1.14257812 0.66796875,0.685546875 C1.11328125,0.228515625 1.7578125,0 2.6015625,0 C3.45703125,0 4.10742188,0.237304688 4.55273438,0.711914062 C4.99804688,1.18652344 5.22070312,1.83398438 5.22070312,2.65429688 C5.22070312,3.48632812 4.99511719,4.14550781 4.54394531,4.63183594 C4.09277344,5.11816406 3.4453125,5.36132812 2.6015625,5.36132812 C1.7578125,5.36132812 1.11328125,5.12109375 0.66796875,4.640625 C0.22265625,4.16015625 0,3.49804688 0,2.65429688 Z" id="Path"></path>
            </g>
            <g id="B" transform="translate(875.356094, 165.499851)">
                <polygon id="Path" points="13.4648438 0 3.90234375 25.6992188 0 25.6992188 9.58007812 0"></polygon>
            </g>
            <g id="B" transform="translate(371.919549, 83.484706)">
                <path d="M0,0 L7.62890625,0 C11.1679688,0 13.7255859,0.515625 15.3017578,1.546875 C16.8779297,2.578125 17.6660156,4.20703125 17.6660156,6.43359375 C17.6660156,7.93359375 17.2792969,9.18164062 16.5058594,10.1777344 C15.7324219,11.1738281 14.6191406,11.8007812 13.1660156,12.0585938 L13.1660156,12.234375 C14.9707031,12.5742188 16.2978516,13.2451172 17.1474609,14.2470703 C17.9970703,15.2490234 18.421875,16.6054688 18.421875,18.3164062 C18.421875,20.625 17.6162109,22.4326172 16.0048828,23.7392578 C14.3935547,25.0458984 12.1523438,25.6992188 9.28125,25.6992188 L0,25.6992188 L0,0 Z M4.20117188,10.6171875 L8.24414062,10.6171875 C10.0019531,10.6171875 11.2851562,10.3388672 12.09375,9.78222656 C12.9023438,9.22558594 13.3066406,8.27929688 13.3066406,6.94335938 C13.3066406,5.73632812 12.8701172,4.86328125 11.9970703,4.32421875 C11.1240234,3.78515625 9.73828125,3.515625 7.83984375,3.515625 L4.20117188,3.515625 L4.20117188,10.6171875 Z M4.20117188,14.0273438 L4.20117188,22.1660156 L8.66601562,22.1660156 C10.4238281,22.1660156 11.7509766,21.8291016 12.6474609,21.1552734 C13.5439453,20.4814453 13.9921875,19.4179688 13.9921875,17.9648438 C13.9921875,16.6289062 13.5351562,15.6386719 12.6210938,14.9941406 C11.7070312,14.3496094 10.3183594,14.0273438 8.45507812,14.0273438 L4.20117188,14.0273438 Z" id="Shape"></path>
            </g>
            <g id="B" transform="translate(501.907252, 83.484706)">
                <polygon id="Path" points="10.6523438 11.7246094 16.734375 0 21.3046875 0 12.7441406 15.7324219 12.7441406 25.6992188 8.52539062 25.6992188 8.52539062 15.8730469 0 0 4.5703125 0"></polygon>
            </g>
            <g id="B" transform="translate(2.265625, 2.499851)">
                <path d="M0,0 L7.62890625,0 C11.1679688,0 13.7255859,0.515625 15.3017578,1.546875 C16.8779297,2.578125 17.6660156,4.20703125 17.6660156,6.43359375 C17.6660156,7.93359375 17.2792969,9.18164062 16.5058594,10.1777344 C15.7324219,11.1738281 14.6191406,11.8007812 13.1660156,12.0585938 L13.1660156,12.234375 C14.9707031,12.5742188 16.2978516,13.2451172 17.1474609,14.2470703 C17.9970703,15.2490234 18.421875,16.6054688 18.421875,18.3164062 C18.421875,20.625 17.6162109,22.4326172 16.0048828,23.7392578 C14.3935547,25.0458984 12.1523438,25.6992188 9.28125,25.6992188 L0,25.6992188 L0,0 Z M4.20117188,10.6171875 L8.24414062,10.6171875 C10.0019531,10.6171875 11.2851562,10.3388672 12.09375,9.78222656 C12.9023438,9.22558594 13.3066406,8.27929688 13.3066406,6.94335938 C13.3066406,5.73632812 12.8701172,4.86328125 11.9970703,4.32421875 C11.1240234,3.78515625 9.73828125,3.515625 7.83984375,3.515625 L4.20117188,3.515625 L4.20117188,10.6171875 Z M4.20117188,14.0273438 L4.20117188,22.1660156 L8.66601562,22.1660156 C10.4238281,22.1660156 11.7509766,21.8291016 12.6474609,21.1552734 C13.5439453,20.4814453 13.9921875,19.4179688 13.9921875,17.9648438 C13.9921875,16.6289062 13.5351562,15.6386719 12.6210938,14.9941406 C11.7070312,14.3496094 10.3183594,14.0273438 8.45507812,14.0273438 L4.20117188,14.0273438 Z" id="Shape"></path>
            </g>
            <g id="B" transform="translate(95.459376, 2.499851)">
                <polygon id="Path" points="0 25.6992188 0 0 4.20117188 0 4.20117188 22.0957031 15.0820312 22.0957031 15.0820312 25.6992188"></polygon>
            </g>
            <g id="B" transform="translate(187.092587, 2.499851)">
                <path d="M20.9003906,12.6035156 C20.9003906,16.8457031 19.7226562,20.0888672 17.3671875,22.3330078 C15.0117188,24.5771484 11.6191406,25.6992188 7.18945312,25.6992188 L0,25.6992188 L0,0 L7.9453125,0 C12.0351562,0 15.2167969,1.1015625 17.4902344,3.3046875 C19.7636719,5.5078125 20.9003906,8.60742188 20.9003906,12.6035156 Z M16.4707031,12.7441406 C16.4707031,6.59179688 13.59375,3.515625 7.83984375,3.515625 L4.20117188,3.515625 L4.20117188,22.1660156 L7.18945312,22.1660156 C13.3769531,22.1660156 16.4707031,19.0253906 16.4707031,12.7441406 Z" id="Shape"></path>
            </g>
            <g id="B" transform="translate(369.869740, 2.499851)">
                <polygon id="Path" points="18.3867188 25.6992188 0 25.6992188 0 22.78125 12.9550781 3.60351562 0.3515625 3.60351562 0.3515625 0 18.0351562 0 18.0351562 2.953125 5.02734375 22.0957031 18.3867188 22.0957031"></polygon>
            </g>
            <g id="B" transform="translate(509.411155, 2.499851)">
                <path d="M0.2109375,8.80664062 L1.13686838e-13,8.41992188 C0.234375,7.44726562 0.650390625,6.13476562 1.24804688,4.48242188 C1.84570313,2.83007812 2.4609375,1.3359375 3.09375,0 L6.08203125,0 C5.33203125,3 4.74023438,5.93554688 4.30664063,8.80664062 L0.2109375,8.80664062 Z" id="Path"></path>
            </g>
            <g id="B" transform="translate(598.669362, 2.499851)">
                <polygon id="Path" points="4.16601562 25.6992188 0 25.6992188 0 0 14.5019531 0 14.5019531 3.55078125 4.16601562 3.55078125 4.16601562 11.5839844 13.8515625 11.5839844 13.8515625 15.1523437 4.16601562 15.1523437"></polygon>
            </g>
            <g id="B" transform="translate(688.861167, 2.095554)">
                <path d="M24.0820312,13.21875 C24.0820312,17.4023438 23.0361328,20.6542969 20.9443359,22.9746094 C18.8525391,25.2949219 15.890625,26.4550781 12.0585938,26.4550781 C8.1796875,26.4550781 5.20019531,25.3037109 3.12011719,23.0009766 C1.04003906,20.6982422 0,17.4257812 0,13.1835938 C0,8.94140625 1.04589844,5.68359375 3.13769531,3.41015625 C5.22949219,1.13671875 8.21484375,0 12.09375,0 C15.9140625,0 18.8671875,1.15429688 20.953125,3.46289062 C23.0390625,5.77148438 24.0820312,9.0234375 24.0820312,13.21875 Z M4.46484375,13.21875 C4.46484375,16.3828125 5.10351562,18.7822266 6.38085938,20.4169922 C7.65820312,22.0517578 9.55078125,22.8691406 12.0585938,22.8691406 C14.5546875,22.8691406 16.4384766,22.0605469 17.7099609,20.4433594 C18.9814453,18.8261719 19.6171875,16.4179688 19.6171875,13.21875 C19.6171875,10.0664062 18.9873047,7.67578125 17.7275391,6.046875 C16.4677734,4.41796875 14.5898438,3.60351562 12.09375,3.60351562 C9.57421875,3.60351562 7.67285156,4.41796875 6.38964844,6.046875 C5.10644531,7.67578125 4.46484375,10.0664062 4.46484375,13.21875 Z" id="Shape"></path>
            </g>
            <g id="B" transform="translate(782.311757, 2.499851)">
                <path d="M20.3730469,0 L20.3730469,16.6289062 C20.3730469,18.5273438 19.9658203,20.1884766 19.1513672,21.6123047 C18.3369141,23.0361328 17.1591797,24.1318359 15.6181641,24.8994141 C14.0771484,25.6669922 12.234375,26.0507812 10.0898438,26.0507812 C6.90234375,26.0507812 4.42382812,25.2070312 2.65429688,23.5195312 C0.884765625,21.8320312 0,19.5117188 0,16.5585938 L0,0 L4.21875,0 L4.21875,16.2597656 C4.21875,18.3808594 4.7109375,19.9453125 5.6953125,20.953125 C6.6796875,21.9609375 8.19140625,22.4648438 10.2304688,22.4648438 C14.1914062,22.4648438 16.171875,20.3847656 16.171875,16.2246094 L16.171875,0 L20.3730469,0 Z" id="Path"></path>
            </g>
            <g id="B" transform="translate(0.000000, 164.095554)">
                <path d="M24.0820312,13.21875 C24.0820312,16.3359375 23.4873047,18.9609375 22.2978516,21.09375 C21.1083984,23.2265625 19.3769531,24.7265625 17.1035156,25.59375 L23.2558594,32.2207031 L17.5957031,32.2207031 L12.7441406,26.4550781 L12.0585938,26.4550781 C8.1796875,26.4550781 5.20019531,25.3037109 3.12011719,23.0009766 C1.04003906,20.6982422 0,17.4257812 0,13.1835938 C0,8.94140625 1.04589844,5.68359375 3.13769531,3.41015625 C5.22949219,1.13671875 8.21484375,0 12.09375,0 C15.9140625,0 18.8671875,1.15429688 20.953125,3.46289062 C23.0390625,5.77148438 24.0820312,9.0234375 24.0820312,13.21875 Z M4.46484375,13.21875 C4.46484375,16.3828125 5.10351562,18.7822266 6.38085938,20.4169922 C7.65820312,22.0517578 9.55078125,22.8691406 12.0585938,22.8691406 C14.5546875,22.8691406 16.4384766,22.0605469 17.7099609,20.4433594 C18.9814453,18.8261719 19.6171875,16.4179688 19.6171875,13.21875 C19.6171875,10.0664062 18.9873047,7.67578125 17.7275391,6.046875 C16.4677734,4.41796875 14.5898438,3.60351562 12.09375,3.60351562 C9.57421875,3.60351562 7.67285156,4.41796875 6.38964844,6.046875 C5.10644531,7.67578125 4.46484375,10.0664062 4.46484375,13.21875 Z" id="Shape"></path>
            </g>
            <g id="B" transform="translate(271.324427, 2.499851)">
                <path d="M26.8945312,25.6992188 L22.3242188,25.6992188 L17.9648438,10.3710938 C17.7773438,9.703125 17.5429688,8.73925781 17.2617188,7.47949219 C16.9804688,6.21972656 16.8105469,5.34375 16.7519531,4.8515625 C16.6347656,5.6015625 16.4443359,6.57421875 16.1806641,7.76953125 C15.9169922,8.96484375 15.6972656,9.85546875 15.5214844,10.4414062 L11.2675781,25.6992188 L6.69726562,25.6992188 L3.375,12.8320312 L0,0 L4.2890625,0 L7.96289062,14.9765625 C8.53710938,17.3789062 8.94726562,19.5 9.19335938,21.3398438 C9.32226562,20.34375 9.515625,19.2304688 9.7734375,18 C10.03125,16.7695312 10.265625,15.7734375 10.4765625,15.0117188 L14.6601563,0 L18.8261719,0 L23.1152344,15.0820312 C23.5253906,16.4765625 23.9589844,18.5625 24.4160156,21.3398438 C24.5917969,19.6640625 25.0136719,17.53125 25.6816406,14.9414062 L29.3378906,0 L33.5917969,0 L26.8945312,25.6992188 Z" id="Path"></path>
            </g>
            <g id="B" transform="translate(877.976211, -0.000000)">
                <path d="M2.8828125,32.8710938 C1.734375,32.8710938 0.7734375,32.7246094 0,32.4316406 L0,28.8984375 C0.984375,29.1445312 1.83984375,29.2675781 2.56640625,29.2675781 C4.86328125,29.2675781 6.01171875,27.8144531 6.01171875,24.9082031 L6.01171875,0 L10.2304688,0 L10.2304688,24.7675781 C10.2304688,27.3925781 9.60644531,29.3994141 8.35839844,30.7880859 C7.11035156,32.1767578 5.28515625,32.8710938 2.8828125,32.8710938 Z" id="Path"></path>
            </g>
            <g id="alt" transform="translate(3.186974, 111.699090)">
                <path d="M4.51171875,9.1171875 L4.23632812,8.21484375 L4.18945312,8.21484375 C3.87695312,8.609375 3.5625,8.87792969 3.24609375,9.02050781 C2.9296875,9.16308594 2.5234375,9.234375 2.02734375,9.234375 C1.390625,9.234375 0.893554687,9.0625 0.536132812,8.71875 C0.178710938,8.375 0,7.88867188 0,7.25976562 C0,6.59179688 0.248046875,6.08789062 0.744140625,5.74804688 C1.24023438,5.40820312 1.99609375,5.22265625 3.01171875,5.19140625 L4.13085938,5.15625 L4.13085938,4.81054688 C4.13085938,4.39648438 4.03417969,4.08691406 3.84082031,3.88183594 C3.64746094,3.67675781 3.34765625,3.57421875 2.94140625,3.57421875 C2.609375,3.57421875 2.29101562,3.62304688 1.98632812,3.72070312 C1.68164062,3.81835938 1.38867188,3.93359375 1.10742188,4.06640625 L0.662109375,3.08203125 C1.01367188,2.8984375 1.3984375,2.75878906 1.81640625,2.66308594 C2.234375,2.56738281 2.62890625,2.51953125 3,2.51953125 C3.82421875,2.51953125 4.44628906,2.69921875 4.86621094,3.05859375 C5.28613281,3.41796875 5.49609375,3.98242188 5.49609375,4.75195312 L5.49609375,9.1171875 L4.51171875,9.1171875 Z M2.4609375,8.1796875 C2.9609375,8.1796875 3.36230469,8.04003906 3.66503906,7.76074219 C3.96777344,7.48144531 4.11914062,7.08984375 4.11914062,6.5859375 L4.11914062,6.0234375 L3.28710938,6.05859375 C2.63867188,6.08203125 2.16699219,6.19042969 1.87207031,6.38378906 C1.57714844,6.57714844 1.4296875,6.87304688 1.4296875,7.27148438 C1.4296875,7.56054688 1.515625,7.78417969 1.6875,7.94238281 C1.859375,8.10058594 2.1171875,8.1796875 2.4609375,8.1796875 Z" id="Shape"></path>
                <polygon id="Path" points="8.75742187 9.1171875 7.38046875 9.1171875 7.38046875 0 8.75742187 0"></polygon>
                <path d="M13.1027344,8.12109375 C13.4386719,8.12109375 13.7746094,8.06835938 14.1105469,7.96289062 L14.1105469,9 C13.9582031,9.06640625 13.7619141,9.12207031 13.5216797,9.16699219 C13.2814453,9.21191406 13.0324219,9.234375 12.7746094,9.234375 C11.4699219,9.234375 10.8175781,8.546875 10.8175781,7.171875 L10.8175781,3.6796875 L9.9328125,3.6796875 L9.9328125,3.0703125 L10.8820312,2.56640625 L11.3507812,1.1953125 L12.2003906,1.1953125 L12.2003906,2.63671875 L14.0460937,2.63671875 L14.0460937,3.6796875 L12.2003906,3.6796875 L12.2003906,7.1484375 C12.2003906,7.48046875 12.2833984,7.72558594 12.4494141,7.88378906 C12.6154297,8.04199219 12.8332031,8.12109375 13.1027344,8.12109375 Z" id="Path"></path>
            </g>
            <g id="N" transform="translate(0.801132, 79.200937)">
                <path d="M21.4101562,25.6992188 L16.2597656,25.6992188 L3.62109375,5.22070312 L3.48046875,5.22070312 L3.56835938,6.36328125 C3.73242188,8.54296875 3.81445312,10.5351562 3.81445312,12.3398438 L3.81445312,25.6992188 L0,25.6992188 L0,0 L5.09765625,0 L17.7011719,20.3730469 L17.8066406,20.3730469 C17.7832031,20.1035156 17.7363281,19.1220703 17.6660156,17.4287109 C17.5957031,15.7353516 17.5605469,14.4140625 17.5605469,13.4648437 L17.5605469,0 L21.4101562,0 L21.4101562,25.6992188 Z" id="Path"></path>
            </g>
            <g id="alt" transform="translate(93.612369, 111.699090)">
                <path d="M3,9.234375 C2.01953125,9.234375 1.27441406,8.94824219 0.764648438,8.37597656 C0.254882812,7.80371094 0,6.98242188 0,5.91210938 C0,4.82226562 0.266601562,3.984375 0.799804688,3.3984375 C1.33300781,2.8125 2.10351562,2.51953125 3.11132812,2.51953125 C3.79492188,2.51953125 4.41015625,2.64648438 4.95703125,2.90039062 L4.54101562,4.0078125 C3.95898438,3.78125 3.47851562,3.66796875 3.09960938,3.66796875 C1.97851562,3.66796875 1.41796875,4.41210938 1.41796875,5.90039062 C1.41796875,6.62695312 1.55761719,7.17285156 1.83691406,7.53808594 C2.11621094,7.90332031 2.52539062,8.0859375 3.06445312,8.0859375 C3.67773438,8.0859375 4.2578125,7.93359375 4.8046875,7.62890625 L4.8046875,8.83007812 C4.55859375,8.97460938 4.29589844,9.078125 4.01660156,9.140625 C3.73730469,9.203125 3.3984375,9.234375 3,9.234375 Z" id="Path"></path>
                <path d="M8.7046875,8.12109375 C9.040625,8.12109375 9.3765625,8.06835938 9.7125,7.96289062 L9.7125,9 C9.56015625,9.06640625 9.36386719,9.12207031 9.12363281,9.16699219 C8.88339844,9.21191406 8.634375,9.234375 8.3765625,9.234375 C7.071875,9.234375 6.41953125,8.546875 6.41953125,7.171875 L6.41953125,3.6796875 L5.53476562,3.6796875 L5.53476562,3.0703125 L6.48398437,2.56640625 L6.95273437,1.1953125 L7.80234375,1.1953125 L7.80234375,2.63671875 L9.64804687,2.63671875 L9.64804687,3.6796875 L7.80234375,3.6796875 L7.80234375,7.1484375 C7.80234375,7.48046875 7.88535156,7.72558594 8.05136719,7.88378906 C8.21738281,8.04199219 8.43515625,8.12109375 8.7046875,8.12109375 Z" id="Path"></path>
                <path d="M14.2570312,2.51953125 C14.534375,2.51953125 14.7628906,2.5390625 14.9425781,2.578125 L14.8078125,3.86132812 C14.6125,3.81445312 14.409375,3.79101562 14.1984375,3.79101562 C13.6476562,3.79101562 13.2013672,3.97070312 12.8595703,4.33007812 C12.5177734,4.68945312 12.346875,5.15625 12.346875,5.73046875 L12.346875,9.1171875 L10.9699219,9.1171875 L10.9699219,2.63671875 L12.0480469,2.63671875 L12.2296875,3.77929688 L12.3,3.77929688 C12.5148437,3.39257812 12.7951172,3.0859375 13.1408203,2.859375 C13.4865234,2.6328125 13.8585937,2.51953125 14.2570312,2.51953125 Z" id="Path"></path>
                <polygon id="Path" points="17.4832031 9.1171875 16.10625 9.1171875 16.10625 0 17.4832031 0"></polygon>
            </g>
            <g id="N" transform="translate(94.885352, 79.200937)">
                <path d="M4.20117188,11.953125 L7.11914062,11.953125 C9.07617188,11.953125 10.4941406,11.5898438 11.3730469,10.8632812 C12.2519531,10.1367188 12.6914063,9.05859375 12.6914063,7.62890625 C12.6914063,6.17578125 12.2167969,5.1328125 11.2675781,4.5 C10.3183594,3.8671875 8.88867188,3.55078125 6.97851562,3.55078125 L4.20117188,3.55078125 L4.20117188,11.953125 Z M4.20117187,15.4335937 L4.20117187,25.6992188 L0,25.6992188 L0,0 L7.25976562,0 C10.5761719,0 13.03125,0.62109375 14.625,1.86328125 C16.21875,3.10546875 17.015625,4.98046875 17.015625,7.48828125 C17.015625,10.6875 15.3515625,12.9667969 12.0234375,14.3261719 L19.2832031,25.6992188 L14.5019531,25.6992188 L8.34960937,15.4335937 L4.20117187,15.4335937 Z" id="Shape"></path>
            </g>
            <g id="alt" transform="translate(183.150655, 111.699090)">
                <path d="M3,9.234375 C2.01953125,9.234375 1.27441406,8.94824219 0.764648438,8.37597656 C0.254882812,7.80371094 0,6.98242188 0,5.91210938 C0,4.82226562 0.266601562,3.984375 0.799804688,3.3984375 C1.33300781,2.8125 2.10351562,2.51953125 3.11132812,2.51953125 C3.79492188,2.51953125 4.41015625,2.64648438 4.95703125,2.90039062 L4.54101562,4.0078125 C3.95898438,3.78125 3.47851562,3.66796875 3.09960938,3.66796875 C1.97851562,3.66796875 1.41796875,4.41210938 1.41796875,5.90039062 C1.41796875,6.62695312 1.55761719,7.17285156 1.83691406,7.53808594 C2.11621094,7.90332031 2.52539062,8.0859375 3.06445312,8.0859375 C3.67773438,8.0859375 4.2578125,7.93359375 4.8046875,7.62890625 L4.8046875,8.83007812 C4.55859375,8.97460938 4.29589844,9.078125 4.01660156,9.140625 C3.73730469,9.203125 3.3984375,9.234375 3,9.234375 Z" id="Path"></path>
                <path d="M11.7515625,9.1171875 L10.36875,9.1171875 L10.36875,5.12109375 C10.36875,4.625 10.275,4.25488281 10.0875,4.01074219 C9.9,3.76660156 9.60703125,3.64453125 9.20859375,3.64453125 C8.67734375,3.64453125 8.28769531,3.81738281 8.03964844,4.16308594 C7.79160156,4.50878906 7.66757812,5.08398438 7.66757812,5.88867188 L7.66757812,9.1171875 L6.290625,9.1171875 L6.290625,2.63671875 L7.36875,2.63671875 L7.56210937,3.48632812 L7.63242187,3.48632812 C7.81210937,3.17773438 8.07285156,2.93945312 8.41464844,2.77148438 C8.75644531,2.60351562 9.13242187,2.51953125 9.54257812,2.51953125 C10.5386719,2.51953125 11.1988281,2.859375 11.5230469,3.5390625 L11.6167969,3.5390625 C11.8082031,3.21875 12.0777344,2.96875 12.4253906,2.7890625 C12.7730469,2.609375 13.1714844,2.51953125 13.6207031,2.51953125 C14.3941406,2.51953125 14.9576172,2.71484375 15.3111328,3.10546875 C15.6646484,3.49609375 15.8414062,4.09179688 15.8414062,4.89257812 L15.8414062,9.1171875 L14.4644531,9.1171875 L14.4644531,5.12109375 C14.4644531,4.625 14.3697266,4.25488281 14.1802734,4.01074219 C13.9908203,3.76660156 13.696875,3.64453125 13.2984375,3.64453125 C12.7632812,3.64453125 12.3716797,3.81152344 12.1236328,4.14550781 C11.8755859,4.47949219 11.7515625,4.9921875 11.7515625,5.68359375 L11.7515625,9.1171875 Z" id="Path"></path>
                <path d="M19.9113281,9.234375 C19.1027344,9.234375 18.471875,8.94140625 18.01875,8.35546875 C17.565625,7.76953125 17.3390625,6.94726562 17.3390625,5.88867188 C17.3390625,4.82617188 17.5685547,3.99902344 18.0275391,3.40722656 C18.4865234,2.81542969 19.1222656,2.51953125 19.9347656,2.51953125 C20.7863281,2.51953125 21.4347656,2.83398438 21.8800781,3.46289062 L21.9503906,3.46289062 C21.8839844,2.99804688 21.8507812,2.63085938 21.8507812,2.36132812 L21.8507812,0 L23.2335937,0 L23.2335937,9.1171875 L22.1554687,9.1171875 L21.9152344,8.26757812 L21.8507812,8.26757812 C21.409375,8.91210938 20.7628906,9.234375 19.9113281,9.234375 Z M20.2804687,8.12109375 C20.846875,8.12109375 21.2589844,7.96191406 21.5167969,7.64355469 C21.7746094,7.32519531 21.9074219,6.80859375 21.9152344,6.09375 L21.9152344,5.90039062 C21.9152344,5.08398438 21.7824219,4.50390625 21.5167969,4.16015625 C21.2511719,3.81640625 20.8351562,3.64453125 20.26875,3.64453125 C19.784375,3.64453125 19.4113281,3.84082031 19.1496094,4.23339844 C18.8878906,4.62597656 18.7570312,5.18554688 18.7570312,5.91210938 C18.7570312,6.63085938 18.8839844,7.17871094 19.1378906,7.55566406 C19.3917969,7.93261719 19.7726562,8.12109375 20.2804687,8.12109375 Z" id="Shape"></path>
            </g>
            <g id="N" transform="translate(185.734380, 79.200937)">
                <polygon id="Path" points="11.7597656 25.6992188 7.55859375 25.6992188 7.55859375 3.60351562 0 3.60351562 0 0 19.3183594 0 19.3183594 3.60351562 11.7597656 3.60351562"></polygon>
            </g>
            <g id="shift" transform="translate(275.086011, 111.634637)">
                <path d="M4.76367188,7.3359375 C4.76367188,7.96875 4.53320312,8.45410156 4.07226562,8.79199219 C3.61132812,9.12988281 2.95117188,9.29882812 2.09179688,9.29882812 C1.22851562,9.29882812 0.53515625,9.16796875 0.01171875,8.90625 L0.01171875,7.71679688 C0.7734375,8.06835938 1.48242188,8.24414062 2.13867188,8.24414062 C2.98632812,8.24414062 3.41015625,7.98828125 3.41015625,7.4765625 C3.41015625,7.3125 3.36328125,7.17578125 3.26953125,7.06640625 C3.17578125,6.95703125 3.02148438,6.84375 2.80664062,6.7265625 C2.59179688,6.609375 2.29296875,6.4765625 1.91015625,6.328125 C1.1640625,6.0390625 0.659179688,5.75 0.395507812,5.4609375 C0.131835938,5.171875 0,4.796875 0,4.3359375 C0,3.78125 0.223632812,3.35058594 0.670898438,3.04394531 C1.11816406,2.73730469 1.7265625,2.58398438 2.49609375,2.58398438 C3.2578125,2.58398438 3.97851562,2.73828125 4.65820312,3.046875 L4.21289062,4.08398438 C3.51367188,3.79492188 2.92578125,3.65039062 2.44921875,3.65039062 C1.72265625,3.65039062 1.359375,3.85742188 1.359375,4.27148438 C1.359375,4.47460938 1.45410156,4.64648438 1.64355469,4.78710938 C1.83300781,4.92773438 2.24609375,5.12109375 2.8828125,5.3671875 C3.41796875,5.57421875 3.80664062,5.76367188 4.04882812,5.93554688 C4.29101562,6.10742188 4.47070312,6.30566406 4.58789062,6.53027344 C4.70507812,6.75488281 4.76367188,7.0234375 4.76367188,7.3359375 Z" id="Path"></path>
                <path d="M11.915625,9.18164062 L10.5328125,9.18164062 L10.5328125,5.19726562 C10.5328125,4.69726562 10.4322266,4.32421875 10.2310547,4.078125 C10.0298828,3.83203125 9.71054687,3.70898438 9.27304687,3.70898438 C8.69492187,3.70898438 8.27011719,3.88183594 7.99863281,4.22753906 C7.72714844,4.57324219 7.59140625,5.15234375 7.59140625,5.96484375 L7.59140625,9.18164062 L6.21445312,9.18164062 L6.21445312,0.064453125 L7.59140625,0.064453125 L7.59140625,2.37890625 C7.59140625,2.75 7.56796875,3.14648438 7.52109375,3.56835938 L7.60898437,3.56835938 C7.79648437,3.25585938 8.05722656,3.01367188 8.39121094,2.84179688 C8.72519531,2.66992188 9.11484375,2.58398438 9.56015625,2.58398438 C11.1304687,2.58398438 11.915625,3.375 11.915625,4.95703125 L11.915625,9.18164062 Z" id="Path"></path>
                <path d="M15.1710937,9.18164062 L13.7941406,9.18164062 L13.7941406,2.70117188 L15.1710937,2.70117188 L15.1710937,9.18164062 Z M13.7121094,0.984375 C13.7121094,0.73828125 13.7794922,0.548828125 13.9142578,0.416015625 C14.0490234,0.283203125 14.2414062,0.216796875 14.4914062,0.216796875 C14.7335937,0.216796875 14.9220703,0.283203125 15.0568359,0.416015625 C15.1916016,0.548828125 15.2589844,0.73828125 15.2589844,0.984375 C15.2589844,1.21875 15.1916016,1.40332031 15.0568359,1.53808594 C14.9220703,1.67285156 14.7335937,1.74023438 14.4914062,1.74023438 C14.2414062,1.74023438 14.0490234,1.67285156 13.9142578,1.53808594 C13.7794922,1.40332031 13.7121094,1.21875 13.7121094,0.984375 Z" id="Shape"></path>
                <path d="M20.3542969,3.74414062 L18.7722656,3.74414062 L18.7722656,9.18164062 L17.3894531,9.18164062 L17.3894531,3.74414062 L16.3230469,3.74414062 L16.3230469,3.09960938 L17.3894531,2.67773438 L17.3894531,2.25585938 C17.3894531,1.49023438 17.5691406,0.922851562 17.9285156,0.553710938 C18.2878906,0.184570312 18.8367187,0 19.575,0 C20.059375,0 20.5359375,0.080078125 21.0046875,0.240234375 L20.6414062,1.28320312 C20.3015625,1.17382812 19.9773437,1.11914062 19.66875,1.11914062 C19.35625,1.11914062 19.1287109,1.21582031 18.9861328,1.40917969 C18.8435547,1.60253906 18.7722656,1.89257812 18.7722656,2.27929688 L18.7722656,2.70117188 L20.3542969,2.70117188 L20.3542969,3.74414062 Z" id="Path"></path>
                <path d="M23.8324219,8.18554688 C24.1683594,8.18554688 24.5042969,8.1328125 24.8402344,8.02734375 L24.8402344,9.06445312 C24.6878906,9.13085938 24.4916016,9.18652344 24.2513672,9.23144531 C24.0111328,9.27636719 23.7621094,9.29882812 23.5042969,9.29882812 C22.1996094,9.29882812 21.5472656,8.61132812 21.5472656,7.23632812 L21.5472656,3.74414062 L20.6625,3.74414062 L20.6625,3.13476562 L21.6117187,2.63085938 L22.0804687,1.25976562 L22.9300781,1.25976562 L22.9300781,2.70117188 L24.7757812,2.70117188 L24.7757812,3.74414062 L22.9300781,3.74414062 L22.9300781,7.21289062 C22.9300781,7.54492188 23.0130859,7.79003906 23.1791016,7.94824219 C23.3451172,8.10644531 23.5628906,8.18554688 23.8324219,8.18554688 Z" id="Path"></path>
            </g>
            <g id="S" transform="translate(279.685946, 78.831796)">
                <path d="M16.453125,19.0898438 C16.453125,21.375 15.6269531,23.1679688 13.9746094,24.46875 C12.3222656,25.7695312 10.0429688,26.4199219 7.13671875,26.4199219 C4.23046875,26.4199219 1.8515625,25.96875 0,25.0664062 L0,21.09375 C1.171875,21.6445312 2.41699219,22.078125 3.73535156,22.3945312 C5.05371094,22.7109375 6.28125,22.8691406 7.41796875,22.8691406 C9.08203125,22.8691406 10.3095703,22.5527344 11.1005859,21.9199219 C11.8916016,21.2871094 12.2871094,20.4375 12.2871094,19.3710938 C12.2871094,18.4101562 11.9238281,17.5957031 11.1972656,16.9277344 C10.4707031,16.2597656 8.97070312,15.46875 6.69726562,14.5546875 C4.35351562,13.6054687 2.70117188,12.5214844 1.74023438,11.3027344 C0.779296875,10.0839844 0.298828125,8.61914062 0.298828125,6.90820313 C0.298828125,4.76367188 1.06054688,3.07617188 2.58398438,1.84570312 C4.10742188,0.615234375 6.15234375,0 8.71875,0 C11.1796875,0 13.6289062,0.5390625 16.0664062,1.6171875 L14.7304688,5.04492188 C12.4453125,4.08398438 10.40625,3.60351562 8.61328125,3.60351562 C7.25390625,3.60351562 6.22265625,3.89941406 5.51953125,4.49121094 C4.81640625,5.08300781 4.46484375,5.86523438 4.46484375,6.83789062 C4.46484375,7.50585938 4.60546875,8.07714844 4.88671875,8.55175781 C5.16796875,9.02636719 5.63085938,9.47460938 6.27539062,9.89648438 C6.91992188,10.3183594 8.08007812,10.875 9.75585938,11.5664062 C11.6425781,12.3515625 13.0253906,13.0839844 13.9042969,13.7636719 C14.7832031,14.4433594 15.4277344,15.2109375 15.8378906,16.0664062 C16.2480469,16.921875 16.453125,17.9296875 16.453125,19.0898438 Z" id="Path"></path>
            </g>
            <g id="shift" transform="translate(593.293254, 111.634637)">
                <path d="M4.76367188,7.3359375 C4.76367188,7.96875 4.53320312,8.45410156 4.07226562,8.79199219 C3.61132812,9.12988281 2.95117188,9.29882812 2.09179688,9.29882812 C1.22851562,9.29882812 0.53515625,9.16796875 0.01171875,8.90625 L0.01171875,7.71679688 C0.7734375,8.06835938 1.48242188,8.24414062 2.13867188,8.24414062 C2.98632812,8.24414062 3.41015625,7.98828125 3.41015625,7.4765625 C3.41015625,7.3125 3.36328125,7.17578125 3.26953125,7.06640625 C3.17578125,6.95703125 3.02148438,6.84375 2.80664062,6.7265625 C2.59179688,6.609375 2.29296875,6.4765625 1.91015625,6.328125 C1.1640625,6.0390625 0.659179688,5.75 0.395507812,5.4609375 C0.131835938,5.171875 0,4.796875 0,4.3359375 C0,3.78125 0.223632812,3.35058594 0.670898438,3.04394531 C1.11816406,2.73730469 1.7265625,2.58398438 2.49609375,2.58398438 C3.2578125,2.58398438 3.97851562,2.73828125 4.65820312,3.046875 L4.21289062,4.08398438 C3.51367188,3.79492188 2.92578125,3.65039062 2.44921875,3.65039062 C1.72265625,3.65039062 1.359375,3.85742188 1.359375,4.27148438 C1.359375,4.47460938 1.45410156,4.64648438 1.64355469,4.78710938 C1.83300781,4.92773438 2.24609375,5.12109375 2.8828125,5.3671875 C3.41796875,5.57421875 3.80664062,5.76367188 4.04882812,5.93554688 C4.29101562,6.10742188 4.47070312,6.30566406 4.58789062,6.53027344 C4.70507812,6.75488281 4.76367188,7.0234375 4.76367188,7.3359375 Z" id="Path"></path>
                <path d="M11.915625,9.18164062 L10.5328125,9.18164062 L10.5328125,5.19726562 C10.5328125,4.69726562 10.4322266,4.32421875 10.2310547,4.078125 C10.0298828,3.83203125 9.71054687,3.70898438 9.27304687,3.70898438 C8.69492187,3.70898438 8.27011719,3.88183594 7.99863281,4.22753906 C7.72714844,4.57324219 7.59140625,5.15234375 7.59140625,5.96484375 L7.59140625,9.18164062 L6.21445312,9.18164062 L6.21445312,0.064453125 L7.59140625,0.064453125 L7.59140625,2.37890625 C7.59140625,2.75 7.56796875,3.14648438 7.52109375,3.56835938 L7.60898437,3.56835938 C7.79648437,3.25585938 8.05722656,3.01367188 8.39121094,2.84179688 C8.72519531,2.66992188 9.11484375,2.58398438 9.56015625,2.58398438 C11.1304687,2.58398438 11.915625,3.375 11.915625,4.95703125 L11.915625,9.18164062 Z" id="Path"></path>
                <path d="M15.1710937,9.18164062 L13.7941406,9.18164062 L13.7941406,2.70117188 L15.1710937,2.70117188 L15.1710937,9.18164062 Z M13.7121094,0.984375 C13.7121094,0.73828125 13.7794922,0.548828125 13.9142578,0.416015625 C14.0490234,0.283203125 14.2414062,0.216796875 14.4914062,0.216796875 C14.7335937,0.216796875 14.9220703,0.283203125 15.0568359,0.416015625 C15.1916016,0.548828125 15.2589844,0.73828125 15.2589844,0.984375 C15.2589844,1.21875 15.1916016,1.40332031 15.0568359,1.53808594 C14.9220703,1.67285156 14.7335937,1.74023438 14.4914062,1.74023438 C14.2414062,1.74023438 14.0490234,1.67285156 13.9142578,1.53808594 C13.7794922,1.40332031 13.7121094,1.21875 13.7121094,0.984375 Z" id="Shape"></path>
                <path d="M20.3542969,3.74414062 L18.7722656,3.74414062 L18.7722656,9.18164062 L17.3894531,9.18164062 L17.3894531,3.74414062 L16.3230469,3.74414062 L16.3230469,3.09960938 L17.3894531,2.67773438 L17.3894531,2.25585938 C17.3894531,1.49023438 17.5691406,0.922851562 17.9285156,0.553710938 C18.2878906,0.184570312 18.8367187,0 19.575,0 C20.059375,0 20.5359375,0.080078125 21.0046875,0.240234375 L20.6414062,1.28320312 C20.3015625,1.17382812 19.9773437,1.11914062 19.66875,1.11914062 C19.35625,1.11914062 19.1287109,1.21582031 18.9861328,1.40917969 C18.8435547,1.60253906 18.7722656,1.89257812 18.7722656,2.27929688 L18.7722656,2.70117188 L20.3542969,2.70117188 L20.3542969,3.74414062 Z" id="Path"></path>
                <path d="M23.8324219,8.18554688 C24.1683594,8.18554688 24.5042969,8.1328125 24.8402344,8.02734375 L24.8402344,9.06445312 C24.6878906,9.13085938 24.4916016,9.18652344 24.2513672,9.23144531 C24.0111328,9.27636719 23.7621094,9.29882812 23.5042969,9.29882812 C22.1996094,9.29882812 21.5472656,8.61132812 21.5472656,7.23632812 L21.5472656,3.74414062 L20.6625,3.74414062 L20.6625,3.13476562 L21.6117187,2.63085938 L22.0804687,1.25976562 L22.9300781,1.25976562 L22.9300781,2.70117188 L24.7757812,2.70117188 L24.7757812,3.74414062 L22.9300781,3.74414062 L22.9300781,7.21289062 C22.9300781,7.54492188 23.0130859,7.79003906 23.1791016,7.94824219 C23.3451172,8.10644531 23.5628906,8.18554688 23.8324219,8.18554688 Z" id="Path"></path>
            </g>
            <g id="S" transform="translate(596.248818, 79.200937)">
                <polygon id="Path" points="20.2675781 25.6992188 16.0488281 25.6992188 16.0488281 14.1152344 4.20117188 14.1152344 4.20117188 25.6992188 0 25.6992188 0 0 4.20117188 0 4.20117188 10.5117188 16.0488281 10.5117188 16.0488281 0 20.2675781 0"></polygon>
            </g>
            <g id="alt" transform="translate(686.184860, 111.699090)">
                <path d="M3,9.234375 C2.01953125,9.234375 1.27441406,8.94824219 0.764648438,8.37597656 C0.254882812,7.80371094 0,6.98242188 0,5.91210938 C0,4.82226562 0.266601562,3.984375 0.799804688,3.3984375 C1.33300781,2.8125 2.10351562,2.51953125 3.11132812,2.51953125 C3.79492188,2.51953125 4.41015625,2.64648438 4.95703125,2.90039062 L4.54101562,4.0078125 C3.95898438,3.78125 3.47851562,3.66796875 3.09960938,3.66796875 C1.97851562,3.66796875 1.41796875,4.41210938 1.41796875,5.90039062 C1.41796875,6.62695312 1.55761719,7.17285156 1.83691406,7.53808594 C2.11621094,7.90332031 2.52539062,8.0859375 3.06445312,8.0859375 C3.67773438,8.0859375 4.2578125,7.93359375 4.8046875,7.62890625 L4.8046875,8.83007812 C4.55859375,8.97460938 4.29589844,9.078125 4.01660156,9.140625 C3.73730469,9.203125 3.3984375,9.234375 3,9.234375 Z" id="Path"></path>
                <path d="M11.7515625,9.1171875 L10.36875,9.1171875 L10.36875,5.12109375 C10.36875,4.625 10.275,4.25488281 10.0875,4.01074219 C9.9,3.76660156 9.60703125,3.64453125 9.20859375,3.64453125 C8.67734375,3.64453125 8.28769531,3.81738281 8.03964844,4.16308594 C7.79160156,4.50878906 7.66757812,5.08398438 7.66757812,5.88867188 L7.66757812,9.1171875 L6.290625,9.1171875 L6.290625,2.63671875 L7.36875,2.63671875 L7.56210937,3.48632812 L7.63242187,3.48632812 C7.81210937,3.17773438 8.07285156,2.93945312 8.41464844,2.77148438 C8.75644531,2.60351562 9.13242187,2.51953125 9.54257812,2.51953125 C10.5386719,2.51953125 11.1988281,2.859375 11.5230469,3.5390625 L11.6167969,3.5390625 C11.8082031,3.21875 12.0777344,2.96875 12.4253906,2.7890625 C12.7730469,2.609375 13.1714844,2.51953125 13.6207031,2.51953125 C14.3941406,2.51953125 14.9576172,2.71484375 15.3111328,3.10546875 C15.6646484,3.49609375 15.8414062,4.09179688 15.8414062,4.89257812 L15.8414062,9.1171875 L14.4644531,9.1171875 L14.4644531,5.12109375 C14.4644531,4.625 14.3697266,4.25488281 14.1802734,4.01074219 C13.9908203,3.76660156 13.696875,3.64453125 13.2984375,3.64453125 C12.7632812,3.64453125 12.3716797,3.81152344 12.1236328,4.14550781 C11.8755859,4.47949219 11.7515625,4.9921875 11.7515625,5.68359375 L11.7515625,9.1171875 Z" id="Path"></path>
                <path d="M19.9113281,9.234375 C19.1027344,9.234375 18.471875,8.94140625 18.01875,8.35546875 C17.565625,7.76953125 17.3390625,6.94726562 17.3390625,5.88867188 C17.3390625,4.82617188 17.5685547,3.99902344 18.0275391,3.40722656 C18.4865234,2.81542969 19.1222656,2.51953125 19.9347656,2.51953125 C20.7863281,2.51953125 21.4347656,2.83398438 21.8800781,3.46289062 L21.9503906,3.46289062 C21.8839844,2.99804688 21.8507812,2.63085938 21.8507812,2.36132812 L21.8507812,0 L23.2335937,0 L23.2335937,9.1171875 L22.1554687,9.1171875 L21.9152344,8.26757812 L21.8507812,8.26757812 C21.409375,8.91210938 20.7628906,9.234375 19.9113281,9.234375 Z M20.2804687,8.12109375 C20.846875,8.12109375 21.2589844,7.96191406 21.5167969,7.64355469 C21.7746094,7.32519531 21.9074219,6.80859375 21.9152344,6.09375 L21.9152344,5.90039062 C21.9152344,5.08398438 21.7824219,4.50390625 21.5167969,4.16015625 C21.2511719,3.81640625 20.8351562,3.64453125 20.26875,3.64453125 C19.784375,3.64453125 19.4113281,3.84082031 19.1496094,4.23339844 C18.8878906,4.62597656 18.7570312,5.18554688 18.7570312,5.91210938 C18.7570312,6.63085938 18.8839844,7.17871094 19.1378906,7.55566406 C19.3917969,7.93261719 19.7726562,8.12109375 20.2804687,8.12109375 Z" id="Shape"></path>
            </g>
            <g id="N" transform="translate(686.544952, 79.095468)">
                <path d="M19.3359375,25.8046875 L16.7695312,18.6679688 L6.94335937,18.6679688 L4.4296875,25.8046875 L0,25.8046875 L9.61523438,0 L14.1855469,0 L23.8007812,25.8046875 L19.3359375,25.8046875 Z M15.6621094,15.046875 L13.2539062,8.05078125 C13.078125,7.58203125 12.8349609,6.84375 12.5244141,5.8359375 C12.2138672,4.828125 12,4.08984375 11.8828125,3.62109375 C11.5664062,5.0625 11.1035156,6.63867188 10.4941406,8.34960938 L8.17382812,15.046875 L15.6621094,15.046875 Z" id="Shape"></path>
            </g>
            <g id="alt" transform="translate(781.473536, 111.699090)">
                <path d="M3,9.234375 C2.01953125,9.234375 1.27441406,8.94824219 0.764648438,8.37597656 C0.254882812,7.80371094 0,6.98242188 0,5.91210938 C0,4.82226562 0.266601562,3.984375 0.799804688,3.3984375 C1.33300781,2.8125 2.10351562,2.51953125 3.11132812,2.51953125 C3.79492188,2.51953125 4.41015625,2.64648438 4.95703125,2.90039062 L4.54101562,4.0078125 C3.95898438,3.78125 3.47851562,3.66796875 3.09960938,3.66796875 C1.97851562,3.66796875 1.41796875,4.41210938 1.41796875,5.90039062 C1.41796875,6.62695312 1.55761719,7.17285156 1.83691406,7.53808594 C2.11621094,7.90332031 2.52539062,8.0859375 3.06445312,8.0859375 C3.67773438,8.0859375 4.2578125,7.93359375 4.8046875,7.62890625 L4.8046875,8.83007812 C4.55859375,8.97460938 4.29589844,9.078125 4.01660156,9.140625 C3.73730469,9.203125 3.3984375,9.234375 3,9.234375 Z" id="Path"></path>
                <path d="M8.7046875,8.12109375 C9.040625,8.12109375 9.3765625,8.06835938 9.7125,7.96289062 L9.7125,9 C9.56015625,9.06640625 9.36386719,9.12207031 9.12363281,9.16699219 C8.88339844,9.21191406 8.634375,9.234375 8.3765625,9.234375 C7.071875,9.234375 6.41953125,8.546875 6.41953125,7.171875 L6.41953125,3.6796875 L5.53476562,3.6796875 L5.53476562,3.0703125 L6.48398437,2.56640625 L6.95273437,1.1953125 L7.80234375,1.1953125 L7.80234375,2.63671875 L9.64804687,2.63671875 L9.64804687,3.6796875 L7.80234375,3.6796875 L7.80234375,7.1484375 C7.80234375,7.48046875 7.88535156,7.72558594 8.05136719,7.88378906 C8.21738281,8.04199219 8.43515625,8.12109375 8.7046875,8.12109375 Z" id="Path"></path>
                <path d="M14.2570312,2.51953125 C14.534375,2.51953125 14.7628906,2.5390625 14.9425781,2.578125 L14.8078125,3.86132812 C14.6125,3.81445312 14.409375,3.79101562 14.1984375,3.79101562 C13.6476562,3.79101562 13.2013672,3.97070312 12.8595703,4.33007812 C12.5177734,4.68945312 12.346875,5.15625 12.346875,5.73046875 L12.346875,9.1171875 L10.9699219,9.1171875 L10.9699219,2.63671875 L12.0480469,2.63671875 L12.2296875,3.77929688 L12.3,3.77929688 C12.5148437,3.39257812 12.7951172,3.0859375 13.1408203,2.859375 C13.4865234,2.6328125 13.8585937,2.51953125 14.2570312,2.51953125 Z" id="Path"></path>
                <polygon id="Path" points="17.4832031 9.1171875 16.10625 9.1171875 16.10625 0 17.4832031 0"></polygon>
            </g>
            <g id="N" transform="translate(784.205503, 79.200937)">
                <polygon id="Path" points="14.5371094 25.6992188 0 25.6992188 0 0 14.5371094 0 14.5371094 3.55078125 4.20117188 3.55078125 4.20117188 10.546875 13.8867188 10.546875 13.8867188 14.0625 4.20117188 14.0625 4.20117188 22.1308594 14.5371094 22.1308594"></polygon>
            </g>
            <g id="alt" transform="translate(875.875103, 111.699090)">
                <path d="M4.51171875,9.1171875 L4.23632812,8.21484375 L4.18945312,8.21484375 C3.87695312,8.609375 3.5625,8.87792969 3.24609375,9.02050781 C2.9296875,9.16308594 2.5234375,9.234375 2.02734375,9.234375 C1.390625,9.234375 0.893554687,9.0625 0.536132812,8.71875 C0.178710938,8.375 0,7.88867188 0,7.25976562 C0,6.59179688 0.248046875,6.08789062 0.744140625,5.74804688 C1.24023438,5.40820312 1.99609375,5.22265625 3.01171875,5.19140625 L4.13085938,5.15625 L4.13085938,4.81054688 C4.13085938,4.39648438 4.03417969,4.08691406 3.84082031,3.88183594 C3.64746094,3.67675781 3.34765625,3.57421875 2.94140625,3.57421875 C2.609375,3.57421875 2.29101562,3.62304688 1.98632812,3.72070312 C1.68164062,3.81835938 1.38867188,3.93359375 1.10742188,4.06640625 L0.662109375,3.08203125 C1.01367188,2.8984375 1.3984375,2.75878906 1.81640625,2.66308594 C2.234375,2.56738281 2.62890625,2.51953125 3,2.51953125 C3.82421875,2.51953125 4.44628906,2.69921875 4.86621094,3.05859375 C5.28613281,3.41796875 5.49609375,3.98242188 5.49609375,4.75195312 L5.49609375,9.1171875 L4.51171875,9.1171875 Z M2.4609375,8.1796875 C2.9609375,8.1796875 3.36230469,8.04003906 3.66503906,7.76074219 C3.96777344,7.48144531 4.11914062,7.08984375 4.11914062,6.5859375 L4.11914062,6.0234375 L3.28710938,6.05859375 C2.63867188,6.08203125 2.16699219,6.19042969 1.87207031,6.38378906 C1.57714844,6.57714844 1.4296875,6.87304688 1.4296875,7.27148438 C1.4296875,7.56054688 1.515625,7.78417969 1.6875,7.94238281 C1.859375,8.10058594 2.1171875,8.1796875 2.4609375,8.1796875 Z" id="Shape"></path>
                <polygon id="Path" points="8.75742187 9.1171875 7.38046875 9.1171875 7.38046875 0 8.75742187 0"></polygon>
                <path d="M13.1027344,8.12109375 C13.4386719,8.12109375 13.7746094,8.06835938 14.1105469,7.96289062 L14.1105469,9 C13.9582031,9.06640625 13.7619141,9.12207031 13.5216797,9.16699219 C13.2814453,9.21191406 13.0324219,9.234375 12.7746094,9.234375 C11.4699219,9.234375 10.8175781,8.546875 10.8175781,7.171875 L10.8175781,3.6796875 L9.9328125,3.6796875 L9.9328125,3.0703125 L10.8820312,2.56640625 L11.3507812,1.1953125 L12.2003906,1.1953125 L12.2003906,2.63671875 L14.0460937,2.63671875 L14.0460937,3.6796875 L12.2003906,3.6796875 L12.2003906,7.1484375 C12.2003906,7.48046875 12.2833984,7.72558594 12.4494141,7.88378906 C12.6154297,8.04199219 12.8332031,8.12109375 13.1027344,8.12109375 Z" id="Path"></path>
            </g>
            <g id="N" transform="translate(881.171718, 79.200937)">
                <polygon id="Path" points="0 25.6992188 0 0 4.20117188 0 4.20117188 25.6992188"></polygon>
            </g>
        </g>
    </g>
</svg>