<?xml version="1.0" encoding="UTF-8"?>
<svg width="1021px" height="212px" viewBox="0 0 1021 212" version="1.1" xmlns="http://www.w3.org/2000/svg" xmlns:xlink="http://www.w3.org/1999/xlink">
    <title>hello-dark</title>
    <g id="hello-dark" stroke="none" stroke-width="1" fill="none" fill-rule="evenodd">
        <g id="graphics" transform="translate(88.000000, 37.000000)" fill="#4582A8" stroke="#EEEEEE" stroke-width="2">
            <rect id="Rectangle" x="607.807463" y="0" width="84.2618658" height="81"></rect>
            <rect id="Rectangle" x="151.951866" y="0" width="84.2618658" height="81"></rect>
            <rect id="Rectangle" x="455.855597" y="0" width="84.2618658" height="81"></rect>
            <rect id="Rectangle" x="759.759329" y="0" width="84.2618658" height="81"></rect>
            <rect id="Rectangle" x="0" y="0" width="84.2618658" height="81"></rect>
            <rect id="Rectangle" x="303.903732" y="0" width="84.2618658" height="81"></rect>
        </g>
        <g id="text" transform="translate(105.933634, 63.648438)" fill="#FFFFFF" fill-rule="nonzero">
            <g id="l" transform="translate(629.741848, 0.000000)">
                <polygon id="Path" points="4.13085938 27.3515625 0 27.3515625 0 0 4.13085938 0"></polygon>
            </g>
            <g id="H" transform="translate(166.893625, 1.652344)">
                <polygon id="Path" points="20.2675781 25.6992188 16.0488281 25.6992188 16.0488281 14.1152344 4.20117188 14.1152344 4.20117188 25.6992188 0 25.6992188 0 0 4.20117188 0 4.20117188 10.5117188 16.0488281 10.5117188 16.0488281 0 20.2675781 0"></polygon>
            </g>
            <g id="l" transform="translate(477.789982, 0.000000)">
                <polygon id="Path" points="4.13085938 27.3515625 0 27.3515625 0 0 4.13085938 0"></polygon>
            </g>
            <g id="o" transform="translate(776.245505, 7.558594)">
                <path d="M18.4042969,10.0371094 C18.4042969,13.2128906 17.5898438,15.6914062 15.9609375,17.4726562 C14.3320312,19.2539062 12.0644531,20.1445312 9.15820312,20.1445312 C7.34179688,20.1445312 5.73632812,19.734375 4.34179688,18.9140625 C2.94726562,18.09375 1.875,16.9160156 1.125,15.3808594 C0.375,13.8457031 0,12.0644531 0,10.0371094 C0,6.88476562 0.80859375,4.42382812 2.42578125,2.65429688 C4.04296875,0.884765625 6.32226562,0 9.26367188,0 C12.0761719,0 14.3027344,0.905273438 15.9433594,2.71582031 C17.5839844,4.52636719 18.4042969,6.96679687 18.4042969,10.0371094 Z M4.25390625,10.0371094 C4.25390625,14.5253906 5.91210938,16.7695312 9.22851562,16.7695312 C12.5097656,16.7695312 14.1503906,14.5253906 14.1503906,10.0371094 C14.1503906,5.59570312 12.4980469,3.375 9.19335938,3.375 C7.45898438,3.375 6.20214844,3.94921875 5.42285156,5.09765625 C4.64355469,6.24609375 4.25390625,7.89257812 4.25390625,10.0371094 Z" id="Shape"></path>
            </g>
            <g id="“" transform="translate(13.895345, 1.324475)">
                <path d="M7.29492188,8.41992188 C7.91601562,6.04101562 8.95898438,3.234375 10.4238281,0 L13.4121094,0 C12.6035156,3.46875 12.0175781,6.40429688 11.6542969,8.80664062 L7.55859375,8.80664062 L7.29492188,8.41992188 Z M0,8.41992188 C0.234375,7.44726562 0.650390625,6.13476562 1.24804688,4.48242188 C1.84570312,2.83007812 2.4609375,1.3359375 3.09375,0 L6.08203125,0 C5.33203125,3 4.74023438,5.93554688 4.30664062,8.80664062 L0.2109375,8.80664062 L0,8.41992188 Z" id="Shape"></path>
            </g>
            <g id="e" transform="translate(320.008566, 7.558594)">
                <path d="M9.65039062,20.1445312 C6.62695312,20.1445312 4.26269531,19.2626953 2.55761719,17.4990234 C0.852539062,15.7353516 0,13.3066406 0,10.2128906 C0,7.03710938 0.791015625,4.54101562 2.37304688,2.72460938 C3.95507812,0.908203125 6.12890625,0 8.89453125,0 C11.4609375,0 13.4882812,0.779296875 14.9765625,2.33789062 C16.4648438,3.89648438 17.2089844,6.04101563 17.2089844,8.77148438 L17.2089844,11.0039062 L4.25390625,11.0039062 C4.3125,12.890625 4.82226562,14.3408203 5.78320312,15.3544922 C6.74414062,16.3681641 8.09765625,16.875 9.84375,16.875 C10.9921875,16.875 12.0615234,16.7666016 13.0517578,16.5498047 C14.0419922,16.3330078 15.1054688,15.9726562 16.2421875,15.46875 L16.2421875,18.8261719 C15.234375,19.3066406 14.2148438,19.6464844 13.1835938,19.8457031 C12.1523438,20.0449219 10.9746094,20.1445312 9.65039062,20.1445312 Z M8.89453125,3.12890625 C7.58203125,3.12890625 6.53027344,3.54492188 5.73925781,4.37695312 C4.94824219,5.20898438 4.4765625,6.421875 4.32421875,8.015625 L13.1484375,8.015625 C13.125,6.41015625 12.7382812,5.19433594 11.9882812,4.36816406 C11.2382812,3.54199219 10.2070312,3.12890625 8.89453125,3.12890625 Z" id="Shape"></path>
            </g>
            <g id="single" transform="translate(0.000000, 92.675781)">
                <path d="M7.14550781,10.9072266 C7.14550781,11.8564453 6.79980469,12.5844727 6.10839844,13.0913086 C5.41699219,13.5981445 4.42675781,13.8515625 3.13769531,13.8515625 C1.84277344,13.8515625 0.802734375,13.6552734 0.017578125,13.2626953 L0.017578125,11.4785156 C1.16015625,12.0058594 2.22363281,12.2695312 3.20800781,12.2695312 C4.47949219,12.2695312 5.11523438,11.8857422 5.11523438,11.1181641 C5.11523438,10.8720703 5.04492188,10.6669922 4.90429688,10.5029297 C4.76367188,10.3388672 4.53222656,10.1689453 4.20996094,9.99316406 C3.88769531,9.81738281 3.43945312,9.61816406 2.86523438,9.39550781 C1.74609375,8.96191406 0.988769531,8.52832031 0.593261719,8.09472656 C0.197753906,7.66113281 0,7.09863281 0,6.40722656 C0,5.57519531 0.335449219,4.92919922 1.00634766,4.46923828 C1.67724609,4.00927734 2.58984375,3.77929688 3.74414062,3.77929688 C4.88671875,3.77929688 5.96777344,4.01074219 6.98730469,4.47363281 L6.31933594,6.02929688 C5.27050781,5.59570312 4.38867188,5.37890625 3.67382812,5.37890625 C2.58398438,5.37890625 2.0390625,5.68945312 2.0390625,6.31054688 C2.0390625,6.61523438 2.18115234,6.87304688 2.46533203,7.08398438 C2.74951172,7.29492188 3.36914062,7.58496094 4.32421875,7.95410156 C5.12695312,8.26464844 5.70996094,8.54882812 6.07324219,8.80664062 C6.43652344,9.06445312 6.70605469,9.36181641 6.88183594,9.69873047 C7.05761719,10.0356445 7.14550781,10.4384766 7.14550781,10.9072266 Z" id="Path"></path>
                <path d="M11.3871094,13.6757812 L9.32167969,13.6757812 L9.32167969,3.95507812 L11.3871094,3.95507812 L11.3871094,13.6757812 Z M9.19863281,1.37988281 C9.19863281,1.01074219 9.29970703,0.7265625 9.50185547,0.52734375 C9.70400391,0.328125 9.99257812,0.228515625 10.3675781,0.228515625 C10.7308594,0.228515625 11.0135742,0.328125 11.2157227,0.52734375 C11.4178711,0.7265625 11.5189453,1.01074219 11.5189453,1.37988281 C11.5189453,1.73144531 11.4178711,2.00830078 11.2157227,2.21044922 C11.0135742,2.41259766 10.7308594,2.51367188 10.3675781,2.51367188 C9.99257812,2.51367188 9.70400391,2.41259766 9.50185547,2.21044922 C9.29970703,2.00830078 9.19863281,1.73144531 9.19863281,1.37988281 Z" id="Shape"></path>
                <path d="M22.8357422,13.6757812 L20.7615234,13.6757812 L20.7615234,7.69921875 C20.7615234,6.94921875 20.6106445,6.38964844 20.3088867,6.02050781 C20.0071289,5.65136719 19.528125,5.46679688 18.871875,5.46679688 C17.9988281,5.46679688 17.3601562,5.72460938 16.9558594,6.24023438 C16.5515625,6.75585938 16.3494141,7.62011719 16.3494141,8.83300781 L16.3494141,13.6757812 L14.2839844,13.6757812 L14.2839844,3.95507812 L15.9011719,3.95507812 L16.1912109,5.22949219 L16.2966797,5.22949219 C16.5896484,4.76660156 17.0056641,4.40917969 17.5447266,4.15722656 C18.0837891,3.90527344 18.6814453,3.77929688 19.3376953,3.77929688 C21.6697266,3.77929688 22.8357422,4.96582031 22.8357422,7.33886719 L22.8357422,13.6757812 Z" id="Path"></path>
                <path d="M33.8625,3.95507812 L33.8625,5.08886719 L32.2013672,5.39648438 C32.3537109,5.6015625 32.4796875,5.85351562 32.5792969,6.15234375 C32.6789062,6.45117188 32.7287109,6.76757812 32.7287109,7.1015625 C32.7287109,8.10351562 32.3830078,8.89160156 31.6916016,9.46582031 C31.0001953,10.0400391 30.0480469,10.3271484 28.8351562,10.3271484 C28.5246094,10.3271484 28.2433594,10.3037109 27.9914062,10.2568359 C27.5460937,10.5322266 27.3234375,10.8544922 27.3234375,11.2236328 C27.3234375,11.4462891 27.4274414,11.6132812 27.6354492,11.7246094 C27.843457,11.8359375 28.2257812,11.8916016 28.7824219,11.8916016 L30.4787109,11.8916016 C31.5509766,11.8916016 32.3654297,12.1201172 32.9220703,12.5771484 C33.4787109,13.0341797 33.7570312,13.6933594 33.7570312,14.5546875 C33.7570312,15.65625 33.3029297,16.5058594 32.3947266,17.1035156 C31.4865234,17.7011719 30.1740234,18 28.4572266,18 C27.1330078,18 26.1222656,17.765625 25.425,17.296875 C24.7277344,16.828125 24.3791016,16.1601562 24.3791016,15.2929688 C24.3791016,14.6953125 24.5680664,14.1928711 24.9459961,13.7856445 C25.3239258,13.378418 25.8527344,13.0957031 26.5324219,12.9375 C26.2570312,12.8203125 26.0299805,12.6313477 25.8512695,12.3706055 C25.6725586,12.1098633 25.5832031,11.8359375 25.5832031,11.5488281 C25.5832031,11.1855469 25.6857422,10.8779297 25.8908203,10.6259766 C26.0958984,10.3740234 26.4005859,10.125 26.8048828,9.87890625 C26.3009766,9.66210938 25.8922852,9.30908203 25.5788086,8.81982422 C25.265332,8.33056641 25.1085937,7.7578125 25.1085937,7.1015625 C25.1085937,6.046875 25.4411133,5.22949219 26.1061523,4.64941406 C26.7711914,4.06933594 27.7189453,3.77929688 28.9494141,3.77929688 C29.2248047,3.77929688 29.5133789,3.79833984 29.8151367,3.83642578 C30.1168945,3.87451172 30.3439453,3.9140625 30.4962891,3.95507812 L33.8625,3.95507812 Z M26.2248047,15.1875 C26.2248047,15.6328125 26.4254883,15.9755859 26.8268555,16.2158203 C27.2282227,16.4560547 27.7921875,16.5761719 28.51875,16.5761719 C29.64375,16.5761719 30.4816406,16.4150391 31.0324219,16.0927734 C31.5832031,15.7705078 31.8585937,15.3427734 31.8585937,14.8095703 C31.8585937,14.3876953 31.7077148,14.0874023 31.405957,13.9086914 C31.1041992,13.7299805 30.5431641,13.640625 29.7228516,13.640625 L28.1583984,13.640625 C27.5666016,13.640625 27.0963867,13.7797852 26.7477539,14.0581055 C26.3991211,14.3364258 26.2248047,14.7128906 26.2248047,15.1875 Z M27.1125,7.1015625 C27.1125,7.7109375 27.2692383,8.1796875 27.5827148,8.5078125 C27.8961914,8.8359375 28.3458984,9 28.9318359,9 C30.1271484,9 30.7248047,8.36132812 30.7248047,7.08398438 C30.7248047,6.45117188 30.5768555,5.96337891 30.280957,5.62060547 C29.9850586,5.27783203 29.5353516,5.10644531 28.9318359,5.10644531 C28.3341797,5.10644531 27.881543,5.27636719 27.5739258,5.61621094 C27.2663086,5.95605469 27.1125,6.45117188 27.1125,7.1015625 Z" id="Shape"></path>
                <polygon id="Path" points="37.6734375 13.6757812 35.6080078 13.6757812 35.6080078 0 37.6734375 0"></polygon>
                <path d="M44.8154297,13.8515625 C43.3037109,13.8515625 42.121582,13.4106445 41.269043,12.5288086 C40.4165039,11.6469727 39.9902344,10.4326172 39.9902344,8.88574219 C39.9902344,7.29785156 40.3857422,6.04980469 41.1767578,5.14160156 C41.9677734,4.23339844 43.0546875,3.77929688 44.4375,3.77929688 C45.7207031,3.77929688 46.734375,4.16894531 47.4785156,4.94824219 C48.2226562,5.72753906 48.5947266,6.79980469 48.5947266,8.16503906 L48.5947266,9.28125 L42.1171875,9.28125 C42.1464844,10.2246094 42.4013672,10.949707 42.8818359,11.456543 C43.3623047,11.9633789 44.0390625,12.2167969 44.9121094,12.2167969 C45.4863281,12.2167969 46.0209961,12.1625977 46.5161133,12.0541992 C47.0112305,11.9458008 47.5429687,11.765625 48.1113281,11.5136719 L48.1113281,13.1923828 C47.6074219,13.4326172 47.0976562,13.6025391 46.5820312,13.7021484 C46.0664062,13.8017578 45.4775391,13.8515625 44.8154297,13.8515625 Z M44.4375,5.34375 C43.78125,5.34375 43.2553711,5.55175781 42.8598633,5.96777344 C42.4643555,6.38378906 42.2285156,6.99023438 42.1523437,7.78710938 L46.5644531,7.78710938 C46.5527344,6.984375 46.359375,6.37646484 45.984375,5.96337891 C45.609375,5.55029297 45.09375,5.34375 44.4375,5.34375 Z" id="Shape"></path>
            </g>
            <g id="single" transform="translate(151.874484, 92.675781)">
                <path d="M7.14550781,10.9072266 C7.14550781,11.8564453 6.79980469,12.5844727 6.10839844,13.0913086 C5.41699219,13.5981445 4.42675781,13.8515625 3.13769531,13.8515625 C1.84277344,13.8515625 0.802734375,13.6552734 0.017578125,13.2626953 L0.017578125,11.4785156 C1.16015625,12.0058594 2.22363281,12.2695312 3.20800781,12.2695312 C4.47949219,12.2695312 5.11523438,11.8857422 5.11523438,11.1181641 C5.11523438,10.8720703 5.04492188,10.6669922 4.90429688,10.5029297 C4.76367188,10.3388672 4.53222656,10.1689453 4.20996094,9.99316406 C3.88769531,9.81738281 3.43945312,9.61816406 2.86523438,9.39550781 C1.74609375,8.96191406 0.988769531,8.52832031 0.593261719,8.09472656 C0.197753906,7.66113281 0,7.09863281 0,6.40722656 C0,5.57519531 0.335449219,4.92919922 1.00634766,4.46923828 C1.67724609,4.00927734 2.58984375,3.77929688 3.74414062,3.77929688 C4.88671875,3.77929688 5.96777344,4.01074219 6.98730469,4.47363281 L6.31933594,6.02929688 C5.27050781,5.59570312 4.38867188,5.37890625 3.67382812,5.37890625 C2.58398438,5.37890625 2.0390625,5.68945312 2.0390625,6.31054688 C2.0390625,6.61523438 2.18115234,6.87304688 2.46533203,7.08398438 C2.74951172,7.29492188 3.36914062,7.58496094 4.32421875,7.95410156 C5.12695312,8.26464844 5.70996094,8.54882812 6.07324219,8.80664062 C6.43652344,9.06445312 6.70605469,9.36181641 6.88183594,9.69873047 C7.05761719,10.0356445 7.14550781,10.4384766 7.14550781,10.9072266 Z" id="Path"></path>
                <path d="M11.3871094,13.6757812 L9.32167969,13.6757812 L9.32167969,3.95507812 L11.3871094,3.95507812 L11.3871094,13.6757812 Z M9.19863281,1.37988281 C9.19863281,1.01074219 9.29970703,0.7265625 9.50185547,0.52734375 C9.70400391,0.328125 9.99257812,0.228515625 10.3675781,0.228515625 C10.7308594,0.228515625 11.0135742,0.328125 11.2157227,0.52734375 C11.4178711,0.7265625 11.5189453,1.01074219 11.5189453,1.37988281 C11.5189453,1.73144531 11.4178711,2.00830078 11.2157227,2.21044922 C11.0135742,2.41259766 10.7308594,2.51367188 10.3675781,2.51367188 C9.99257812,2.51367188 9.70400391,2.41259766 9.50185547,2.21044922 C9.29970703,2.00830078 9.19863281,1.73144531 9.19863281,1.37988281 Z" id="Shape"></path>
                <path d="M22.8357422,13.6757812 L20.7615234,13.6757812 L20.7615234,7.69921875 C20.7615234,6.94921875 20.6106445,6.38964844 20.3088867,6.02050781 C20.0071289,5.65136719 19.528125,5.46679688 18.871875,5.46679688 C17.9988281,5.46679688 17.3601562,5.72460938 16.9558594,6.24023438 C16.5515625,6.75585938 16.3494141,7.62011719 16.3494141,8.83300781 L16.3494141,13.6757812 L14.2839844,13.6757812 L14.2839844,3.95507812 L15.9011719,3.95507812 L16.1912109,5.22949219 L16.2966797,5.22949219 C16.5896484,4.76660156 17.0056641,4.40917969 17.5447266,4.15722656 C18.0837891,3.90527344 18.6814453,3.77929688 19.3376953,3.77929688 C21.6697266,3.77929688 22.8357422,4.96582031 22.8357422,7.33886719 L22.8357422,13.6757812 Z" id="Path"></path>
                <path d="M33.8625,3.95507812 L33.8625,5.08886719 L32.2013672,5.39648438 C32.3537109,5.6015625 32.4796875,5.85351562 32.5792969,6.15234375 C32.6789062,6.45117188 32.7287109,6.76757812 32.7287109,7.1015625 C32.7287109,8.10351562 32.3830078,8.89160156 31.6916016,9.46582031 C31.0001953,10.0400391 30.0480469,10.3271484 28.8351562,10.3271484 C28.5246094,10.3271484 28.2433594,10.3037109 27.9914062,10.2568359 C27.5460937,10.5322266 27.3234375,10.8544922 27.3234375,11.2236328 C27.3234375,11.4462891 27.4274414,11.6132812 27.6354492,11.7246094 C27.843457,11.8359375 28.2257812,11.8916016 28.7824219,11.8916016 L30.4787109,11.8916016 C31.5509766,11.8916016 32.3654297,12.1201172 32.9220703,12.5771484 C33.4787109,13.0341797 33.7570312,13.6933594 33.7570312,14.5546875 C33.7570312,15.65625 33.3029297,16.5058594 32.3947266,17.1035156 C31.4865234,17.7011719 30.1740234,18 28.4572266,18 C27.1330078,18 26.1222656,17.765625 25.425,17.296875 C24.7277344,16.828125 24.3791016,16.1601562 24.3791016,15.2929688 C24.3791016,14.6953125 24.5680664,14.1928711 24.9459961,13.7856445 C25.3239258,13.378418 25.8527344,13.0957031 26.5324219,12.9375 C26.2570312,12.8203125 26.0299805,12.6313477 25.8512695,12.3706055 C25.6725586,12.1098633 25.5832031,11.8359375 25.5832031,11.5488281 C25.5832031,11.1855469 25.6857422,10.8779297 25.8908203,10.6259766 C26.0958984,10.3740234 26.4005859,10.125 26.8048828,9.87890625 C26.3009766,9.66210938 25.8922852,9.30908203 25.5788086,8.81982422 C25.265332,8.33056641 25.1085937,7.7578125 25.1085937,7.1015625 C25.1085937,6.046875 25.4411133,5.22949219 26.1061523,4.64941406 C26.7711914,4.06933594 27.7189453,3.77929688 28.9494141,3.77929688 C29.2248047,3.77929688 29.5133789,3.79833984 29.8151367,3.83642578 C30.1168945,3.87451172 30.3439453,3.9140625 30.4962891,3.95507812 L33.8625,3.95507812 Z M26.2248047,15.1875 C26.2248047,15.6328125 26.4254883,15.9755859 26.8268555,16.2158203 C27.2282227,16.4560547 27.7921875,16.5761719 28.51875,16.5761719 C29.64375,16.5761719 30.4816406,16.4150391 31.0324219,16.0927734 C31.5832031,15.7705078 31.8585937,15.3427734 31.8585937,14.8095703 C31.8585937,14.3876953 31.7077148,14.0874023 31.405957,13.9086914 C31.1041992,13.7299805 30.5431641,13.640625 29.7228516,13.640625 L28.1583984,13.640625 C27.5666016,13.640625 27.0963867,13.7797852 26.7477539,14.0581055 C26.3991211,14.3364258 26.2248047,14.7128906 26.2248047,15.1875 Z M27.1125,7.1015625 C27.1125,7.7109375 27.2692383,8.1796875 27.5827148,8.5078125 C27.8961914,8.8359375 28.3458984,9 28.9318359,9 C30.1271484,9 30.7248047,8.36132812 30.7248047,7.08398438 C30.7248047,6.45117188 30.5768555,5.96337891 30.280957,5.62060547 C29.9850586,5.27783203 29.5353516,5.10644531 28.9318359,5.10644531 C28.3341797,5.10644531 27.881543,5.27636719 27.5739258,5.61621094 C27.2663086,5.95605469 27.1125,6.45117188 27.1125,7.1015625 Z" id="Shape"></path>
                <polygon id="Path" points="37.6734375 13.6757812 35.6080078 13.6757812 35.6080078 0 37.6734375 0"></polygon>
                <path d="M44.8154297,13.8515625 C43.3037109,13.8515625 42.121582,13.4106445 41.269043,12.5288086 C40.4165039,11.6469727 39.9902344,10.4326172 39.9902344,8.88574219 C39.9902344,7.29785156 40.3857422,6.04980469 41.1767578,5.14160156 C41.9677734,4.23339844 43.0546875,3.77929688 44.4375,3.77929688 C45.7207031,3.77929688 46.734375,4.16894531 47.4785156,4.94824219 C48.2226562,5.72753906 48.5947266,6.79980469 48.5947266,8.16503906 L48.5947266,9.28125 L42.1171875,9.28125 C42.1464844,10.2246094 42.4013672,10.949707 42.8818359,11.456543 C43.3623047,11.9633789 44.0390625,12.2167969 44.9121094,12.2167969 C45.4863281,12.2167969 46.0209961,12.1625977 46.5161133,12.0541992 C47.0112305,11.9458008 47.5429687,11.765625 48.1113281,11.5136719 L48.1113281,13.1923828 C47.6074219,13.4326172 47.0976562,13.6025391 46.5820312,13.7021484 C46.0664062,13.8017578 45.4775391,13.8515625 44.8154297,13.8515625 Z M44.4375,5.34375 C43.78125,5.34375 43.2553711,5.55175781 42.8598633,5.96777344 C42.4643555,6.38378906 42.2285156,6.99023438 42.1523437,7.78710938 L46.5644531,7.78710938 C46.5527344,6.984375 46.359375,6.37646484 45.984375,5.96337891 C45.609375,5.55029297 45.09375,5.34375 44.4375,5.34375 Z" id="Shape"></path>
            </g>
            <g id="double" transform="translate(298.967718, 92.675781)">
                <path d="M3.85839844,13.8515625 C2.64550781,13.8515625 1.69921875,13.4121094 1.01953125,12.5332031 C0.33984375,11.6542969 0,10.4208984 0,8.83300781 C0,7.23925781 0.344238281,5.99853516 1.03271484,5.11083984 C1.72119141,4.22314453 2.67480469,3.77929688 3.89355469,3.77929688 C5.17089844,3.77929688 6.14355469,4.25097656 6.81152344,5.19433594 L6.91699219,5.19433594 C6.81738281,4.49707031 6.76757812,3.94628906 6.76757812,3.54199219 L6.76757812,0 L8.84179688,0 L8.84179688,13.6757812 L7.22460938,13.6757812 L6.86425781,12.4013672 L6.76757812,12.4013672 C6.10546875,13.3681641 5.13574219,13.8515625 3.85839844,13.8515625 Z M4.41210938,12.1816406 C5.26171875,12.1816406 5.87988281,11.9428711 6.26660156,11.465332 C6.65332031,10.987793 6.85253906,10.2128906 6.86425781,9.140625 L6.86425781,8.85058594 C6.86425781,7.62597656 6.66503906,6.75585938 6.26660156,6.24023438 C5.86816406,5.72460938 5.24414062,5.46679688 4.39453125,5.46679688 C3.66796875,5.46679688 3.10839844,5.76123047 2.71582031,6.35009766 C2.32324219,6.93896484 2.12695312,7.77832031 2.12695312,8.86816406 C2.12695312,9.94628906 2.31738281,10.7680664 2.69824219,11.3334961 C3.07910156,11.8989258 3.65039062,12.1816406 4.41210938,12.1816406 Z" id="Shape"></path>
                <path d="M20.3607422,8.79785156 C20.3607422,10.3857422 19.9535156,11.625 19.1390625,12.515625 C18.3246094,13.40625 17.1908203,13.8515625 15.7376953,13.8515625 C14.8294922,13.8515625 14.0267578,13.6464844 13.3294922,13.2363281 C12.6322266,12.8261719 12.0960937,12.2373047 11.7210937,11.4697266 C11.3460937,10.7021484 11.1585937,9.81152344 11.1585937,8.79785156 C11.1585937,7.22167969 11.5628906,5.99121094 12.3714844,5.10644531 C13.1800781,4.22167969 14.3197266,3.77929688 15.7904297,3.77929688 C17.1966797,3.77929688 18.3099609,4.23193359 19.1302734,5.13720703 C19.9505859,6.04248047 20.3607422,7.26269531 20.3607422,8.79785156 Z M13.2855469,8.79785156 C13.2855469,11.0419922 14.1146484,12.1640625 15.7728516,12.1640625 C17.4134766,12.1640625 18.2337891,11.0419922 18.2337891,8.79785156 C18.2337891,6.57714844 17.4076172,5.46679688 15.7552734,5.46679688 C14.8880859,5.46679688 14.259668,5.75390625 13.8700195,6.328125 C13.4803711,6.90234375 13.2855469,7.72558594 13.2855469,8.79785156 Z" id="Shape"></path>
                <path d="M29.5330078,13.6757812 L29.2429687,12.4013672 L29.1375,12.4013672 C28.8503906,12.8525391 28.4416992,13.2070312 27.9114258,13.4648438 C27.3811523,13.7226562 26.7761719,13.8515625 26.0964844,13.8515625 C24.91875,13.8515625 24.0398437,13.5585938 23.4597656,12.9726562 C22.8796875,12.3867188 22.5896484,11.4990234 22.5896484,10.3095703 L22.5896484,3.95507812 L24.6726562,3.95507812 L24.6726562,9.94921875 C24.6726562,10.6933594 24.825,11.2514648 25.1296875,11.6235352 C25.434375,11.9956055 25.9119141,12.1816406 26.5623047,12.1816406 C27.4294922,12.1816406 28.0666992,11.9223633 28.4739258,11.4038086 C28.8811523,10.8852539 29.0847656,10.0166016 29.0847656,8.79785156 L29.0847656,3.95507812 L31.1589844,3.95507812 L31.1589844,13.6757812 L29.5330078,13.6757812 Z" id="Path"></path>
                <path d="M39.0128906,3.77929688 C40.2257812,3.77929688 41.1706055,4.21875 41.8473633,5.09765625 C42.5241211,5.9765625 42.8625,7.20996094 42.8625,8.79785156 C42.8625,10.3916016 42.5197266,11.6323242 41.8341797,12.5200195 C41.1486328,13.4077148 40.1964844,13.8515625 38.9777344,13.8515625 C37.7472656,13.8515625 36.7921875,13.4091797 36.1125,12.5244141 L35.971875,12.5244141 L35.5939453,13.6757812 L34.0470703,13.6757812 L34.0470703,0 L36.1125,0 L36.1125,3.25195312 C36.1125,3.4921875 36.1007812,3.84960937 36.0773437,4.32421875 C36.0539062,4.79882812 36.0363281,5.10058594 36.0246094,5.22949219 L36.1125,5.22949219 C36.76875,4.26269531 37.7355469,3.77929688 39.0128906,3.77929688 Z M38.4767578,5.46679688 C37.6447266,5.46679688 37.0456055,5.71142578 36.6793945,6.20068359 C36.3131836,6.68994141 36.1242187,7.50878906 36.1125,8.65722656 L36.1125,8.79785156 C36.1125,9.98144531 36.3,10.8383789 36.675,11.3686523 C37.05,11.8989258 37.6623047,12.1640625 38.5119141,12.1640625 C39.2443359,12.1640625 39.7995117,11.8740234 40.1774414,11.2939453 C40.5553711,10.7138672 40.7443359,9.87597656 40.7443359,8.78027344 C40.7443359,6.57128906 39.9884766,5.46679688 38.4767578,5.46679688 Z" id="Shape"></path>
                <polygon id="Path" points="47.2710937 13.6757812 45.2056641 13.6757812 45.2056641 0 47.2710937 0"></polygon>
                <path d="M54.4130859,13.8515625 C52.9013672,13.8515625 51.7192383,13.4106445 50.8666992,12.5288086 C50.0141602,11.6469727 49.5878906,10.4326172 49.5878906,8.88574219 C49.5878906,7.29785156 49.9833984,6.04980469 50.7744141,5.14160156 C51.5654297,4.23339844 52.6523437,3.77929688 54.0351562,3.77929688 C55.3183594,3.77929688 56.3320312,4.16894531 57.0761719,4.94824219 C57.8203125,5.72753906 58.1923828,6.79980469 58.1923828,8.16503906 L58.1923828,9.28125 L51.7148437,9.28125 C51.7441406,10.2246094 51.9990234,10.949707 52.4794922,11.456543 C52.9599609,11.9633789 53.6367187,12.2167969 54.5097656,12.2167969 C55.0839844,12.2167969 55.6186523,12.1625977 56.1137695,12.0541992 C56.6088867,11.9458008 57.140625,11.765625 57.7089844,11.5136719 L57.7089844,13.1923828 C57.2050781,13.4326172 56.6953125,13.6025391 56.1796875,13.7021484 C55.6640625,13.8017578 55.0751953,13.8515625 54.4130859,13.8515625 Z M54.0351562,5.34375 C53.3789062,5.34375 52.8530273,5.55175781 52.4575195,5.96777344 C52.0620117,6.38378906 51.8261719,6.99023438 51.75,7.78710938 L56.1621094,7.78710938 C56.1503906,6.984375 55.9570312,6.37646484 55.5820312,5.96337891 C55.2070312,5.55029297 54.6914062,5.34375 54.0351562,5.34375 Z" id="Shape"></path>
            </g>
            <g id="double" transform="translate(450.842202, 92.675781)">
                <path d="M3.85839844,13.8515625 C2.64550781,13.8515625 1.69921875,13.4121094 1.01953125,12.5332031 C0.33984375,11.6542969 0,10.4208984 0,8.83300781 C0,7.23925781 0.344238281,5.99853516 1.03271484,5.11083984 C1.72119141,4.22314453 2.67480469,3.77929688 3.89355469,3.77929688 C5.17089844,3.77929688 6.14355469,4.25097656 6.81152344,5.19433594 L6.91699219,5.19433594 C6.81738281,4.49707031 6.76757812,3.94628906 6.76757812,3.54199219 L6.76757812,0 L8.84179688,0 L8.84179688,13.6757812 L7.22460938,13.6757812 L6.86425781,12.4013672 L6.76757812,12.4013672 C6.10546875,13.3681641 5.13574219,13.8515625 3.85839844,13.8515625 Z M4.41210938,12.1816406 C5.26171875,12.1816406 5.87988281,11.9428711 6.26660156,11.465332 C6.65332031,10.987793 6.85253906,10.2128906 6.86425781,9.140625 L6.86425781,8.85058594 C6.86425781,7.62597656 6.66503906,6.75585938 6.26660156,6.24023438 C5.86816406,5.72460938 5.24414062,5.46679688 4.39453125,5.46679688 C3.66796875,5.46679688 3.10839844,5.76123047 2.71582031,6.35009766 C2.32324219,6.93896484 2.12695312,7.77832031 2.12695312,8.86816406 C2.12695312,9.94628906 2.31738281,10.7680664 2.69824219,11.3334961 C3.07910156,11.8989258 3.65039062,12.1816406 4.41210938,12.1816406 Z" id="Shape"></path>
                <path d="M20.3607422,8.79785156 C20.3607422,10.3857422 19.9535156,11.625 19.1390625,12.515625 C18.3246094,13.40625 17.1908203,13.8515625 15.7376953,13.8515625 C14.8294922,13.8515625 14.0267578,13.6464844 13.3294922,13.2363281 C12.6322266,12.8261719 12.0960937,12.2373047 11.7210937,11.4697266 C11.3460937,10.7021484 11.1585937,9.81152344 11.1585937,8.79785156 C11.1585937,7.22167969 11.5628906,5.99121094 12.3714844,5.10644531 C13.1800781,4.22167969 14.3197266,3.77929688 15.7904297,3.77929688 C17.1966797,3.77929688 18.3099609,4.23193359 19.1302734,5.13720703 C19.9505859,6.04248047 20.3607422,7.26269531 20.3607422,8.79785156 Z M13.2855469,8.79785156 C13.2855469,11.0419922 14.1146484,12.1640625 15.7728516,12.1640625 C17.4134766,12.1640625 18.2337891,11.0419922 18.2337891,8.79785156 C18.2337891,6.57714844 17.4076172,5.46679688 15.7552734,5.46679688 C14.8880859,5.46679688 14.259668,5.75390625 13.8700195,6.328125 C13.4803711,6.90234375 13.2855469,7.72558594 13.2855469,8.79785156 Z" id="Shape"></path>
                <path d="M29.5330078,13.6757812 L29.2429687,12.4013672 L29.1375,12.4013672 C28.8503906,12.8525391 28.4416992,13.2070312 27.9114258,13.4648438 C27.3811523,13.7226562 26.7761719,13.8515625 26.0964844,13.8515625 C24.91875,13.8515625 24.0398437,13.5585938 23.4597656,12.9726562 C22.8796875,12.3867188 22.5896484,11.4990234 22.5896484,10.3095703 L22.5896484,3.95507812 L24.6726562,3.95507812 L24.6726562,9.94921875 C24.6726562,10.6933594 24.825,11.2514648 25.1296875,11.6235352 C25.434375,11.9956055 25.9119141,12.1816406 26.5623047,12.1816406 C27.4294922,12.1816406 28.0666992,11.9223633 28.4739258,11.4038086 C28.8811523,10.8852539 29.0847656,10.0166016 29.0847656,8.79785156 L29.0847656,3.95507812 L31.1589844,3.95507812 L31.1589844,13.6757812 L29.5330078,13.6757812 Z" id="Path"></path>
                <path d="M39.0128906,3.77929688 C40.2257812,3.77929688 41.1706055,4.21875 41.8473633,5.09765625 C42.5241211,5.9765625 42.8625,7.20996094 42.8625,8.79785156 C42.8625,10.3916016 42.5197266,11.6323242 41.8341797,12.5200195 C41.1486328,13.4077148 40.1964844,13.8515625 38.9777344,13.8515625 C37.7472656,13.8515625 36.7921875,13.4091797 36.1125,12.5244141 L35.971875,12.5244141 L35.5939453,13.6757812 L34.0470703,13.6757812 L34.0470703,0 L36.1125,0 L36.1125,3.25195312 C36.1125,3.4921875 36.1007812,3.84960937 36.0773437,4.32421875 C36.0539062,4.79882812 36.0363281,5.10058594 36.0246094,5.22949219 L36.1125,5.22949219 C36.76875,4.26269531 37.7355469,3.77929688 39.0128906,3.77929688 Z M38.4767578,5.46679688 C37.6447266,5.46679688 37.0456055,5.71142578 36.6793945,6.20068359 C36.3131836,6.68994141 36.1242187,7.50878906 36.1125,8.65722656 L36.1125,8.79785156 C36.1125,9.98144531 36.3,10.8383789 36.675,11.3686523 C37.05,11.8989258 37.6623047,12.1640625 38.5119141,12.1640625 C39.2443359,12.1640625 39.7995117,11.8740234 40.1774414,11.2939453 C40.5553711,10.7138672 40.7443359,9.87597656 40.7443359,8.78027344 C40.7443359,6.57128906 39.9884766,5.46679688 38.4767578,5.46679688 Z" id="Shape"></path>
                <polygon id="Path" points="47.2710937 13.6757812 45.2056641 13.6757812 45.2056641 0 47.2710937 0"></polygon>
                <path d="M54.4130859,13.8515625 C52.9013672,13.8515625 51.7192383,13.4106445 50.8666992,12.5288086 C50.0141602,11.6469727 49.5878906,10.4326172 49.5878906,8.88574219 C49.5878906,7.29785156 49.9833984,6.04980469 50.7744141,5.14160156 C51.5654297,4.23339844 52.6523437,3.77929688 54.0351562,3.77929688 C55.3183594,3.77929688 56.3320312,4.16894531 57.0761719,4.94824219 C57.8203125,5.72753906 58.1923828,6.79980469 58.1923828,8.16503906 L58.1923828,9.28125 L51.7148437,9.28125 C51.7441406,10.2246094 51.9990234,10.949707 52.4794922,11.456543 C52.9599609,11.9633789 53.6367187,12.2167969 54.5097656,12.2167969 C55.0839844,12.2167969 55.6186523,12.1625977 56.1137695,12.0541992 C56.6088867,11.9458008 57.140625,11.765625 57.7089844,11.5136719 L57.7089844,13.1923828 C57.2050781,13.4326172 56.6953125,13.6025391 56.1796875,13.7021484 C55.6640625,13.8017578 55.0751953,13.8515625 54.4130859,13.8515625 Z M54.0351562,5.34375 C53.3789062,5.34375 52.8530273,5.55175781 52.4575195,5.96777344 C52.0620117,6.38378906 51.8261719,6.99023438 51.75,7.78710938 L56.1621094,7.78710938 C56.1503906,6.984375 55.9570312,6.37646484 55.5820312,5.96337891 C55.2070312,5.55029297 54.6914062,5.34375 54.0351562,5.34375 Z" id="Shape"></path>
            </g>
            <g id="double" transform="translate(602.716686, 92.675781)">
                <path d="M3.85839844,13.8515625 C2.64550781,13.8515625 1.69921875,13.4121094 1.01953125,12.5332031 C0.33984375,11.6542969 0,10.4208984 0,8.83300781 C0,7.23925781 0.344238281,5.99853516 1.03271484,5.11083984 C1.72119141,4.22314453 2.67480469,3.77929688 3.89355469,3.77929688 C5.17089844,3.77929688 6.14355469,4.25097656 6.81152344,5.19433594 L6.91699219,5.19433594 C6.81738281,4.49707031 6.76757812,3.94628906 6.76757812,3.54199219 L6.76757812,0 L8.84179688,0 L8.84179688,13.6757812 L7.22460938,13.6757812 L6.86425781,12.4013672 L6.76757812,12.4013672 C6.10546875,13.3681641 5.13574219,13.8515625 3.85839844,13.8515625 Z M4.41210938,12.1816406 C5.26171875,12.1816406 5.87988281,11.9428711 6.26660156,11.465332 C6.65332031,10.987793 6.85253906,10.2128906 6.86425781,9.140625 L6.86425781,8.85058594 C6.86425781,7.62597656 6.66503906,6.75585938 6.26660156,6.24023438 C5.86816406,5.72460938 5.24414062,5.46679688 4.39453125,5.46679688 C3.66796875,5.46679688 3.10839844,5.76123047 2.71582031,6.35009766 C2.32324219,6.93896484 2.12695312,7.77832031 2.12695312,8.86816406 C2.12695312,9.94628906 2.31738281,10.7680664 2.69824219,11.3334961 C3.07910156,11.8989258 3.65039062,12.1816406 4.41210938,12.1816406 Z" id="Shape"></path>
                <path d="M20.3607422,8.79785156 C20.3607422,10.3857422 19.9535156,11.625 19.1390625,12.515625 C18.3246094,13.40625 17.1908203,13.8515625 15.7376953,13.8515625 C14.8294922,13.8515625 14.0267578,13.6464844 13.3294922,13.2363281 C12.6322266,12.8261719 12.0960937,12.2373047 11.7210937,11.4697266 C11.3460937,10.7021484 11.1585937,9.81152344 11.1585937,8.79785156 C11.1585937,7.22167969 11.5628906,5.99121094 12.3714844,5.10644531 C13.1800781,4.22167969 14.3197266,3.77929688 15.7904297,3.77929688 C17.1966797,3.77929688 18.3099609,4.23193359 19.1302734,5.13720703 C19.9505859,6.04248047 20.3607422,7.26269531 20.3607422,8.79785156 Z M13.2855469,8.79785156 C13.2855469,11.0419922 14.1146484,12.1640625 15.7728516,12.1640625 C17.4134766,12.1640625 18.2337891,11.0419922 18.2337891,8.79785156 C18.2337891,6.57714844 17.4076172,5.46679688 15.7552734,5.46679688 C14.8880859,5.46679688 14.259668,5.75390625 13.8700195,6.328125 C13.4803711,6.90234375 13.2855469,7.72558594 13.2855469,8.79785156 Z" id="Shape"></path>
                <path d="M29.5330078,13.6757812 L29.2429687,12.4013672 L29.1375,12.4013672 C28.8503906,12.8525391 28.4416992,13.2070312 27.9114258,13.4648438 C27.3811523,13.7226562 26.7761719,13.8515625 26.0964844,13.8515625 C24.91875,13.8515625 24.0398437,13.5585938 23.4597656,12.9726562 C22.8796875,12.3867188 22.5896484,11.4990234 22.5896484,10.3095703 L22.5896484,3.95507812 L24.6726562,3.95507812 L24.6726562,9.94921875 C24.6726562,10.6933594 24.825,11.2514648 25.1296875,11.6235352 C25.434375,11.9956055 25.9119141,12.1816406 26.5623047,12.1816406 C27.4294922,12.1816406 28.0666992,11.9223633 28.4739258,11.4038086 C28.8811523,10.8852539 29.0847656,10.0166016 29.0847656,8.79785156 L29.0847656,3.95507812 L31.1589844,3.95507812 L31.1589844,13.6757812 L29.5330078,13.6757812 Z" id="Path"></path>
                <path d="M39.0128906,3.77929688 C40.2257812,3.77929688 41.1706055,4.21875 41.8473633,5.09765625 C42.5241211,5.9765625 42.8625,7.20996094 42.8625,8.79785156 C42.8625,10.3916016 42.5197266,11.6323242 41.8341797,12.5200195 C41.1486328,13.4077148 40.1964844,13.8515625 38.9777344,13.8515625 C37.7472656,13.8515625 36.7921875,13.4091797 36.1125,12.5244141 L35.971875,12.5244141 L35.5939453,13.6757812 L34.0470703,13.6757812 L34.0470703,0 L36.1125,0 L36.1125,3.25195312 C36.1125,3.4921875 36.1007812,3.84960937 36.0773437,4.32421875 C36.0539062,4.79882812 36.0363281,5.10058594 36.0246094,5.22949219 L36.1125,5.22949219 C36.76875,4.26269531 37.7355469,3.77929688 39.0128906,3.77929688 Z M38.4767578,5.46679688 C37.6447266,5.46679688 37.0456055,5.71142578 36.6793945,6.20068359 C36.3131836,6.68994141 36.1242187,7.50878906 36.1125,8.65722656 L36.1125,8.79785156 C36.1125,9.98144531 36.3,10.8383789 36.675,11.3686523 C37.05,11.8989258 37.6623047,12.1640625 38.5119141,12.1640625 C39.2443359,12.1640625 39.7995117,11.8740234 40.1774414,11.2939453 C40.5553711,10.7138672 40.7443359,9.87597656 40.7443359,8.78027344 C40.7443359,6.57128906 39.9884766,5.46679688 38.4767578,5.46679688 Z" id="Shape"></path>
                <polygon id="Path" points="47.2710937 13.6757812 45.2056641 13.6757812 45.2056641 0 47.2710937 0"></polygon>
                <path d="M54.4130859,13.8515625 C52.9013672,13.8515625 51.7192383,13.4106445 50.8666992,12.5288086 C50.0141602,11.6469727 49.5878906,10.4326172 49.5878906,8.88574219 C49.5878906,7.29785156 49.9833984,6.04980469 50.7744141,5.14160156 C51.5654297,4.23339844 52.6523437,3.77929688 54.0351562,3.77929688 C55.3183594,3.77929688 56.3320312,4.16894531 57.0761719,4.94824219 C57.8203125,5.72753906 58.1923828,6.79980469 58.1923828,8.16503906 L58.1923828,9.28125 L51.7148437,9.28125 C51.7441406,10.2246094 51.9990234,10.949707 52.4794922,11.456543 C52.9599609,11.9633789 53.6367187,12.2167969 54.5097656,12.2167969 C55.0839844,12.2167969 55.6186523,12.1625977 56.1137695,12.0541992 C56.6088867,11.9458008 57.140625,11.765625 57.7089844,11.5136719 L57.7089844,13.1923828 C57.2050781,13.4326172 56.6953125,13.6025391 56.1796875,13.7021484 C55.6640625,13.8017578 55.0751953,13.8515625 54.4130859,13.8515625 Z M54.0351562,5.34375 C53.3789062,5.34375 52.8530273,5.55175781 52.4575195,5.96777344 C52.0620117,6.38378906 51.8261719,6.99023438 51.75,7.78710938 L56.1621094,7.78710938 C56.1503906,6.984375 55.9570312,6.37646484 55.5820312,5.96337891 C55.2070312,5.55029297 54.6914062,5.34375 54.0351562,5.34375 Z" id="Shape"></path>
            </g>
            <g id="double" transform="translate(754.591169, 92.675781)">
                <path d="M3.85839844,13.8515625 C2.64550781,13.8515625 1.69921875,13.4121094 1.01953125,12.5332031 C0.33984375,11.6542969 0,10.4208984 0,8.83300781 C0,7.23925781 0.344238281,5.99853516 1.03271484,5.11083984 C1.72119141,4.22314453 2.67480469,3.77929688 3.89355469,3.77929688 C5.17089844,3.77929688 6.14355469,4.25097656 6.81152344,5.19433594 L6.91699219,5.19433594 C6.81738281,4.49707031 6.76757812,3.94628906 6.76757812,3.54199219 L6.76757812,0 L8.84179688,0 L8.84179688,13.6757812 L7.22460938,13.6757812 L6.86425781,12.4013672 L6.76757812,12.4013672 C6.10546875,13.3681641 5.13574219,13.8515625 3.85839844,13.8515625 Z M4.41210938,12.1816406 C5.26171875,12.1816406 5.87988281,11.9428711 6.26660156,11.465332 C6.65332031,10.987793 6.85253906,10.2128906 6.86425781,9.140625 L6.86425781,8.85058594 C6.86425781,7.62597656 6.66503906,6.75585938 6.26660156,6.24023438 C5.86816406,5.72460938 5.24414062,5.46679688 4.39453125,5.46679688 C3.66796875,5.46679688 3.10839844,5.76123047 2.71582031,6.35009766 C2.32324219,6.93896484 2.12695312,7.77832031 2.12695312,8.86816406 C2.12695312,9.94628906 2.31738281,10.7680664 2.69824219,11.3334961 C3.07910156,11.8989258 3.65039062,12.1816406 4.41210938,12.1816406 Z" id="Shape"></path>
                <path d="M20.3607422,8.79785156 C20.3607422,10.3857422 19.9535156,11.625 19.1390625,12.515625 C18.3246094,13.40625 17.1908203,13.8515625 15.7376953,13.8515625 C14.8294922,13.8515625 14.0267578,13.6464844 13.3294922,13.2363281 C12.6322266,12.8261719 12.0960937,12.2373047 11.7210937,11.4697266 C11.3460937,10.7021484 11.1585937,9.81152344 11.1585937,8.79785156 C11.1585937,7.22167969 11.5628906,5.99121094 12.3714844,5.10644531 C13.1800781,4.22167969 14.3197266,3.77929688 15.7904297,3.77929688 C17.1966797,3.77929688 18.3099609,4.23193359 19.1302734,5.13720703 C19.9505859,6.04248047 20.3607422,7.26269531 20.3607422,8.79785156 Z M13.2855469,8.79785156 C13.2855469,11.0419922 14.1146484,12.1640625 15.7728516,12.1640625 C17.4134766,12.1640625 18.2337891,11.0419922 18.2337891,8.79785156 C18.2337891,6.57714844 17.4076172,5.46679688 15.7552734,5.46679688 C14.8880859,5.46679688 14.259668,5.75390625 13.8700195,6.328125 C13.4803711,6.90234375 13.2855469,7.72558594 13.2855469,8.79785156 Z" id="Shape"></path>
                <path d="M29.5330078,13.6757812 L29.2429687,12.4013672 L29.1375,12.4013672 C28.8503906,12.8525391 28.4416992,13.2070312 27.9114258,13.4648438 C27.3811523,13.7226562 26.7761719,13.8515625 26.0964844,13.8515625 C24.91875,13.8515625 24.0398437,13.5585938 23.4597656,12.9726562 C22.8796875,12.3867188 22.5896484,11.4990234 22.5896484,10.3095703 L22.5896484,3.95507812 L24.6726562,3.95507812 L24.6726562,9.94921875 C24.6726562,10.6933594 24.825,11.2514648 25.1296875,11.6235352 C25.434375,11.9956055 25.9119141,12.1816406 26.5623047,12.1816406 C27.4294922,12.1816406 28.0666992,11.9223633 28.4739258,11.4038086 C28.8811523,10.8852539 29.0847656,10.0166016 29.0847656,8.79785156 L29.0847656,3.95507812 L31.1589844,3.95507812 L31.1589844,13.6757812 L29.5330078,13.6757812 Z" id="Path"></path>
                <path d="M39.0128906,3.77929688 C40.2257812,3.77929688 41.1706055,4.21875 41.8473633,5.09765625 C42.5241211,5.9765625 42.8625,7.20996094 42.8625,8.79785156 C42.8625,10.3916016 42.5197266,11.6323242 41.8341797,12.5200195 C41.1486328,13.4077148 40.1964844,13.8515625 38.9777344,13.8515625 C37.7472656,13.8515625 36.7921875,13.4091797 36.1125,12.5244141 L35.971875,12.5244141 L35.5939453,13.6757812 L34.0470703,13.6757812 L34.0470703,0 L36.1125,0 L36.1125,3.25195312 C36.1125,3.4921875 36.1007812,3.84960937 36.0773437,4.32421875 C36.0539062,4.79882812 36.0363281,5.10058594 36.0246094,5.22949219 L36.1125,5.22949219 C36.76875,4.26269531 37.7355469,3.77929688 39.0128906,3.77929688 Z M38.4767578,5.46679688 C37.6447266,5.46679688 37.0456055,5.71142578 36.6793945,6.20068359 C36.3131836,6.68994141 36.1242187,7.50878906 36.1125,8.65722656 L36.1125,8.79785156 C36.1125,9.98144531 36.3,10.8383789 36.675,11.3686523 C37.05,11.8989258 37.6623047,12.1640625 38.5119141,12.1640625 C39.2443359,12.1640625 39.7995117,11.8740234 40.1774414,11.2939453 C40.5553711,10.7138672 40.7443359,9.87597656 40.7443359,8.78027344 C40.7443359,6.57128906 39.9884766,5.46679688 38.4767578,5.46679688 Z" id="Shape"></path>
                <polygon id="Path" points="47.2710937 13.6757812 45.2056641 13.6757812 45.2056641 0 47.2710937 0"></polygon>
                <path d="M54.4130859,13.8515625 C52.9013672,13.8515625 51.7192383,13.4106445 50.8666992,12.5288086 C50.0141602,11.6469727 49.5878906,10.4326172 49.5878906,8.88574219 C49.5878906,7.29785156 49.9833984,6.04980469 50.7744141,5.14160156 C51.5654297,4.23339844 52.6523437,3.77929688 54.0351562,3.77929688 C55.3183594,3.77929688 56.3320312,4.16894531 57.0761719,4.94824219 C57.8203125,5.72753906 58.1923828,6.79980469 58.1923828,8.16503906 L58.1923828,9.28125 L51.7148437,9.28125 C51.7441406,10.2246094 51.9990234,10.949707 52.4794922,11.456543 C52.9599609,11.9633789 53.6367187,12.2167969 54.5097656,12.2167969 C55.0839844,12.2167969 55.6186523,12.1625977 56.1137695,12.0541992 C56.6088867,11.9458008 57.140625,11.765625 57.7089844,11.5136719 L57.7089844,13.1923828 C57.2050781,13.4326172 56.6953125,13.6025391 56.1796875,13.7021484 C55.6640625,13.8017578 55.0751953,13.8515625 54.4130859,13.8515625 Z M54.0351562,5.34375 C53.3789062,5.34375 52.8530273,5.55175781 52.4575195,5.96777344 C52.0620117,6.38378906 51.8261719,6.99023438 51.75,7.78710938 L56.1621094,7.78710938 C56.1503906,6.984375 55.9570312,6.37646484 55.5820312,5.96337891 C55.2070312,5.55029297 54.6914062,5.34375 54.0351562,5.34375 Z" id="Shape"></path>
            </g>
        </g>
    </g>
</svg>