<?xml version="1.0" encoding="UTF-8"?>
<svg width="1021px" height="274px" viewBox="0 0 1021 274" version="1.1" xmlns="http://www.w3.org/2000/svg" xmlns:xlink="http://www.w3.org/1999/xlink">
    <title>its-light</title>
    <g id="its-light" stroke="none" stroke-width="1" fill="none" fill-rule="evenodd">
        <g id="graphics" transform="translate(240.000000, 37.000000)">
            <path id="Line-3" d="M526,169.5 L540,176.5 L526,183.5 L526,177.5 L151,177.5 L151,175.5 L526,175.5 L526,169.5 Z" fill="#000000" fill-rule="nonzero"></path>
            <path id="Line-3" d="M70,169.5 L84,176.5 L70,183.5 L70,177.5 L-1,177.5 L-1,175.5 L70,175.5 L70,169.5 Z" fill="#000000" fill-rule="nonzero"></path>
            <rect id="Rectangle" stroke="#000000" stroke-width="2" fill="#96CFE9" x="0" y="0" width="84.2618658" height="81"></rect>
            <rect id="Rectangle" stroke="#000000" stroke-width="2" fill="#96CFE9" x="152" y="0" width="84.2618658" height="81"></rect>
            <rect id="Rectangle" stroke="#000000" stroke-width="2" fill="#96CFE9" x="303.86" y="0" width="84.2618658" height="81"></rect>
            <rect id="Rectangle" stroke="#000000" stroke-width="2" fill="#96CFE9" x="455.81" y="0" width="84.2618658" height="81"></rect>
        </g>
        <g id="text" transform="translate(240.861328, 65.300781)" fill="#000000" fill-rule="nonzero">
            <g id="dropped" transform="translate(152.035156, 161.023438)">
                <path d="M3.85839844,13.8515625 C2.64550781,13.8515625 1.69921875,13.4121094 1.01953125,12.5332031 C0.33984375,11.6542969 0,10.4208984 0,8.83300781 C0,7.23925781 0.344238281,5.99853516 1.03271484,5.11083984 C1.72119141,4.22314453 2.67480469,3.77929688 3.89355469,3.77929688 C5.17089844,3.77929688 6.14355469,4.25097656 6.81152344,5.19433594 L6.91699219,5.19433594 C6.81738281,4.49707031 6.76757812,3.94628906 6.76757812,3.54199219 L6.76757812,0 L8.84179688,0 L8.84179688,13.6757812 L7.22460938,13.6757812 L6.86425781,12.4013672 L6.76757812,12.4013672 C6.10546875,13.3681641 5.13574219,13.8515625 3.85839844,13.8515625 Z M4.41210938,12.1816406 C5.26171875,12.1816406 5.87988281,11.9428711 6.26660156,11.465332 C6.65332031,10.987793 6.85253906,10.2128906 6.86425781,9.140625 L6.86425781,8.85058594 C6.86425781,7.62597656 6.66503906,6.75585938 6.26660156,6.24023438 C5.86816406,5.72460938 5.24414062,5.46679688 4.39453125,5.46679688 C3.66796875,5.46679688 3.10839844,5.76123047 2.71582031,6.35009766 C2.32324219,6.93896484 2.12695312,7.77832031 2.12695312,8.86816406 C2.12695312,9.94628906 2.31738281,10.7680664 2.69824219,11.3334961 C3.07910156,11.8989258 3.65039062,12.1816406 4.41210938,12.1816406 Z" id="Shape"></path>
                <path d="M16.6693359,3.77929688 C17.0853516,3.77929688 17.428125,3.80859375 17.6976562,3.8671875 L17.4955078,5.79199219 C17.2025391,5.72167969 16.8978516,5.68652344 16.5814453,5.68652344 C15.7552734,5.68652344 15.0858398,5.95605469 14.5731445,6.49511719 C14.0604492,7.03417969 13.8041016,7.734375 13.8041016,8.59570312 L13.8041016,13.6757812 L11.7386719,13.6757812 L11.7386719,3.95507812 L13.3558594,3.95507812 L13.6283203,5.66894531 L13.7337891,5.66894531 C14.0560547,5.08886719 14.4764648,4.62890625 14.9950195,4.2890625 C15.5135742,3.94921875 16.0716797,3.77929688 16.6693359,3.77929688 Z" id="Path"></path>
                <path d="M28.0652344,8.79785156 C28.0652344,10.3857422 27.6580078,11.625 26.8435547,12.515625 C26.0291016,13.40625 24.8953125,13.8515625 23.4421875,13.8515625 C22.5339844,13.8515625 21.73125,13.6464844 21.0339844,13.2363281 C20.3367187,12.8261719 19.8005859,12.2373047 19.4255859,11.4697266 C19.0505859,10.7021484 18.8630859,9.81152344 18.8630859,8.79785156 C18.8630859,7.22167969 19.2673828,5.99121094 20.0759766,5.10644531 C20.8845703,4.22167969 22.0242187,3.77929688 23.4949219,3.77929688 C24.9011719,3.77929688 26.0144531,4.23193359 26.8347656,5.13720703 C27.6550781,6.04248047 28.0652344,7.26269531 28.0652344,8.79785156 Z M20.9900391,8.79785156 C20.9900391,11.0419922 21.8191406,12.1640625 23.4773437,12.1640625 C25.1179687,12.1640625 25.9382812,11.0419922 25.9382812,8.79785156 C25.9382812,6.57714844 25.1121094,5.46679688 23.4597656,5.46679688 C22.5925781,5.46679688 21.9641602,5.75390625 21.5745117,6.328125 C21.1848633,6.90234375 20.9900391,7.72558594 20.9900391,8.79785156 Z" id="Shape"></path>
                <path d="M35.3126953,13.8515625 C34.0822266,13.8515625 33.1271484,13.4091797 32.4474609,12.5244141 L32.3244141,12.5244141 C32.4064453,13.3447266 32.4474609,13.8427734 32.4474609,14.0185547 L32.4474609,18 L30.3820312,18 L30.3820312,3.95507812 L32.0519531,3.95507812 C32.0988281,4.13671875 32.1955078,4.5703125 32.3419922,5.25585938 L32.4474609,5.25585938 C33.0919922,4.27148438 34.0587891,3.77929688 35.3478516,3.77929688 C36.5607422,3.77929688 37.5055664,4.21875 38.1823242,5.09765625 C38.859082,5.9765625 39.1974609,7.20996094 39.1974609,8.79785156 C39.1974609,10.3857422 38.8532227,11.625 38.1647461,12.515625 C37.4762695,13.40625 36.5255859,13.8515625 35.3126953,13.8515625 Z M34.8117187,5.46679688 C33.9914062,5.46679688 33.3922852,5.70703125 33.0143555,6.1875 C32.6364258,6.66796875 32.4474609,7.43554688 32.4474609,8.49023438 L32.4474609,8.79785156 C32.4474609,9.98144531 32.6349609,10.8383789 33.0099609,11.3686523 C33.3849609,11.8989258 33.9972656,12.1640625 34.846875,12.1640625 C35.5617187,12.1640625 36.1125,11.8710938 36.4992187,11.2851562 C36.8859375,10.6992188 37.0792969,9.86425781 37.0792969,8.78027344 C37.0792969,7.69042969 36.8874023,6.86572266 36.5036133,6.30615234 C36.1198242,5.74658203 35.5558594,5.46679688 34.8117187,5.46679688 Z" id="Shape"></path>
                <path d="M46.4712891,13.8515625 C45.2408203,13.8515625 44.2857422,13.4091797 43.6060547,12.5244141 L43.4830078,12.5244141 C43.5650391,13.3447266 43.6060547,13.8427734 43.6060547,14.0185547 L43.6060547,18 L41.540625,18 L41.540625,3.95507812 L43.2105469,3.95507812 C43.2574219,4.13671875 43.3541016,4.5703125 43.5005859,5.25585938 L43.6060547,5.25585938 C44.2505859,4.27148438 45.2173828,3.77929688 46.5064453,3.77929688 C47.7193359,3.77929688 48.6641602,4.21875 49.340918,5.09765625 C50.0176758,5.9765625 50.3560547,7.20996094 50.3560547,8.79785156 C50.3560547,10.3857422 50.0118164,11.625 49.3233398,12.515625 C48.6348633,13.40625 47.6841797,13.8515625 46.4712891,13.8515625 Z M45.9703125,5.46679688 C45.15,5.46679688 44.5508789,5.70703125 44.1729492,6.1875 C43.7950195,6.66796875 43.6060547,7.43554688 43.6060547,8.49023438 L43.6060547,8.79785156 C43.6060547,9.98144531 43.7935547,10.8383789 44.1685547,11.3686523 C44.5435547,11.8989258 45.1558594,12.1640625 46.0054687,12.1640625 C46.7203125,12.1640625 47.2710937,11.8710938 47.6578125,11.2851562 C48.0445312,10.6992188 48.2378906,9.86425781 48.2378906,8.78027344 C48.2378906,7.69042969 48.0459961,6.86572266 47.662207,6.30615234 C47.278418,5.74658203 46.7144531,5.46679688 45.9703125,5.46679688 Z" id="Shape"></path>
                <path d="M56.9443359,13.8515625 C55.4326172,13.8515625 54.2504883,13.4106445 53.3979492,12.5288086 C52.5454102,11.6469727 52.1191406,10.4326172 52.1191406,8.88574219 C52.1191406,7.29785156 52.5146484,6.04980469 53.3056641,5.14160156 C54.0966797,4.23339844 55.1835937,3.77929688 56.5664062,3.77929688 C57.8496094,3.77929688 58.8632812,4.16894531 59.6074219,4.94824219 C60.3515625,5.72753906 60.7236328,6.79980469 60.7236328,8.16503906 L60.7236328,9.28125 L54.2460937,9.28125 C54.2753906,10.2246094 54.5302734,10.949707 55.0107422,11.456543 C55.4912109,11.9633789 56.1679687,12.2167969 57.0410156,12.2167969 C57.6152344,12.2167969 58.1499023,12.1625977 58.6450195,12.0541992 C59.1401367,11.9458008 59.671875,11.765625 60.2402344,11.5136719 L60.2402344,13.1923828 C59.7363281,13.4326172 59.2265625,13.6025391 58.7109375,13.7021484 C58.1953125,13.8017578 57.6064453,13.8515625 56.9443359,13.8515625 Z M56.5664062,5.34375 C55.9101562,5.34375 55.3842773,5.55175781 54.9887695,5.96777344 C54.5932617,6.38378906 54.3574219,6.99023438 54.28125,7.78710938 L58.6933594,7.78710938 C58.6816406,6.984375 58.4882812,6.37646484 58.1132812,5.96337891 C57.7382812,5.55029297 57.2226562,5.34375 56.5664062,5.34375 Z" id="Shape"></path>
                <path d="M66.2923828,13.8515625 C65.0794922,13.8515625 64.1332031,13.4121094 63.4535156,12.5332031 C62.7738281,11.6542969 62.4339844,10.4208984 62.4339844,8.83300781 C62.4339844,7.23925781 62.7782227,5.99853516 63.4666992,5.11083984 C64.1551758,4.22314453 65.1087891,3.77929688 66.3275391,3.77929688 C67.6048828,3.77929688 68.5775391,4.25097656 69.2455078,5.19433594 L69.3509766,5.19433594 C69.2513672,4.49707031 69.2015625,3.94628906 69.2015625,3.54199219 L69.2015625,0 L71.2757812,0 L71.2757812,13.6757812 L69.6585937,13.6757812 L69.2982422,12.4013672 L69.2015625,12.4013672 C68.5394531,13.3681641 67.5697266,13.8515625 66.2923828,13.8515625 Z M66.8460937,12.1816406 C67.6957031,12.1816406 68.3138672,11.9428711 68.7005859,11.465332 C69.0873047,10.987793 69.2865234,10.2128906 69.2982422,9.140625 L69.2982422,8.85058594 C69.2982422,7.62597656 69.0990234,6.75585938 68.7005859,6.24023438 C68.3021484,5.72460938 67.678125,5.46679688 66.8285156,5.46679688 C66.1019531,5.46679688 65.5423828,5.76123047 65.1498047,6.35009766 C64.7572266,6.93896484 64.5609375,7.77832031 64.5609375,8.86816406 C64.5609375,9.94628906 64.7513672,10.7680664 65.1322266,11.3334961 C65.5130859,11.8989258 66.084375,12.1816406 66.8460937,12.1816406 Z" id="Shape"></path>
            </g>
            <g id="single" transform="translate(16.946790, 91.023438)">
                <path d="M7.14550781,10.9072266 C7.14550781,11.8564453 6.79980469,12.5844727 6.10839844,13.0913086 C5.41699219,13.5981445 4.42675781,13.8515625 3.13769531,13.8515625 C1.84277344,13.8515625 0.802734375,13.6552734 0.017578125,13.2626953 L0.017578125,11.4785156 C1.16015625,12.0058594 2.22363281,12.2695312 3.20800781,12.2695312 C4.47949219,12.2695312 5.11523438,11.8857422 5.11523438,11.1181641 C5.11523438,10.8720703 5.04492188,10.6669922 4.90429688,10.5029297 C4.76367188,10.3388672 4.53222656,10.1689453 4.20996094,9.99316406 C3.88769531,9.81738281 3.43945312,9.61816406 2.86523438,9.39550781 C1.74609375,8.96191406 0.988769531,8.52832031 0.593261719,8.09472656 C0.197753906,7.66113281 0,7.09863281 0,6.40722656 C0,5.57519531 0.335449219,4.92919922 1.00634766,4.46923828 C1.67724609,4.00927734 2.58984375,3.77929688 3.74414062,3.77929688 C4.88671875,3.77929688 5.96777344,4.01074219 6.98730469,4.47363281 L6.31933594,6.02929688 C5.27050781,5.59570312 4.38867188,5.37890625 3.67382812,5.37890625 C2.58398438,5.37890625 2.0390625,5.68945312 2.0390625,6.31054688 C2.0390625,6.61523438 2.18115234,6.87304688 2.46533203,7.08398438 C2.74951172,7.29492188 3.36914062,7.58496094 4.32421875,7.95410156 C5.12695312,8.26464844 5.70996094,8.54882812 6.07324219,8.80664062 C6.43652344,9.06445312 6.70605469,9.36181641 6.88183594,9.69873047 C7.05761719,10.0356445 7.14550781,10.4384766 7.14550781,10.9072266 Z" id="Path"></path>
                <path d="M11.3871094,13.6757812 L9.32167969,13.6757812 L9.32167969,3.95507812 L11.3871094,3.95507812 L11.3871094,13.6757812 Z M9.19863281,1.37988281 C9.19863281,1.01074219 9.29970703,0.7265625 9.50185547,0.52734375 C9.70400391,0.328125 9.99257812,0.228515625 10.3675781,0.228515625 C10.7308594,0.228515625 11.0135742,0.328125 11.2157227,0.52734375 C11.4178711,0.7265625 11.5189453,1.01074219 11.5189453,1.37988281 C11.5189453,1.73144531 11.4178711,2.00830078 11.2157227,2.21044922 C11.0135742,2.41259766 10.7308594,2.51367188 10.3675781,2.51367188 C9.99257812,2.51367188 9.70400391,2.41259766 9.50185547,2.21044922 C9.29970703,2.00830078 9.19863281,1.73144531 9.19863281,1.37988281 Z" id="Shape"></path>
                <path d="M22.8357422,13.6757812 L20.7615234,13.6757812 L20.7615234,7.69921875 C20.7615234,6.94921875 20.6106445,6.38964844 20.3088867,6.02050781 C20.0071289,5.65136719 19.528125,5.46679688 18.871875,5.46679688 C17.9988281,5.46679688 17.3601562,5.72460938 16.9558594,6.24023438 C16.5515625,6.75585938 16.3494141,7.62011719 16.3494141,8.83300781 L16.3494141,13.6757812 L14.2839844,13.6757812 L14.2839844,3.95507812 L15.9011719,3.95507812 L16.1912109,5.22949219 L16.2966797,5.22949219 C16.5896484,4.76660156 17.0056641,4.40917969 17.5447266,4.15722656 C18.0837891,3.90527344 18.6814453,3.77929688 19.3376953,3.77929688 C21.6697266,3.77929688 22.8357422,4.96582031 22.8357422,7.33886719 L22.8357422,13.6757812 Z" id="Path"></path>
                <path d="M33.8625,3.95507812 L33.8625,5.08886719 L32.2013672,5.39648438 C32.3537109,5.6015625 32.4796875,5.85351562 32.5792969,6.15234375 C32.6789062,6.45117188 32.7287109,6.76757812 32.7287109,7.1015625 C32.7287109,8.10351562 32.3830078,8.89160156 31.6916016,9.46582031 C31.0001953,10.0400391 30.0480469,10.3271484 28.8351562,10.3271484 C28.5246094,10.3271484 28.2433594,10.3037109 27.9914062,10.2568359 C27.5460937,10.5322266 27.3234375,10.8544922 27.3234375,11.2236328 C27.3234375,11.4462891 27.4274414,11.6132812 27.6354492,11.7246094 C27.843457,11.8359375 28.2257812,11.8916016 28.7824219,11.8916016 L30.4787109,11.8916016 C31.5509766,11.8916016 32.3654297,12.1201172 32.9220703,12.5771484 C33.4787109,13.0341797 33.7570312,13.6933594 33.7570312,14.5546875 C33.7570312,15.65625 33.3029297,16.5058594 32.3947266,17.1035156 C31.4865234,17.7011719 30.1740234,18 28.4572266,18 C27.1330078,18 26.1222656,17.765625 25.425,17.296875 C24.7277344,16.828125 24.3791016,16.1601562 24.3791016,15.2929688 C24.3791016,14.6953125 24.5680664,14.1928711 24.9459961,13.7856445 C25.3239258,13.378418 25.8527344,13.0957031 26.5324219,12.9375 C26.2570312,12.8203125 26.0299805,12.6313477 25.8512695,12.3706055 C25.6725586,12.1098633 25.5832031,11.8359375 25.5832031,11.5488281 C25.5832031,11.1855469 25.6857422,10.8779297 25.8908203,10.6259766 C26.0958984,10.3740234 26.4005859,10.125 26.8048828,9.87890625 C26.3009766,9.66210938 25.8922852,9.30908203 25.5788086,8.81982422 C25.265332,8.33056641 25.1085937,7.7578125 25.1085937,7.1015625 C25.1085937,6.046875 25.4411133,5.22949219 26.1061523,4.64941406 C26.7711914,4.06933594 27.7189453,3.77929688 28.9494141,3.77929688 C29.2248047,3.77929688 29.5133789,3.79833984 29.8151367,3.83642578 C30.1168945,3.87451172 30.3439453,3.9140625 30.4962891,3.95507812 L33.8625,3.95507812 Z M26.2248047,15.1875 C26.2248047,15.6328125 26.4254883,15.9755859 26.8268555,16.2158203 C27.2282227,16.4560547 27.7921875,16.5761719 28.51875,16.5761719 C29.64375,16.5761719 30.4816406,16.4150391 31.0324219,16.0927734 C31.5832031,15.7705078 31.8585937,15.3427734 31.8585937,14.8095703 C31.8585937,14.3876953 31.7077148,14.0874023 31.405957,13.9086914 C31.1041992,13.7299805 30.5431641,13.640625 29.7228516,13.640625 L28.1583984,13.640625 C27.5666016,13.640625 27.0963867,13.7797852 26.7477539,14.0581055 C26.3991211,14.3364258 26.2248047,14.7128906 26.2248047,15.1875 Z M27.1125,7.1015625 C27.1125,7.7109375 27.2692383,8.1796875 27.5827148,8.5078125 C27.8961914,8.8359375 28.3458984,9 28.9318359,9 C30.1271484,9 30.7248047,8.36132812 30.7248047,7.08398438 C30.7248047,6.45117188 30.5768555,5.96337891 30.280957,5.62060547 C29.9850586,5.27783203 29.5353516,5.10644531 28.9318359,5.10644531 C28.3341797,5.10644531 27.881543,5.27636719 27.5739258,5.61621094 C27.2663086,5.95605469 27.1125,6.45117188 27.1125,7.1015625 Z" id="Shape"></path>
                <polygon id="Path" points="37.6734375 13.6757812 35.6080078 13.6757812 35.6080078 0 37.6734375 0"></polygon>
                <path d="M44.8154297,13.8515625 C43.3037109,13.8515625 42.121582,13.4106445 41.269043,12.5288086 C40.4165039,11.6469727 39.9902344,10.4326172 39.9902344,8.88574219 C39.9902344,7.29785156 40.3857422,6.04980469 41.1767578,5.14160156 C41.9677734,4.23339844 43.0546875,3.77929688 44.4375,3.77929688 C45.7207031,3.77929688 46.734375,4.16894531 47.4785156,4.94824219 C48.2226562,5.72753906 48.5947266,6.79980469 48.5947266,8.16503906 L48.5947266,9.28125 L42.1171875,9.28125 C42.1464844,10.2246094 42.4013672,10.949707 42.8818359,11.456543 C43.3623047,11.9633789 44.0390625,12.2167969 44.9121094,12.2167969 C45.4863281,12.2167969 46.0209961,12.1625977 46.5161133,12.0541992 C47.0112305,11.9458008 47.5429687,11.765625 48.1113281,11.5136719 L48.1113281,13.1923828 C47.6074219,13.4326172 47.0976562,13.6025391 46.5820312,13.7021484 C46.0664062,13.8017578 45.4775391,13.8515625 44.8154297,13.8515625 Z M44.4375,5.34375 C43.78125,5.34375 43.2553711,5.55175781 42.8598633,5.96777344 C42.4643555,6.38378906 42.2285156,6.99023438 42.1523437,7.78710938 L46.5644531,7.78710938 C46.5527344,6.984375 46.359375,6.37646484 45.984375,5.96337891 C45.609375,5.55029297 45.09375,5.34375 44.4375,5.34375 Z" id="Shape"></path>
            </g>
            <g id="double" transform="translate(164.958273, 91.023438)">
                <path d="M3.85839844,13.8515625 C2.64550781,13.8515625 1.69921875,13.4121094 1.01953125,12.5332031 C0.33984375,11.6542969 0,10.4208984 0,8.83300781 C0,7.23925781 0.344238281,5.99853516 1.03271484,5.11083984 C1.72119141,4.22314453 2.67480469,3.77929688 3.89355469,3.77929688 C5.17089844,3.77929688 6.14355469,4.25097656 6.81152344,5.19433594 L6.91699219,5.19433594 C6.81738281,4.49707031 6.76757812,3.94628906 6.76757812,3.54199219 L6.76757812,0 L8.84179688,0 L8.84179688,13.6757812 L7.22460938,13.6757812 L6.86425781,12.4013672 L6.76757812,12.4013672 C6.10546875,13.3681641 5.13574219,13.8515625 3.85839844,13.8515625 Z M4.41210938,12.1816406 C5.26171875,12.1816406 5.87988281,11.9428711 6.26660156,11.465332 C6.65332031,10.987793 6.85253906,10.2128906 6.86425781,9.140625 L6.86425781,8.85058594 C6.86425781,7.62597656 6.66503906,6.75585938 6.26660156,6.24023438 C5.86816406,5.72460938 5.24414062,5.46679688 4.39453125,5.46679688 C3.66796875,5.46679688 3.10839844,5.76123047 2.71582031,6.35009766 C2.32324219,6.93896484 2.12695312,7.77832031 2.12695312,8.86816406 C2.12695312,9.94628906 2.31738281,10.7680664 2.69824219,11.3334961 C3.07910156,11.8989258 3.65039062,12.1816406 4.41210938,12.1816406 Z" id="Shape"></path>
                <path d="M20.3607422,8.79785156 C20.3607422,10.3857422 19.9535156,11.625 19.1390625,12.515625 C18.3246094,13.40625 17.1908203,13.8515625 15.7376953,13.8515625 C14.8294922,13.8515625 14.0267578,13.6464844 13.3294922,13.2363281 C12.6322266,12.8261719 12.0960937,12.2373047 11.7210937,11.4697266 C11.3460937,10.7021484 11.1585937,9.81152344 11.1585937,8.79785156 C11.1585937,7.22167969 11.5628906,5.99121094 12.3714844,5.10644531 C13.1800781,4.22167969 14.3197266,3.77929688 15.7904297,3.77929688 C17.1966797,3.77929688 18.3099609,4.23193359 19.1302734,5.13720703 C19.9505859,6.04248047 20.3607422,7.26269531 20.3607422,8.79785156 Z M13.2855469,8.79785156 C13.2855469,11.0419922 14.1146484,12.1640625 15.7728516,12.1640625 C17.4134766,12.1640625 18.2337891,11.0419922 18.2337891,8.79785156 C18.2337891,6.57714844 17.4076172,5.46679688 15.7552734,5.46679688 C14.8880859,5.46679688 14.259668,5.75390625 13.8700195,6.328125 C13.4803711,6.90234375 13.2855469,7.72558594 13.2855469,8.79785156 Z" id="Shape"></path>
                <path d="M29.5330078,13.6757812 L29.2429687,12.4013672 L29.1375,12.4013672 C28.8503906,12.8525391 28.4416992,13.2070312 27.9114258,13.4648438 C27.3811523,13.7226562 26.7761719,13.8515625 26.0964844,13.8515625 C24.91875,13.8515625 24.0398437,13.5585938 23.4597656,12.9726562 C22.8796875,12.3867188 22.5896484,11.4990234 22.5896484,10.3095703 L22.5896484,3.95507812 L24.6726562,3.95507812 L24.6726562,9.94921875 C24.6726562,10.6933594 24.825,11.2514648 25.1296875,11.6235352 C25.434375,11.9956055 25.9119141,12.1816406 26.5623047,12.1816406 C27.4294922,12.1816406 28.0666992,11.9223633 28.4739258,11.4038086 C28.8811523,10.8852539 29.0847656,10.0166016 29.0847656,8.79785156 L29.0847656,3.95507812 L31.1589844,3.95507812 L31.1589844,13.6757812 L29.5330078,13.6757812 Z" id="Path"></path>
                <path d="M39.0128906,3.77929688 C40.2257812,3.77929688 41.1706055,4.21875 41.8473633,5.09765625 C42.5241211,5.9765625 42.8625,7.20996094 42.8625,8.79785156 C42.8625,10.3916016 42.5197266,11.6323242 41.8341797,12.5200195 C41.1486328,13.4077148 40.1964844,13.8515625 38.9777344,13.8515625 C37.7472656,13.8515625 36.7921875,13.4091797 36.1125,12.5244141 L35.971875,12.5244141 L35.5939453,13.6757812 L34.0470703,13.6757812 L34.0470703,0 L36.1125,0 L36.1125,3.25195312 C36.1125,3.4921875 36.1007812,3.84960937 36.0773437,4.32421875 C36.0539062,4.79882812 36.0363281,5.10058594 36.0246094,5.22949219 L36.1125,5.22949219 C36.76875,4.26269531 37.7355469,3.77929688 39.0128906,3.77929688 Z M38.4767578,5.46679688 C37.6447266,5.46679688 37.0456055,5.71142578 36.6793945,6.20068359 C36.3131836,6.68994141 36.1242187,7.50878906 36.1125,8.65722656 L36.1125,8.79785156 C36.1125,9.98144531 36.3,10.8383789 36.675,11.3686523 C37.05,11.8989258 37.6623047,12.1640625 38.5119141,12.1640625 C39.2443359,12.1640625 39.7995117,11.8740234 40.1774414,11.2939453 C40.5553711,10.7138672 40.7443359,9.87597656 40.7443359,8.78027344 C40.7443359,6.57128906 39.9884766,5.46679688 38.4767578,5.46679688 Z" id="Shape"></path>
                <polygon id="Path" points="47.2710937 13.6757812 45.2056641 13.6757812 45.2056641 0 47.2710937 0"></polygon>
                <path d="M54.4130859,13.8515625 C52.9013672,13.8515625 51.7192383,13.4106445 50.8666992,12.5288086 C50.0141602,11.6469727 49.5878906,10.4326172 49.5878906,8.88574219 C49.5878906,7.29785156 49.9833984,6.04980469 50.7744141,5.14160156 C51.5654297,4.23339844 52.6523437,3.77929688 54.0351562,3.77929688 C55.3183594,3.77929688 56.3320312,4.16894531 57.0761719,4.94824219 C57.8203125,5.72753906 58.1923828,6.79980469 58.1923828,8.16503906 L58.1923828,9.28125 L51.7148437,9.28125 C51.7441406,10.2246094 51.9990234,10.949707 52.4794922,11.456543 C52.9599609,11.9633789 53.6367187,12.2167969 54.5097656,12.2167969 C55.0839844,12.2167969 55.6186523,12.1625977 56.1137695,12.0541992 C56.6088867,11.9458008 57.140625,11.765625 57.7089844,11.5136719 L57.7089844,13.1923828 C57.2050781,13.4326172 56.6953125,13.6025391 56.1796875,13.7021484 C55.6640625,13.8017578 55.0751953,13.8515625 54.4130859,13.8515625 Z M54.0351562,5.34375 C53.3789062,5.34375 52.8530273,5.55175781 52.4575195,5.96777344 C52.0620117,6.38378906 51.8261719,6.99023438 51.75,7.78710938 L56.1621094,7.78710938 C56.1503906,6.984375 55.9570312,6.37646484 55.5820312,5.96337891 C55.2070312,5.55029297 54.6914062,5.34375 54.0351562,5.34375 Z" id="Shape"></path>
            </g>
            <g id="double" transform="translate(315.914508, 91.023438)">
                <path d="M3.85839844,13.8515625 C2.64550781,13.8515625 1.69921875,13.4121094 1.01953125,12.5332031 C0.33984375,11.6542969 0,10.4208984 0,8.83300781 C0,7.23925781 0.344238281,5.99853516 1.03271484,5.11083984 C1.72119141,4.22314453 2.67480469,3.77929688 3.89355469,3.77929688 C5.17089844,3.77929688 6.14355469,4.25097656 6.81152344,5.19433594 L6.91699219,5.19433594 C6.81738281,4.49707031 6.76757812,3.94628906 6.76757812,3.54199219 L6.76757812,0 L8.84179688,0 L8.84179688,13.6757812 L7.22460938,13.6757812 L6.86425781,12.4013672 L6.76757812,12.4013672 C6.10546875,13.3681641 5.13574219,13.8515625 3.85839844,13.8515625 Z M4.41210938,12.1816406 C5.26171875,12.1816406 5.87988281,11.9428711 6.26660156,11.465332 C6.65332031,10.987793 6.85253906,10.2128906 6.86425781,9.140625 L6.86425781,8.85058594 C6.86425781,7.62597656 6.66503906,6.75585938 6.26660156,6.24023438 C5.86816406,5.72460938 5.24414062,5.46679688 4.39453125,5.46679688 C3.66796875,5.46679688 3.10839844,5.76123047 2.71582031,6.35009766 C2.32324219,6.93896484 2.12695312,7.77832031 2.12695312,8.86816406 C2.12695312,9.94628906 2.31738281,10.7680664 2.69824219,11.3334961 C3.07910156,11.8989258 3.65039062,12.1816406 4.41210938,12.1816406 Z" id="Shape"></path>
                <path d="M20.3607422,8.79785156 C20.3607422,10.3857422 19.9535156,11.625 19.1390625,12.515625 C18.3246094,13.40625 17.1908203,13.8515625 15.7376953,13.8515625 C14.8294922,13.8515625 14.0267578,13.6464844 13.3294922,13.2363281 C12.6322266,12.8261719 12.0960937,12.2373047 11.7210937,11.4697266 C11.3460937,10.7021484 11.1585937,9.81152344 11.1585937,8.79785156 C11.1585937,7.22167969 11.5628906,5.99121094 12.3714844,5.10644531 C13.1800781,4.22167969 14.3197266,3.77929688 15.7904297,3.77929688 C17.1966797,3.77929688 18.3099609,4.23193359 19.1302734,5.13720703 C19.9505859,6.04248047 20.3607422,7.26269531 20.3607422,8.79785156 Z M13.2855469,8.79785156 C13.2855469,11.0419922 14.1146484,12.1640625 15.7728516,12.1640625 C17.4134766,12.1640625 18.2337891,11.0419922 18.2337891,8.79785156 C18.2337891,6.57714844 17.4076172,5.46679688 15.7552734,5.46679688 C14.8880859,5.46679688 14.259668,5.75390625 13.8700195,6.328125 C13.4803711,6.90234375 13.2855469,7.72558594 13.2855469,8.79785156 Z" id="Shape"></path>
                <path d="M29.5330078,13.6757812 L29.2429687,12.4013672 L29.1375,12.4013672 C28.8503906,12.8525391 28.4416992,13.2070312 27.9114258,13.4648438 C27.3811523,13.7226562 26.7761719,13.8515625 26.0964844,13.8515625 C24.91875,13.8515625 24.0398437,13.5585938 23.4597656,12.9726562 C22.8796875,12.3867188 22.5896484,11.4990234 22.5896484,10.3095703 L22.5896484,3.95507812 L24.6726562,3.95507812 L24.6726562,9.94921875 C24.6726562,10.6933594 24.825,11.2514648 25.1296875,11.6235352 C25.434375,11.9956055 25.9119141,12.1816406 26.5623047,12.1816406 C27.4294922,12.1816406 28.0666992,11.9223633 28.4739258,11.4038086 C28.8811523,10.8852539 29.0847656,10.0166016 29.0847656,8.79785156 L29.0847656,3.95507812 L31.1589844,3.95507812 L31.1589844,13.6757812 L29.5330078,13.6757812 Z" id="Path"></path>
                <path d="M39.0128906,3.77929688 C40.2257812,3.77929688 41.1706055,4.21875 41.8473633,5.09765625 C42.5241211,5.9765625 42.8625,7.20996094 42.8625,8.79785156 C42.8625,10.3916016 42.5197266,11.6323242 41.8341797,12.5200195 C41.1486328,13.4077148 40.1964844,13.8515625 38.9777344,13.8515625 C37.7472656,13.8515625 36.7921875,13.4091797 36.1125,12.5244141 L35.971875,12.5244141 L35.5939453,13.6757812 L34.0470703,13.6757812 L34.0470703,0 L36.1125,0 L36.1125,3.25195312 C36.1125,3.4921875 36.1007812,3.84960937 36.0773437,4.32421875 C36.0539062,4.79882812 36.0363281,5.10058594 36.0246094,5.22949219 L36.1125,5.22949219 C36.76875,4.26269531 37.7355469,3.77929688 39.0128906,3.77929688 Z M38.4767578,5.46679688 C37.6447266,5.46679688 37.0456055,5.71142578 36.6793945,6.20068359 C36.3131836,6.68994141 36.1242187,7.50878906 36.1125,8.65722656 L36.1125,8.79785156 C36.1125,9.98144531 36.3,10.8383789 36.675,11.3686523 C37.05,11.8989258 37.6623047,12.1640625 38.5119141,12.1640625 C39.2443359,12.1640625 39.7995117,11.8740234 40.1774414,11.2939453 C40.5553711,10.7138672 40.7443359,9.87597656 40.7443359,8.78027344 C40.7443359,6.57128906 39.9884766,5.46679688 38.4767578,5.46679688 Z" id="Shape"></path>
                <polygon id="Path" points="47.2710937 13.6757812 45.2056641 13.6757812 45.2056641 0 47.2710937 0"></polygon>
                <path d="M54.4130859,13.8515625 C52.9013672,13.8515625 51.7192383,13.4106445 50.8666992,12.5288086 C50.0141602,11.6469727 49.5878906,10.4326172 49.5878906,8.88574219 C49.5878906,7.29785156 49.9833984,6.04980469 50.7744141,5.14160156 C51.5654297,4.23339844 52.6523437,3.77929688 54.0351562,3.77929688 C55.3183594,3.77929688 56.3320312,4.16894531 57.0761719,4.94824219 C57.8203125,5.72753906 58.1923828,6.79980469 58.1923828,8.16503906 L58.1923828,9.28125 L51.7148437,9.28125 C51.7441406,10.2246094 51.9990234,10.949707 52.4794922,11.456543 C52.9599609,11.9633789 53.6367187,12.2167969 54.5097656,12.2167969 C55.0839844,12.2167969 55.6186523,12.1625977 56.1137695,12.0541992 C56.6088867,11.9458008 57.140625,11.765625 57.7089844,11.5136719 L57.7089844,13.1923828 C57.2050781,13.4326172 56.6953125,13.6025391 56.1796875,13.7021484 C55.6640625,13.8017578 55.0751953,13.8515625 54.4130859,13.8515625 Z M54.0351562,5.34375 C53.3789062,5.34375 52.8530273,5.55175781 52.4575195,5.96777344 C52.0620117,6.38378906 51.8261719,6.99023438 51.75,7.78710938 L56.1621094,7.78710938 C56.1503906,6.984375 55.9570312,6.37646484 55.5820312,5.96337891 C55.2070312,5.55029297 54.6914062,5.34375 54.0351562,5.34375 Z" id="Shape"></path>
            </g>
            <g id="double" transform="translate(467.788991, 91.023438)">
                <path d="M3.85839844,13.8515625 C2.64550781,13.8515625 1.69921875,13.4121094 1.01953125,12.5332031 C0.33984375,11.6542969 0,10.4208984 0,8.83300781 C0,7.23925781 0.344238281,5.99853516 1.03271484,5.11083984 C1.72119141,4.22314453 2.67480469,3.77929688 3.89355469,3.77929688 C5.17089844,3.77929688 6.14355469,4.25097656 6.81152344,5.19433594 L6.91699219,5.19433594 C6.81738281,4.49707031 6.76757812,3.94628906 6.76757812,3.54199219 L6.76757812,0 L8.84179688,0 L8.84179688,13.6757812 L7.22460938,13.6757812 L6.86425781,12.4013672 L6.76757812,12.4013672 C6.10546875,13.3681641 5.13574219,13.8515625 3.85839844,13.8515625 Z M4.41210938,12.1816406 C5.26171875,12.1816406 5.87988281,11.9428711 6.26660156,11.465332 C6.65332031,10.987793 6.85253906,10.2128906 6.86425781,9.140625 L6.86425781,8.85058594 C6.86425781,7.62597656 6.66503906,6.75585938 6.26660156,6.24023438 C5.86816406,5.72460938 5.24414062,5.46679688 4.39453125,5.46679688 C3.66796875,5.46679688 3.10839844,5.76123047 2.71582031,6.35009766 C2.32324219,6.93896484 2.12695312,7.77832031 2.12695312,8.86816406 C2.12695312,9.94628906 2.31738281,10.7680664 2.69824219,11.3334961 C3.07910156,11.8989258 3.65039062,12.1816406 4.41210938,12.1816406 Z" id="Shape"></path>
                <path d="M20.3607422,8.79785156 C20.3607422,10.3857422 19.9535156,11.625 19.1390625,12.515625 C18.3246094,13.40625 17.1908203,13.8515625 15.7376953,13.8515625 C14.8294922,13.8515625 14.0267578,13.6464844 13.3294922,13.2363281 C12.6322266,12.8261719 12.0960937,12.2373047 11.7210937,11.4697266 C11.3460937,10.7021484 11.1585937,9.81152344 11.1585937,8.79785156 C11.1585937,7.22167969 11.5628906,5.99121094 12.3714844,5.10644531 C13.1800781,4.22167969 14.3197266,3.77929688 15.7904297,3.77929688 C17.1966797,3.77929688 18.3099609,4.23193359 19.1302734,5.13720703 C19.9505859,6.04248047 20.3607422,7.26269531 20.3607422,8.79785156 Z M13.2855469,8.79785156 C13.2855469,11.0419922 14.1146484,12.1640625 15.7728516,12.1640625 C17.4134766,12.1640625 18.2337891,11.0419922 18.2337891,8.79785156 C18.2337891,6.57714844 17.4076172,5.46679688 15.7552734,5.46679688 C14.8880859,5.46679688 14.259668,5.75390625 13.8700195,6.328125 C13.4803711,6.90234375 13.2855469,7.72558594 13.2855469,8.79785156 Z" id="Shape"></path>
                <path d="M29.5330078,13.6757812 L29.2429687,12.4013672 L29.1375,12.4013672 C28.8503906,12.8525391 28.4416992,13.2070312 27.9114258,13.4648438 C27.3811523,13.7226562 26.7761719,13.8515625 26.0964844,13.8515625 C24.91875,13.8515625 24.0398437,13.5585938 23.4597656,12.9726562 C22.8796875,12.3867188 22.5896484,11.4990234 22.5896484,10.3095703 L22.5896484,3.95507812 L24.6726562,3.95507812 L24.6726562,9.94921875 C24.6726562,10.6933594 24.825,11.2514648 25.1296875,11.6235352 C25.434375,11.9956055 25.9119141,12.1816406 26.5623047,12.1816406 C27.4294922,12.1816406 28.0666992,11.9223633 28.4739258,11.4038086 C28.8811523,10.8852539 29.0847656,10.0166016 29.0847656,8.79785156 L29.0847656,3.95507812 L31.1589844,3.95507812 L31.1589844,13.6757812 L29.5330078,13.6757812 Z" id="Path"></path>
                <path d="M39.0128906,3.77929688 C40.2257812,3.77929688 41.1706055,4.21875 41.8473633,5.09765625 C42.5241211,5.9765625 42.8625,7.20996094 42.8625,8.79785156 C42.8625,10.3916016 42.5197266,11.6323242 41.8341797,12.5200195 C41.1486328,13.4077148 40.1964844,13.8515625 38.9777344,13.8515625 C37.7472656,13.8515625 36.7921875,13.4091797 36.1125,12.5244141 L35.971875,12.5244141 L35.5939453,13.6757812 L34.0470703,13.6757812 L34.0470703,0 L36.1125,0 L36.1125,3.25195312 C36.1125,3.4921875 36.1007812,3.84960937 36.0773437,4.32421875 C36.0539062,4.79882812 36.0363281,5.10058594 36.0246094,5.22949219 L36.1125,5.22949219 C36.76875,4.26269531 37.7355469,3.77929688 39.0128906,3.77929688 Z M38.4767578,5.46679688 C37.6447266,5.46679688 37.0456055,5.71142578 36.6793945,6.20068359 C36.3131836,6.68994141 36.1242187,7.50878906 36.1125,8.65722656 L36.1125,8.79785156 C36.1125,9.98144531 36.3,10.8383789 36.675,11.3686523 C37.05,11.8989258 37.6623047,12.1640625 38.5119141,12.1640625 C39.2443359,12.1640625 39.7995117,11.8740234 40.1774414,11.2939453 C40.5553711,10.7138672 40.7443359,9.87597656 40.7443359,8.78027344 C40.7443359,6.57128906 39.9884766,5.46679688 38.4767578,5.46679688 Z" id="Shape"></path>
                <polygon id="Path" points="47.2710937 13.6757812 45.2056641 13.6757812 45.2056641 0 47.2710937 0"></polygon>
                <path d="M54.4130859,13.8515625 C52.9013672,13.8515625 51.7192383,13.4106445 50.8666992,12.5288086 C50.0141602,11.6469727 49.5878906,10.4326172 49.5878906,8.88574219 C49.5878906,7.29785156 49.9833984,6.04980469 50.7744141,5.14160156 C51.5654297,4.23339844 52.6523437,3.77929688 54.0351562,3.77929688 C55.3183594,3.77929688 56.3320312,4.16894531 57.0761719,4.94824219 C57.8203125,5.72753906 58.1923828,6.79980469 58.1923828,8.16503906 L58.1923828,9.28125 L51.7148437,9.28125 C51.7441406,10.2246094 51.9990234,10.949707 52.4794922,11.456543 C52.9599609,11.9633789 53.6367187,12.2167969 54.5097656,12.2167969 C55.0839844,12.2167969 55.6186523,12.1625977 56.1137695,12.0541992 C56.6088867,11.9458008 57.140625,11.765625 57.7089844,11.5136719 L57.7089844,13.1923828 C57.2050781,13.4326172 56.6953125,13.6025391 56.1796875,13.7021484 C55.6640625,13.8017578 55.0751953,13.8515625 54.4130859,13.8515625 Z M54.0351562,5.34375 C53.3789062,5.34375 52.8530273,5.55175781 52.4575195,5.96777344 C52.0620117,6.38378906 51.8261719,6.99023438 51.75,7.78710938 L56.1621094,7.78710938 C56.1503906,6.984375 55.9570312,6.37646484 55.5820312,5.96337891 C55.2070312,5.55029297 54.6914062,5.34375 54.0351562,5.34375 Z" id="Shape"></path>
            </g>
            <g id="shifting" transform="translate(0.000000, 160.926758)">
                <path d="M7.14550781,11.0039062 C7.14550781,11.953125 6.79980469,12.6811523 6.10839844,13.1879883 C5.41699219,13.6948242 4.42675781,13.9482422 3.13769531,13.9482422 C1.84277344,13.9482422 0.802734375,13.7519531 0.017578125,13.359375 L0.017578125,11.5751953 C1.16015625,12.1025391 2.22363281,12.3662109 3.20800781,12.3662109 C4.47949219,12.3662109 5.11523438,11.9824219 5.11523438,11.2148438 C5.11523438,10.96875 5.04492188,10.7636719 4.90429688,10.5996094 C4.76367188,10.4355469 4.53222656,10.265625 4.20996094,10.0898438 C3.88769531,9.9140625 3.43945312,9.71484375 2.86523438,9.4921875 C1.74609375,9.05859375 0.988769531,8.625 0.593261719,8.19140625 C0.197753906,7.7578125 0,7.1953125 0,6.50390625 C0,5.671875 0.335449219,5.02587891 1.00634766,4.56591797 C1.67724609,4.10595703 2.58984375,3.87597656 3.74414062,3.87597656 C4.88671875,3.87597656 5.96777344,4.10742188 6.98730469,4.5703125 L6.31933594,6.12597656 C5.27050781,5.69238281 4.38867188,5.47558594 3.67382812,5.47558594 C2.58398438,5.47558594 2.0390625,5.78613281 2.0390625,6.40722656 C2.0390625,6.71191406 2.18115234,6.96972656 2.46533203,7.18066406 C2.74951172,7.39160156 3.36914062,7.68164062 4.32421875,8.05078125 C5.12695312,8.36132812 5.70996094,8.64550781 6.07324219,8.90332031 C6.43652344,9.16113281 6.70605469,9.45849609 6.88183594,9.79541016 C7.05761719,10.1323242 7.14550781,10.5351562 7.14550781,11.0039062 Z" id="Path"></path>
                <path d="M17.8734375,13.7724609 L15.7992187,13.7724609 L15.7992187,7.79589844 C15.7992187,7.04589844 15.6483398,6.48632812 15.346582,6.1171875 C15.0448242,5.74804688 14.5658203,5.56347656 13.9095703,5.56347656 C13.0423828,5.56347656 12.4051758,5.82275391 11.9979492,6.34130859 C11.5907227,6.85986328 11.3871094,7.72851562 11.3871094,8.94726562 L11.3871094,13.7724609 L9.32167969,13.7724609 L9.32167969,0.0966796875 L11.3871094,0.0966796875 L11.3871094,3.56835937 C11.3871094,4.125 11.3519531,4.71972656 11.2816406,5.35253906 L11.4134766,5.35253906 C11.6947266,4.88378906 12.0858398,4.52050781 12.5868164,4.26269531 C13.087793,4.00488281 13.6722656,3.87597656 14.3402344,3.87597656 C16.6957031,3.87597656 17.8734375,5.0625 17.8734375,7.43554688 L17.8734375,13.7724609 Z" id="Path"></path>
                <path d="M22.7566406,13.7724609 L20.6912109,13.7724609 L20.6912109,4.05175781 L22.7566406,4.05175781 L22.7566406,13.7724609 Z M20.5681641,1.4765625 C20.5681641,1.10742188 20.6692383,0.823242188 20.8713867,0.624023438 C21.0735352,0.424804688 21.3621094,0.325195312 21.7371094,0.325195312 C22.1003906,0.325195312 22.3831055,0.424804688 22.5852539,0.624023438 C22.7874023,0.823242188 22.8884766,1.10742188 22.8884766,1.4765625 C22.8884766,1.828125 22.7874023,2.10498047 22.5852539,2.30712891 C22.3831055,2.50927734 22.1003906,2.61035156 21.7371094,2.61035156 C21.3621094,2.61035156 21.0735352,2.50927734 20.8713867,2.30712891 C20.6692383,2.10498047 20.5681641,1.828125 20.5681641,1.4765625 Z" id="Shape"></path>
                <path d="M30.5314453,5.61621094 L28.1583984,5.61621094 L28.1583984,13.7724609 L26.0841797,13.7724609 L26.0841797,5.61621094 L24.4845703,5.61621094 L24.4845703,4.64941406 L26.0841797,4.01660156 L26.0841797,3.38378906 C26.0841797,2.23535156 26.3537109,1.38427734 26.8927734,0.830566406 C27.4318359,0.276855469 28.2550781,0 29.3625,0 C30.0890625,0 30.8039062,0.120117188 31.5070312,0.360351562 L30.9621094,1.92480469 C30.4523437,1.76074219 29.9660156,1.67871094 29.503125,1.67871094 C29.034375,1.67871094 28.6930664,1.82373047 28.4791992,2.11376953 C28.265332,2.40380859 28.1583984,2.83886719 28.1583984,3.41894531 L28.1583984,4.05175781 L30.5314453,4.05175781 L30.5314453,5.61621094 Z" id="Path"></path>
                <path d="M35.7486328,12.2783203 C36.2525391,12.2783203 36.7564453,12.1992188 37.2603516,12.0410156 L37.2603516,13.5966797 C37.0318359,13.6962891 36.7374023,13.7797852 36.3770508,13.847168 C36.0166992,13.9145508 35.6431641,13.9482422 35.2564453,13.9482422 C33.2994141,13.9482422 32.3208984,12.9169922 32.3208984,10.8544922 L32.3208984,5.61621094 L30.99375,5.61621094 L30.99375,4.70214844 L32.4175781,3.94628906 L33.1207031,1.88964844 L34.3951172,1.88964844 L34.3951172,4.05175781 L37.1636719,4.05175781 L37.1636719,5.61621094 L34.3951172,5.61621094 L34.3951172,10.8193359 C34.3951172,11.3173828 34.5196289,11.6850586 34.7686523,11.9223633 C35.0176758,12.159668 35.3443359,12.2783203 35.7486328,12.2783203 Z" id="Path"></path>
                <path d="M41.2119141,13.7724609 L39.1464844,13.7724609 L39.1464844,4.05175781 L41.2119141,4.05175781 L41.2119141,13.7724609 Z M39.0234375,1.4765625 C39.0234375,1.10742188 39.1245117,0.823242188 39.3266602,0.624023438 C39.5288086,0.424804688 39.8173828,0.325195312 40.1923828,0.325195312 C40.5556641,0.325195312 40.8383789,0.424804688 41.0405273,0.624023438 C41.2426758,0.823242188 41.34375,1.10742188 41.34375,1.4765625 C41.34375,1.828125 41.2426758,2.10498047 41.0405273,2.30712891 C40.8383789,2.50927734 40.5556641,2.61035156 40.1923828,2.61035156 C39.8173828,2.61035156 39.5288086,2.50927734 39.3266602,2.30712891 C39.1245117,2.10498047 39.0234375,1.828125 39.0234375,1.4765625 Z" id="Shape"></path>
                <path d="M52.6605469,13.7724609 L50.5863281,13.7724609 L50.5863281,7.79589844 C50.5863281,7.04589844 50.4354492,6.48632812 50.1336914,6.1171875 C49.8319336,5.74804688 49.3529297,5.56347656 48.6966797,5.56347656 C47.8236328,5.56347656 47.1849609,5.82128906 46.7806641,6.33691406 C46.3763672,6.85253906 46.1742187,7.71679688 46.1742187,8.9296875 L46.1742187,13.7724609 L44.1087891,13.7724609 L44.1087891,4.05175781 L45.7259766,4.05175781 L46.0160156,5.32617188 L46.1214844,5.32617188 C46.4144531,4.86328125 46.8304687,4.50585938 47.3695312,4.25390625 C47.9085937,4.00195312 48.50625,3.87597656 49.1625,3.87597656 C51.4945312,3.87597656 52.6605469,5.0625 52.6605469,7.43554688 L52.6605469,13.7724609 Z" id="Path"></path>
                <path d="M63.6873047,4.05175781 L63.6873047,5.18554688 L62.0261719,5.49316406 C62.1785156,5.69824219 62.3044922,5.95019531 62.4041016,6.24902344 C62.5037109,6.54785156 62.5535156,6.86425781 62.5535156,7.19824219 C62.5535156,8.20019531 62.2078125,8.98828125 61.5164062,9.5625 C60.825,10.1367188 59.8728516,10.4238281 58.6599609,10.4238281 C58.3494141,10.4238281 58.0681641,10.4003906 57.8162109,10.3535156 C57.3708984,10.6289062 57.1482422,10.9511719 57.1482422,11.3203125 C57.1482422,11.5429688 57.2522461,11.7099609 57.4602539,11.8212891 C57.6682617,11.9326172 58.0505859,11.9882812 58.6072266,11.9882812 L60.3035156,11.9882812 C61.3757812,11.9882812 62.1902344,12.2167969 62.746875,12.6738281 C63.3035156,13.1308594 63.5818359,13.7900391 63.5818359,14.6513672 C63.5818359,15.7529297 63.1277344,16.6025391 62.2195312,17.2001953 C61.3113281,17.7978516 59.9988281,18.0966797 58.2820312,18.0966797 C56.9578125,18.0966797 55.9470703,17.8623047 55.2498047,17.3935547 C54.5525391,16.9248047 54.2039062,16.2568359 54.2039062,15.3896484 C54.2039062,14.7919922 54.3928711,14.2895508 54.7708008,13.8823242 C55.1487305,13.4750977 55.6775391,13.1923828 56.3572266,13.0341797 C56.0818359,12.9169922 55.8547852,12.7280273 55.6760742,12.4672852 C55.4973633,12.206543 55.4080078,11.9326172 55.4080078,11.6455078 C55.4080078,11.2822266 55.5105469,10.9746094 55.715625,10.7226562 C55.9207031,10.4707031 56.2253906,10.2216797 56.6296875,9.97558594 C56.1257812,9.75878906 55.7170898,9.40576172 55.4036133,8.91650391 C55.0901367,8.42724609 54.9333984,7.85449219 54.9333984,7.19824219 C54.9333984,6.14355469 55.265918,5.32617188 55.930957,4.74609375 C56.5959961,4.16601562 57.54375,3.87597656 58.7742187,3.87597656 C59.0496094,3.87597656 59.3381836,3.89501953 59.6399414,3.93310547 C59.9416992,3.97119141 60.16875,4.01074219 60.3210937,4.05175781 L63.6873047,4.05175781 Z M56.0496094,15.2841797 C56.0496094,15.7294922 56.250293,16.0722656 56.6516602,16.3125 C57.0530273,16.5527344 57.6169922,16.6728516 58.3435547,16.6728516 C59.4685547,16.6728516 60.3064453,16.5117188 60.8572266,16.1894531 C61.4080078,15.8671875 61.6833984,15.4394531 61.6833984,14.90625 C61.6833984,14.484375 61.5325195,14.184082 61.2307617,14.0053711 C60.9290039,13.8266602 60.3679687,13.7373047 59.5476562,13.7373047 L57.9832031,13.7373047 C57.3914062,13.7373047 56.9211914,13.8764648 56.5725586,14.1547852 C56.2239258,14.4331055 56.0496094,14.8095703 56.0496094,15.2841797 Z M56.9373047,7.19824219 C56.9373047,7.80761719 57.094043,8.27636719 57.4075195,8.60449219 C57.7209961,8.93261719 58.1707031,9.09667969 58.7566406,9.09667969 C59.9519531,9.09667969 60.5496094,8.45800781 60.5496094,7.18066406 C60.5496094,6.54785156 60.4016602,6.06005859 60.1057617,5.71728516 C59.8098633,5.37451172 59.3601562,5.203125 58.7566406,5.203125 C58.1589844,5.203125 57.7063477,5.37304688 57.3987305,5.71289062 C57.0911133,6.05273438 56.9373047,6.54785156 56.9373047,7.19824219 Z" id="Shape"></path>
            </g>
            <g id="I" transform="translate(39.014065, 0.000000)">
                <polygon id="Path" points="0 25.6992188 0 0 4.20117188 0 4.20117188 25.6992188"></polygon>
            </g>
            <g id="t" transform="translate(187.069718, 1.433594)">
                <path d="M9.50976562,20.7773438 C10.5175781,20.7773438 11.5253906,20.6191406 12.5332031,20.3027344 L12.5332031,23.4140625 C12.0761719,23.6132812 11.4873047,23.7802734 10.7666016,23.9150391 C10.0458984,24.0498047 9.29882812,24.1171875 8.52539062,24.1171875 C4.61132812,24.1171875 2.65429688,22.0546875 2.65429688,17.9296875 L2.65429688,7.453125 L0,7.453125 L0,5.625 L2.84765625,4.11328125 L4.25390625,0 L6.80273437,0 L6.80273437,4.32421875 L12.3398438,4.32421875 L12.3398438,7.453125 L6.80273437,7.453125 L6.80273437,17.859375 C6.80273437,18.8554688 7.05175781,19.5908203 7.54980469,20.0654297 C8.04785156,20.5400391 8.70117188,20.7773438 9.50976562,20.7773438 Z" id="Path"></path>
            </g>
            <g id="‘" transform="translate(340.353019, 0.000000)">
                <path d="M0.2109375,8.80664062 L0,8.41992188 C0.234375,7.44726562 0.650390625,6.13476562 1.24804688,4.48242188 C1.84570312,2.83007812 2.4609375,1.3359375 3.09375,0 L6.08203125,0 C5.33203125,3 4.74023438,5.93554688 4.30664062,8.80664062 L0.2109375,8.80664062 Z" id="Path"></path>
            </g>
            <g id="s" transform="translate(493.586222, 5.106250)">
                <path d="M14.2910156,14.2558594 C14.2910156,16.1542969 13.5996094,17.6103516 12.2167969,18.6240234 C10.8339844,19.6376953 8.85351562,20.1445312 6.27539062,20.1445312 C3.68554688,20.1445312 1.60546875,19.7519531 0.03515625,18.9667969 L0.03515625,15.3984375 C2.3203125,16.453125 4.44726562,16.9804688 6.41601562,16.9804688 C8.95898438,16.9804688 10.2304688,16.2128906 10.2304688,14.6777344 C10.2304688,14.1855469 10.0898438,13.7753906 9.80859375,13.4472656 C9.52734375,13.1191406 9.06445312,12.7792969 8.41992188,12.4277344 C7.77539062,12.0761719 6.87890625,11.6777344 5.73046875,11.2324219 C3.4921875,10.3652344 1.97753906,9.49804688 1.18652344,8.63085938 C0.395507812,7.76367188 0,6.63867188 0,5.25585938 C0,3.59179688 0.670898438,2.29980469 2.01269531,1.37988281 C3.35449219,0.459960938 5.1796875,0 7.48828125,0 C9.7734375,0 11.9355469,0.462890625 13.9746094,1.38867187 L12.6386719,4.5 C10.5410156,3.6328125 8.77734375,3.19921875 7.34765625,3.19921875 C5.16796875,3.19921875 4.078125,3.8203125 4.078125,5.0625 C4.078125,5.671875 4.36230469,6.1875 4.93066406,6.609375 C5.49902344,7.03125 6.73828125,7.61132812 8.6484375,8.34960938 C10.2539062,8.97070312 11.4199219,9.5390625 12.1464844,10.0546875 C12.8730469,10.5703125 13.4121094,11.1650391 13.7636719,11.8388672 C14.1152344,12.5126953 14.2910156,13.3183594 14.2910156,14.2558594 Z" id="Path"></path>
            </g>
        </g>
    </g>
</svg>