<?xml version="1.0" encoding="UTF-8"?>
<svg width="1021px" height="277px" viewBox="0 0 1021 277" version="1.1" xmlns="http://www.w3.org/2000/svg" xmlns:xlink="http://www.w3.org/1999/xlink">
    <title>opp-dark</title>
    <g id="opp-dark" stroke="none" stroke-width="1" fill="none" fill-rule="evenodd">
        <g id="graphics" transform="translate(61.000000, 33.000000)">
            <rect id="LTT" stroke="#EEEEEE" stroke-width="2" fill="#4582A8" x="1" y="0" width="461" height="61"></rect>
            <path id="arrow" d="M693.5,80.2525773 L700.5,94.2525773 L694.5,94.252 L694.5,129.747423 L692.5,129.747423 L692.5,94.252 L686.5,94.2525773 L693.5,80.2525773 Z" fill="#EEEEEE" fill-rule="nonzero"></path>
            <path id="arrow" d="M462.5,80.2525773 L469.5,94.2525773 L463.5,94.252 L463.5,129.747423 L461.5,129.747423 L461.5,94.252 L455.5,94.2525773 L462.5,80.2525773 Z" fill="#EEEEEE" fill-rule="nonzero"></path>
            <path id="arrow" d="M231.5,80.2525773 L238.5,94.2525773 L232.5,94.252 L232.5,129.747423 L230.5,129.747423 L230.5,94.252 L224.5,94.2525773 L231.5,80.2525773 Z" fill="#EEEEEE" fill-rule="nonzero"></path>
            <path id="arrow" d="M0.5,80.5 L7.64395027,94.427095 L1.643,94.489 L1.99994686,128.989691 L2.01025559,129.989638 L0.0103618669,130.010256 L5.31363745e-05,129.010309 L-0.356,94.509 L-6.35530582,94.5714172 L0.5,80.5 Z" fill="#EEEEEE" fill-rule="nonzero"></path>
        </g>
        <g id="text" transform="translate(24.577148, 56.965820)" fill="#FFFFFF" fill-rule="nonzero">
            <g id="LIGHTSHIFT_TAPPING_T" transform="translate(149.119141, 0.000000)">
                <polygon id="Path" points="0 13.0341797 0 0.184570312 2.10058594 0.184570312 2.10058594 11.2324219 7.54101562 11.2324219 7.54101562 13.0341797"></polygon>
                <polygon id="Path" points="9.69960937 13.0341797 9.69960937 0.184570312 11.8001953 0.184570312 11.8001953 13.0341797"></polygon>
                <path d="M20.3923828,6.06445312 L25.1208984,6.06445312 L25.1208984,12.515625 C24.3474609,12.7675781 23.6047852,12.9462891 22.8928711,13.0517578 C22.180957,13.1572266 21.4119141,13.2099609 20.5857422,13.2099609 C18.6404297,13.2099609 17.1404297,12.6342773 16.0857422,11.4829102 C15.0310547,10.331543 14.5037109,8.70703125 14.5037109,6.609375 C14.5037109,4.54101562 15.0984375,2.92236328 16.2878906,1.75341797 C17.4773437,0.584472656 19.1150391,0 21.2009766,0 C22.5427734,0 23.8142578,0.2578125 25.0154297,0.7734375 L24.2771484,2.52246094 C23.2341797,2.04199219 22.1912109,1.80175781 21.1482422,1.80175781 C19.7771484,1.80175781 18.6931641,2.23242188 17.8962891,3.09375 C17.0994141,3.95507812 16.7009766,5.1328125 16.7009766,6.62695313 C16.7009766,8.19726562 17.0598633,9.39111328 17.7776367,10.2084961 C18.4954102,11.0258789 19.528125,11.4345703 20.8757812,11.4345703 C21.5554687,11.4345703 22.2820312,11.3496094 23.0554687,11.1796875 L23.0554687,7.86621094 L20.3923828,7.86621094 L20.3923828,6.06445312 Z" id="Path"></path>
                <polygon id="Path" points="38.2833984 13.0341797 36.1740234 13.0341797 36.1740234 7.2421875 30.2501953 7.2421875 30.2501953 13.0341797 28.1496094 13.0341797 28.1496094 0.184570312 30.2501953 0.184570312 30.2501953 5.44042969 36.1740234 5.44042969 36.1740234 0.184570312 38.2833984 0.184570312"></polygon>
                <polygon id="Path" points="46.0494141 13.0341797 43.9488281 13.0341797 43.9488281 1.98632812 40.1695312 1.98632812 40.1695312 0.184570312 49.8287109 0.184570312 49.8287109 1.98632812 46.0494141 1.98632812"></polygon>
                <path d="M59.1503906,9.54492188 C59.1503906,10.6875 58.7373047,11.5839844 57.9111328,12.234375 C57.0849609,12.8847656 55.9453125,13.2099609 54.4921875,13.2099609 C53.0390625,13.2099609 51.8496094,12.984375 50.9238281,12.5332031 L50.9238281,10.546875 C51.5097656,10.8222656 52.1323242,11.0390625 52.7915039,11.1972656 C53.4506836,11.3554688 54.0644531,11.4345703 54.6328125,11.4345703 C55.4648437,11.4345703 56.0786133,11.2763672 56.4741211,10.9599609 C56.8696289,10.6435547 57.0673828,10.21875 57.0673828,9.68554688 C57.0673828,9.20507812 56.8857422,8.79785156 56.5224609,8.46386719 C56.1591797,8.12988281 55.4091797,7.734375 54.2724609,7.27734375 C53.1005859,6.80273437 52.2744141,6.26074219 51.7939453,5.65136719 C51.3134766,5.04199219 51.0732422,4.30957031 51.0732422,3.45410156 C51.0732422,2.38183594 51.4541016,1.53808594 52.2158203,0.922851562 C52.9775391,0.307617188 54,0 55.2832031,0 C56.5136719,0 57.7382812,0.26953125 58.9570312,0.80859375 L58.2890625,2.52246094 C57.1464844,2.04199219 56.1269531,1.80175781 55.2304687,1.80175781 C54.5507812,1.80175781 54.0351562,1.94970703 53.6835937,2.24560547 C53.3320312,2.54150391 53.15625,2.93261719 53.15625,3.41894531 C53.15625,3.75292969 53.2265625,4.03857422 53.3671875,4.27587891 C53.5078125,4.51318359 53.7392578,4.73730469 54.0615234,4.94824219 C54.3837891,5.15917969 54.9638672,5.4375 55.8017578,5.78320312 C56.7451172,6.17578125 57.4365234,6.54199219 57.8759766,6.88183594 C58.3154297,7.22167969 58.6376953,7.60546875 58.8427734,8.03320312 C59.0478516,8.4609375 59.1503906,8.96484375 59.1503906,9.54492188 Z" id="Path"></path>
                <polygon id="Path" points="71.7152344 13.0341797 69.6058594 13.0341797 69.6058594 7.2421875 63.6820312 7.2421875 63.6820312 13.0341797 61.5814453 13.0341797 61.5814453 0.184570312 63.6820312 0.184570312 63.6820312 5.44042969 69.6058594 5.44042969 69.6058594 0.184570312 71.7152344 0.184570312"></polygon>
                <polygon id="Path" points="75.0427734 13.0341797 75.0427734 0.184570312 77.1433594 0.184570312 77.1433594 13.0341797"></polygon>
                <polygon id="Path" points="82.5626953 13.0341797 80.4796875 13.0341797 80.4796875 0.184570312 87.7306641 0.184570312 87.7306641 1.95996094 82.5626953 1.95996094 82.5626953 5.9765625 87.4054687 5.9765625 87.4054687 7.76074219 82.5626953 7.76074219"></polygon>
                <polygon id="Path" points="94.4419922 13.0341797 92.3414062 13.0341797 92.3414062 1.98632812 88.5621094 1.98632812 88.5621094 0.184570312 98.2212891 0.184570312 98.2212891 1.98632812 94.4419922 1.98632812"></polygon>
                <polygon id="Path" points="106.198242 15.8378906 98.4023437 15.8378906 98.4023437 14.6513672 106.198242 14.6513672"></polygon>
                <polygon id="Path" points="112.241602 13.0341797 110.141016 13.0341797 110.141016 1.98632812 106.361719 1.98632812 106.361719 0.184570312 116.020898 0.184570312 116.020898 1.98632812 112.241602 1.98632812"></polygon>
                <path d="M125.905078,13.0341797 L124.621875,9.46582031 L119.708789,9.46582031 L118.451953,13.0341797 L116.237109,13.0341797 L121.044727,0.131835938 L123.329883,0.131835938 L128.1375,13.0341797 L125.905078,13.0341797 Z M124.068164,7.65527344 L122.864062,4.15722656 C122.776172,3.92285156 122.65459,3.55371094 122.499316,3.04980469 C122.344043,2.54589844 122.237109,2.17675781 122.178516,1.94238281 C122.020312,2.66308594 121.788867,3.45117188 121.48418,4.30664062 L120.324023,7.65527344 L124.068164,7.65527344 Z" id="Shape"></path>
                <path d="M138.285352,4.06933594 C138.285352,5.41113281 137.845898,6.43945312 136.966992,7.15429687 C136.088086,7.86914062 134.837109,8.2265625 133.214062,8.2265625 L131.878125,8.2265625 L131.878125,13.0341797 L129.777539,13.0341797 L129.777539,0.184570312 L133.477734,0.184570312 C135.083203,0.184570312 136.28584,0.512695312 137.085645,1.16894531 C137.885449,1.82519531 138.285352,2.79199219 138.285352,4.06933594 Z M131.878125,6.45996094 L132.994336,6.45996094 C134.072461,6.45996094 134.863477,6.27246094 135.367383,5.89746094 C135.871289,5.52246094 136.123242,4.93652344 136.123242,4.13964844 C136.123242,3.40136719 135.897656,2.85058594 135.446484,2.48730469 C134.995312,2.12402344 134.292187,1.94238281 133.337109,1.94238281 L131.878125,1.94238281 L131.878125,6.45996094 Z" id="Shape"></path>
                <path d="M149.30332,4.06933594 C149.30332,5.41113281 148.863867,6.43945312 147.984961,7.15429687 C147.106055,7.86914062 145.855078,8.2265625 144.232031,8.2265625 L142.896094,8.2265625 L142.896094,13.0341797 L140.795508,13.0341797 L140.795508,0.184570312 L144.495703,0.184570312 C146.101172,0.184570312 147.303809,0.512695312 148.103613,1.16894531 C148.903418,1.82519531 149.30332,2.79199219 149.30332,4.06933594 Z M142.896094,6.45996094 L144.012305,6.45996094 C145.09043,6.45996094 145.881445,6.27246094 146.385352,5.89746094 C146.889258,5.52246094 147.141211,4.93652344 147.141211,4.13964844 C147.141211,3.40136719 146.915625,2.85058594 146.464453,2.48730469 C146.013281,2.12402344 145.310156,1.94238281 144.355078,1.94238281 L142.896094,1.94238281 L142.896094,6.45996094 Z" id="Shape"></path>
                <polygon id="Path" points="151.813477 13.0341797 151.813477 0.184570312 153.914062 0.184570312 153.914062 13.0341797"></polygon>
                <path d="M167.955469,13.0341797 L165.380273,13.0341797 L159.060937,2.79492188 L158.990625,2.79492188 L159.03457,3.36621094 C159.116602,4.45605469 159.157617,5.45214844 159.157617,6.35449219 L159.157617,13.0341797 L157.250391,13.0341797 L157.250391,0.184570312 L159.799219,0.184570312 L166.100977,10.3710938 L166.153711,10.3710938 C166.141992,10.2363281 166.118555,9.74560547 166.083398,8.89892578 C166.048242,8.05224609 166.030664,7.39160156 166.030664,6.91699219 L166.030664,0.184570312 L167.955469,0.184570312 L167.955469,13.0341797 Z" id="Path"></path>
                <path d="M176.547656,6.06445312 L181.276172,6.06445312 L181.276172,12.515625 C180.502734,12.7675781 179.760059,12.9462891 179.048145,13.0517578 C178.33623,13.1572266 177.567187,13.2099609 176.741016,13.2099609 C174.795703,13.2099609 173.295703,12.6342773 172.241016,11.4829102 C171.186328,10.331543 170.658984,8.70703125 170.658984,6.609375 C170.658984,4.54101562 171.253711,2.92236328 172.443164,1.75341797 C173.632617,0.584472656 175.270312,0 177.35625,0 C178.698047,0 179.969531,0.2578125 181.170703,0.7734375 L180.432422,2.52246094 C179.389453,2.04199219 178.346484,1.80175781 177.303516,1.80175781 C175.932422,1.80175781 174.848437,2.23242188 174.051562,3.09375 C173.254687,3.95507812 172.85625,5.1328125 172.85625,6.62695313 C172.85625,8.19726562 173.215137,9.39111328 173.93291,10.2084961 C174.650684,11.0258789 175.683398,11.4345703 177.031055,11.4345703 C177.710742,11.4345703 178.437305,11.3496094 179.210742,11.1796875 L179.210742,7.86621094 L176.547656,7.86621094 L176.547656,6.06445312 Z" id="Path"></path>
                <polygon id="Path" points="190.369336 15.8378906 182.573437 15.8378906 182.573437 14.6513672 190.369336 14.6513672"></polygon>
                <polygon id="Path" points="196.412695 13.0341797 194.312109 13.0341797 194.312109 1.98632812 190.532812 1.98632812 190.532812 0.184570312 200.191992 0.184570312 200.191992 1.98632812 196.412695 1.98632812"></polygon>
                <polygon id="Path" points="209.373047 13.0341797 202.104492 13.0341797 202.104492 0.184570312 209.373047 0.184570312 209.373047 1.95996094 204.205078 1.95996094 204.205078 5.45800781 209.047852 5.45800781 209.047852 7.21582031 204.205078 7.21582031 204.205078 11.25 209.373047 11.25"></polygon>
                <path d="M214.194727,6.16113281 L215.653711,6.16113281 C216.632227,6.16113281 217.341211,5.97949219 217.780664,5.61621094 C218.220117,5.25292969 218.439844,4.71386719 218.439844,3.99902344 C218.439844,3.27246094 218.202539,2.75097656 217.72793,2.43457031 C217.25332,2.11816406 216.538477,1.95996094 215.583398,1.95996094 L214.194727,1.95996094 L214.194727,6.16113281 Z M214.194727,7.90136719 L214.194727,13.0341797 L212.094141,13.0341797 L212.094141,0.184570312 L215.724023,0.184570312 C217.382227,0.184570312 218.609766,0.495117188 219.406641,1.11621094 C220.203516,1.73730469 220.601953,2.67480469 220.601953,3.92871094 C220.601953,5.52832031 219.769922,6.66796875 218.105859,7.34765625 L221.735742,13.0341797 L219.345117,13.0341797 L216.268945,7.90136719 L214.194727,7.90136719 Z" id="Shape"></path>
                <path d="M229.097461,13.0341797 L225.370898,2.30273438 L225.300586,2.30273438 C225.400195,3.89648438 225.45,5.390625 225.45,6.78515625 L225.45,13.0341797 L223.542773,13.0341797 L223.542773,0.184570312 L226.504687,0.184570312 L230.073047,10.40625 L230.125781,10.40625 L233.799609,0.184570312 L236.770312,0.184570312 L236.770312,13.0341797 L234.748828,13.0341797 L234.748828,6.6796875 C234.748828,6.04101562 234.764941,5.20898438 234.797168,4.18359375 C234.829395,3.15820312 234.857227,2.53710938 234.880664,2.3203125 L234.810352,2.3203125 L230.951953,13.0341797 L229.097461,13.0341797 Z" id="Path"></path>
            </g>
            <g id="lightshift-pressed" transform="translate(0.000000, 134.261719)">
                <polygon id="Path" points="2.06542969 13.7724609 0 13.7724609 0 0.0966796875 2.06542969 0.0966796875"></polygon>
                <path d="M7.02773437,13.7724609 L4.96230469,13.7724609 L4.96230469,4.05175781 L7.02773437,4.05175781 L7.02773437,13.7724609 Z M4.83925781,1.4765625 C4.83925781,1.10742188 4.94033203,0.823242188 5.14248047,0.624023438 C5.34462891,0.424804688 5.63320312,0.325195312 6.00820312,0.325195312 C6.37148437,0.325195312 6.65419922,0.424804688 6.85634766,0.624023438 C7.05849609,0.823242188 7.15957031,1.10742188 7.15957031,1.4765625 C7.15957031,1.828125 7.05849609,2.10498047 6.85634766,2.30712891 C6.65419922,2.50927734 6.37148437,2.61035156 6.00820312,2.61035156 C5.63320312,2.61035156 5.34462891,2.50927734 5.14248047,2.30712891 C4.94033203,2.10498047 4.83925781,1.828125 4.83925781,1.4765625 Z" id="Shape"></path>
                <path d="M18.1335937,4.05175781 L18.1335937,5.18554688 L16.4724609,5.49316406 C16.6248047,5.69824219 16.7507812,5.95019531 16.8503906,6.24902344 C16.95,6.54785156 16.9998047,6.86425781 16.9998047,7.19824219 C16.9998047,8.20019531 16.6541016,8.98828125 15.9626953,9.5625 C15.2712891,10.1367188 14.3191406,10.4238281 13.10625,10.4238281 C12.7957031,10.4238281 12.5144531,10.4003906 12.2625,10.3535156 C11.8171875,10.6289062 11.5945312,10.9511719 11.5945312,11.3203125 C11.5945312,11.5429688 11.6985352,11.7099609 11.906543,11.8212891 C12.1145508,11.9326172 12.496875,11.9882812 13.0535156,11.9882812 L14.7498047,11.9882812 C15.8220703,11.9882812 16.6365234,12.2167969 17.1931641,12.6738281 C17.7498047,13.1308594 18.028125,13.7900391 18.028125,14.6513672 C18.028125,15.7529297 17.5740234,16.6025391 16.6658203,17.2001953 C15.7576172,17.7978516 14.4451172,18.0966797 12.7283203,18.0966797 C11.4041016,18.0966797 10.3933594,17.8623047 9.69609375,17.3935547 C8.99882812,16.9248047 8.65019531,16.2568359 8.65019531,15.3896484 C8.65019531,14.7919922 8.83916015,14.2895508 9.21708984,13.8823242 C9.59501953,13.4750977 10.1238281,13.1923828 10.8035156,13.0341797 C10.528125,12.9169922 10.3010742,12.7280273 10.1223633,12.4672852 C9.94365234,12.206543 9.85429687,11.9326172 9.85429687,11.6455078 C9.85429687,11.2822266 9.95683594,10.9746094 10.1619141,10.7226562 C10.3669922,10.4707031 10.6716797,10.2216797 11.0759766,9.97558594 C10.5720703,9.75878906 10.1633789,9.40576172 9.84990234,8.91650391 C9.53642578,8.42724609 9.3796875,7.85449219 9.3796875,7.19824219 C9.3796875,6.14355469 9.71220703,5.32617188 10.3772461,4.74609375 C11.0422852,4.16601562 11.9900391,3.87597656 13.2205078,3.87597656 C13.4958984,3.87597656 13.7844727,3.89501953 14.0862305,3.93310547 C14.3879883,3.97119141 14.6150391,4.01074219 14.7673828,4.05175781 L18.1335937,4.05175781 Z M10.4958984,15.2841797 C10.4958984,15.7294922 10.696582,16.0722656 11.0979492,16.3125 C11.4993164,16.5527344 12.0632812,16.6728516 12.7898437,16.6728516 C13.9148437,16.6728516 14.7527344,16.5117188 15.3035156,16.1894531 C15.8542969,15.8671875 16.1296875,15.4394531 16.1296875,14.90625 C16.1296875,14.484375 15.9788086,14.184082 15.6770508,14.0053711 C15.375293,13.8266602 14.8142578,13.7373047 13.9939453,13.7373047 L12.4294922,13.7373047 C11.8376953,13.7373047 11.3674805,13.8764648 11.0188477,14.1547852 C10.6702148,14.4331055 10.4958984,14.8095703 10.4958984,15.2841797 Z M11.3835937,7.19824219 C11.3835937,7.80761719 11.540332,8.27636719 11.8538086,8.60449219 C12.1672852,8.93261719 12.6169922,9.09667969 13.2029297,9.09667969 C14.3982422,9.09667969 14.9958984,8.45800781 14.9958984,7.18066406 C14.9958984,6.54785156 14.8479492,6.06005859 14.5520508,5.71728516 C14.2561523,5.37451172 13.8064453,5.203125 13.2029297,5.203125 C12.6052734,5.203125 12.1526367,5.37304688 11.8450195,5.71289062 C11.5374023,6.05273438 11.3835937,6.54785156 11.3835937,7.19824219 Z" id="Shape"></path>
                <path d="M28.4308594,13.7724609 L26.3566406,13.7724609 L26.3566406,7.79589844 C26.3566406,7.04589844 26.2057617,6.48632812 25.9040039,6.1171875 C25.6022461,5.74804688 25.1232422,5.56347656 24.4669922,5.56347656 C23.5998047,5.56347656 22.9625977,5.82275391 22.5553711,6.34130859 C22.1481445,6.85986328 21.9445312,7.72851562 21.9445312,8.94726562 L21.9445312,13.7724609 L19.8791016,13.7724609 L19.8791016,0.0966796875 L21.9445312,0.0966796875 L21.9445312,3.56835937 C21.9445312,4.125 21.909375,4.71972656 21.8390625,5.35253906 L21.9708984,5.35253906 C22.2521484,4.88378906 22.6432617,4.52050781 23.1442383,4.26269531 C23.6452148,4.00488281 24.2296875,3.87597656 24.8976562,3.87597656 C27.253125,3.87597656 28.4308594,5.0625 28.4308594,7.43554688 L28.4308594,13.7724609 Z" id="Path"></path>
                <path d="M34.8697266,12.2783203 C35.3736328,12.2783203 35.8775391,12.1992188 36.3814453,12.0410156 L36.3814453,13.5966797 C36.1529297,13.6962891 35.8584961,13.7797852 35.4981445,13.847168 C35.137793,13.9145508 34.7642578,13.9482422 34.3775391,13.9482422 C32.4205078,13.9482422 31.4419922,12.9169922 31.4419922,10.8544922 L31.4419922,5.61621094 L30.1148437,5.61621094 L30.1148437,4.70214844 L31.5386719,3.94628906 L32.2417969,1.88964844 L33.5162109,1.88964844 L33.5162109,4.05175781 L36.2847656,4.05175781 L36.2847656,5.61621094 L33.5162109,5.61621094 L33.5162109,10.8193359 C33.5162109,11.3173828 33.6407227,11.6850586 33.8897461,11.9223633 C34.1387695,12.159668 34.4654297,12.2783203 34.8697266,12.2783203 Z" id="Path"></path>
                <path d="M44.7978516,11.0039062 C44.7978516,11.953125 44.4521484,12.6811523 43.7607422,13.1879883 C43.0693359,13.6948242 42.0791016,13.9482422 40.7900391,13.9482422 C39.4951172,13.9482422 38.4550781,13.7519531 37.6699219,13.359375 L37.6699219,11.5751953 C38.8125,12.1025391 39.8759766,12.3662109 40.8603516,12.3662109 C42.1318359,12.3662109 42.7675781,11.9824219 42.7675781,11.2148438 C42.7675781,10.96875 42.6972656,10.7636719 42.5566406,10.5996094 C42.4160156,10.4355469 42.1845703,10.265625 41.8623047,10.0898438 C41.5400391,9.9140625 41.0917969,9.71484375 40.5175781,9.4921875 C39.3984375,9.05859375 38.6411133,8.625 38.2456055,8.19140625 C37.8500977,7.7578125 37.6523437,7.1953125 37.6523437,6.50390625 C37.6523437,5.671875 37.987793,5.02587891 38.6586914,4.56591797 C39.3295898,4.10595703 40.2421875,3.87597656 41.3964844,3.87597656 C42.5390625,3.87597656 43.6201172,4.10742188 44.6396484,4.5703125 L43.9716797,6.12597656 C42.9228516,5.69238281 42.0410156,5.47558594 41.3261719,5.47558594 C40.2363281,5.47558594 39.6914062,5.78613281 39.6914062,6.40722656 C39.6914062,6.71191406 39.8334961,6.96972656 40.1176758,7.18066406 C40.4018555,7.39160156 41.0214844,7.68164062 41.9765625,8.05078125 C42.7792969,8.36132812 43.3623047,8.64550781 43.7255859,8.90332031 C44.0888672,9.16113281 44.3583984,9.45849609 44.5341797,9.79541016 C44.7099609,10.1323242 44.7978516,10.5351562 44.7978516,11.0039062 Z" id="Path"></path>
                <path d="M55.5257812,13.7724609 L53.4515625,13.7724609 L53.4515625,7.79589844 C53.4515625,7.04589844 53.3006836,6.48632812 52.9989258,6.1171875 C52.697168,5.74804688 52.2181641,5.56347656 51.5619141,5.56347656 C50.6947266,5.56347656 50.0575195,5.82275391 49.650293,6.34130859 C49.2430664,6.85986328 49.0394531,7.72851562 49.0394531,8.94726562 L49.0394531,13.7724609 L46.9740234,13.7724609 L46.9740234,0.0966796875 L49.0394531,0.0966796875 L49.0394531,3.56835937 C49.0394531,4.125 49.0042969,4.71972656 48.9339844,5.35253906 L49.0658203,5.35253906 C49.3470703,4.88378906 49.7381836,4.52050781 50.2391602,4.26269531 C50.7401367,4.00488281 51.3246094,3.87597656 51.9925781,3.87597656 C54.3480469,3.87597656 55.5257812,5.0625 55.5257812,7.43554688 L55.5257812,13.7724609 Z" id="Path"></path>
                <path d="M60.4089844,13.7724609 L58.3435547,13.7724609 L58.3435547,4.05175781 L60.4089844,4.05175781 L60.4089844,13.7724609 Z M58.2205078,1.4765625 C58.2205078,1.10742188 58.321582,0.823242188 58.5237305,0.624023438 C58.7258789,0.424804688 59.0144531,0.325195312 59.3894531,0.325195312 C59.7527344,0.325195312 60.0354492,0.424804688 60.2375977,0.624023438 C60.4397461,0.823242188 60.5408203,1.10742188 60.5408203,1.4765625 C60.5408203,1.828125 60.4397461,2.10498047 60.2375977,2.30712891 C60.0354492,2.50927734 59.7527344,2.61035156 59.3894531,2.61035156 C59.0144531,2.61035156 58.7258789,2.50927734 58.5237305,2.30712891 C58.321582,2.10498047 58.2205078,1.828125 58.2205078,1.4765625 Z" id="Shape"></path>
                <path d="M68.1837891,5.61621094 L65.8107422,5.61621094 L65.8107422,13.7724609 L63.7365234,13.7724609 L63.7365234,5.61621094 L62.1369141,5.61621094 L62.1369141,4.64941406 L63.7365234,4.01660156 L63.7365234,3.38378906 C63.7365234,2.23535156 64.0060547,1.38427734 64.5451172,0.830566406 C65.0841797,0.276855469 65.9074219,0 67.0148437,0 C67.7414062,0 68.45625,0.120117188 69.159375,0.360351562 L68.6144531,1.92480469 C68.1046875,1.76074219 67.6183594,1.67871094 67.1554687,1.67871094 C66.6867187,1.67871094 66.3454101,1.82373047 66.131543,2.11376953 C65.9176758,2.40380859 65.8107422,2.83886719 65.8107422,3.41894531 L65.8107422,4.05175781 L68.1837891,4.05175781 L68.1837891,5.61621094 Z" id="Path"></path>
                <path d="M73.4009766,12.2783203 C73.9048828,12.2783203 74.4087891,12.1992188 74.9126953,12.0410156 L74.9126953,13.5966797 C74.6841797,13.6962891 74.3897461,13.7797852 74.0293945,13.847168 C73.669043,13.9145508 73.2955078,13.9482422 72.9087891,13.9482422 C70.9517578,13.9482422 69.9732422,12.9169922 69.9732422,10.8544922 L69.9732422,5.61621094 L68.6460937,5.61621094 L68.6460937,4.70214844 L70.0699219,3.94628906 L70.7730469,1.88964844 L72.0474609,1.88964844 L72.0474609,4.05175781 L74.8160156,4.05175781 L74.8160156,5.61621094 L72.0474609,5.61621094 L72.0474609,10.8193359 C72.0474609,11.3173828 72.1719726,11.6850586 72.4209961,11.9223633 C72.6700195,12.159668 72.9966797,12.2783203 73.4009766,12.2783203 Z" id="Path"></path>
                <path d="M9.29794922,37.9482422 C8.06748047,37.9482422 7.11240234,37.5058594 6.43271484,36.6210938 L6.30966797,36.6210938 C6.39169922,37.4414062 6.43271484,37.9394531 6.43271484,38.1152344 L6.43271484,42.0966797 L4.36728515,42.0966797 L4.36728515,28.0517578 L6.03720703,28.0517578 C6.08408203,28.2333984 6.18076172,28.6669922 6.32724609,29.3525391 L6.43271484,29.3525391 C7.07724609,28.3681641 8.04404297,27.8759766 9.33310547,27.8759766 C10.5459961,27.8759766 11.4908203,28.3154297 12.1675781,29.1943359 C12.8443359,30.0732422 13.1827148,31.3066406 13.1827148,32.8945312 C13.1827148,34.4824219 12.8384766,35.7216797 12.15,36.6123047 C11.4615234,37.5029297 10.5108398,37.9482422 9.29794922,37.9482422 Z M8.79697265,29.5634766 C7.97666015,29.5634766 7.37753906,29.8037109 6.99960937,30.2841797 C6.62167969,30.7646484 6.43271484,31.5322266 6.43271484,32.5869141 L6.43271484,32.8945312 C6.43271484,34.078125 6.62021484,34.9350586 6.99521484,35.465332 C7.37021484,35.9956055 7.98251953,36.2607422 8.8321289,36.2607422 C9.54697265,36.2607422 10.0977539,35.9677734 10.4844727,35.3818359 C10.8711914,34.7958984 11.0645508,33.9609375 11.0645508,32.8769531 C11.0645508,31.7871094 10.8726562,30.9624023 10.4888672,30.402832 C10.1050781,29.8432617 9.54111328,29.5634766 8.79697265,29.5634766 Z" id="Shape"></path>
                <path d="M20.456543,27.8759766 C20.8725586,27.8759766 21.215332,27.9052734 21.4848633,27.9638672 L21.2827148,29.8886719 C20.9897461,29.8183594 20.6850586,29.7832031 20.3686523,29.7832031 C19.5424805,29.7832031 18.8730469,30.0527344 18.3603516,30.5917969 C17.8476562,31.1308594 17.5913086,31.8310547 17.5913086,32.6923828 L17.5913086,37.7724609 L15.5258789,37.7724609 L15.5258789,28.0517578 L17.1430664,28.0517578 L17.4155273,29.765625 L17.5209961,29.765625 C17.8432617,29.1855469 18.2636719,28.7255859 18.7822266,28.3857422 C19.3007812,28.0458984 19.8588867,27.8759766 20.456543,27.8759766 Z" id="Path"></path>
                <path d="M27.4754883,37.9482422 C25.9637695,37.9482422 24.7816406,37.5073242 23.9291016,36.6254883 C23.0765625,35.7436523 22.650293,34.5292969 22.650293,32.9824219 C22.650293,31.3945312 23.0458008,30.1464844 23.8368164,29.2382812 C24.627832,28.3300781 25.7147461,27.8759766 27.0975586,27.8759766 C28.3807617,27.8759766 29.3944336,28.265625 30.1385742,29.0449219 C30.8827148,29.8242188 31.2547852,30.8964844 31.2547852,32.2617188 L31.2547852,33.3779297 L24.7772461,33.3779297 C24.806543,34.3212891 25.0614258,35.0463867 25.5418945,35.5532227 C26.0223633,36.0600586 26.6991211,36.3134766 27.572168,36.3134766 C28.1463867,36.3134766 28.6810547,36.2592773 29.1761719,36.1508789 C29.6712891,36.0424805 30.2030273,35.8623047 30.7713867,35.6103516 L30.7713867,37.2890625 C30.2674805,37.5292969 29.7577148,37.6992188 29.2420898,37.7988281 C28.7264648,37.8984375 28.1375977,37.9482422 27.4754883,37.9482422 Z M27.0975586,29.4404297 C26.4413086,29.4404297 25.9154297,29.6484375 25.5199219,30.0644531 C25.1244141,30.4804688 24.8885742,31.0869141 24.8124023,31.8837891 L29.2245117,31.8837891 C29.212793,31.0810547 29.0194336,30.4731445 28.6444336,30.0600586 C28.2694336,29.6469727 27.7538086,29.4404297 27.0975586,29.4404297 Z" id="Shape"></path>
                <path d="M40.0754883,35.0039062 C40.0754883,35.953125 39.7297852,36.6811523 39.0383789,37.1879883 C38.3469727,37.6948242 37.3567383,37.9482422 36.0676758,37.9482422 C34.7727539,37.9482422 33.7327148,37.7519531 32.9475586,37.359375 L32.9475586,35.5751953 C34.0901367,36.1025391 35.1536133,36.3662109 36.1379883,36.3662109 C37.4094727,36.3662109 38.0452148,35.9824219 38.0452148,35.2148438 C38.0452148,34.96875 37.9749023,34.7636719 37.8342773,34.5996094 C37.6936523,34.4355469 37.462207,34.265625 37.1399414,34.0898438 C36.8176758,33.9140625 36.3694336,33.7148438 35.7952148,33.4921875 C34.6760742,33.0585938 33.91875,32.625 33.5232422,32.1914062 C33.1277344,31.7578125 32.9299805,31.1953125 32.9299805,30.5039062 C32.9299805,29.671875 33.2654297,29.0258789 33.9363281,28.565918 C34.6072266,28.105957 35.5198242,27.8759766 36.6741211,27.8759766 C37.8166992,27.8759766 38.8977539,28.1074219 39.9172852,28.5703125 L39.2493164,30.1259766 C38.2004883,29.6923828 37.3186523,29.4755859 36.6038086,29.4755859 C35.5139648,29.4755859 34.969043,29.7861328 34.969043,30.4072266 C34.969043,30.7119141 35.1111328,30.9697266 35.3953125,31.1806641 C35.6794922,31.3916016 36.2991211,31.6816406 37.2541992,32.0507812 C38.0569336,32.3613281 38.6399414,32.6455078 39.0032227,32.9033203 C39.3665039,33.1611328 39.6360352,33.4584961 39.8118164,33.7954102 C39.9875977,34.1323242 40.0754883,34.5351562 40.0754883,35.0039062 Z" id="Path"></path>
                <path d="M48.7819336,35.0039062 C48.7819336,35.953125 48.4362305,36.6811523 47.7448242,37.1879883 C47.053418,37.6948242 46.0631836,37.9482422 44.7741211,37.9482422 C43.4791992,37.9482422 42.4391602,37.7519531 41.6540039,37.359375 L41.6540039,35.5751953 C42.796582,36.1025391 43.8600586,36.3662109 44.8444336,36.3662109 C46.115918,36.3662109 46.7516602,35.9824219 46.7516602,35.2148438 C46.7516602,34.96875 46.6813477,34.7636719 46.5407227,34.5996094 C46.4000977,34.4355469 46.1686523,34.265625 45.8463867,34.0898438 C45.5241211,33.9140625 45.0758789,33.7148438 44.5016602,33.4921875 C43.3825195,33.0585938 42.6251953,32.625 42.2296875,32.1914062 C41.8341797,31.7578125 41.6364258,31.1953125 41.6364258,30.5039062 C41.6364258,29.671875 41.971875,29.0258789 42.6427734,28.565918 C43.3136719,28.105957 44.2262695,27.8759766 45.3805664,27.8759766 C46.5231445,27.8759766 47.6041992,28.1074219 48.6237305,28.5703125 L47.9557617,30.1259766 C46.9069336,29.6923828 46.0250977,29.4755859 45.3102539,29.4755859 C44.2204102,29.4755859 43.6754883,29.7861328 43.6754883,30.4072266 C43.6754883,30.7119141 43.8175781,30.9697266 44.1017578,31.1806641 C44.3859375,31.3916016 45.0055664,31.6816406 45.9606445,32.0507812 C46.7633789,32.3613281 47.3463867,32.6455078 47.709668,32.9033203 C48.0729492,33.1611328 48.3424805,33.4584961 48.5182617,33.7954102 C48.694043,34.1323242 48.7819336,34.5351562 48.7819336,35.0039062 Z" id="Path"></path>
                <path d="M55.2032227,37.9482422 C53.6915039,37.9482422 52.509375,37.5073242 51.6568359,36.6254883 C50.8042969,35.7436523 50.3780273,34.5292969 50.3780273,32.9824219 C50.3780273,31.3945312 50.7735352,30.1464844 51.5645508,29.2382812 C52.3555664,28.3300781 53.4424805,27.8759766 54.825293,27.8759766 C56.1084961,27.8759766 57.122168,28.265625 57.8663086,29.0449219 C58.6104492,29.8242188 58.9825195,30.8964844 58.9825195,32.2617188 L58.9825195,33.3779297 L52.5049805,33.3779297 C52.5342773,34.3212891 52.7891602,35.0463867 53.2696289,35.5532227 C53.7500977,36.0600586 54.4268555,36.3134766 55.2999023,36.3134766 C55.8741211,36.3134766 56.4087891,36.2592773 56.9039062,36.1508789 C57.3990234,36.0424805 57.9307617,35.8623047 58.4991211,35.6103516 L58.4991211,37.2890625 C57.9952148,37.5292969 57.4854492,37.6992188 56.9698242,37.7988281 C56.4541992,37.8984375 55.865332,37.9482422 55.2032227,37.9482422 Z M54.825293,29.4404297 C54.169043,29.4404297 53.6431641,29.6484375 53.2476562,30.0644531 C52.8521484,30.4804688 52.6163086,31.0869141 52.5401367,31.8837891 L56.9522461,31.8837891 C56.9405273,31.0810547 56.747168,30.4731445 56.372168,30.0600586 C55.997168,29.6469727 55.481543,29.4404297 54.825293,29.4404297 Z" id="Shape"></path>
                <path d="M64.5512695,37.9482422 C63.3383789,37.9482422 62.3920898,37.5087891 61.7124023,36.6298828 C61.0327148,35.7509766 60.6928711,34.5175781 60.6928711,32.9296875 C60.6928711,31.3359375 61.0371094,30.0952148 61.7255859,29.2075195 C62.4140625,28.3198242 63.3676758,27.8759766 64.5864258,27.8759766 C65.8637695,27.8759766 66.8364258,28.3476562 67.5043945,29.2910156 L67.6098633,29.2910156 C67.5102539,28.59375 67.4604492,28.0429688 67.4604492,27.6386719 L67.4604492,24.0966797 L69.534668,24.0966797 L69.534668,37.7724609 L67.9174805,37.7724609 L67.5571289,36.4980469 L67.4604492,36.4980469 C66.7983398,37.4648438 65.8286133,37.9482422 64.5512695,37.9482422 Z M65.1049805,36.2783203 C65.9545898,36.2783203 66.5727539,36.0395508 66.9594726,35.5620117 C67.3461914,35.0844727 67.5454101,34.3095703 67.5571289,33.2373047 L67.5571289,32.9472656 C67.5571289,31.7226562 67.3579101,30.8525391 66.9594726,30.3369141 C66.5610351,29.8212891 65.9370117,29.5634766 65.0874023,29.5634766 C64.3608398,29.5634766 63.8012695,29.8579102 63.4086914,30.4467773 C63.0161133,31.0356445 62.8198242,31.875 62.8198242,32.9648438 C62.8198242,34.0429688 63.0102539,34.8647461 63.3911133,35.4301758 C63.7719726,35.9956055 64.3432617,36.2783203 65.1049805,36.2783203 Z" id="Shape"></path>
            </g>
            <g id="OPP-side-key-pressed" transform="translate(217.985156, 134.358398)">
                <path d="M24.5293945,7.23339844 C24.5293945,9.32519531 24.0064453,10.9511719 22.9605469,12.1113281 C21.9146484,13.2714844 20.4336914,13.8515625 18.5176758,13.8515625 C16.5782227,13.8515625 15.0884766,13.2758789 14.0484375,12.1245117 C13.0083984,10.9731445 12.4883789,9.33691406 12.4883789,7.21582031 C12.4883789,5.09472656 13.0113281,3.46582031 14.0572266,2.32910156 C15.103125,1.19238281 16.5958008,0.624023438 18.5352539,0.624023438 C20.4454102,0.624023438 21.9219727,1.20117188 22.9649414,2.35546875 C24.0079102,3.50976562 24.5293945,5.13574219 24.5293945,7.23339844 Z M14.7208008,7.23339844 C14.7208008,8.81542969 15.0401367,10.0151367 15.6788086,10.8325195 C16.3174805,11.6499023 17.2637695,12.0585938 18.5176758,12.0585938 C19.7657227,12.0585938 20.7076172,11.6542969 21.3433594,10.8457031 C21.9791016,10.0371094 22.2969727,8.83300781 22.2969727,7.23339844 C22.2969727,5.65722656 21.9820312,4.46191406 21.3521484,3.64746094 C20.7222656,2.83300781 19.7833008,2.42578125 18.5352539,2.42578125 C17.2754883,2.42578125 16.3248047,2.83300781 15.6832031,3.64746094 C15.0416016,4.46191406 14.7208008,5.65722656 14.7208008,7.23339844 Z" id="Shape"></path>
                <path d="M35.7407227,4.7109375 C35.7407227,6.05273438 35.3012695,7.08105469 34.4223633,7.79589844 C33.543457,8.51074219 32.2924805,8.86816406 30.6694336,8.86816406 L29.3334961,8.86816406 L29.3334961,13.6757812 L27.2329102,13.6757812 L27.2329102,0.826171875 L30.9331055,0.826171875 C32.5385742,0.826171875 33.7412109,1.15429688 34.5410156,1.81054688 C35.3408203,2.46679688 35.7407227,3.43359375 35.7407227,4.7109375 Z M29.3334961,7.1015625 L30.449707,7.1015625 C31.527832,7.1015625 32.3188477,6.9140625 32.8227539,6.5390625 C33.3266602,6.1640625 33.5786133,5.578125 33.5786133,4.78125 C33.5786133,4.04296875 33.3530273,3.4921875 32.9018555,3.12890625 C32.4506836,2.765625 31.7475586,2.58398438 30.7924805,2.58398438 L29.3334961,2.58398438 L29.3334961,7.1015625 Z" id="Shape"></path>
                <path d="M46.7586914,4.7109375 C46.7586914,6.05273438 46.3192383,7.08105469 45.440332,7.79589844 C44.5614258,8.51074219 43.3104492,8.86816406 41.6874023,8.86816406 L40.3514648,8.86816406 L40.3514648,13.6757812 L38.2508789,13.6757812 L38.2508789,0.826171875 L41.9510742,0.826171875 C43.556543,0.826171875 44.7591797,1.15429688 45.5589844,1.81054688 C46.3587891,2.46679688 46.7586914,3.43359375 46.7586914,4.7109375 Z M40.3514648,7.1015625 L41.4676758,7.1015625 C42.5458008,7.1015625 43.3368164,6.9140625 43.8407227,6.5390625 C44.3446289,6.1640625 44.596582,5.578125 44.596582,4.78125 C44.596582,4.04296875 44.3709961,3.4921875 43.9198242,3.12890625 C43.4686523,2.765625 42.7655273,2.58398438 41.8104492,2.58398438 L40.3514648,2.58398438 L40.3514648,7.1015625 Z" id="Shape"></path>
                <polygon id="Path" points="48.2053711 9.72949219 48.2053711 7.97167969 52.7229492 7.97167969 52.7229492 9.72949219"></polygon>
                <path d="M61.3151367,10.9072266 C61.3151367,11.8564453 60.9694336,12.5844727 60.2780273,13.0913086 C59.5866211,13.5981445 58.5963867,13.8515625 57.3073242,13.8515625 C56.0124023,13.8515625 54.9723633,13.6552734 54.187207,13.2626953 L54.187207,11.4785156 C55.3297852,12.0058594 56.3932617,12.2695312 57.3776367,12.2695312 C58.6491211,12.2695312 59.2848633,11.8857422 59.2848633,11.1181641 C59.2848633,10.8720703 59.2145508,10.6669922 59.0739258,10.5029297 C58.9333008,10.3388672 58.7018555,10.1689453 58.3795898,9.99316406 C58.0573242,9.81738281 57.609082,9.61816406 57.0348633,9.39550781 C55.9157227,8.96191406 55.1583984,8.52832031 54.7628906,8.09472656 C54.3673828,7.66113281 54.1696289,7.09863281 54.1696289,6.40722656 C54.1696289,5.57519531 54.5050781,4.92919922 55.1759766,4.46923828 C55.846875,4.00927734 56.7594727,3.77929688 57.9137695,3.77929688 C59.0563477,3.77929688 60.1374023,4.01074219 61.1569336,4.47363281 L60.4889648,6.02929688 C59.4401367,5.59570312 58.5583008,5.37890625 57.843457,5.37890625 C56.7536133,5.37890625 56.2086914,5.68945312 56.2086914,6.31054688 C56.2086914,6.61523438 56.3507812,6.87304688 56.6349609,7.08398438 C56.9191406,7.29492188 57.5387695,7.58496094 58.4938477,7.95410156 C59.296582,8.26464844 59.8795898,8.54882812 60.2428711,8.80664062 C60.6061523,9.06445312 60.8756836,9.36181641 61.0514648,9.69873047 C61.2272461,10.0356445 61.3151367,10.4384766 61.3151367,10.9072266 Z" id="Path"></path>
                <path d="M65.5567383,13.6757812 L63.4913086,13.6757812 L63.4913086,3.95507812 L65.5567383,3.95507812 L65.5567383,13.6757812 Z M63.3682617,1.37988281 C63.3682617,1.01074219 63.4693359,0.7265625 63.6714844,0.52734375 C63.8736328,0.328125 64.162207,0.228515625 64.537207,0.228515625 C64.9004883,0.228515625 65.1832031,0.328125 65.3853516,0.52734375 C65.5875,0.7265625 65.6885742,1.01074219 65.6885742,1.37988281 C65.6885742,1.73144531 65.5875,2.00830078 65.3853516,2.21044922 C65.1832031,2.41259766 64.9004883,2.51367188 64.537207,2.51367188 C64.162207,2.51367188 63.8736328,2.41259766 63.6714844,2.21044922 C63.4693359,2.00830078 63.3682617,1.73144531 63.3682617,1.37988281 Z" id="Shape"></path>
                <path d="M71.7319336,13.8515625 C70.519043,13.8515625 69.5727539,13.4121094 68.8930664,12.5332031 C68.2133789,11.6542969 67.8735351,10.4208984 67.8735351,8.83300781 C67.8735351,7.23925781 68.2177734,5.99853516 68.90625,5.11083984 C69.5947266,4.22314453 70.5483398,3.77929688 71.7670898,3.77929688 C73.0444336,3.77929688 74.0170898,4.25097656 74.6850586,5.19433594 L74.7905273,5.19433594 C74.690918,4.49707031 74.6411133,3.94628906 74.6411133,3.54199219 L74.6411133,0 L76.715332,0 L76.715332,13.6757812 L75.0981445,13.6757812 L74.737793,12.4013672 L74.6411133,12.4013672 C73.9790039,13.3681641 73.0092773,13.8515625 71.7319336,13.8515625 Z M72.2856445,12.1816406 C73.1352539,12.1816406 73.753418,11.9428711 74.1401367,11.465332 C74.5268555,10.987793 74.7260742,10.2128906 74.737793,9.140625 L74.737793,8.85058594 C74.737793,7.62597656 74.5385742,6.75585938 74.1401367,6.24023438 C73.7416992,5.72460938 73.1176758,5.46679688 72.2680664,5.46679688 C71.5415039,5.46679688 70.9819336,5.76123047 70.5893555,6.35009766 C70.1967773,6.93896484 70.0004883,7.77832031 70.0004883,8.86816406 C70.0004883,9.94628906 70.190918,10.7680664 70.5717773,11.3334961 C70.9526367,11.8989258 71.5239258,12.1816406 72.2856445,12.1816406 Z" id="Shape"></path>
                <path d="M83.8573242,13.8515625 C82.3456055,13.8515625 81.1634766,13.4106445 80.3109375,12.5288086 C79.4583984,11.6469727 79.0321289,10.4326172 79.0321289,8.88574219 C79.0321289,7.29785156 79.4276367,6.04980469 80.2186523,5.14160156 C81.009668,4.23339844 82.096582,3.77929688 83.4793945,3.77929688 C84.7625976,3.77929688 85.7762695,4.16894531 86.5204101,4.94824219 C87.2645508,5.72753906 87.6366211,6.79980469 87.6366211,8.16503906 L87.6366211,9.28125 L81.159082,9.28125 C81.1883789,10.2246094 81.4432617,10.949707 81.9237305,11.456543 C82.4041992,11.9633789 83.080957,12.2167969 83.9540039,12.2167969 C84.5282226,12.2167969 85.0628906,12.1625977 85.5580078,12.0541992 C86.053125,11.9458008 86.5848633,11.765625 87.1532226,11.5136719 L87.1532226,13.1923828 C86.6493164,13.4326172 86.1395508,13.6025391 85.6239258,13.7021484 C85.1083008,13.8017578 84.5194336,13.8515625 83.8573242,13.8515625 Z M83.4793945,5.34375 C82.8231445,5.34375 82.2972656,5.55175781 81.9017578,5.96777344 C81.50625,6.38378906 81.2704101,6.99023438 81.1942383,7.78710938 L85.6063476,7.78710938 C85.5946289,6.984375 85.4012695,6.37646484 85.0262695,5.96337891 C84.6512695,5.55029297 84.1356445,5.34375 83.4793945,5.34375 Z" id="Shape"></path>
                <polygon id="Path" points="1.99511719 32.5429688 3.1640625 31.0839844 6.09960938 27.9550781 8.48144531 27.9550781 4.5703125 32.1298828 8.72753906 37.6757812 6.30175781 37.6757812 3.18164062 33.4130859 2.04785156 34.3447266 2.04785156 37.6757812 0 37.6757812 0 24 2.04785156 24 2.04785156 30.6708984 1.94238281 32.5429688"></polygon>
                <path d="M14.4808594,37.8515625 C12.9691406,37.8515625 11.7870117,37.4106445 10.9344727,36.5288086 C10.0819336,35.6469727 9.65566406,34.4326172 9.65566406,32.8857422 C9.65566406,31.2978516 10.0511719,30.0498047 10.8421875,29.1416016 C11.6332031,28.2333984 12.7201172,27.7792969 14.1029297,27.7792969 C15.3861328,27.7792969 16.3998047,28.1689453 17.1439453,28.9482422 C17.8880859,29.7275391 18.2601562,30.7998047 18.2601562,32.1650391 L18.2601562,33.28125 L11.7826172,33.28125 C11.8119141,34.2246094 12.0667969,34.949707 12.5472656,35.456543 C13.0277344,35.9633789 13.7044922,36.2167969 14.5775391,36.2167969 C15.1517578,36.2167969 15.6864258,36.1625977 16.181543,36.0541992 C16.6766602,35.9458008 17.2083984,35.765625 17.7767578,35.5136719 L17.7767578,37.1923828 C17.2728516,37.4326172 16.7630859,37.6025391 16.2474609,37.7021484 C15.7318359,37.8017578 15.1429687,37.8515625 14.4808594,37.8515625 Z M14.1029297,29.34375 C13.4466797,29.34375 12.9208008,29.5517578 12.525293,29.9677734 C12.1297852,30.3837891 11.8939453,30.9902344 11.8177734,31.7871094 L16.2298828,31.7871094 C16.2181641,30.984375 16.0248047,30.3764648 15.6498047,29.9633789 C15.2748047,29.550293 14.7591797,29.34375 14.1029297,29.34375 Z" id="Shape"></path>
                <path d="M19.0740234,27.9550781 L21.3240234,27.9550781 L23.3015625,33.4658203 C23.6003906,34.2509766 23.7996094,34.9892578 23.8992187,35.6806641 L23.9695312,35.6806641 C24.0222656,35.3583984 24.1189453,34.9672852 24.2595703,34.5073242 C24.4001953,34.0473633 25.1443359,31.8632812 26.4919922,27.9550781 L28.7244141,27.9550781 L24.5671875,38.9677734 C23.8113281,40.9892578 22.5515625,42 20.7878906,42 C20.3308594,42 19.8855469,41.9501953 19.4519531,41.8505859 L19.4519531,40.2158203 C19.7625,40.2861328 20.1169922,40.3212891 20.5154297,40.3212891 C21.5115234,40.3212891 22.2117187,39.7441406 22.6160156,38.5898438 L22.9763672,37.6757812 L19.0740234,27.9550781 Z" id="Path"></path>
                <path d="M39.6949219,37.8515625 C38.4644531,37.8515625 37.509375,37.4091797 36.8296875,36.5244141 L36.7066406,36.5244141 C36.7886719,37.3447266 36.8296875,37.8427734 36.8296875,38.0185547 L36.8296875,42 L34.7642578,42 L34.7642578,27.9550781 L36.4341797,27.9550781 C36.4810547,28.1367188 36.5777344,28.5703125 36.7242187,29.2558594 L36.8296875,29.2558594 C37.4742187,28.2714844 38.4410156,27.7792969 39.7300781,27.7792969 C40.9429687,27.7792969 41.887793,28.21875 42.5645508,29.0976562 C43.2413086,29.9765625 43.5796875,31.2099609 43.5796875,32.7978516 C43.5796875,34.3857422 43.2354492,35.625 42.5469727,36.515625 C41.8584961,37.40625 40.9078125,37.8515625 39.6949219,37.8515625 Z M39.1939453,29.4667969 C38.3736328,29.4667969 37.7745117,29.7070312 37.396582,30.1875 C37.0186523,30.6679688 36.8296875,31.4355469 36.8296875,32.4902344 L36.8296875,32.7978516 C36.8296875,33.9814453 37.0171875,34.8383789 37.3921875,35.3686523 C37.7671875,35.8989258 38.3794922,36.1640625 39.2291016,36.1640625 C39.9439453,36.1640625 40.4947266,35.8710938 40.8814453,35.2851562 C41.2681641,34.6992188 41.4615234,33.8642578 41.4615234,32.7802734 C41.4615234,31.6904297 41.2696289,30.8657227 40.8858398,30.3061523 C40.5020508,29.746582 39.9380859,29.4667969 39.1939453,29.4667969 Z" id="Shape"></path>
                <path d="M50.8535156,27.7792969 C51.2695312,27.7792969 51.6123047,27.8085938 51.8818359,27.8671875 L51.6796875,29.7919922 C51.3867187,29.7216797 51.0820312,29.6865234 50.765625,29.6865234 C49.9394531,29.6865234 49.2700195,29.9560547 48.7573242,30.4951172 C48.2446289,31.0341797 47.9882812,31.734375 47.9882812,32.5957031 L47.9882812,37.6757812 L45.9228516,37.6757812 L45.9228516,27.9550781 L47.5400391,27.9550781 L47.8125,29.6689453 L47.9179687,29.6689453 C48.2402344,29.0888672 48.6606445,28.6289062 49.1791992,28.2890625 C49.6977539,27.9492188 50.2558594,27.7792969 50.8535156,27.7792969 Z" id="Path"></path>
                <path d="M57.8724609,37.8515625 C56.3607422,37.8515625 55.1786133,37.4106445 54.3260742,36.5288086 C53.4735352,35.6469727 53.0472656,34.4326172 53.0472656,32.8857422 C53.0472656,31.2978516 53.4427734,30.0498047 54.2337891,29.1416016 C55.0248047,28.2333984 56.1117187,27.7792969 57.4945312,27.7792969 C58.7777344,27.7792969 59.7914062,28.1689453 60.5355469,28.9482422 C61.2796875,29.7275391 61.6517578,30.7998047 61.6517578,32.1650391 L61.6517578,33.28125 L55.1742187,33.28125 C55.2035156,34.2246094 55.4583984,34.949707 55.9388672,35.456543 C56.4193359,35.9633789 57.0960937,36.2167969 57.9691406,36.2167969 C58.5433594,36.2167969 59.0780273,36.1625977 59.5731445,36.0541992 C60.0682617,35.9458008 60.6,35.765625 61.1683594,35.5136719 L61.1683594,37.1923828 C60.6644531,37.4326172 60.1546875,37.6025391 59.6390625,37.7021484 C59.1234375,37.8017578 58.5345703,37.8515625 57.8724609,37.8515625 Z M57.4945312,29.34375 C56.8382812,29.34375 56.3124023,29.5517578 55.9168945,29.9677734 C55.5213867,30.3837891 55.2855469,30.9902344 55.209375,31.7871094 L59.6214844,31.7871094 C59.6097656,30.984375 59.4164062,30.3764648 59.0414062,29.9633789 C58.6664062,29.550293 58.1507812,29.34375 57.4945312,29.34375 Z" id="Shape"></path>
                <path d="M70.4724609,34.9072266 C70.4724609,35.8564453 70.1267578,36.5844727 69.4353516,37.0913086 C68.7439453,37.5981445 67.7537109,37.8515625 66.4646484,37.8515625 C65.1697266,37.8515625 64.1296875,37.6552734 63.3445312,37.2626953 L63.3445312,35.4785156 C64.4871094,36.0058594 65.5505859,36.2695312 66.5349609,36.2695312 C67.8064453,36.2695312 68.4421875,35.8857422 68.4421875,35.1181641 C68.4421875,34.8720703 68.371875,34.6669922 68.23125,34.5029297 C68.090625,34.3388672 67.8591797,34.1689453 67.5369141,33.9931641 C67.2146484,33.8173828 66.7664062,33.6181641 66.1921875,33.3955078 C65.0730469,32.9619141 64.3157227,32.5283203 63.9202148,32.0947266 C63.524707,31.6611328 63.3269531,31.0986328 63.3269531,30.4072266 C63.3269531,29.5751953 63.6624023,28.9291992 64.3333008,28.4692383 C65.0041992,28.0092773 65.9167969,27.7792969 67.0710937,27.7792969 C68.2136719,27.7792969 69.2947266,28.0107422 70.3142578,28.4736328 L69.6462891,30.0292969 C68.5974609,29.5957031 67.715625,29.3789062 67.0007812,29.3789062 C65.9109375,29.3789062 65.3660156,29.6894531 65.3660156,30.3105469 C65.3660156,30.6152344 65.5081055,30.8730469 65.7922852,31.0839844 C66.0764648,31.2949219 66.6960937,31.5849609 67.6511719,31.9541016 C68.4539062,32.2646484 69.0369141,32.5488281 69.4001953,32.8066406 C69.7634766,33.0644531 70.0330078,33.3618164 70.2087891,33.6987305 C70.3845703,34.0356445 70.4724609,34.4384766 70.4724609,34.9072266 Z" id="Path"></path>
                <path d="M79.1789062,34.9072266 C79.1789062,35.8564453 78.8332031,36.5844727 78.1417969,37.0913086 C77.4503906,37.5981445 76.4601562,37.8515625 75.1710937,37.8515625 C73.8761719,37.8515625 72.8361328,37.6552734 72.0509766,37.2626953 L72.0509766,35.4785156 C73.1935547,36.0058594 74.2570312,36.2695312 75.2414062,36.2695312 C76.5128906,36.2695312 77.1486328,35.8857422 77.1486328,35.1181641 C77.1486328,34.8720703 77.0783203,34.6669922 76.9376953,34.5029297 C76.7970703,34.3388672 76.565625,34.1689453 76.2433594,33.9931641 C75.9210937,33.8173828 75.4728516,33.6181641 74.8986328,33.3955078 C73.7794922,32.9619141 73.022168,32.5283203 72.6266601,32.0947266 C72.2311523,31.6611328 72.0333984,31.0986328 72.0333984,30.4072266 C72.0333984,29.5751953 72.3688476,28.9291992 73.0397461,28.4692383 C73.7106445,28.0092773 74.6232422,27.7792969 75.7775391,27.7792969 C76.9201172,27.7792969 78.0011719,28.0107422 79.0207031,28.4736328 L78.3527344,30.0292969 C77.3039062,29.5957031 76.4220703,29.3789062 75.7072266,29.3789062 C74.6173828,29.3789062 74.0724609,29.6894531 74.0724609,30.3105469 C74.0724609,30.6152344 74.2145508,30.8730469 74.4987305,31.0839844 C74.7829101,31.2949219 75.4025391,31.5849609 76.3576172,31.9541016 C77.1603516,32.2646484 77.7433594,32.5488281 78.1066406,32.8066406 C78.4699219,33.0644531 78.7394531,33.3618164 78.9152344,33.6987305 C79.0910156,34.0356445 79.1789062,34.4384766 79.1789062,34.9072266 Z" id="Path"></path>
                <path d="M85.6001953,37.8515625 C84.0884766,37.8515625 82.9063476,37.4106445 82.0538086,36.5288086 C81.2012695,35.6469727 80.775,34.4326172 80.775,32.8857422 C80.775,31.2978516 81.1705078,30.0498047 81.9615234,29.1416016 C82.7525391,28.2333984 83.8394531,27.7792969 85.2222656,27.7792969 C86.5054687,27.7792969 87.5191406,28.1689453 88.2632812,28.9482422 C89.0074219,29.7275391 89.3794922,30.7998047 89.3794922,32.1650391 L89.3794922,33.28125 L82.9019531,33.28125 C82.93125,34.2246094 83.1861328,34.949707 83.6666016,35.456543 C84.1470703,35.9633789 84.8238281,36.2167969 85.696875,36.2167969 C86.2710937,36.2167969 86.8057617,36.1625977 87.3008789,36.0541992 C87.7959961,35.9458008 88.3277344,35.765625 88.8960937,35.5136719 L88.8960937,37.1923828 C88.3921875,37.4326172 87.8824219,37.6025391 87.3667969,37.7021484 C86.8511719,37.8017578 86.2623047,37.8515625 85.6001953,37.8515625 Z M85.2222656,29.34375 C84.5660156,29.34375 84.0401367,29.5517578 83.6446289,29.9677734 C83.2491211,30.3837891 83.0132812,30.9902344 82.9371094,31.7871094 L87.3492187,31.7871094 C87.3375,30.984375 87.1441406,30.3764648 86.7691406,29.9633789 C86.3941406,29.550293 85.8785156,29.34375 85.2222656,29.34375 Z" id="Shape"></path>
                <path d="M94.9482422,37.8515625 C93.7353516,37.8515625 92.7890625,37.4121094 92.109375,36.5332031 C91.4296875,35.6542969 91.0898437,34.4208984 91.0898437,32.8330078 C91.0898437,31.2392578 91.434082,29.9985352 92.1225586,29.1108398 C92.8110351,28.2231445 93.7646484,27.7792969 94.9833984,27.7792969 C96.2607422,27.7792969 97.2333984,28.2509766 97.9013672,29.1943359 L98.0068359,29.1943359 C97.9072266,28.4970703 97.8574219,27.9462891 97.8574219,27.5419922 L97.8574219,24 L99.9316406,24 L99.9316406,37.6757812 L98.3144531,37.6757812 L97.9541016,36.4013672 L97.8574219,36.4013672 C97.1953125,37.3681641 96.2255859,37.8515625 94.9482422,37.8515625 Z M95.5019531,36.1816406 C96.3515625,36.1816406 96.9697266,35.9428711 97.3564453,35.465332 C97.7431641,34.987793 97.9423828,34.2128906 97.9541016,33.140625 L97.9541016,32.8505859 C97.9541016,31.6259766 97.7548828,30.7558594 97.3564453,30.2402344 C96.9580078,29.7246094 96.3339844,29.4667969 95.484375,29.4667969 C94.7578125,29.4667969 94.1982422,29.7612305 93.8056641,30.3500977 C93.4130859,30.9389648 93.2167969,31.7783203 93.2167969,32.8681641 C93.2167969,33.9462891 93.4072266,34.7680664 93.7880859,35.3334961 C94.1689453,35.8989258 94.7402344,36.1816406 95.5019531,36.1816406 Z" id="Shape"></path>
            </g>
            <g id="short-TT-expires-(-=" transform="translate(451.635059, 134.358398)">
                <path d="M19.9854492,10.9072266 C19.9854492,11.8564453 19.6397461,12.5844727 18.9483398,13.0913086 C18.2569336,13.5981445 17.2666992,13.8515625 15.9776367,13.8515625 C14.6827148,13.8515625 13.6426758,13.6552734 12.8575195,13.2626953 L12.8575195,11.4785156 C14.0000977,12.0058594 15.0635742,12.2695312 16.0479492,12.2695312 C17.3194336,12.2695312 17.9551758,11.8857422 17.9551758,11.1181641 C17.9551758,10.8720703 17.8848633,10.6669922 17.7442383,10.5029297 C17.6036133,10.3388672 17.372168,10.1689453 17.0499023,9.99316406 C16.7276367,9.81738281 16.2793945,9.61816406 15.7051758,9.39550781 C14.5860352,8.96191406 13.8287109,8.52832031 13.4332031,8.09472656 C13.0376953,7.66113281 12.8399414,7.09863281 12.8399414,6.40722656 C12.8399414,5.57519531 13.1753906,4.92919922 13.8462891,4.46923828 C14.5171875,4.00927734 15.4297852,3.77929688 16.584082,3.77929688 C17.7266602,3.77929688 18.8077148,4.01074219 19.8272461,4.47363281 L19.1592773,6.02929688 C18.1104492,5.59570312 17.2286133,5.37890625 16.5137695,5.37890625 C15.4239258,5.37890625 14.8790039,5.68945312 14.8790039,6.31054688 C14.8790039,6.61523438 15.0210937,6.87304688 15.3052734,7.08398438 C15.5894531,7.29492188 16.209082,7.58496094 17.1641602,7.95410156 C17.9668945,8.26464844 18.5499023,8.54882812 18.9131836,8.80664062 C19.2764648,9.06445312 19.5459961,9.36181641 19.7217773,9.69873047 C19.8975586,10.0356445 19.9854492,10.4384766 19.9854492,10.9072266 Z" id="Path"></path>
                <path d="M30.7133789,13.6757812 L28.6391602,13.6757812 L28.6391602,7.69921875 C28.6391602,6.94921875 28.4882812,6.38964844 28.1865234,6.02050781 C27.8847656,5.65136719 27.4057617,5.46679688 26.7495117,5.46679688 C25.8823242,5.46679688 25.2451172,5.72607422 24.8378906,6.24462891 C24.4306641,6.76318359 24.2270508,7.63183594 24.2270508,8.85058594 L24.2270508,13.6757812 L22.1616211,13.6757812 L22.1616211,0 L24.2270508,0 L24.2270508,3.47167969 C24.2270508,4.02832031 24.1918945,4.62304688 24.121582,5.25585938 L24.253418,5.25585938 C24.534668,4.78710938 24.9257812,4.42382812 25.4267578,4.16601562 C25.9277344,3.90820312 26.512207,3.77929688 27.1801758,3.77929688 C29.5356445,3.77929688 30.7133789,4.96582031 30.7133789,7.33886719 L30.7133789,13.6757812 Z" id="Path"></path>
                <path d="M42.1532227,8.79785156 C42.1532227,10.3857422 41.7459961,11.625 40.931543,12.515625 C40.1170898,13.40625 38.9833008,13.8515625 37.5301758,13.8515625 C36.6219727,13.8515625 35.8192383,13.6464844 35.1219727,13.2363281 C34.424707,12.8261719 33.8885742,12.2373047 33.5135742,11.4697266 C33.1385742,10.7021484 32.9510742,9.81152344 32.9510742,8.79785156 C32.9510742,7.22167969 33.3553711,5.99121094 34.1639648,5.10644531 C34.9725586,4.22167969 36.112207,3.77929688 37.5829102,3.77929688 C38.9891602,3.77929688 40.1024414,4.23193359 40.9227539,5.13720703 C41.7430664,6.04248047 42.1532227,7.26269531 42.1532227,8.79785156 Z M35.0780273,8.79785156 C35.0780273,11.0419922 35.9071289,12.1640625 37.565332,12.1640625 C39.205957,12.1640625 40.0262695,11.0419922 40.0262695,8.79785156 C40.0262695,6.57714844 39.2000977,5.46679688 37.5477539,5.46679688 C36.6805664,5.46679688 36.0521484,5.75390625 35.6625,6.328125 C35.2728516,6.90234375 35.0780273,7.72558594 35.0780273,8.79785156 Z" id="Shape"></path>
                <path d="M49.4006836,3.77929688 C49.8166992,3.77929688 50.1594727,3.80859375 50.4290039,3.8671875 L50.2268555,5.79199219 C49.9338867,5.72167969 49.6291992,5.68652344 49.312793,5.68652344 C48.4866211,5.68652344 47.8171875,5.95605469 47.3044922,6.49511719 C46.7917969,7.03417969 46.5354492,7.734375 46.5354492,8.59570312 L46.5354492,13.6757812 L44.4700195,13.6757812 L44.4700195,3.95507812 L46.087207,3.95507812 L46.359668,5.66894531 L46.4651367,5.66894531 C46.7874023,5.08886719 47.2078125,4.62890625 47.7263672,4.2890625 C48.2449219,3.94921875 48.8030273,3.77929688 49.4006836,3.77929688 Z" id="Path"></path>
                <path d="M55.7956055,12.1816406 C56.2995117,12.1816406 56.803418,12.1025391 57.3073242,11.9443359 L57.3073242,13.5 C57.0788086,13.5996094 56.784375,13.6831055 56.4240234,13.7504883 C56.0636719,13.8178711 55.6901367,13.8515625 55.303418,13.8515625 C53.3463867,13.8515625 52.3678711,12.8203125 52.3678711,10.7578125 L52.3678711,5.51953125 L51.0407227,5.51953125 L51.0407227,4.60546875 L52.4645508,3.84960938 L53.1676758,1.79296875 L54.4420898,1.79296875 L54.4420898,3.95507812 L57.2106445,3.95507812 L57.2106445,5.51953125 L54.4420898,5.51953125 L54.4420898,10.7226562 C54.4420898,11.2207031 54.5666016,11.5883789 54.815625,11.8256836 C55.0646484,12.0629883 55.3913086,12.1816406 55.7956055,12.1816406 Z" id="Path"></path>
                <polygon id="Path" points="68.4711914 13.6757812 66.3706055 13.6757812 66.3706055 2.62792969 62.5913086 2.62792969 62.5913086 0.826171875 72.2504883 0.826171875 72.2504883 2.62792969 68.4711914 2.62792969"></polygon>
                <polygon id="Path" points="78.6014648 13.6757812 76.5008789 13.6757812 76.5008789 2.62792969 72.721582 2.62792969 72.721582 0.826171875 82.3807617 0.826171875 82.3807617 2.62792969 78.6014648 2.62792969"></polygon>
                <path d="M21.4998047,37.8515625 C19.9880859,37.8515625 18.805957,37.4106445 17.953418,36.5288086 C17.1008789,35.6469727 16.6746094,34.4326172 16.6746094,32.8857422 C16.6746094,31.2978516 17.0701172,30.0498047 17.8611328,29.1416016 C18.6521484,28.2333984 19.7390625,27.7792969 21.121875,27.7792969 C22.4050781,27.7792969 23.41875,28.1689453 24.1628906,28.9482422 C24.9070312,29.7275391 25.2791016,30.7998047 25.2791016,32.1650391 L25.2791016,33.28125 L18.8015625,33.28125 C18.8308594,34.2246094 19.0857422,34.949707 19.5662109,35.456543 C20.0466797,35.9633789 20.7234375,36.2167969 21.5964844,36.2167969 C22.1707031,36.2167969 22.7053711,36.1625977 23.2004883,36.0541992 C23.6956055,35.9458008 24.2273437,35.765625 24.7957031,35.5136719 L24.7957031,37.1923828 C24.2917969,37.4326172 23.7820312,37.6025391 23.2664062,37.7021484 C22.7507812,37.8017578 22.1619141,37.8515625 21.4998047,37.8515625 Z M21.121875,29.34375 C20.465625,29.34375 19.9397461,29.5517578 19.5442383,29.9677734 C19.1487305,30.3837891 18.9128906,30.9902344 18.8367187,31.7871094 L23.2488281,31.7871094 C23.2371094,30.984375 23.04375,30.3764648 22.66875,29.9633789 C22.29375,29.550293 21.778125,29.34375 21.121875,29.34375 Z" id="Shape"></path>
                <polygon id="Path" points="29.7316406 32.7099609 26.4708984 27.9550781 28.8263672 27.9550781 31.0412109 31.3564453 33.2736328 27.9550781 35.6115234 27.9550781 32.3419922 32.7099609 35.7785156 37.6757812 33.440625 37.6757812 31.0412109 34.0371094 28.6505859 37.6757812 26.3126953 37.6757812"></polygon>
                <path d="M42.3580078,37.8515625 C41.1275391,37.8515625 40.1724609,37.4091797 39.4927734,36.5244141 L39.3697266,36.5244141 C39.4517578,37.3447266 39.4927734,37.8427734 39.4927734,38.0185547 L39.4927734,42 L37.4273437,42 L37.4273437,27.9550781 L39.0972656,27.9550781 C39.1441406,28.1367188 39.2408203,28.5703125 39.3873047,29.2558594 L39.4927734,29.2558594 C40.1373047,28.2714844 41.1041016,27.7792969 42.3931641,27.7792969 C43.6060547,27.7792969 44.5508789,28.21875 45.2276367,29.0976562 C45.9043945,29.9765625 46.2427734,31.2099609 46.2427734,32.7978516 C46.2427734,34.3857422 45.8985352,35.625 45.2100586,36.515625 C44.521582,37.40625 43.5708984,37.8515625 42.3580078,37.8515625 Z M41.8570312,29.4667969 C41.0367187,29.4667969 40.4375977,29.7070312 40.059668,30.1875 C39.6817383,30.6679688 39.4927734,31.4355469 39.4927734,32.4902344 L39.4927734,32.7978516 C39.4927734,33.9814453 39.6802734,34.8383789 40.0552734,35.3686523 C40.4302734,35.8989258 41.0425781,36.1640625 41.8921875,36.1640625 C42.6070312,36.1640625 43.1578125,35.8710938 43.5445312,35.2851562 C43.93125,34.6992188 44.1246094,33.8642578 44.1246094,32.7802734 C44.1246094,31.6904297 43.9327148,30.8657227 43.5489258,30.3061523 C43.1651367,29.746582 42.6011719,29.4667969 41.8570312,29.4667969 Z" id="Shape"></path>
                <path d="M50.6513672,37.6757812 L48.5859375,37.6757812 L48.5859375,27.9550781 L50.6513672,27.9550781 L50.6513672,37.6757812 Z M48.4628906,25.3798828 C48.4628906,25.0107422 48.5639648,24.7265625 48.7661133,24.5273438 C48.9682617,24.328125 49.2568359,24.2285156 49.6318359,24.2285156 C49.9951172,24.2285156 50.277832,24.328125 50.4799805,24.5273438 C50.6821289,24.7265625 50.7832031,25.0107422 50.7832031,25.3798828 C50.7832031,25.7314453 50.6821289,26.0083008 50.4799805,26.2104492 C50.277832,26.4125977 49.9951172,26.5136719 49.6318359,26.5136719 C49.2568359,26.5136719 48.9682617,26.4125977 48.7661133,26.2104492 C48.5639648,26.0083008 48.4628906,25.7314453 48.4628906,25.3798828 Z" id="Shape"></path>
                <path d="M58.4789062,27.7792969 C58.8949219,27.7792969 59.2376953,27.8085938 59.5072266,27.8671875 L59.3050781,29.7919922 C59.0121094,29.7216797 58.7074219,29.6865234 58.3910156,29.6865234 C57.5648437,29.6865234 56.8954102,29.9560547 56.3827148,30.4951172 C55.8700195,31.0341797 55.6136719,31.734375 55.6136719,32.5957031 L55.6136719,37.6757812 L53.5482422,37.6757812 L53.5482422,27.9550781 L55.1654297,27.9550781 L55.4378906,29.6689453 L55.5433594,29.6689453 C55.865625,29.0888672 56.2860352,28.6289062 56.8045898,28.2890625 C57.3231445,27.9492188 57.88125,27.7792969 58.4789062,27.7792969 Z" id="Path"></path>
                <path d="M65.4978516,37.8515625 C63.9861328,37.8515625 62.8040039,37.4106445 61.9514648,36.5288086 C61.0989258,35.6469727 60.6726562,34.4326172 60.6726562,32.8857422 C60.6726562,31.2978516 61.0681641,30.0498047 61.8591797,29.1416016 C62.6501953,28.2333984 63.7371094,27.7792969 65.1199219,27.7792969 C66.403125,27.7792969 67.4167969,28.1689453 68.1609375,28.9482422 C68.9050781,29.7275391 69.2771484,30.7998047 69.2771484,32.1650391 L69.2771484,33.28125 L62.7996094,33.28125 C62.8289062,34.2246094 63.0837891,34.949707 63.5642578,35.456543 C64.0447266,35.9633789 64.7214844,36.2167969 65.5945312,36.2167969 C66.16875,36.2167969 66.703418,36.1625977 67.1985352,36.0541992 C67.6936523,35.9458008 68.2253906,35.765625 68.79375,35.5136719 L68.79375,37.1923828 C68.2898437,37.4326172 67.7800781,37.6025391 67.2644531,37.7021484 C66.7488281,37.8017578 66.1599609,37.8515625 65.4978516,37.8515625 Z M65.1199219,29.34375 C64.4636719,29.34375 63.937793,29.5517578 63.5422852,29.9677734 C63.1467773,30.3837891 62.9109375,30.9902344 62.8347656,31.7871094 L67.246875,31.7871094 C67.2351562,30.984375 67.0417969,30.3764648 66.6667969,29.9633789 C66.2917969,29.550293 65.7761719,29.34375 65.1199219,29.34375 Z" id="Shape"></path>
                <path d="M78.0978516,34.9072266 C78.0978516,35.8564453 77.7521484,36.5844727 77.0607422,37.0913086 C76.3693359,37.5981445 75.3791016,37.8515625 74.0900391,37.8515625 C72.7951172,37.8515625 71.7550781,37.6552734 70.9699219,37.2626953 L70.9699219,35.4785156 C72.1125,36.0058594 73.1759766,36.2695312 74.1603516,36.2695312 C75.4318359,36.2695312 76.0675781,35.8857422 76.0675781,35.1181641 C76.0675781,34.8720703 75.9972656,34.6669922 75.8566406,34.5029297 C75.7160156,34.3388672 75.4845703,34.1689453 75.1623047,33.9931641 C74.8400391,33.8173828 74.3917969,33.6181641 73.8175781,33.3955078 C72.6984375,32.9619141 71.9411133,32.5283203 71.5456055,32.0947266 C71.1500976,31.6611328 70.9523437,31.0986328 70.9523437,30.4072266 C70.9523437,29.5751953 71.287793,28.9291992 71.9586914,28.4692383 C72.6295898,28.0092773 73.5421875,27.7792969 74.6964844,27.7792969 C75.8390625,27.7792969 76.9201172,28.0107422 77.9396484,28.4736328 L77.2716797,30.0292969 C76.2228516,29.5957031 75.3410156,29.3789062 74.6261719,29.3789062 C73.5363281,29.3789062 72.9914062,29.6894531 72.9914062,30.3105469 C72.9914062,30.6152344 73.1334961,30.8730469 73.4176758,31.0839844 C73.7018555,31.2949219 74.3214844,31.5849609 75.2765625,31.9541016 C76.0792969,32.2646484 76.6623047,32.5488281 77.0255859,32.8066406 C77.3888672,33.0644531 77.6583984,33.3618164 77.8341797,33.6987305 C78.0099609,34.0356445 78.0978516,34.4384766 78.0978516,34.9072266 Z" id="Path"></path>
                <path d="M0,56.7451172 C0,55.1923828 0.227050781,53.7392578 0.681152344,52.3857422 C1.13525391,51.0322266 1.79003906,49.8457031 2.64550781,48.8261719 L4.44726562,48.8261719 C3.6328125,49.9277344 3.00878906,51.1625977 2.57519531,52.5307617 C2.14160156,53.8989258 1.92480469,55.2978516 1.92480469,56.7275391 C1.92480469,58.1572266 2.14160156,59.5429688 2.57519531,60.8847656 C3.00878906,62.2265625 3.62695312,63.4394531 4.4296875,64.5234375 L2.64550781,64.5234375 C1.78417969,63.5273438 1.12792969,62.3642578 0.676757812,61.0341797 C0.225585938,59.7041016 0,58.2744141 0,56.7451172 Z" id="Path"></path>
                <path d="M10.4431641,54.3720703 L10.4431641,52.7988281 L18.9070312,52.7988281 L18.9070312,54.3720703 L10.4431641,54.3720703 Z M10.4431641,57.8789062 L10.4431641,56.3144531 L18.9070312,56.3144531 L18.9070312,57.8789062 L10.4431641,57.8789062 Z" id="Shape"></path>
                <polygon id="Path" points="20.6085937 58.0019531 27.0509766 55.3388672 20.6085937 52.3154297 20.6085937 50.6015625 29.1955078 54.890625 29.1955078 55.9541016 20.6085937 59.7333984"></polygon>
                <polygon id="Path" points="46.4326172 61.6757812 44.3232422 61.6757812 44.3232422 55.8837891 38.3994141 55.8837891 38.3994141 61.6757812 36.2988281 61.6757812 36.2988281 48.8261719 38.3994141 48.8261719 38.3994141 54.0820312 44.3232422 54.0820312 44.3232422 48.8261719 46.4326172 48.8261719"></polygon>
                <path d="M61.1683594,55.2333984 C61.1683594,57.3251953 60.6454102,58.9511719 59.5995117,60.1113281 C58.5536133,61.2714844 57.0726562,61.8515625 55.1566406,61.8515625 C53.2171875,61.8515625 51.7274414,61.2758789 50.6874023,60.1245117 C49.6473633,58.9731445 49.1273437,57.3369141 49.1273437,55.2158203 C49.1273437,53.0947266 49.650293,51.4658203 50.6961914,50.3291016 C51.7420898,49.1923828 53.2347656,48.6240234 55.1742187,48.6240234 C57.084375,48.6240234 58.5609375,49.2011719 59.6039062,50.3554688 C60.646875,51.5097656 61.1683594,53.1357422 61.1683594,55.2333984 Z M51.3597656,55.2333984 C51.3597656,56.8154297 51.6791016,58.0151367 52.3177734,58.8325195 C52.9564453,59.6499023 53.9027344,60.0585938 55.1566406,60.0585938 C56.4046875,60.0585938 57.346582,59.6542969 57.9823242,58.8457031 C58.6180664,58.0371094 58.9359375,56.8330078 58.9359375,55.2333984 C58.9359375,53.6572266 58.6209961,52.4619141 57.9911133,51.6474609 C57.3612305,50.8330078 56.4222656,50.4257812 55.1742187,50.4257812 C53.9144531,50.4257812 52.9637695,50.8330078 52.322168,51.6474609 C51.6805664,52.4619141 51.3597656,53.6572266 51.3597656,55.2333984 Z" id="Shape"></path>
                <polygon id="Path" points="63.871875 61.6757812 63.871875 48.8261719 65.9724609 48.8261719 65.9724609 59.8740234 71.4128906 59.8740234 71.4128906 61.6757812"></polygon>
                <path d="M84.0216797,55.1279297 C84.0216797,57.2490234 83.4328125,58.8706055 82.2550781,59.9926758 C81.0773437,61.1147461 79.3810547,61.6757812 77.1662109,61.6757812 L73.5714844,61.6757812 L73.5714844,48.8261719 L77.5441406,48.8261719 C79.5890625,48.8261719 81.1798828,49.3769531 82.3166016,50.4785156 C83.4533203,51.5800781 84.0216797,53.1298828 84.0216797,55.1279297 Z M81.8068359,55.1982422 C81.8068359,52.1220703 80.3683594,50.5839844 77.4914062,50.5839844 L75.6720703,50.5839844 L75.6720703,59.9091797 L77.1662109,59.9091797 C80.2599609,59.9091797 81.8068359,58.3388672 81.8068359,55.1982422 Z" id="Shape"></path>
                <path d="M94.6318359,56.7451172 C94.6318359,58.2861328 94.4047851,59.7216797 93.9506836,61.0517578 C93.496582,62.3818359 92.8417969,63.5390625 91.9863281,64.5234375 L90.2021484,64.5234375 C91.0107422,63.4277344 91.6303711,62.2119141 92.0610351,60.8759766 C92.4916992,59.5400391 92.7070312,58.1572266 92.7070312,56.7275391 C92.7070312,55.2919922 92.4902344,53.8930664 92.0566406,52.5307617 C91.6230469,51.168457 90.9990234,49.9335938 90.1845703,48.8261719 L91.9863281,48.8261719 C92.8476562,49.8515625 93.5039062,51.0424805 93.9550781,52.3989258 C94.40625,53.7553711 94.6318359,55.2041016 94.6318359,56.7451172 Z" id="Path"></path>
            </g>
            <g id="lightshift-released" transform="translate(693.000000, 134.261719)">
                <polygon id="Path" points="2.06542969 13.7724609 0 13.7724609 0 0.0966796875 2.06542969 0.0966796875"></polygon>
                <path d="M7.02773437,13.7724609 L4.96230469,13.7724609 L4.96230469,4.05175781 L7.02773437,4.05175781 L7.02773437,13.7724609 Z M4.83925781,1.4765625 C4.83925781,1.10742188 4.94033203,0.823242188 5.14248047,0.624023438 C5.34462891,0.424804688 5.63320312,0.325195312 6.00820312,0.325195312 C6.37148437,0.325195312 6.65419922,0.424804688 6.85634766,0.624023438 C7.05849609,0.823242188 7.15957031,1.10742188 7.15957031,1.4765625 C7.15957031,1.828125 7.05849609,2.10498047 6.85634766,2.30712891 C6.65419922,2.50927734 6.37148437,2.61035156 6.00820312,2.61035156 C5.63320312,2.61035156 5.34462891,2.50927734 5.14248047,2.30712891 C4.94033203,2.10498047 4.83925781,1.828125 4.83925781,1.4765625 Z" id="Shape"></path>
                <path d="M18.1335937,4.05175781 L18.1335937,5.18554688 L16.4724609,5.49316406 C16.6248047,5.69824219 16.7507812,5.95019531 16.8503906,6.24902344 C16.95,6.54785156 16.9998047,6.86425781 16.9998047,7.19824219 C16.9998047,8.20019531 16.6541016,8.98828125 15.9626953,9.5625 C15.2712891,10.1367188 14.3191406,10.4238281 13.10625,10.4238281 C12.7957031,10.4238281 12.5144531,10.4003906 12.2625,10.3535156 C11.8171875,10.6289062 11.5945312,10.9511719 11.5945312,11.3203125 C11.5945312,11.5429688 11.6985352,11.7099609 11.906543,11.8212891 C12.1145508,11.9326172 12.496875,11.9882812 13.0535156,11.9882812 L14.7498047,11.9882812 C15.8220703,11.9882812 16.6365234,12.2167969 17.1931641,12.6738281 C17.7498047,13.1308594 18.028125,13.7900391 18.028125,14.6513672 C18.028125,15.7529297 17.5740234,16.6025391 16.6658203,17.2001953 C15.7576172,17.7978516 14.4451172,18.0966797 12.7283203,18.0966797 C11.4041016,18.0966797 10.3933594,17.8623047 9.69609375,17.3935547 C8.99882812,16.9248047 8.65019531,16.2568359 8.65019531,15.3896484 C8.65019531,14.7919922 8.83916015,14.2895508 9.21708984,13.8823242 C9.59501953,13.4750977 10.1238281,13.1923828 10.8035156,13.0341797 C10.528125,12.9169922 10.3010742,12.7280273 10.1223633,12.4672852 C9.94365234,12.206543 9.85429687,11.9326172 9.85429687,11.6455078 C9.85429687,11.2822266 9.95683594,10.9746094 10.1619141,10.7226562 C10.3669922,10.4707031 10.6716797,10.2216797 11.0759766,9.97558594 C10.5720703,9.75878906 10.1633789,9.40576172 9.84990234,8.91650391 C9.53642578,8.42724609 9.3796875,7.85449219 9.3796875,7.19824219 C9.3796875,6.14355469 9.71220703,5.32617188 10.3772461,4.74609375 C11.0422852,4.16601562 11.9900391,3.87597656 13.2205078,3.87597656 C13.4958984,3.87597656 13.7844727,3.89501953 14.0862305,3.93310547 C14.3879883,3.97119141 14.6150391,4.01074219 14.7673828,4.05175781 L18.1335937,4.05175781 Z M10.4958984,15.2841797 C10.4958984,15.7294922 10.696582,16.0722656 11.0979492,16.3125 C11.4993164,16.5527344 12.0632812,16.6728516 12.7898437,16.6728516 C13.9148437,16.6728516 14.7527344,16.5117188 15.3035156,16.1894531 C15.8542969,15.8671875 16.1296875,15.4394531 16.1296875,14.90625 C16.1296875,14.484375 15.9788086,14.184082 15.6770508,14.0053711 C15.375293,13.8266602 14.8142578,13.7373047 13.9939453,13.7373047 L12.4294922,13.7373047 C11.8376953,13.7373047 11.3674805,13.8764648 11.0188477,14.1547852 C10.6702148,14.4331055 10.4958984,14.8095703 10.4958984,15.2841797 Z M11.3835937,7.19824219 C11.3835937,7.80761719 11.540332,8.27636719 11.8538086,8.60449219 C12.1672852,8.93261719 12.6169922,9.09667969 13.2029297,9.09667969 C14.3982422,9.09667969 14.9958984,8.45800781 14.9958984,7.18066406 C14.9958984,6.54785156 14.8479492,6.06005859 14.5520508,5.71728516 C14.2561523,5.37451172 13.8064453,5.203125 13.2029297,5.203125 C12.6052734,5.203125 12.1526367,5.37304688 11.8450195,5.71289062 C11.5374023,6.05273438 11.3835937,6.54785156 11.3835937,7.19824219 Z" id="Shape"></path>
                <path d="M28.4308594,13.7724609 L26.3566406,13.7724609 L26.3566406,7.79589844 C26.3566406,7.04589844 26.2057617,6.48632812 25.9040039,6.1171875 C25.6022461,5.74804688 25.1232422,5.56347656 24.4669922,5.56347656 C23.5998047,5.56347656 22.9625977,5.82275391 22.5553711,6.34130859 C22.1481445,6.85986328 21.9445312,7.72851562 21.9445312,8.94726562 L21.9445312,13.7724609 L19.8791016,13.7724609 L19.8791016,0.0966796875 L21.9445312,0.0966796875 L21.9445312,3.56835937 C21.9445312,4.125 21.909375,4.71972656 21.8390625,5.35253906 L21.9708984,5.35253906 C22.2521484,4.88378906 22.6432617,4.52050781 23.1442383,4.26269531 C23.6452148,4.00488281 24.2296875,3.87597656 24.8976562,3.87597656 C27.253125,3.87597656 28.4308594,5.0625 28.4308594,7.43554688 L28.4308594,13.7724609 Z" id="Path"></path>
                <path d="M34.8697266,12.2783203 C35.3736328,12.2783203 35.8775391,12.1992188 36.3814453,12.0410156 L36.3814453,13.5966797 C36.1529297,13.6962891 35.8584961,13.7797852 35.4981445,13.847168 C35.137793,13.9145508 34.7642578,13.9482422 34.3775391,13.9482422 C32.4205078,13.9482422 31.4419922,12.9169922 31.4419922,10.8544922 L31.4419922,5.61621094 L30.1148437,5.61621094 L30.1148437,4.70214844 L31.5386719,3.94628906 L32.2417969,1.88964844 L33.5162109,1.88964844 L33.5162109,4.05175781 L36.2847656,4.05175781 L36.2847656,5.61621094 L33.5162109,5.61621094 L33.5162109,10.8193359 C33.5162109,11.3173828 33.6407227,11.6850586 33.8897461,11.9223633 C34.1387695,12.159668 34.4654297,12.2783203 34.8697266,12.2783203 Z" id="Path"></path>
                <path d="M44.7978516,11.0039062 C44.7978516,11.953125 44.4521484,12.6811523 43.7607422,13.1879883 C43.0693359,13.6948242 42.0791016,13.9482422 40.7900391,13.9482422 C39.4951172,13.9482422 38.4550781,13.7519531 37.6699219,13.359375 L37.6699219,11.5751953 C38.8125,12.1025391 39.8759766,12.3662109 40.8603516,12.3662109 C42.1318359,12.3662109 42.7675781,11.9824219 42.7675781,11.2148438 C42.7675781,10.96875 42.6972656,10.7636719 42.5566406,10.5996094 C42.4160156,10.4355469 42.1845703,10.265625 41.8623047,10.0898438 C41.5400391,9.9140625 41.0917969,9.71484375 40.5175781,9.4921875 C39.3984375,9.05859375 38.6411133,8.625 38.2456055,8.19140625 C37.8500977,7.7578125 37.6523437,7.1953125 37.6523437,6.50390625 C37.6523437,5.671875 37.987793,5.02587891 38.6586914,4.56591797 C39.3295898,4.10595703 40.2421875,3.87597656 41.3964844,3.87597656 C42.5390625,3.87597656 43.6201172,4.10742188 44.6396484,4.5703125 L43.9716797,6.12597656 C42.9228516,5.69238281 42.0410156,5.47558594 41.3261719,5.47558594 C40.2363281,5.47558594 39.6914062,5.78613281 39.6914062,6.40722656 C39.6914062,6.71191406 39.8334961,6.96972656 40.1176758,7.18066406 C40.4018555,7.39160156 41.0214844,7.68164062 41.9765625,8.05078125 C42.7792969,8.36132812 43.3623047,8.64550781 43.7255859,8.90332031 C44.0888672,9.16113281 44.3583984,9.45849609 44.5341797,9.79541016 C44.7099609,10.1323242 44.7978516,10.5351562 44.7978516,11.0039062 Z" id="Path"></path>
                <path d="M55.5257812,13.7724609 L53.4515625,13.7724609 L53.4515625,7.79589844 C53.4515625,7.04589844 53.3006836,6.48632812 52.9989258,6.1171875 C52.697168,5.74804688 52.2181641,5.56347656 51.5619141,5.56347656 C50.6947266,5.56347656 50.0575195,5.82275391 49.650293,6.34130859 C49.2430664,6.85986328 49.0394531,7.72851562 49.0394531,8.94726562 L49.0394531,13.7724609 L46.9740234,13.7724609 L46.9740234,0.0966796875 L49.0394531,0.0966796875 L49.0394531,3.56835937 C49.0394531,4.125 49.0042969,4.71972656 48.9339844,5.35253906 L49.0658203,5.35253906 C49.3470703,4.88378906 49.7381836,4.52050781 50.2391602,4.26269531 C50.7401367,4.00488281 51.3246094,3.87597656 51.9925781,3.87597656 C54.3480469,3.87597656 55.5257812,5.0625 55.5257812,7.43554688 L55.5257812,13.7724609 Z" id="Path"></path>
                <path d="M60.4089844,13.7724609 L58.3435547,13.7724609 L58.3435547,4.05175781 L60.4089844,4.05175781 L60.4089844,13.7724609 Z M58.2205078,1.4765625 C58.2205078,1.10742188 58.321582,0.823242188 58.5237305,0.624023438 C58.7258789,0.424804688 59.0144531,0.325195312 59.3894531,0.325195312 C59.7527344,0.325195312 60.0354492,0.424804688 60.2375977,0.624023438 C60.4397461,0.823242188 60.5408203,1.10742188 60.5408203,1.4765625 C60.5408203,1.828125 60.4397461,2.10498047 60.2375977,2.30712891 C60.0354492,2.50927734 59.7527344,2.61035156 59.3894531,2.61035156 C59.0144531,2.61035156 58.7258789,2.50927734 58.5237305,2.30712891 C58.321582,2.10498047 58.2205078,1.828125 58.2205078,1.4765625 Z" id="Shape"></path>
                <path d="M68.1837891,5.61621094 L65.8107422,5.61621094 L65.8107422,13.7724609 L63.7365234,13.7724609 L63.7365234,5.61621094 L62.1369141,5.61621094 L62.1369141,4.64941406 L63.7365234,4.01660156 L63.7365234,3.38378906 C63.7365234,2.23535156 64.0060547,1.38427734 64.5451172,0.830566406 C65.0841797,0.276855469 65.9074219,0 67.0148437,0 C67.7414062,0 68.45625,0.120117188 69.159375,0.360351562 L68.6144531,1.92480469 C68.1046875,1.76074219 67.6183594,1.67871094 67.1554687,1.67871094 C66.6867187,1.67871094 66.3454101,1.82373047 66.131543,2.11376953 C65.9176758,2.40380859 65.8107422,2.83886719 65.8107422,3.41894531 L65.8107422,4.05175781 L68.1837891,4.05175781 L68.1837891,5.61621094 Z" id="Path"></path>
                <path d="M73.4009766,12.2783203 C73.9048828,12.2783203 74.4087891,12.1992188 74.9126953,12.0410156 L74.9126953,13.5966797 C74.6841797,13.6962891 74.3897461,13.7797852 74.0293945,13.847168 C73.669043,13.9145508 73.2955078,13.9482422 72.9087891,13.9482422 C70.9517578,13.9482422 69.9732422,12.9169922 69.9732422,10.8544922 L69.9732422,5.61621094 L68.6460937,5.61621094 L68.6460937,4.70214844 L70.0699219,3.94628906 L70.7730469,1.88964844 L72.0474609,1.88964844 L72.0474609,4.05175781 L74.8160156,4.05175781 L74.8160156,5.61621094 L72.0474609,5.61621094 L72.0474609,10.8193359 C72.0474609,11.3173828 72.1719726,11.6850586 72.4209961,11.9223633 C72.6700195,12.159668 72.9966797,12.2783203 73.4009766,12.2783203 Z" id="Path"></path>
                <path d="M6.39931641,27.8759766 C6.81533203,27.8759766 7.15810547,27.9052734 7.42763672,27.9638672 L7.22548828,29.8886719 C6.93251953,29.8183594 6.62783203,29.7832031 6.31142578,29.7832031 C5.48525391,29.7832031 4.81582031,30.0527344 4.303125,30.5917969 C3.79042969,31.1308594 3.53408203,31.8310547 3.53408203,32.6923828 L3.53408203,37.7724609 L1.46865234,37.7724609 L1.46865234,28.0517578 L3.08583984,28.0517578 L3.35830078,29.765625 L3.46376953,29.765625 C3.78603516,29.1855469 4.20644531,28.7255859 4.725,28.3857422 C5.24355469,28.0458984 5.80166016,27.8759766 6.39931641,27.8759766 Z" id="Path"></path>
                <path d="M13.4182617,37.9482422 C11.906543,37.9482422 10.7244141,37.5073242 9.871875,36.6254883 C9.01933594,35.7436523 8.5930664,34.5292969 8.5930664,32.9824219 C8.5930664,31.3945312 8.98857422,30.1464844 9.77958984,29.2382812 C10.5706055,28.3300781 11.6575195,27.8759766 13.040332,27.8759766 C14.3235352,27.8759766 15.337207,28.265625 16.0813477,29.0449219 C16.8254883,29.8242188 17.1975586,30.8964844 17.1975586,32.2617188 L17.1975586,33.3779297 L10.7200195,33.3779297 C10.7493164,34.3212891 11.0041992,35.0463867 11.484668,35.5532227 C11.9651367,36.0600586 12.6418945,36.3134766 13.5149414,36.3134766 C14.0891602,36.3134766 14.6238281,36.2592773 15.1189453,36.1508789 C15.6140625,36.0424805 16.1458008,35.8623047 16.7141602,35.6103516 L16.7141602,37.2890625 C16.2102539,37.5292969 15.7004883,37.6992188 15.1848633,37.7988281 C14.6692383,37.8984375 14.0803711,37.9482422 13.4182617,37.9482422 Z M13.040332,29.4404297 C12.384082,29.4404297 11.8582031,29.6484375 11.4626953,30.0644531 C11.0671875,30.4804688 10.8313477,31.0869141 10.7551758,31.8837891 L15.1672852,31.8837891 C15.1555664,31.0810547 14.962207,30.4731445 14.587207,30.0600586 C14.212207,29.6469727 13.696582,29.4404297 13.040332,29.4404297 Z" id="Shape"></path>
                <polygon id="Path" points="21.553418 37.7724609 19.4879883 37.7724609 19.4879883 24.0966797 21.553418 24.0966797"></polygon>
                <path d="M28.6954102,37.9482422 C27.1836914,37.9482422 26.0015625,37.5073242 25.1490234,36.6254883 C24.2964844,35.7436523 23.8702148,34.5292969 23.8702148,32.9824219 C23.8702148,31.3945312 24.2657227,30.1464844 25.0567383,29.2382812 C25.8477539,28.3300781 26.934668,27.8759766 28.3174805,27.8759766 C29.6006836,27.8759766 30.6143555,28.265625 31.3584961,29.0449219 C32.1026367,29.8242188 32.474707,30.8964844 32.474707,32.2617188 L32.474707,33.3779297 L25.997168,33.3779297 C26.0264648,34.3212891 26.2813477,35.0463867 26.7618164,35.5532227 C27.2422852,36.0600586 27.919043,36.3134766 28.7920898,36.3134766 C29.3663086,36.3134766 29.9009766,36.2592773 30.3960937,36.1508789 C30.8912109,36.0424805 31.4229492,35.8623047 31.9913086,35.6103516 L31.9913086,37.2890625 C31.4874023,37.5292969 30.9776367,37.6992188 30.4620117,37.7988281 C29.9463867,37.8984375 29.3575195,37.9482422 28.6954102,37.9482422 Z M28.3174805,29.4404297 C27.6612305,29.4404297 27.1353516,29.6484375 26.7398437,30.0644531 C26.3443359,30.4804688 26.1084961,31.0869141 26.0323242,31.8837891 L30.4444336,31.8837891 C30.4327148,31.0810547 30.2393555,30.4731445 29.8643555,30.0600586 C29.4893555,29.6469727 28.9737305,29.4404297 28.3174805,29.4404297 Z" id="Shape"></path>
                <path d="M40.847168,37.7724609 L40.434082,36.4189453 L40.3637695,36.4189453 C39.8950195,37.0107422 39.4233398,37.4135742 38.9487305,37.6274414 C38.4741211,37.8413086 37.8647461,37.9482422 37.1206055,37.9482422 C36.1655273,37.9482422 35.4199219,37.6904297 34.8837891,37.1748047 C34.3476562,36.6591797 34.0795898,35.9296875 34.0795898,34.9863281 C34.0795898,33.984375 34.4516602,33.2285156 35.1958008,32.71875 C35.9399414,32.2089844 37.0737305,31.9306641 38.597168,31.8837891 L40.2758789,31.8310547 L40.2758789,31.3125 C40.2758789,30.6914062 40.1308594,30.2270508 39.8408203,29.9194336 C39.5507812,29.6118164 39.1010742,29.4580078 38.4916992,29.4580078 C37.9936523,29.4580078 37.5161133,29.53125 37.059082,29.6777344 C36.6020508,29.8242188 36.1625977,29.9970703 35.7407227,30.1962891 L35.0727539,28.7197266 C35.6000977,28.4443359 36.1772461,28.2348633 36.8041992,28.0913086 C37.4311523,27.9477539 38.0229492,27.8759766 38.5795898,27.8759766 C39.815918,27.8759766 40.7490234,28.1455078 41.3789062,28.6845703 C42.0087891,29.2236328 42.3237305,30.0703125 42.3237305,31.2246094 L42.3237305,37.7724609 L40.847168,37.7724609 Z M37.7709961,36.3662109 C38.5209961,36.3662109 39.1230469,36.1567383 39.5771484,35.737793 C40.03125,35.3188477 40.2583008,34.7314453 40.2583008,33.9755859 L40.2583008,33.1318359 L39.0102539,33.1845703 C38.0375977,33.2197266 37.3300781,33.3823242 36.8876953,33.6723633 C36.4453125,33.9624023 36.2241211,34.40625 36.2241211,35.0039062 C36.2241211,35.4375 36.3530273,35.7729492 36.6108398,36.0102539 C36.8686523,36.2475586 37.2553711,36.3662109 37.7709961,36.3662109 Z" id="Shape"></path>
                <path d="M51.6805664,35.0039062 C51.6805664,35.953125 51.3348633,36.6811523 50.643457,37.1879883 C49.9520508,37.6948242 48.9618164,37.9482422 47.6727539,37.9482422 C46.377832,37.9482422 45.337793,37.7519531 44.5526367,37.359375 L44.5526367,35.5751953 C45.6952148,36.1025391 46.7586914,36.3662109 47.7430664,36.3662109 C49.0145508,36.3662109 49.650293,35.9824219 49.650293,35.2148438 C49.650293,34.96875 49.5799805,34.7636719 49.4393555,34.5996094 C49.2987305,34.4355469 49.0672852,34.265625 48.7450195,34.0898438 C48.4227539,33.9140625 47.9745117,33.7148438 47.400293,33.4921875 C46.2811523,33.0585938 45.5238281,32.625 45.1283203,32.1914062 C44.7328125,31.7578125 44.5350586,31.1953125 44.5350586,30.5039062 C44.5350586,29.671875 44.8705078,29.0258789 45.5414062,28.565918 C46.2123047,28.105957 47.1249023,27.8759766 48.2791992,27.8759766 C49.4217773,27.8759766 50.502832,28.1074219 51.5223633,28.5703125 L50.8543945,30.1259766 C49.8055664,29.6923828 48.9237305,29.4755859 48.2088867,29.4755859 C47.119043,29.4755859 46.5741211,29.7861328 46.5741211,30.4072266 C46.5741211,30.7119141 46.7162109,30.9697266 47.0003906,31.1806641 C47.2845703,31.3916016 47.9041992,31.6816406 48.8592773,32.0507812 C49.6620117,32.3613281 50.2450195,32.6455078 50.6083008,32.9033203 C50.971582,33.1611328 51.2411133,33.4584961 51.4168945,33.7954102 C51.5926758,34.1323242 51.6805664,34.5351562 51.6805664,35.0039062 Z" id="Path"></path>
                <path d="M58.1018555,37.9482422 C56.5901367,37.9482422 55.4080078,37.5073242 54.5554687,36.6254883 C53.7029297,35.7436523 53.2766602,34.5292969 53.2766602,32.9824219 C53.2766602,31.3945312 53.672168,30.1464844 54.4631836,29.2382812 C55.2541992,28.3300781 56.3411133,27.8759766 57.7239258,27.8759766 C59.0071289,27.8759766 60.0208008,28.265625 60.7649414,29.0449219 C61.509082,29.8242188 61.8811523,30.8964844 61.8811523,32.2617188 L61.8811523,33.3779297 L55.4036133,33.3779297 C55.4329102,34.3212891 55.687793,35.0463867 56.1682617,35.5532227 C56.6487305,36.0600586 57.3254883,36.3134766 58.1985352,36.3134766 C58.7727539,36.3134766 59.3074219,36.2592773 59.8025391,36.1508789 C60.2976562,36.0424805 60.8293945,35.8623047 61.3977539,35.6103516 L61.3977539,37.2890625 C60.8938477,37.5292969 60.384082,37.6992188 59.868457,37.7988281 C59.352832,37.8984375 58.7639648,37.9482422 58.1018555,37.9482422 Z M57.7239258,29.4404297 C57.0676758,29.4404297 56.5417969,29.6484375 56.1462891,30.0644531 C55.7507812,30.4804688 55.5149414,31.0869141 55.4387695,31.8837891 L59.8508789,31.8837891 C59.8391602,31.0810547 59.6458008,30.4731445 59.2708008,30.0600586 C58.8958008,29.6469727 58.3801758,29.4404297 57.7239258,29.4404297 Z" id="Shape"></path>
                <path d="M67.4499023,37.9482422 C66.2370117,37.9482422 65.2907226,37.5087891 64.6110351,36.6298828 C63.9313476,35.7509766 63.5915039,34.5175781 63.5915039,32.9296875 C63.5915039,31.3359375 63.9357422,30.0952148 64.6242187,29.2075195 C65.3126953,28.3198242 66.2663086,27.8759766 67.4850586,27.8759766 C68.7624023,27.8759766 69.7350586,28.3476562 70.4030273,29.2910156 L70.5084961,29.2910156 C70.4088867,28.59375 70.359082,28.0429688 70.359082,27.6386719 L70.359082,24.0966797 L72.4333008,24.0966797 L72.4333008,37.7724609 L70.8161133,37.7724609 L70.4557617,36.4980469 L70.359082,36.4980469 C69.6969726,37.4648438 68.7272461,37.9482422 67.4499023,37.9482422 Z M68.0036133,36.2783203 C68.8532226,36.2783203 69.4713867,36.0395508 69.8581055,35.5620117 C70.2448242,35.0844727 70.444043,34.3095703 70.4557617,33.2373047 L70.4557617,32.9472656 C70.4557617,31.7226562 70.256543,30.8525391 69.8581055,30.3369141 C69.459668,29.8212891 68.8356445,29.5634766 67.9860351,29.5634766 C67.2594726,29.5634766 66.6999023,29.8579102 66.3073242,30.4467773 C65.9147461,31.0356445 65.718457,31.875 65.718457,32.9648438 C65.718457,34.0429688 65.9088867,34.8647461 66.2897461,35.4301758 C66.6706055,35.9956055 67.2418945,36.2783203 68.0036133,36.2783203 Z" id="Shape"></path>
            </g>
        </g>
    </g>
</svg>