<?xml version="1.0" encoding="UTF-8"?>
<svg width="1021px" height="274px" viewBox="0 0 1021 274" version="1.1" xmlns="http://www.w3.org/2000/svg" xmlns:xlink="http://www.w3.org/1999/xlink">
    <title>q-light</title>
    <g id="q-light" stroke="none" stroke-width="1" fill="none" fill-rule="evenodd">
        <g id="graphics" transform="translate(239.951866, 37.000000)">
            <rect id="Rectangle" stroke="#000000" stroke-width="2" fill="#96CFE9" x="455.855597" y="0" width="84.2618658" height="81"></rect>
            <rect id="Rectangle" stroke="#000000" stroke-width="2" fill="#96CFE9" x="152" y="0" width="84.2618658" height="81"></rect>
            <rect id="Rectangle" stroke="#000000" stroke-width="2" fill="#96CFE9" x="303.903732" y="0" width="84.2618658" height="81"></rect>
            <rect id="Rectangle" stroke="#000000" stroke-width="2" fill="#96CFE9" x="-1.13686838e-13" y="0" width="84.2618658" height="81"></rect>
            <path id="Line-3" d="M527.048134,169.5 L541.048134,176.5 L527.048134,183.5 L527.048,177.5 L-0.951865794,177.5 L-0.951865794,175.5 L527.048,175.5 L527.048134,169.5 Z" fill="#000000" fill-rule="nonzero"></path>
        </g>
        <g id="text" transform="translate(240.861328, 64.800781)" fill="#000000" fill-rule="nonzero">
            <g id="“" transform="translate(490.631087, 0.000000)">
                <path d="M7.29492188,8.41992188 C7.91601562,6.04101562 8.95898438,3.234375 10.4238281,0 L13.4121094,0 C12.6035156,3.46875 12.0175781,6.40429688 11.6542969,8.80664062 L7.55859375,8.80664062 L7.29492188,8.41992188 Z M0,8.41992188 C0.234375,7.44726562 0.650390625,6.13476562 1.24804688,4.48242188 C1.84570312,2.83007812 2.4609375,1.3359375 3.09375,0 L6.08203125,0 C5.33203125,3 4.74023438,5.93554688 4.30664062,8.80664062 L0.2109375,8.80664062 L0,8.41992188 Z" id="Shape"></path>
            </g>
            <g id="Q" transform="translate(181.700306, 0.095703)">
                <path d="M24.0820312,13.21875 C24.0820312,16.3359375 23.4873047,18.9609375 22.2978516,21.09375 C21.1083984,23.2265625 19.3769531,24.7265625 17.1035156,25.59375 L23.2558594,32.2207031 L17.5957031,32.2207031 L12.7441406,26.4550781 L12.0585938,26.4550781 C8.1796875,26.4550781 5.20019531,25.3037109 3.12011719,23.0009766 C1.04003906,20.6982422 0,17.4257812 0,13.1835938 C0,8.94140625 1.04589844,5.68359375 3.13769531,3.41015625 C5.22949219,1.13671875 8.21484375,0 12.09375,0 C15.9140625,0 18.8671875,1.15429688 20.953125,3.46289062 C23.0390625,5.77148438 24.0820312,9.0234375 24.0820312,13.21875 Z M4.46484375,13.21875 C4.46484375,16.3828125 5.10351562,18.7822266 6.38085938,20.4169922 C7.65820312,22.0517578 9.55078125,22.8691406 12.0585938,22.8691406 C14.5546875,22.8691406 16.4384766,22.0605469 17.7099609,20.4433594 C18.9814453,18.8261719 19.6171875,16.4179688 19.6171875,13.21875 C19.6171875,10.0664062 18.9873047,7.67578125 17.7275391,6.046875 C16.4677734,4.41796875 14.5898438,3.60351562 12.09375,3.60351562 C9.57421875,3.60351562 7.67285156,4.41796875 6.38964844,6.046875 C5.10644531,7.67578125 4.46484375,10.0664062 4.46484375,13.21875 Z" id="Shape"></path>
            </g>
            <g id="?" transform="translate(339.190413, 0.130859)">
                <path d="M4.69335938,18.2636719 L4.69335938,17.1386719 C4.69335938,15.8496094 4.92773438,14.7773438 5.39648438,13.921875 C5.86523438,13.0664062 6.68554688,12.1816406 7.85742187,11.2675781 C9.25195312,10.1660156 10.1513672,9.31054688 10.5556641,8.70117188 C10.9599609,8.09179688 11.1621094,7.36523438 11.1621094,6.52148438 C11.1621094,5.53710938 10.8339844,4.78125 10.1777344,4.25390625 C9.52148438,3.7265625 8.578125,3.46289062 7.34765625,3.46289062 C6.234375,3.46289062 5.203125,3.62109375 4.25390625,3.9375 C3.3046875,4.25390625 2.37890625,4.63476562 1.4765625,5.08007812 L0,1.98632812 C2.37890625,0.662109375 4.92773438,0 7.64648437,0 C9.94335938,0 11.765625,0.5625 13.1132812,1.6875 C14.4609375,2.8125 15.1347656,4.36523438 15.1347656,6.34570312 C15.1347656,7.22460938 15.0058594,8.00683594 14.7480469,8.69238281 C14.4902344,9.37792969 14.1005859,10.03125 13.5791016,10.6523438 C13.0576172,11.2734375 12.1582031,12.0820312 10.8808594,13.078125 C9.79101562,13.9335938 9.06152344,14.6425781 8.69238281,15.2050781 C8.32324219,15.7675781 8.13867188,16.5234375 8.13867188,17.4726562 L8.13867188,18.2636719 L4.69335938,18.2636719 Z M3.97265625,23.8710938 C3.97265625,22.1015625 4.83398438,21.2167969 6.55664062,21.2167969 C7.40039062,21.2167969 8.04492188,21.4482422 8.49023438,21.9111328 C8.93554688,22.3740234 9.15820312,23.0273438 9.15820312,23.8710938 C9.15820312,24.703125 8.93261719,25.3623047 8.48144531,25.8486328 C8.03027344,26.3349609 7.38867188,26.578125 6.55664062,26.578125 C5.72460938,26.578125 5.0859375,26.3408203 4.640625,25.8662109 C4.1953125,25.3916016 3.97265625,24.7265625 3.97265625,23.8710938 Z" id="Shape"></path>
            </g>
            <g id="“" transform="translate(34.775490, 0.000000)">
                <path d="M7.29492188,8.41992188 C7.91601562,6.04101562 8.95898438,3.234375 10.4238281,0 L13.4121094,0 C12.6035156,3.46875 12.0175781,6.40429688 11.6542969,8.80664062 L7.55859375,8.80664062 L7.29492188,8.41992188 Z M0,8.41992188 C0.234375,7.44726562 0.650390625,6.13476562 1.24804688,4.48242188 C1.84570312,2.83007812 2.4609375,1.3359375 3.09375,0 L6.08203125,0 C5.33203125,3 4.74023438,5.93554688 4.30664062,8.80664062 L0.2109375,8.80664062 L0,8.41992188 Z" id="Shape"></path>
            </g>
            <g id="single" transform="translate(16.946790, 91.523438)">
                <path d="M7.14550781,10.9072266 C7.14550781,11.8564453 6.79980469,12.5844727 6.10839844,13.0913086 C5.41699219,13.5981445 4.42675781,13.8515625 3.13769531,13.8515625 C1.84277344,13.8515625 0.802734375,13.6552734 0.017578125,13.2626953 L0.017578125,11.4785156 C1.16015625,12.0058594 2.22363281,12.2695312 3.20800781,12.2695312 C4.47949219,12.2695312 5.11523438,11.8857422 5.11523438,11.1181641 C5.11523438,10.8720703 5.04492188,10.6669922 4.90429688,10.5029297 C4.76367188,10.3388672 4.53222656,10.1689453 4.20996094,9.99316406 C3.88769531,9.81738281 3.43945312,9.61816406 2.86523438,9.39550781 C1.74609375,8.96191406 0.988769531,8.52832031 0.593261719,8.09472656 C0.197753906,7.66113281 0,7.09863281 0,6.40722656 C0,5.57519531 0.335449219,4.92919922 1.00634766,4.46923828 C1.67724609,4.00927734 2.58984375,3.77929688 3.74414062,3.77929688 C4.88671875,3.77929688 5.96777344,4.01074219 6.98730469,4.47363281 L6.31933594,6.02929688 C5.27050781,5.59570312 4.38867188,5.37890625 3.67382812,5.37890625 C2.58398438,5.37890625 2.0390625,5.68945312 2.0390625,6.31054688 C2.0390625,6.61523438 2.18115234,6.87304688 2.46533203,7.08398438 C2.74951172,7.29492188 3.36914062,7.58496094 4.32421875,7.95410156 C5.12695312,8.26464844 5.70996094,8.54882812 6.07324219,8.80664062 C6.43652344,9.06445312 6.70605469,9.36181641 6.88183594,9.69873047 C7.05761719,10.0356445 7.14550781,10.4384766 7.14550781,10.9072266 Z" id="Path"></path>
                <path d="M11.3871094,13.6757812 L9.32167969,13.6757812 L9.32167969,3.95507812 L11.3871094,3.95507812 L11.3871094,13.6757812 Z M9.19863281,1.37988281 C9.19863281,1.01074219 9.29970703,0.7265625 9.50185547,0.52734375 C9.70400391,0.328125 9.99257812,0.228515625 10.3675781,0.228515625 C10.7308594,0.228515625 11.0135742,0.328125 11.2157227,0.52734375 C11.4178711,0.7265625 11.5189453,1.01074219 11.5189453,1.37988281 C11.5189453,1.73144531 11.4178711,2.00830078 11.2157227,2.21044922 C11.0135742,2.41259766 10.7308594,2.51367188 10.3675781,2.51367188 C9.99257812,2.51367188 9.70400391,2.41259766 9.50185547,2.21044922 C9.29970703,2.00830078 9.19863281,1.73144531 9.19863281,1.37988281 Z" id="Shape"></path>
                <path d="M22.8357422,13.6757812 L20.7615234,13.6757812 L20.7615234,7.69921875 C20.7615234,6.94921875 20.6106445,6.38964844 20.3088867,6.02050781 C20.0071289,5.65136719 19.528125,5.46679688 18.871875,5.46679688 C17.9988281,5.46679688 17.3601562,5.72460938 16.9558594,6.24023438 C16.5515625,6.75585938 16.3494141,7.62011719 16.3494141,8.83300781 L16.3494141,13.6757812 L14.2839844,13.6757812 L14.2839844,3.95507812 L15.9011719,3.95507812 L16.1912109,5.22949219 L16.2966797,5.22949219 C16.5896484,4.76660156 17.0056641,4.40917969 17.5447266,4.15722656 C18.0837891,3.90527344 18.6814453,3.77929688 19.3376953,3.77929688 C21.6697266,3.77929688 22.8357422,4.96582031 22.8357422,7.33886719 L22.8357422,13.6757812 Z" id="Path"></path>
                <path d="M33.8625,3.95507812 L33.8625,5.08886719 L32.2013672,5.39648438 C32.3537109,5.6015625 32.4796875,5.85351562 32.5792969,6.15234375 C32.6789062,6.45117188 32.7287109,6.76757812 32.7287109,7.1015625 C32.7287109,8.10351562 32.3830078,8.89160156 31.6916016,9.46582031 C31.0001953,10.0400391 30.0480469,10.3271484 28.8351562,10.3271484 C28.5246094,10.3271484 28.2433594,10.3037109 27.9914062,10.2568359 C27.5460937,10.5322266 27.3234375,10.8544922 27.3234375,11.2236328 C27.3234375,11.4462891 27.4274414,11.6132812 27.6354492,11.7246094 C27.843457,11.8359375 28.2257812,11.8916016 28.7824219,11.8916016 L30.4787109,11.8916016 C31.5509766,11.8916016 32.3654297,12.1201172 32.9220703,12.5771484 C33.4787109,13.0341797 33.7570312,13.6933594 33.7570312,14.5546875 C33.7570312,15.65625 33.3029297,16.5058594 32.3947266,17.1035156 C31.4865234,17.7011719 30.1740234,18 28.4572266,18 C27.1330078,18 26.1222656,17.765625 25.425,17.296875 C24.7277344,16.828125 24.3791016,16.1601562 24.3791016,15.2929688 C24.3791016,14.6953125 24.5680664,14.1928711 24.9459961,13.7856445 C25.3239258,13.378418 25.8527344,13.0957031 26.5324219,12.9375 C26.2570312,12.8203125 26.0299805,12.6313477 25.8512695,12.3706055 C25.6725586,12.1098633 25.5832031,11.8359375 25.5832031,11.5488281 C25.5832031,11.1855469 25.6857422,10.8779297 25.8908203,10.6259766 C26.0958984,10.3740234 26.4005859,10.125 26.8048828,9.87890625 C26.3009766,9.66210938 25.8922852,9.30908203 25.5788086,8.81982422 C25.265332,8.33056641 25.1085937,7.7578125 25.1085937,7.1015625 C25.1085937,6.046875 25.4411133,5.22949219 26.1061523,4.64941406 C26.7711914,4.06933594 27.7189453,3.77929688 28.9494141,3.77929688 C29.2248047,3.77929688 29.5133789,3.79833984 29.8151367,3.83642578 C30.1168945,3.87451172 30.3439453,3.9140625 30.4962891,3.95507812 L33.8625,3.95507812 Z M26.2248047,15.1875 C26.2248047,15.6328125 26.4254883,15.9755859 26.8268555,16.2158203 C27.2282227,16.4560547 27.7921875,16.5761719 28.51875,16.5761719 C29.64375,16.5761719 30.4816406,16.4150391 31.0324219,16.0927734 C31.5832031,15.7705078 31.8585937,15.3427734 31.8585937,14.8095703 C31.8585937,14.3876953 31.7077148,14.0874023 31.405957,13.9086914 C31.1041992,13.7299805 30.5431641,13.640625 29.7228516,13.640625 L28.1583984,13.640625 C27.5666016,13.640625 27.0963867,13.7797852 26.7477539,14.0581055 C26.3991211,14.3364258 26.2248047,14.7128906 26.2248047,15.1875 Z M27.1125,7.1015625 C27.1125,7.7109375 27.2692383,8.1796875 27.5827148,8.5078125 C27.8961914,8.8359375 28.3458984,9 28.9318359,9 C30.1271484,9 30.7248047,8.36132812 30.7248047,7.08398438 C30.7248047,6.45117188 30.5768555,5.96337891 30.280957,5.62060547 C29.9850586,5.27783203 29.5353516,5.10644531 28.9318359,5.10644531 C28.3341797,5.10644531 27.881543,5.27636719 27.5739258,5.61621094 C27.2663086,5.95605469 27.1125,6.45117188 27.1125,7.1015625 Z" id="Shape"></path>
                <polygon id="Path" points="37.6734375 13.6757812 35.6080078 13.6757812 35.6080078 0 37.6734375 0"></polygon>
                <path d="M44.8154297,13.8515625 C43.3037109,13.8515625 42.121582,13.4106445 41.269043,12.5288086 C40.4165039,11.6469727 39.9902344,10.4326172 39.9902344,8.88574219 C39.9902344,7.29785156 40.3857422,6.04980469 41.1767578,5.14160156 C41.9677734,4.23339844 43.0546875,3.77929688 44.4375,3.77929688 C45.7207031,3.77929688 46.734375,4.16894531 47.4785156,4.94824219 C48.2226562,5.72753906 48.5947266,6.79980469 48.5947266,8.16503906 L48.5947266,9.28125 L42.1171875,9.28125 C42.1464844,10.2246094 42.4013672,10.949707 42.8818359,11.456543 C43.3623047,11.9633789 44.0390625,12.2167969 44.9121094,12.2167969 C45.4863281,12.2167969 46.0209961,12.1625977 46.5161133,12.0541992 C47.0112305,11.9458008 47.5429687,11.765625 48.1113281,11.5136719 L48.1113281,13.1923828 C47.6074219,13.4326172 47.0976562,13.6025391 46.5820312,13.7021484 C46.0664062,13.8017578 45.4775391,13.8515625 44.8154297,13.8515625 Z M44.4375,5.34375 C43.78125,5.34375 43.2553711,5.55175781 42.8598633,5.96777344 C42.4643555,6.38378906 42.2285156,6.99023438 42.1523437,7.78710938 L46.5644531,7.78710938 C46.5527344,6.984375 46.359375,6.37646484 45.984375,5.96337891 C45.609375,5.55029297 45.09375,5.34375 44.4375,5.34375 Z" id="Shape"></path>
            </g>
            <g id="single" transform="translate(169.739523, 91.523438)">
                <path d="M7.14550781,10.9072266 C7.14550781,11.8564453 6.79980469,12.5844727 6.10839844,13.0913086 C5.41699219,13.5981445 4.42675781,13.8515625 3.13769531,13.8515625 C1.84277344,13.8515625 0.802734375,13.6552734 0.017578125,13.2626953 L0.017578125,11.4785156 C1.16015625,12.0058594 2.22363281,12.2695312 3.20800781,12.2695312 C4.47949219,12.2695312 5.11523438,11.8857422 5.11523438,11.1181641 C5.11523438,10.8720703 5.04492188,10.6669922 4.90429688,10.5029297 C4.76367188,10.3388672 4.53222656,10.1689453 4.20996094,9.99316406 C3.88769531,9.81738281 3.43945312,9.61816406 2.86523438,9.39550781 C1.74609375,8.96191406 0.988769531,8.52832031 0.593261719,8.09472656 C0.197753906,7.66113281 0,7.09863281 0,6.40722656 C0,5.57519531 0.335449219,4.92919922 1.00634766,4.46923828 C1.67724609,4.00927734 2.58984375,3.77929688 3.74414062,3.77929688 C4.88671875,3.77929688 5.96777344,4.01074219 6.98730469,4.47363281 L6.31933594,6.02929688 C5.27050781,5.59570312 4.38867188,5.37890625 3.67382812,5.37890625 C2.58398438,5.37890625 2.0390625,5.68945312 2.0390625,6.31054688 C2.0390625,6.61523438 2.18115234,6.87304688 2.46533203,7.08398438 C2.74951172,7.29492188 3.36914062,7.58496094 4.32421875,7.95410156 C5.12695312,8.26464844 5.70996094,8.54882812 6.07324219,8.80664062 C6.43652344,9.06445312 6.70605469,9.36181641 6.88183594,9.69873047 C7.05761719,10.0356445 7.14550781,10.4384766 7.14550781,10.9072266 Z" id="Path"></path>
                <path d="M11.3871094,13.6757812 L9.32167969,13.6757812 L9.32167969,3.95507812 L11.3871094,3.95507812 L11.3871094,13.6757812 Z M9.19863281,1.37988281 C9.19863281,1.01074219 9.29970703,0.7265625 9.50185547,0.52734375 C9.70400391,0.328125 9.99257812,0.228515625 10.3675781,0.228515625 C10.7308594,0.228515625 11.0135742,0.328125 11.2157227,0.52734375 C11.4178711,0.7265625 11.5189453,1.01074219 11.5189453,1.37988281 C11.5189453,1.73144531 11.4178711,2.00830078 11.2157227,2.21044922 C11.0135742,2.41259766 10.7308594,2.51367188 10.3675781,2.51367188 C9.99257812,2.51367188 9.70400391,2.41259766 9.50185547,2.21044922 C9.29970703,2.00830078 9.19863281,1.73144531 9.19863281,1.37988281 Z" id="Shape"></path>
                <path d="M22.8357422,13.6757812 L20.7615234,13.6757812 L20.7615234,7.69921875 C20.7615234,6.94921875 20.6106445,6.38964844 20.3088867,6.02050781 C20.0071289,5.65136719 19.528125,5.46679688 18.871875,5.46679688 C17.9988281,5.46679688 17.3601562,5.72460938 16.9558594,6.24023438 C16.5515625,6.75585938 16.3494141,7.62011719 16.3494141,8.83300781 L16.3494141,13.6757812 L14.2839844,13.6757812 L14.2839844,3.95507812 L15.9011719,3.95507812 L16.1912109,5.22949219 L16.2966797,5.22949219 C16.5896484,4.76660156 17.0056641,4.40917969 17.5447266,4.15722656 C18.0837891,3.90527344 18.6814453,3.77929688 19.3376953,3.77929688 C21.6697266,3.77929688 22.8357422,4.96582031 22.8357422,7.33886719 L22.8357422,13.6757812 Z" id="Path"></path>
                <path d="M33.8625,3.95507812 L33.8625,5.08886719 L32.2013672,5.39648438 C32.3537109,5.6015625 32.4796875,5.85351562 32.5792969,6.15234375 C32.6789062,6.45117188 32.7287109,6.76757812 32.7287109,7.1015625 C32.7287109,8.10351562 32.3830078,8.89160156 31.6916016,9.46582031 C31.0001953,10.0400391 30.0480469,10.3271484 28.8351562,10.3271484 C28.5246094,10.3271484 28.2433594,10.3037109 27.9914062,10.2568359 C27.5460937,10.5322266 27.3234375,10.8544922 27.3234375,11.2236328 C27.3234375,11.4462891 27.4274414,11.6132812 27.6354492,11.7246094 C27.843457,11.8359375 28.2257812,11.8916016 28.7824219,11.8916016 L30.4787109,11.8916016 C31.5509766,11.8916016 32.3654297,12.1201172 32.9220703,12.5771484 C33.4787109,13.0341797 33.7570312,13.6933594 33.7570312,14.5546875 C33.7570312,15.65625 33.3029297,16.5058594 32.3947266,17.1035156 C31.4865234,17.7011719 30.1740234,18 28.4572266,18 C27.1330078,18 26.1222656,17.765625 25.425,17.296875 C24.7277344,16.828125 24.3791016,16.1601562 24.3791016,15.2929688 C24.3791016,14.6953125 24.5680664,14.1928711 24.9459961,13.7856445 C25.3239258,13.378418 25.8527344,13.0957031 26.5324219,12.9375 C26.2570312,12.8203125 26.0299805,12.6313477 25.8512695,12.3706055 C25.6725586,12.1098633 25.5832031,11.8359375 25.5832031,11.5488281 C25.5832031,11.1855469 25.6857422,10.8779297 25.8908203,10.6259766 C26.0958984,10.3740234 26.4005859,10.125 26.8048828,9.87890625 C26.3009766,9.66210938 25.8922852,9.30908203 25.5788086,8.81982422 C25.265332,8.33056641 25.1085937,7.7578125 25.1085937,7.1015625 C25.1085937,6.046875 25.4411133,5.22949219 26.1061523,4.64941406 C26.7711914,4.06933594 27.7189453,3.77929688 28.9494141,3.77929688 C29.2248047,3.77929688 29.5133789,3.79833984 29.8151367,3.83642578 C30.1168945,3.87451172 30.3439453,3.9140625 30.4962891,3.95507812 L33.8625,3.95507812 Z M26.2248047,15.1875 C26.2248047,15.6328125 26.4254883,15.9755859 26.8268555,16.2158203 C27.2282227,16.4560547 27.7921875,16.5761719 28.51875,16.5761719 C29.64375,16.5761719 30.4816406,16.4150391 31.0324219,16.0927734 C31.5832031,15.7705078 31.8585937,15.3427734 31.8585937,14.8095703 C31.8585937,14.3876953 31.7077148,14.0874023 31.405957,13.9086914 C31.1041992,13.7299805 30.5431641,13.640625 29.7228516,13.640625 L28.1583984,13.640625 C27.5666016,13.640625 27.0963867,13.7797852 26.7477539,14.0581055 C26.3991211,14.3364258 26.2248047,14.7128906 26.2248047,15.1875 Z M27.1125,7.1015625 C27.1125,7.7109375 27.2692383,8.1796875 27.5827148,8.5078125 C27.8961914,8.8359375 28.3458984,9 28.9318359,9 C30.1271484,9 30.7248047,8.36132812 30.7248047,7.08398438 C30.7248047,6.45117188 30.5768555,5.96337891 30.280957,5.62060547 C29.9850586,5.27783203 29.5353516,5.10644531 28.9318359,5.10644531 C28.3341797,5.10644531 27.881543,5.27636719 27.5739258,5.61621094 C27.2663086,5.95605469 27.1125,6.45117188 27.1125,7.1015625 Z" id="Shape"></path>
                <polygon id="Path" points="37.6734375 13.6757812 35.6080078 13.6757812 35.6080078 0 37.6734375 0"></polygon>
                <path d="M44.8154297,13.8515625 C43.3037109,13.8515625 42.121582,13.4106445 41.269043,12.5288086 C40.4165039,11.6469727 39.9902344,10.4326172 39.9902344,8.88574219 C39.9902344,7.29785156 40.3857422,6.04980469 41.1767578,5.14160156 C41.9677734,4.23339844 43.0546875,3.77929688 44.4375,3.77929688 C45.7207031,3.77929688 46.734375,4.16894531 47.4785156,4.94824219 C48.2226562,5.72753906 48.5947266,6.79980469 48.5947266,8.16503906 L48.5947266,9.28125 L42.1171875,9.28125 C42.1464844,10.2246094 42.4013672,10.949707 42.8818359,11.456543 C43.3623047,11.9633789 44.0390625,12.2167969 44.9121094,12.2167969 C45.4863281,12.2167969 46.0209961,12.1625977 46.5161133,12.0541992 C47.0112305,11.9458008 47.5429687,11.765625 48.1113281,11.5136719 L48.1113281,13.1923828 C47.6074219,13.4326172 47.0976562,13.6025391 46.5820312,13.7021484 C46.0664062,13.8017578 45.4775391,13.8515625 44.8154297,13.8515625 Z M44.4375,5.34375 C43.78125,5.34375 43.2553711,5.55175781 42.8598633,5.96777344 C42.4643555,6.38378906 42.2285156,6.99023438 42.1523437,7.78710938 L46.5644531,7.78710938 C46.5527344,6.984375 46.359375,6.37646484 45.984375,5.96337891 C45.609375,5.55029297 45.09375,5.34375 44.4375,5.34375 Z" id="Shape"></path>
            </g>
            <g id="double" transform="translate(315.914508, 91.523438)">
                <path d="M3.85839844,13.8515625 C2.64550781,13.8515625 1.69921875,13.4121094 1.01953125,12.5332031 C0.33984375,11.6542969 0,10.4208984 0,8.83300781 C0,7.23925781 0.344238281,5.99853516 1.03271484,5.11083984 C1.72119141,4.22314453 2.67480469,3.77929688 3.89355469,3.77929688 C5.17089844,3.77929688 6.14355469,4.25097656 6.81152344,5.19433594 L6.91699219,5.19433594 C6.81738281,4.49707031 6.76757812,3.94628906 6.76757812,3.54199219 L6.76757812,0 L8.84179688,0 L8.84179688,13.6757812 L7.22460938,13.6757812 L6.86425781,12.4013672 L6.76757812,12.4013672 C6.10546875,13.3681641 5.13574219,13.8515625 3.85839844,13.8515625 Z M4.41210938,12.1816406 C5.26171875,12.1816406 5.87988281,11.9428711 6.26660156,11.465332 C6.65332031,10.987793 6.85253906,10.2128906 6.86425781,9.140625 L6.86425781,8.85058594 C6.86425781,7.62597656 6.66503906,6.75585938 6.26660156,6.24023438 C5.86816406,5.72460938 5.24414062,5.46679688 4.39453125,5.46679688 C3.66796875,5.46679688 3.10839844,5.76123047 2.71582031,6.35009766 C2.32324219,6.93896484 2.12695312,7.77832031 2.12695312,8.86816406 C2.12695312,9.94628906 2.31738281,10.7680664 2.69824219,11.3334961 C3.07910156,11.8989258 3.65039062,12.1816406 4.41210938,12.1816406 Z" id="Shape"></path>
                <path d="M20.3607422,8.79785156 C20.3607422,10.3857422 19.9535156,11.625 19.1390625,12.515625 C18.3246094,13.40625 17.1908203,13.8515625 15.7376953,13.8515625 C14.8294922,13.8515625 14.0267578,13.6464844 13.3294922,13.2363281 C12.6322266,12.8261719 12.0960937,12.2373047 11.7210937,11.4697266 C11.3460937,10.7021484 11.1585937,9.81152344 11.1585937,8.79785156 C11.1585937,7.22167969 11.5628906,5.99121094 12.3714844,5.10644531 C13.1800781,4.22167969 14.3197266,3.77929688 15.7904297,3.77929688 C17.1966797,3.77929688 18.3099609,4.23193359 19.1302734,5.13720703 C19.9505859,6.04248047 20.3607422,7.26269531 20.3607422,8.79785156 Z M13.2855469,8.79785156 C13.2855469,11.0419922 14.1146484,12.1640625 15.7728516,12.1640625 C17.4134766,12.1640625 18.2337891,11.0419922 18.2337891,8.79785156 C18.2337891,6.57714844 17.4076172,5.46679688 15.7552734,5.46679688 C14.8880859,5.46679688 14.259668,5.75390625 13.8700195,6.328125 C13.4803711,6.90234375 13.2855469,7.72558594 13.2855469,8.79785156 Z" id="Shape"></path>
                <path d="M29.5330078,13.6757812 L29.2429687,12.4013672 L29.1375,12.4013672 C28.8503906,12.8525391 28.4416992,13.2070312 27.9114258,13.4648438 C27.3811523,13.7226562 26.7761719,13.8515625 26.0964844,13.8515625 C24.91875,13.8515625 24.0398437,13.5585938 23.4597656,12.9726562 C22.8796875,12.3867188 22.5896484,11.4990234 22.5896484,10.3095703 L22.5896484,3.95507812 L24.6726562,3.95507812 L24.6726562,9.94921875 C24.6726562,10.6933594 24.825,11.2514648 25.1296875,11.6235352 C25.434375,11.9956055 25.9119141,12.1816406 26.5623047,12.1816406 C27.4294922,12.1816406 28.0666992,11.9223633 28.4739258,11.4038086 C28.8811523,10.8852539 29.0847656,10.0166016 29.0847656,8.79785156 L29.0847656,3.95507812 L31.1589844,3.95507812 L31.1589844,13.6757812 L29.5330078,13.6757812 Z" id="Path"></path>
                <path d="M39.0128906,3.77929688 C40.2257812,3.77929688 41.1706055,4.21875 41.8473633,5.09765625 C42.5241211,5.9765625 42.8625,7.20996094 42.8625,8.79785156 C42.8625,10.3916016 42.5197266,11.6323242 41.8341797,12.5200195 C41.1486328,13.4077148 40.1964844,13.8515625 38.9777344,13.8515625 C37.7472656,13.8515625 36.7921875,13.4091797 36.1125,12.5244141 L35.971875,12.5244141 L35.5939453,13.6757812 L34.0470703,13.6757812 L34.0470703,0 L36.1125,0 L36.1125,3.25195312 C36.1125,3.4921875 36.1007812,3.84960937 36.0773437,4.32421875 C36.0539062,4.79882812 36.0363281,5.10058594 36.0246094,5.22949219 L36.1125,5.22949219 C36.76875,4.26269531 37.7355469,3.77929688 39.0128906,3.77929688 Z M38.4767578,5.46679688 C37.6447266,5.46679688 37.0456055,5.71142578 36.6793945,6.20068359 C36.3131836,6.68994141 36.1242187,7.50878906 36.1125,8.65722656 L36.1125,8.79785156 C36.1125,9.98144531 36.3,10.8383789 36.675,11.3686523 C37.05,11.8989258 37.6623047,12.1640625 38.5119141,12.1640625 C39.2443359,12.1640625 39.7995117,11.8740234 40.1774414,11.2939453 C40.5553711,10.7138672 40.7443359,9.87597656 40.7443359,8.78027344 C40.7443359,6.57128906 39.9884766,5.46679688 38.4767578,5.46679688 Z" id="Shape"></path>
                <polygon id="Path" points="47.2710937 13.6757812 45.2056641 13.6757812 45.2056641 0 47.2710937 0"></polygon>
                <path d="M54.4130859,13.8515625 C52.9013672,13.8515625 51.7192383,13.4106445 50.8666992,12.5288086 C50.0141602,11.6469727 49.5878906,10.4326172 49.5878906,8.88574219 C49.5878906,7.29785156 49.9833984,6.04980469 50.7744141,5.14160156 C51.5654297,4.23339844 52.6523437,3.77929688 54.0351562,3.77929688 C55.3183594,3.77929688 56.3320312,4.16894531 57.0761719,4.94824219 C57.8203125,5.72753906 58.1923828,6.79980469 58.1923828,8.16503906 L58.1923828,9.28125 L51.7148437,9.28125 C51.7441406,10.2246094 51.9990234,10.949707 52.4794922,11.456543 C52.9599609,11.9633789 53.6367187,12.2167969 54.5097656,12.2167969 C55.0839844,12.2167969 55.6186523,12.1625977 56.1137695,12.0541992 C56.6088867,11.9458008 57.140625,11.765625 57.7089844,11.5136719 L57.7089844,13.1923828 C57.2050781,13.4326172 56.6953125,13.6025391 56.1796875,13.7021484 C55.6640625,13.8017578 55.0751953,13.8515625 54.4130859,13.8515625 Z M54.0351562,5.34375 C53.3789062,5.34375 52.8530273,5.55175781 52.4575195,5.96777344 C52.0620117,6.38378906 51.8261719,6.99023438 51.75,7.78710938 L56.1621094,7.78710938 C56.1503906,6.984375 55.9570312,6.37646484 55.5820312,5.96337891 C55.2070312,5.55029297 54.6914062,5.34375 54.0351562,5.34375 Z" id="Shape"></path>
            </g>
            <g id="double" transform="translate(467.788991, 91.523438)">
                <path d="M3.85839844,13.8515625 C2.64550781,13.8515625 1.69921875,13.4121094 1.01953125,12.5332031 C0.33984375,11.6542969 0,10.4208984 0,8.83300781 C0,7.23925781 0.344238281,5.99853516 1.03271484,5.11083984 C1.72119141,4.22314453 2.67480469,3.77929688 3.89355469,3.77929688 C5.17089844,3.77929688 6.14355469,4.25097656 6.81152344,5.19433594 L6.91699219,5.19433594 C6.81738281,4.49707031 6.76757812,3.94628906 6.76757812,3.54199219 L6.76757812,0 L8.84179688,0 L8.84179688,13.6757812 L7.22460938,13.6757812 L6.86425781,12.4013672 L6.76757812,12.4013672 C6.10546875,13.3681641 5.13574219,13.8515625 3.85839844,13.8515625 Z M4.41210938,12.1816406 C5.26171875,12.1816406 5.87988281,11.9428711 6.26660156,11.465332 C6.65332031,10.987793 6.85253906,10.2128906 6.86425781,9.140625 L6.86425781,8.85058594 C6.86425781,7.62597656 6.66503906,6.75585938 6.26660156,6.24023438 C5.86816406,5.72460938 5.24414062,5.46679688 4.39453125,5.46679688 C3.66796875,5.46679688 3.10839844,5.76123047 2.71582031,6.35009766 C2.32324219,6.93896484 2.12695312,7.77832031 2.12695312,8.86816406 C2.12695312,9.94628906 2.31738281,10.7680664 2.69824219,11.3334961 C3.07910156,11.8989258 3.65039062,12.1816406 4.41210938,12.1816406 Z" id="Shape"></path>
                <path d="M20.3607422,8.79785156 C20.3607422,10.3857422 19.9535156,11.625 19.1390625,12.515625 C18.3246094,13.40625 17.1908203,13.8515625 15.7376953,13.8515625 C14.8294922,13.8515625 14.0267578,13.6464844 13.3294922,13.2363281 C12.6322266,12.8261719 12.0960937,12.2373047 11.7210937,11.4697266 C11.3460937,10.7021484 11.1585937,9.81152344 11.1585937,8.79785156 C11.1585937,7.22167969 11.5628906,5.99121094 12.3714844,5.10644531 C13.1800781,4.22167969 14.3197266,3.77929688 15.7904297,3.77929688 C17.1966797,3.77929688 18.3099609,4.23193359 19.1302734,5.13720703 C19.9505859,6.04248047 20.3607422,7.26269531 20.3607422,8.79785156 Z M13.2855469,8.79785156 C13.2855469,11.0419922 14.1146484,12.1640625 15.7728516,12.1640625 C17.4134766,12.1640625 18.2337891,11.0419922 18.2337891,8.79785156 C18.2337891,6.57714844 17.4076172,5.46679688 15.7552734,5.46679688 C14.8880859,5.46679688 14.259668,5.75390625 13.8700195,6.328125 C13.4803711,6.90234375 13.2855469,7.72558594 13.2855469,8.79785156 Z" id="Shape"></path>
                <path d="M29.5330078,13.6757812 L29.2429687,12.4013672 L29.1375,12.4013672 C28.8503906,12.8525391 28.4416992,13.2070312 27.9114258,13.4648438 C27.3811523,13.7226562 26.7761719,13.8515625 26.0964844,13.8515625 C24.91875,13.8515625 24.0398437,13.5585938 23.4597656,12.9726562 C22.8796875,12.3867188 22.5896484,11.4990234 22.5896484,10.3095703 L22.5896484,3.95507812 L24.6726562,3.95507812 L24.6726562,9.94921875 C24.6726562,10.6933594 24.825,11.2514648 25.1296875,11.6235352 C25.434375,11.9956055 25.9119141,12.1816406 26.5623047,12.1816406 C27.4294922,12.1816406 28.0666992,11.9223633 28.4739258,11.4038086 C28.8811523,10.8852539 29.0847656,10.0166016 29.0847656,8.79785156 L29.0847656,3.95507812 L31.1589844,3.95507812 L31.1589844,13.6757812 L29.5330078,13.6757812 Z" id="Path"></path>
                <path d="M39.0128906,3.77929688 C40.2257812,3.77929688 41.1706055,4.21875 41.8473633,5.09765625 C42.5241211,5.9765625 42.8625,7.20996094 42.8625,8.79785156 C42.8625,10.3916016 42.5197266,11.6323242 41.8341797,12.5200195 C41.1486328,13.4077148 40.1964844,13.8515625 38.9777344,13.8515625 C37.7472656,13.8515625 36.7921875,13.4091797 36.1125,12.5244141 L35.971875,12.5244141 L35.5939453,13.6757812 L34.0470703,13.6757812 L34.0470703,0 L36.1125,0 L36.1125,3.25195312 C36.1125,3.4921875 36.1007812,3.84960937 36.0773437,4.32421875 C36.0539062,4.79882812 36.0363281,5.10058594 36.0246094,5.22949219 L36.1125,5.22949219 C36.76875,4.26269531 37.7355469,3.77929688 39.0128906,3.77929688 Z M38.4767578,5.46679688 C37.6447266,5.46679688 37.0456055,5.71142578 36.6793945,6.20068359 C36.3131836,6.68994141 36.1242187,7.50878906 36.1125,8.65722656 L36.1125,8.79785156 C36.1125,9.98144531 36.3,10.8383789 36.675,11.3686523 C37.05,11.8989258 37.6623047,12.1640625 38.5119141,12.1640625 C39.2443359,12.1640625 39.7995117,11.8740234 40.1774414,11.2939453 C40.5553711,10.7138672 40.7443359,9.87597656 40.7443359,8.78027344 C40.7443359,6.57128906 39.9884766,5.46679688 38.4767578,5.46679688 Z" id="Shape"></path>
                <polygon id="Path" points="47.2710937 13.6757812 45.2056641 13.6757812 45.2056641 0 47.2710937 0"></polygon>
                <path d="M54.4130859,13.8515625 C52.9013672,13.8515625 51.7192383,13.4106445 50.8666992,12.5288086 C50.0141602,11.6469727 49.5878906,10.4326172 49.5878906,8.88574219 C49.5878906,7.29785156 49.9833984,6.04980469 50.7744141,5.14160156 C51.5654297,4.23339844 52.6523437,3.77929688 54.0351562,3.77929688 C55.3183594,3.77929688 56.3320312,4.16894531 57.0761719,4.94824219 C57.8203125,5.72753906 58.1923828,6.79980469 58.1923828,8.16503906 L58.1923828,9.28125 L51.7148437,9.28125 C51.7441406,10.2246094 51.9990234,10.949707 52.4794922,11.456543 C52.9599609,11.9633789 53.6367187,12.2167969 54.5097656,12.2167969 C55.0839844,12.2167969 55.6186523,12.1625977 56.1137695,12.0541992 C56.6088867,11.9458008 57.140625,11.765625 57.7089844,11.5136719 L57.7089844,13.1923828 C57.2050781,13.4326172 56.6953125,13.6025391 56.1796875,13.7021484 C55.6640625,13.8017578 55.0751953,13.8515625 54.4130859,13.8515625 Z M54.0351562,5.34375 C53.3789062,5.34375 52.8530273,5.55175781 52.4575195,5.96777344 C52.0620117,6.38378906 51.8261719,6.99023438 51.75,7.78710938 L56.1621094,7.78710938 C56.1503906,6.984375 55.9570312,6.37646484 55.5820312,5.96337891 C55.2070312,5.55029297 54.6914062,5.34375 54.0351562,5.34375 Z" id="Shape"></path>
            </g>
            <g id="shifting" transform="translate(0.000000, 161.426758)">
                <path d="M7.14550781,11.0039062 C7.14550781,11.953125 6.79980469,12.6811523 6.10839844,13.1879883 C5.41699219,13.6948242 4.42675781,13.9482422 3.13769531,13.9482422 C1.84277344,13.9482422 0.802734375,13.7519531 0.017578125,13.359375 L0.017578125,11.5751953 C1.16015625,12.1025391 2.22363281,12.3662109 3.20800781,12.3662109 C4.47949219,12.3662109 5.11523438,11.9824219 5.11523438,11.2148438 C5.11523438,10.96875 5.04492188,10.7636719 4.90429688,10.5996094 C4.76367188,10.4355469 4.53222656,10.265625 4.20996094,10.0898438 C3.88769531,9.9140625 3.43945312,9.71484375 2.86523438,9.4921875 C1.74609375,9.05859375 0.988769531,8.625 0.593261719,8.19140625 C0.197753906,7.7578125 0,7.1953125 0,6.50390625 C0,5.671875 0.335449219,5.02587891 1.00634766,4.56591797 C1.67724609,4.10595703 2.58984375,3.87597656 3.74414062,3.87597656 C4.88671875,3.87597656 5.96777344,4.10742188 6.98730469,4.5703125 L6.31933594,6.12597656 C5.27050781,5.69238281 4.38867188,5.47558594 3.67382812,5.47558594 C2.58398438,5.47558594 2.0390625,5.78613281 2.0390625,6.40722656 C2.0390625,6.71191406 2.18115234,6.96972656 2.46533203,7.18066406 C2.74951172,7.39160156 3.36914062,7.68164062 4.32421875,8.05078125 C5.12695312,8.36132812 5.70996094,8.64550781 6.07324219,8.90332031 C6.43652344,9.16113281 6.70605469,9.45849609 6.88183594,9.79541016 C7.05761719,10.1323242 7.14550781,10.5351562 7.14550781,11.0039062 Z" id="Path"></path>
                <path d="M17.8734375,13.7724609 L15.7992187,13.7724609 L15.7992187,7.79589844 C15.7992187,7.04589844 15.6483398,6.48632812 15.346582,6.1171875 C15.0448242,5.74804688 14.5658203,5.56347656 13.9095703,5.56347656 C13.0423828,5.56347656 12.4051758,5.82275391 11.9979492,6.34130859 C11.5907227,6.85986328 11.3871094,7.72851562 11.3871094,8.94726562 L11.3871094,13.7724609 L9.32167969,13.7724609 L9.32167969,0.0966796875 L11.3871094,0.0966796875 L11.3871094,3.56835937 C11.3871094,4.125 11.3519531,4.71972656 11.2816406,5.35253906 L11.4134766,5.35253906 C11.6947266,4.88378906 12.0858398,4.52050781 12.5868164,4.26269531 C13.087793,4.00488281 13.6722656,3.87597656 14.3402344,3.87597656 C16.6957031,3.87597656 17.8734375,5.0625 17.8734375,7.43554688 L17.8734375,13.7724609 Z" id="Path"></path>
                <path d="M22.7566406,13.7724609 L20.6912109,13.7724609 L20.6912109,4.05175781 L22.7566406,4.05175781 L22.7566406,13.7724609 Z M20.5681641,1.4765625 C20.5681641,1.10742188 20.6692383,0.823242188 20.8713867,0.624023438 C21.0735352,0.424804688 21.3621094,0.325195312 21.7371094,0.325195312 C22.1003906,0.325195312 22.3831055,0.424804688 22.5852539,0.624023438 C22.7874023,0.823242188 22.8884766,1.10742188 22.8884766,1.4765625 C22.8884766,1.828125 22.7874023,2.10498047 22.5852539,2.30712891 C22.3831055,2.50927734 22.1003906,2.61035156 21.7371094,2.61035156 C21.3621094,2.61035156 21.0735352,2.50927734 20.8713867,2.30712891 C20.6692383,2.10498047 20.5681641,1.828125 20.5681641,1.4765625 Z" id="Shape"></path>
                <path d="M30.5314453,5.61621094 L28.1583984,5.61621094 L28.1583984,13.7724609 L26.0841797,13.7724609 L26.0841797,5.61621094 L24.4845703,5.61621094 L24.4845703,4.64941406 L26.0841797,4.01660156 L26.0841797,3.38378906 C26.0841797,2.23535156 26.3537109,1.38427734 26.8927734,0.830566406 C27.4318359,0.276855469 28.2550781,0 29.3625,0 C30.0890625,0 30.8039062,0.120117188 31.5070312,0.360351562 L30.9621094,1.92480469 C30.4523437,1.76074219 29.9660156,1.67871094 29.503125,1.67871094 C29.034375,1.67871094 28.6930664,1.82373047 28.4791992,2.11376953 C28.265332,2.40380859 28.1583984,2.83886719 28.1583984,3.41894531 L28.1583984,4.05175781 L30.5314453,4.05175781 L30.5314453,5.61621094 Z" id="Path"></path>
                <path d="M35.7486328,12.2783203 C36.2525391,12.2783203 36.7564453,12.1992188 37.2603516,12.0410156 L37.2603516,13.5966797 C37.0318359,13.6962891 36.7374023,13.7797852 36.3770508,13.847168 C36.0166992,13.9145508 35.6431641,13.9482422 35.2564453,13.9482422 C33.2994141,13.9482422 32.3208984,12.9169922 32.3208984,10.8544922 L32.3208984,5.61621094 L30.99375,5.61621094 L30.99375,4.70214844 L32.4175781,3.94628906 L33.1207031,1.88964844 L34.3951172,1.88964844 L34.3951172,4.05175781 L37.1636719,4.05175781 L37.1636719,5.61621094 L34.3951172,5.61621094 L34.3951172,10.8193359 C34.3951172,11.3173828 34.5196289,11.6850586 34.7686523,11.9223633 C35.0176758,12.159668 35.3443359,12.2783203 35.7486328,12.2783203 Z" id="Path"></path>
                <path d="M41.2119141,13.7724609 L39.1464844,13.7724609 L39.1464844,4.05175781 L41.2119141,4.05175781 L41.2119141,13.7724609 Z M39.0234375,1.4765625 C39.0234375,1.10742188 39.1245117,0.823242188 39.3266602,0.624023438 C39.5288086,0.424804688 39.8173828,0.325195312 40.1923828,0.325195312 C40.5556641,0.325195312 40.8383789,0.424804688 41.0405273,0.624023438 C41.2426758,0.823242188 41.34375,1.10742188 41.34375,1.4765625 C41.34375,1.828125 41.2426758,2.10498047 41.0405273,2.30712891 C40.8383789,2.50927734 40.5556641,2.61035156 40.1923828,2.61035156 C39.8173828,2.61035156 39.5288086,2.50927734 39.3266602,2.30712891 C39.1245117,2.10498047 39.0234375,1.828125 39.0234375,1.4765625 Z" id="Shape"></path>
                <path d="M52.6605469,13.7724609 L50.5863281,13.7724609 L50.5863281,7.79589844 C50.5863281,7.04589844 50.4354492,6.48632812 50.1336914,6.1171875 C49.8319336,5.74804688 49.3529297,5.56347656 48.6966797,5.56347656 C47.8236328,5.56347656 47.1849609,5.82128906 46.7806641,6.33691406 C46.3763672,6.85253906 46.1742187,7.71679688 46.1742187,8.9296875 L46.1742187,13.7724609 L44.1087891,13.7724609 L44.1087891,4.05175781 L45.7259766,4.05175781 L46.0160156,5.32617188 L46.1214844,5.32617188 C46.4144531,4.86328125 46.8304687,4.50585938 47.3695312,4.25390625 C47.9085937,4.00195312 48.50625,3.87597656 49.1625,3.87597656 C51.4945312,3.87597656 52.6605469,5.0625 52.6605469,7.43554688 L52.6605469,13.7724609 Z" id="Path"></path>
                <path d="M63.6873047,4.05175781 L63.6873047,5.18554688 L62.0261719,5.49316406 C62.1785156,5.69824219 62.3044922,5.95019531 62.4041016,6.24902344 C62.5037109,6.54785156 62.5535156,6.86425781 62.5535156,7.19824219 C62.5535156,8.20019531 62.2078125,8.98828125 61.5164062,9.5625 C60.825,10.1367188 59.8728516,10.4238281 58.6599609,10.4238281 C58.3494141,10.4238281 58.0681641,10.4003906 57.8162109,10.3535156 C57.3708984,10.6289062 57.1482422,10.9511719 57.1482422,11.3203125 C57.1482422,11.5429688 57.2522461,11.7099609 57.4602539,11.8212891 C57.6682617,11.9326172 58.0505859,11.9882812 58.6072266,11.9882812 L60.3035156,11.9882812 C61.3757812,11.9882812 62.1902344,12.2167969 62.746875,12.6738281 C63.3035156,13.1308594 63.5818359,13.7900391 63.5818359,14.6513672 C63.5818359,15.7529297 63.1277344,16.6025391 62.2195312,17.2001953 C61.3113281,17.7978516 59.9988281,18.0966797 58.2820312,18.0966797 C56.9578125,18.0966797 55.9470703,17.8623047 55.2498047,17.3935547 C54.5525391,16.9248047 54.2039062,16.2568359 54.2039062,15.3896484 C54.2039062,14.7919922 54.3928711,14.2895508 54.7708008,13.8823242 C55.1487305,13.4750977 55.6775391,13.1923828 56.3572266,13.0341797 C56.0818359,12.9169922 55.8547852,12.7280273 55.6760742,12.4672852 C55.4973633,12.206543 55.4080078,11.9326172 55.4080078,11.6455078 C55.4080078,11.2822266 55.5105469,10.9746094 55.715625,10.7226562 C55.9207031,10.4707031 56.2253906,10.2216797 56.6296875,9.97558594 C56.1257812,9.75878906 55.7170898,9.40576172 55.4036133,8.91650391 C55.0901367,8.42724609 54.9333984,7.85449219 54.9333984,7.19824219 C54.9333984,6.14355469 55.265918,5.32617188 55.930957,4.74609375 C56.5959961,4.16601562 57.54375,3.87597656 58.7742187,3.87597656 C59.0496094,3.87597656 59.3381836,3.89501953 59.6399414,3.93310547 C59.9416992,3.97119141 60.16875,4.01074219 60.3210937,4.05175781 L63.6873047,4.05175781 Z M56.0496094,15.2841797 C56.0496094,15.7294922 56.250293,16.0722656 56.6516602,16.3125 C57.0530273,16.5527344 57.6169922,16.6728516 58.3435547,16.6728516 C59.4685547,16.6728516 60.3064453,16.5117188 60.8572266,16.1894531 C61.4080078,15.8671875 61.6833984,15.4394531 61.6833984,14.90625 C61.6833984,14.484375 61.5325195,14.184082 61.2307617,14.0053711 C60.9290039,13.8266602 60.3679687,13.7373047 59.5476562,13.7373047 L57.9832031,13.7373047 C57.3914062,13.7373047 56.9211914,13.8764648 56.5725586,14.1547852 C56.2239258,14.4331055 56.0496094,14.8095703 56.0496094,15.2841797 Z M56.9373047,7.19824219 C56.9373047,7.80761719 57.094043,8.27636719 57.4075195,8.60449219 C57.7209961,8.93261719 58.1707031,9.09667969 58.7566406,9.09667969 C59.9519531,9.09667969 60.5496094,8.45800781 60.5496094,7.18066406 C60.5496094,6.54785156 60.4016602,6.06005859 60.1057617,5.71728516 C59.8098633,5.37451172 59.3601562,5.203125 58.7566406,5.203125 C58.1589844,5.203125 57.7063477,5.37304688 57.3987305,5.71289062 C57.0911133,6.05273438 56.9373047,6.54785156 56.9373047,7.19824219 Z" id="Shape"></path>
            </g>
        </g>
    </g>
</svg>