<?xml version="1.0" encoding="UTF-8"?>
<svg width="1021px" height="381px" viewBox="0 0 1021 381" version="1.1" xmlns="http://www.w3.org/2000/svg" xmlns:xlink="http://www.w3.org/1999/xlink">
    <title>same-light</title>
    <g id="same-light" stroke="none" stroke-width="1" fill="none" fill-rule="evenodd">
        <g id="graphics" transform="translate(17.000000, 34.000000)">
            <g id="arrows" transform="translate(0.000000, 182.000000)" fill="#000000" fill-rule="nonzero">
                <path id="Line" d="M38.5,0.5 L45.6439503,14.427095 L39.643,14.489 L39.9999469,48.9896913 L40.0102556,49.9896381 L38.0103619,50.0102556 L38.0000531,49.0103087 L37.644,14.509 L31.6446942,14.5714172 L38.5,0.5 Z"></path>
                <path id="Line" d="M269.5,0.25257732 L276.5,14.2525773 L270.5,14.252 L270.5,49.7474227 L268.5,49.7474227 L268.5,14.252 L262.5,14.2525773 L269.5,0.25257732 Z"></path>
                <path id="Line" d="M731.5,0.25257732 L738.5,14.2525773 L732.5,14.252 L732.5,49.7474227 L730.5,49.7474227 L730.5,14.252 L724.5,14.2525773 L731.5,0.25257732 Z"></path>
            </g>
            <g id="LETT" transform="translate(38.000000, 91.500000)">
                <rect id="Fill" fill="#96CFE9" x="231.5" y="1.5" width="713" height="61"></rect>
                <line x1="0.5" y1="1" x2="0.5" y2="62" id="Line-2" stroke="#000000" stroke-width="2" stroke-linecap="square" stroke-dasharray="15"></line>
                <line x1="0.5" y1="62.5" x2="232" y2="62.5" id="Line-2" stroke="#000000" stroke-width="2" stroke-linecap="square" stroke-dasharray="15"></line>
                <line x1="232.5" y1="62.5" x2="945" y2="62.5" id="Line-2" stroke="#000000" stroke-width="2" stroke-linecap="square"></line>
                <line x1="945" y1="62.5" x2="945" y2="0.5" id="Line-2" stroke="#000000" stroke-width="2" stroke-linecap="square"></line>
                <line x1="0.5" y1="0.5" x2="232" y2="0.5" id="Line-2" stroke="#000000" stroke-width="2" stroke-linecap="square" stroke-dasharray="15"></line>
                <line x1="232.5" y1="0.5" x2="945" y2="0.5" id="Line-2" stroke="#000000" stroke-width="2" stroke-linecap="square"></line>
            </g>
            <g id="LTT" transform="translate(38.000000, 0.000000)">
                <rect id="Fill" fill="#96CFE9" x="1" y="1.5" width="230.5" height="61"></rect>
                <line x1="0.5" y1="1" x2="0.5" y2="62" id="Line-2" stroke="#000000" stroke-width="2" stroke-linecap="square"></line>
                <line x1="0.5" y1="0.5" x2="232" y2="0.5" id="Line-2" stroke="#000000" stroke-width="2" stroke-linecap="square"></line>
                <line x1="232.5" y1="0.5" x2="464" y2="0.5" id="Line-2" stroke="#000000" stroke-width="2" stroke-linecap="square" stroke-dasharray="15"></line>
                <line x1="232.5" y1="62.5" x2="464" y2="62.5" id="Line-2" stroke="#000000" stroke-width="2" stroke-linecap="square" stroke-dasharray="15"></line>
                <line x1="0.5" y1="62.5" x2="232" y2="62.5" id="Line-2" stroke="#000000" stroke-width="2" stroke-linecap="square"></line>
                <line x1="464" y1="62.5" x2="464" y2="0.5" id="Line-2" stroke="#000000" stroke-width="2" stroke-linecap="square" stroke-dasharray="15"></line>
            </g>
        </g>
        <g id="text" transform="translate(18.577148, 59.465820)" fill="#000000" fill-rule="nonzero">
            <g id="LIGHTSHIFT_TAPPING_T" transform="translate(150.570215, 0.000000)">
                <polygon id="Path" points="0 13.0341797 0 0.184570312 2.10058594 0.184570312 2.10058594 11.2324219 7.54101562 11.2324219 7.54101562 13.0341797"></polygon>
                <polygon id="Path" points="9.69960937 13.0341797 9.69960937 0.184570312 11.8001953 0.184570312 11.8001953 13.0341797"></polygon>
                <path d="M20.3923828,6.06445312 L25.1208984,6.06445312 L25.1208984,12.515625 C24.3474609,12.7675781 23.6047852,12.9462891 22.8928711,13.0517578 C22.180957,13.1572266 21.4119141,13.2099609 20.5857422,13.2099609 C18.6404297,13.2099609 17.1404297,12.6342773 16.0857422,11.4829102 C15.0310547,10.331543 14.5037109,8.70703125 14.5037109,6.609375 C14.5037109,4.54101562 15.0984375,2.92236328 16.2878906,1.75341797 C17.4773437,0.584472656 19.1150391,0 21.2009766,0 C22.5427734,0 23.8142578,0.2578125 25.0154297,0.7734375 L24.2771484,2.52246094 C23.2341797,2.04199219 22.1912109,1.80175781 21.1482422,1.80175781 C19.7771484,1.80175781 18.6931641,2.23242188 17.8962891,3.09375 C17.0994141,3.95507812 16.7009766,5.1328125 16.7009766,6.62695313 C16.7009766,8.19726562 17.0598633,9.39111328 17.7776367,10.2084961 C18.4954102,11.0258789 19.528125,11.4345703 20.8757812,11.4345703 C21.5554687,11.4345703 22.2820312,11.3496094 23.0554687,11.1796875 L23.0554687,7.86621094 L20.3923828,7.86621094 L20.3923828,6.06445312 Z" id="Path"></path>
                <polygon id="Path" points="38.2833984 13.0341797 36.1740234 13.0341797 36.1740234 7.2421875 30.2501953 7.2421875 30.2501953 13.0341797 28.1496094 13.0341797 28.1496094 0.184570312 30.2501953 0.184570312 30.2501953 5.44042969 36.1740234 5.44042969 36.1740234 0.184570312 38.2833984 0.184570312"></polygon>
                <polygon id="Path" points="46.0494141 13.0341797 43.9488281 13.0341797 43.9488281 1.98632812 40.1695312 1.98632812 40.1695312 0.184570312 49.8287109 0.184570312 49.8287109 1.98632812 46.0494141 1.98632812"></polygon>
                <path d="M59.1503906,9.54492188 C59.1503906,10.6875 58.7373047,11.5839844 57.9111328,12.234375 C57.0849609,12.8847656 55.9453125,13.2099609 54.4921875,13.2099609 C53.0390625,13.2099609 51.8496094,12.984375 50.9238281,12.5332031 L50.9238281,10.546875 C51.5097656,10.8222656 52.1323242,11.0390625 52.7915039,11.1972656 C53.4506836,11.3554688 54.0644531,11.4345703 54.6328125,11.4345703 C55.4648437,11.4345703 56.0786133,11.2763672 56.4741211,10.9599609 C56.8696289,10.6435547 57.0673828,10.21875 57.0673828,9.68554688 C57.0673828,9.20507812 56.8857422,8.79785156 56.5224609,8.46386719 C56.1591797,8.12988281 55.4091797,7.734375 54.2724609,7.27734375 C53.1005859,6.80273437 52.2744141,6.26074219 51.7939453,5.65136719 C51.3134766,5.04199219 51.0732422,4.30957031 51.0732422,3.45410156 C51.0732422,2.38183594 51.4541016,1.53808594 52.2158203,0.922851562 C52.9775391,0.307617188 54,0 55.2832031,0 C56.5136719,0 57.7382812,0.26953125 58.9570312,0.80859375 L58.2890625,2.52246094 C57.1464844,2.04199219 56.1269531,1.80175781 55.2304687,1.80175781 C54.5507812,1.80175781 54.0351562,1.94970703 53.6835937,2.24560547 C53.3320312,2.54150391 53.15625,2.93261719 53.15625,3.41894531 C53.15625,3.75292969 53.2265625,4.03857422 53.3671875,4.27587891 C53.5078125,4.51318359 53.7392578,4.73730469 54.0615234,4.94824219 C54.3837891,5.15917969 54.9638672,5.4375 55.8017578,5.78320312 C56.7451172,6.17578125 57.4365234,6.54199219 57.8759766,6.88183594 C58.3154297,7.22167969 58.6376953,7.60546875 58.8427734,8.03320312 C59.0478516,8.4609375 59.1503906,8.96484375 59.1503906,9.54492188 Z" id="Path"></path>
                <polygon id="Path" points="71.7152344 13.0341797 69.6058594 13.0341797 69.6058594 7.2421875 63.6820312 7.2421875 63.6820312 13.0341797 61.5814453 13.0341797 61.5814453 0.184570312 63.6820312 0.184570312 63.6820312 5.44042969 69.6058594 5.44042969 69.6058594 0.184570312 71.7152344 0.184570312"></polygon>
                <polygon id="Path" points="75.0427734 13.0341797 75.0427734 0.184570312 77.1433594 0.184570312 77.1433594 13.0341797"></polygon>
                <polygon id="Path" points="82.5626953 13.0341797 80.4796875 13.0341797 80.4796875 0.184570312 87.7306641 0.184570312 87.7306641 1.95996094 82.5626953 1.95996094 82.5626953 5.9765625 87.4054687 5.9765625 87.4054687 7.76074219 82.5626953 7.76074219"></polygon>
                <polygon id="Path" points="94.4419922 13.0341797 92.3414062 13.0341797 92.3414062 1.98632812 88.5621094 1.98632812 88.5621094 0.184570312 98.2212891 0.184570312 98.2212891 1.98632812 94.4419922 1.98632812"></polygon>
                <polygon id="Path" points="106.198242 15.8378906 98.4023437 15.8378906 98.4023437 14.6513672 106.198242 14.6513672"></polygon>
                <polygon id="Path" points="112.241602 13.0341797 110.141016 13.0341797 110.141016 1.98632812 106.361719 1.98632812 106.361719 0.184570312 116.020898 0.184570312 116.020898 1.98632812 112.241602 1.98632812"></polygon>
                <path d="M125.905078,13.0341797 L124.621875,9.46582031 L119.708789,9.46582031 L118.451953,13.0341797 L116.237109,13.0341797 L121.044727,0.131835938 L123.329883,0.131835938 L128.1375,13.0341797 L125.905078,13.0341797 Z M124.068164,7.65527344 L122.864062,4.15722656 C122.776172,3.92285156 122.65459,3.55371094 122.499316,3.04980469 C122.344043,2.54589844 122.237109,2.17675781 122.178516,1.94238281 C122.020312,2.66308594 121.788867,3.45117188 121.48418,4.30664062 L120.324023,7.65527344 L124.068164,7.65527344 Z" id="Shape"></path>
                <path d="M138.285352,4.06933594 C138.285352,5.41113281 137.845898,6.43945312 136.966992,7.15429687 C136.088086,7.86914062 134.837109,8.2265625 133.214062,8.2265625 L131.878125,8.2265625 L131.878125,13.0341797 L129.777539,13.0341797 L129.777539,0.184570312 L133.477734,0.184570312 C135.083203,0.184570312 136.28584,0.512695312 137.085645,1.16894531 C137.885449,1.82519531 138.285352,2.79199219 138.285352,4.06933594 Z M131.878125,6.45996094 L132.994336,6.45996094 C134.072461,6.45996094 134.863477,6.27246094 135.367383,5.89746094 C135.871289,5.52246094 136.123242,4.93652344 136.123242,4.13964844 C136.123242,3.40136719 135.897656,2.85058594 135.446484,2.48730469 C134.995312,2.12402344 134.292187,1.94238281 133.337109,1.94238281 L131.878125,1.94238281 L131.878125,6.45996094 Z" id="Shape"></path>
                <path d="M149.30332,4.06933594 C149.30332,5.41113281 148.863867,6.43945312 147.984961,7.15429687 C147.106055,7.86914062 145.855078,8.2265625 144.232031,8.2265625 L142.896094,8.2265625 L142.896094,13.0341797 L140.795508,13.0341797 L140.795508,0.184570312 L144.495703,0.184570312 C146.101172,0.184570312 147.303809,0.512695312 148.103613,1.16894531 C148.903418,1.82519531 149.30332,2.79199219 149.30332,4.06933594 Z M142.896094,6.45996094 L144.012305,6.45996094 C145.09043,6.45996094 145.881445,6.27246094 146.385352,5.89746094 C146.889258,5.52246094 147.141211,4.93652344 147.141211,4.13964844 C147.141211,3.40136719 146.915625,2.85058594 146.464453,2.48730469 C146.013281,2.12402344 145.310156,1.94238281 144.355078,1.94238281 L142.896094,1.94238281 L142.896094,6.45996094 Z" id="Shape"></path>
                <polygon id="Path" points="151.813477 13.0341797 151.813477 0.184570312 153.914062 0.184570312 153.914062 13.0341797"></polygon>
                <path d="M167.955469,13.0341797 L165.380273,13.0341797 L159.060937,2.79492188 L158.990625,2.79492188 L159.03457,3.36621094 C159.116602,4.45605469 159.157617,5.45214844 159.157617,6.35449219 L159.157617,13.0341797 L157.250391,13.0341797 L157.250391,0.184570312 L159.799219,0.184570312 L166.100977,10.3710938 L166.153711,10.3710938 C166.141992,10.2363281 166.118555,9.74560547 166.083398,8.89892578 C166.048242,8.05224609 166.030664,7.39160156 166.030664,6.91699219 L166.030664,0.184570312 L167.955469,0.184570312 L167.955469,13.0341797 Z" id="Path"></path>
                <path d="M176.547656,6.06445312 L181.276172,6.06445312 L181.276172,12.515625 C180.502734,12.7675781 179.760059,12.9462891 179.048145,13.0517578 C178.33623,13.1572266 177.567187,13.2099609 176.741016,13.2099609 C174.795703,13.2099609 173.295703,12.6342773 172.241016,11.4829102 C171.186328,10.331543 170.658984,8.70703125 170.658984,6.609375 C170.658984,4.54101562 171.253711,2.92236328 172.443164,1.75341797 C173.632617,0.584472656 175.270312,0 177.35625,0 C178.698047,0 179.969531,0.2578125 181.170703,0.7734375 L180.432422,2.52246094 C179.389453,2.04199219 178.346484,1.80175781 177.303516,1.80175781 C175.932422,1.80175781 174.848437,2.23242188 174.051562,3.09375 C173.254687,3.95507812 172.85625,5.1328125 172.85625,6.62695313 C172.85625,8.19726562 173.215137,9.39111328 173.93291,10.2084961 C174.650684,11.0258789 175.683398,11.4345703 177.031055,11.4345703 C177.710742,11.4345703 178.437305,11.3496094 179.210742,11.1796875 L179.210742,7.86621094 L176.547656,7.86621094 L176.547656,6.06445312 Z" id="Path"></path>
                <polygon id="Path" points="190.369336 15.8378906 182.573437 15.8378906 182.573437 14.6513672 190.369336 14.6513672"></polygon>
                <polygon id="Path" points="196.412695 13.0341797 194.312109 13.0341797 194.312109 1.98632812 190.532812 1.98632812 190.532812 0.184570312 200.191992 0.184570312 200.191992 1.98632812 196.412695 1.98632812"></polygon>
                <polygon id="Path" points="209.373047 13.0341797 202.104492 13.0341797 202.104492 0.184570312 209.373047 0.184570312 209.373047 1.95996094 204.205078 1.95996094 204.205078 5.45800781 209.047852 5.45800781 209.047852 7.21582031 204.205078 7.21582031 204.205078 11.25 209.373047 11.25"></polygon>
                <path d="M214.194727,6.16113281 L215.653711,6.16113281 C216.632227,6.16113281 217.341211,5.97949219 217.780664,5.61621094 C218.220117,5.25292969 218.439844,4.71386719 218.439844,3.99902344 C218.439844,3.27246094 218.202539,2.75097656 217.72793,2.43457031 C217.25332,2.11816406 216.538477,1.95996094 215.583398,1.95996094 L214.194727,1.95996094 L214.194727,6.16113281 Z M214.194727,7.90136719 L214.194727,13.0341797 L212.094141,13.0341797 L212.094141,0.184570312 L215.724023,0.184570312 C217.382227,0.184570312 218.609766,0.495117188 219.406641,1.11621094 C220.203516,1.73730469 220.601953,2.67480469 220.601953,3.92871094 C220.601953,5.52832031 219.769922,6.66796875 218.105859,7.34765625 L221.735742,13.0341797 L219.345117,13.0341797 L216.268945,7.90136719 L214.194727,7.90136719 Z" id="Shape"></path>
                <path d="M229.097461,13.0341797 L225.370898,2.30273438 L225.300586,2.30273438 C225.400195,3.89648438 225.45,5.390625 225.45,6.78515625 L225.45,13.0341797 L223.542773,13.0341797 L223.542773,0.184570312 L226.504687,0.184570312 L230.073047,10.40625 L230.125781,10.40625 L233.799609,0.184570312 L236.770312,0.184570312 L236.770312,13.0341797 L234.748828,13.0341797 L234.748828,6.6796875 C234.748828,6.04101562 234.764941,5.20898438 234.797168,4.18359375 C234.829395,3.15820312 234.857227,2.53710938 234.880664,2.3203125 L234.810352,2.3203125 L230.951953,13.0341797 L229.097461,13.0341797 Z" id="Path"></path>
            </g>
            <g id="LIGHTSHIFT_EXTENDED_" transform="translate(340.941016, 91.500000)">
                <polygon id="Path" points="0 13.0341797 0 0.184570312 2.10058594 0.184570312 2.10058594 11.2324219 7.54101562 11.2324219 7.54101562 13.0341797"></polygon>
                <polygon id="Path" points="9.69960937 13.0341797 9.69960937 0.184570312 11.8001953 0.184570312 11.8001953 13.0341797"></polygon>
                <path d="M20.3923828,6.06445312 L25.1208984,6.06445312 L25.1208984,12.515625 C24.3474609,12.7675781 23.6047852,12.9462891 22.8928711,13.0517578 C22.180957,13.1572266 21.4119141,13.2099609 20.5857422,13.2099609 C18.6404297,13.2099609 17.1404297,12.6342773 16.0857422,11.4829102 C15.0310547,10.331543 14.5037109,8.70703125 14.5037109,6.609375 C14.5037109,4.54101562 15.0984375,2.92236328 16.2878906,1.75341797 C17.4773437,0.584472656 19.1150391,0 21.2009766,0 C22.5427734,0 23.8142578,0.2578125 25.0154297,0.7734375 L24.2771484,2.52246094 C23.2341797,2.04199219 22.1912109,1.80175781 21.1482422,1.80175781 C19.7771484,1.80175781 18.6931641,2.23242188 17.8962891,3.09375 C17.0994141,3.95507812 16.7009766,5.1328125 16.7009766,6.62695313 C16.7009766,8.19726562 17.0598633,9.39111328 17.7776367,10.2084961 C18.4954102,11.0258789 19.528125,11.4345703 20.8757812,11.4345703 C21.5554687,11.4345703 22.2820312,11.3496094 23.0554687,11.1796875 L23.0554687,7.86621094 L20.3923828,7.86621094 L20.3923828,6.06445312 Z" id="Path"></path>
                <polygon id="Path" points="38.2833984 13.0341797 36.1740234 13.0341797 36.1740234 7.2421875 30.2501953 7.2421875 30.2501953 13.0341797 28.1496094 13.0341797 28.1496094 0.184570312 30.2501953 0.184570312 30.2501953 5.44042969 36.1740234 5.44042969 36.1740234 0.184570312 38.2833984 0.184570312"></polygon>
                <polygon id="Path" points="46.0494141 13.0341797 43.9488281 13.0341797 43.9488281 1.98632812 40.1695312 1.98632812 40.1695312 0.184570312 49.8287109 0.184570312 49.8287109 1.98632812 46.0494141 1.98632812"></polygon>
                <path d="M59.1503906,9.54492188 C59.1503906,10.6875 58.7373047,11.5839844 57.9111328,12.234375 C57.0849609,12.8847656 55.9453125,13.2099609 54.4921875,13.2099609 C53.0390625,13.2099609 51.8496094,12.984375 50.9238281,12.5332031 L50.9238281,10.546875 C51.5097656,10.8222656 52.1323242,11.0390625 52.7915039,11.1972656 C53.4506836,11.3554688 54.0644531,11.4345703 54.6328125,11.4345703 C55.4648437,11.4345703 56.0786133,11.2763672 56.4741211,10.9599609 C56.8696289,10.6435547 57.0673828,10.21875 57.0673828,9.68554688 C57.0673828,9.20507812 56.8857422,8.79785156 56.5224609,8.46386719 C56.1591797,8.12988281 55.4091797,7.734375 54.2724609,7.27734375 C53.1005859,6.80273437 52.2744141,6.26074219 51.7939453,5.65136719 C51.3134766,5.04199219 51.0732422,4.30957031 51.0732422,3.45410156 C51.0732422,2.38183594 51.4541016,1.53808594 52.2158203,0.922851562 C52.9775391,0.307617188 54,0 55.2832031,0 C56.5136719,0 57.7382812,0.26953125 58.9570312,0.80859375 L58.2890625,2.52246094 C57.1464844,2.04199219 56.1269531,1.80175781 55.2304687,1.80175781 C54.5507812,1.80175781 54.0351562,1.94970703 53.6835937,2.24560547 C53.3320312,2.54150391 53.15625,2.93261719 53.15625,3.41894531 C53.15625,3.75292969 53.2265625,4.03857422 53.3671875,4.27587891 C53.5078125,4.51318359 53.7392578,4.73730469 54.0615234,4.94824219 C54.3837891,5.15917969 54.9638672,5.4375 55.8017578,5.78320312 C56.7451172,6.17578125 57.4365234,6.54199219 57.8759766,6.88183594 C58.3154297,7.22167969 58.6376953,7.60546875 58.8427734,8.03320312 C59.0478516,8.4609375 59.1503906,8.96484375 59.1503906,9.54492188 Z" id="Path"></path>
                <polygon id="Path" points="71.7152344 13.0341797 69.6058594 13.0341797 69.6058594 7.2421875 63.6820312 7.2421875 63.6820312 13.0341797 61.5814453 13.0341797 61.5814453 0.184570312 63.6820312 0.184570312 63.6820312 5.44042969 69.6058594 5.44042969 69.6058594 0.184570312 71.7152344 0.184570312"></polygon>
                <polygon id="Path" points="75.0427734 13.0341797 75.0427734 0.184570312 77.1433594 0.184570312 77.1433594 13.0341797"></polygon>
                <polygon id="Path" points="82.5626953 13.0341797 80.4796875 13.0341797 80.4796875 0.184570312 87.7306641 0.184570312 87.7306641 1.95996094 82.5626953 1.95996094 82.5626953 5.9765625 87.4054687 5.9765625 87.4054687 7.76074219 82.5626953 7.76074219"></polygon>
                <polygon id="Path" points="94.4419922 13.0341797 92.3414062 13.0341797 92.3414062 1.98632812 88.5621094 1.98632812 88.5621094 0.184570312 98.2212891 0.184570312 98.2212891 1.98632812 94.4419922 1.98632812"></polygon>
                <polygon id="Path" points="106.198242 15.8378906 98.4023437 15.8378906 98.4023437 14.6513672 106.198242 14.6513672"></polygon>
                <polygon id="Path" points="115.07168 13.0341797 107.803125 13.0341797 107.803125 0.184570312 115.07168 0.184570312 115.07168 1.95996094 109.903711 1.95996094 109.903711 5.45800781 114.746484 5.45800781 114.746484 7.21582031 109.903711 7.21582031 109.903711 11.25 115.07168 11.25"></polygon>
                <polygon id="Path" points="127.258594 13.0341797 124.841602 13.0341797 121.624805 7.77832031 118.381641 13.0341797 116.131641 13.0341797 120.394336 6.37207031 116.404102 0.184570312 118.741992 0.184570312 121.712695 5.04492188 124.683398 0.184570312 126.950977 0.184570312 122.934375 6.40722656"></polygon>
                <polygon id="Path" points="133.372266 13.0341797 131.27168 13.0341797 131.27168 1.98632812 127.492383 1.98632812 127.492383 0.184570312 137.151562 0.184570312 137.151562 1.98632812 133.372266 1.98632812"></polygon>
                <polygon id="Path" points="146.332617 13.0341797 139.064062 13.0341797 139.064062 0.184570312 146.332617 0.184570312 146.332617 1.95996094 141.164648 1.95996094 141.164648 5.45800781 146.007422 5.45800781 146.007422 7.21582031 141.164648 7.21582031 141.164648 11.25 146.332617 11.25"></polygon>
                <path d="M159.758789,13.0341797 L157.183594,13.0341797 L150.864258,2.79492188 L150.793945,2.79492188 L150.837891,3.36621094 C150.919922,4.45605469 150.960937,5.45214844 150.960937,6.35449219 L150.960937,13.0341797 L149.053711,13.0341797 L149.053711,0.184570312 L151.602539,0.184570312 L157.904297,10.3710938 L157.957031,10.3710938 C157.945312,10.2363281 157.921875,9.74560547 157.886719,8.89892578 C157.851562,8.05224609 157.833984,7.39160156 157.833984,6.91699219 L157.833984,0.184570312 L159.758789,0.184570312 L159.758789,13.0341797 Z" id="Path"></path>
                <path d="M173.545312,6.48632812 C173.545312,8.60742188 172.956445,10.2290039 171.778711,11.3510742 C170.600977,12.4731445 168.904687,13.0341797 166.689844,13.0341797 L163.095117,13.0341797 L163.095117,0.184570312 L167.067773,0.184570312 C169.112695,0.184570312 170.703516,0.735351562 171.840234,1.83691406 C172.976953,2.93847656 173.545312,4.48828125 173.545312,6.48632812 Z M171.330469,6.55664062 C171.330469,3.48046875 169.891992,1.94238281 167.015039,1.94238281 L165.195703,1.94238281 L165.195703,11.2675781 L166.689844,11.2675781 C169.783594,11.2675781 171.330469,9.69726562 171.330469,6.55664062 Z" id="Shape"></path>
                <polygon id="Path" points="183.517383 13.0341797 176.248828 13.0341797 176.248828 0.184570312 183.517383 0.184570312 183.517383 1.95996094 178.349414 1.95996094 178.349414 5.45800781 183.192187 5.45800781 183.192187 7.21582031 178.349414 7.21582031 178.349414 11.25 183.517383 11.25"></polygon>
                <path d="M196.688672,6.48632812 C196.688672,8.60742188 196.099805,10.2290039 194.92207,11.3510742 C193.744336,12.4731445 192.048047,13.0341797 189.833203,13.0341797 L186.238477,13.0341797 L186.238477,0.184570312 L190.211133,0.184570312 C192.256055,0.184570312 193.846875,0.735351562 194.983594,1.83691406 C196.120312,2.93847656 196.688672,4.48828125 196.688672,6.48632812 Z M194.473828,6.55664062 C194.473828,3.48046875 193.035352,1.94238281 190.158398,1.94238281 L188.339062,1.94238281 L188.339062,11.2675781 L189.833203,11.2675781 C192.926953,11.2675781 194.473828,9.69726562 194.473828,6.55664062 Z" id="Shape"></path>
                <polygon id="Path" points="205.456641 15.8378906 197.660742 15.8378906 197.660742 14.6513672 205.456641 14.6513672"></polygon>
                <polygon id="Path" points="211.5 13.0341797 209.399414 13.0341797 209.399414 1.98632812 205.620117 1.98632812 205.620117 0.184570312 215.279297 0.184570312 215.279297 1.98632812 211.5 1.98632812"></polygon>
                <path d="M225.163477,13.0341797 L223.880273,9.46582031 L218.967187,9.46582031 L217.710352,13.0341797 L215.495508,13.0341797 L220.303125,0.131835938 L222.588281,0.131835938 L227.395898,13.0341797 L225.163477,13.0341797 Z M223.326562,7.65527344 L222.122461,4.15722656 C222.03457,3.92285156 221.912988,3.55371094 221.757715,3.04980469 C221.602441,2.54589844 221.495508,2.17675781 221.436914,1.94238281 C221.278711,2.66308594 221.047266,3.45117188 220.742578,4.30664062 L219.582422,7.65527344 L223.326562,7.65527344 Z" id="Shape"></path>
                <path d="M237.54375,4.06933594 C237.54375,5.41113281 237.104297,6.43945312 236.225391,7.15429687 C235.346484,7.86914062 234.095508,8.2265625 232.472461,8.2265625 L231.136523,8.2265625 L231.136523,13.0341797 L229.035937,13.0341797 L229.035937,0.184570312 L232.736133,0.184570312 C234.341602,0.184570312 235.544238,0.512695312 236.344043,1.16894531 C237.143848,1.82519531 237.54375,2.79199219 237.54375,4.06933594 Z M231.136523,6.45996094 L232.252734,6.45996094 C233.330859,6.45996094 234.121875,6.27246094 234.625781,5.89746094 C235.129687,5.52246094 235.381641,4.93652344 235.381641,4.13964844 C235.381641,3.40136719 235.156055,2.85058594 234.704883,2.48730469 C234.253711,2.12402344 233.550586,1.94238281 232.595508,1.94238281 L231.136523,1.94238281 L231.136523,6.45996094 Z" id="Shape"></path>
                <path d="M248.561719,4.06933594 C248.561719,5.41113281 248.122266,6.43945312 247.243359,7.15429687 C246.364453,7.86914062 245.113477,8.2265625 243.49043,8.2265625 L242.154492,8.2265625 L242.154492,13.0341797 L240.053906,13.0341797 L240.053906,0.184570312 L243.754102,0.184570312 C245.35957,0.184570312 246.562207,0.512695312 247.362012,1.16894531 C248.161816,1.82519531 248.561719,2.79199219 248.561719,4.06933594 Z M242.154492,6.45996094 L243.270703,6.45996094 C244.348828,6.45996094 245.139844,6.27246094 245.64375,5.89746094 C246.147656,5.52246094 246.399609,4.93652344 246.399609,4.13964844 C246.399609,3.40136719 246.174023,2.85058594 245.722852,2.48730469 C245.27168,2.12402344 244.568555,1.94238281 243.613477,1.94238281 L242.154492,1.94238281 L242.154492,6.45996094 Z" id="Shape"></path>
                <polygon id="Path" points="251.071875 13.0341797 251.071875 0.184570312 253.172461 0.184570312 253.172461 13.0341797"></polygon>
                <path d="M267.213867,13.0341797 L264.638672,13.0341797 L258.319336,2.79492188 L258.249023,2.79492188 L258.292969,3.36621094 C258.375,4.45605469 258.416016,5.45214844 258.416016,6.35449219 L258.416016,13.0341797 L256.508789,13.0341797 L256.508789,0.184570312 L259.057617,0.184570312 L265.359375,10.3710938 L265.412109,10.3710938 C265.400391,10.2363281 265.376953,9.74560547 265.341797,8.89892578 C265.306641,8.05224609 265.289062,7.39160156 265.289062,6.91699219 L265.289062,0.184570312 L267.213867,0.184570312 L267.213867,13.0341797 Z" id="Path"></path>
                <path d="M275.806055,6.06445312 L280.53457,6.06445312 L280.53457,12.515625 C279.761133,12.7675781 279.018457,12.9462891 278.306543,13.0517578 C277.594629,13.1572266 276.825586,13.2099609 275.999414,13.2099609 C274.054102,13.2099609 272.554102,12.6342773 271.499414,11.4829102 C270.444727,10.331543 269.917383,8.70703125 269.917383,6.609375 C269.917383,4.54101562 270.512109,2.92236328 271.701562,1.75341797 C272.891016,0.584472656 274.528711,0 276.614648,0 C277.956445,0 279.22793,0.2578125 280.429102,0.7734375 L279.69082,2.52246094 C278.647852,2.04199219 277.604883,1.80175781 276.561914,1.80175781 C275.19082,1.80175781 274.106836,2.23242188 273.309961,3.09375 C272.513086,3.95507812 272.114648,5.1328125 272.114648,6.62695313 C272.114648,8.19726562 272.473535,9.39111328 273.191309,10.2084961 C273.909082,11.0258789 274.941797,11.4345703 276.289453,11.4345703 C276.969141,11.4345703 277.695703,11.3496094 278.469141,11.1796875 L278.469141,7.86621094 L275.806055,7.86621094 L275.806055,6.06445312 Z" id="Path"></path>
                <polygon id="Path" points="289.627734 15.8378906 281.831836 15.8378906 281.831836 14.6513672 289.627734 14.6513672"></polygon>
                <polygon id="Path" points="295.671094 13.0341797 293.570508 13.0341797 293.570508 1.98632812 289.791211 1.98632812 289.791211 0.184570312 299.450391 0.184570312 299.450391 1.98632812 295.671094 1.98632812"></polygon>
                <polygon id="Path" points="308.631445 13.0341797 301.362891 13.0341797 301.362891 0.184570312 308.631445 0.184570312 308.631445 1.95996094 303.463477 1.95996094 303.463477 5.45800781 308.30625 5.45800781 308.30625 7.21582031 303.463477 7.21582031 303.463477 11.25 308.631445 11.25"></polygon>
                <path d="M313.453125,6.16113281 L314.912109,6.16113281 C315.890625,6.16113281 316.599609,5.97949219 317.039062,5.61621094 C317.478516,5.25292969 317.698242,4.71386719 317.698242,3.99902344 C317.698242,3.27246094 317.460937,2.75097656 316.986328,2.43457031 C316.511719,2.11816406 315.796875,1.95996094 314.841797,1.95996094 L313.453125,1.95996094 L313.453125,6.16113281 Z M313.453125,7.90136719 L313.453125,13.0341797 L311.352539,13.0341797 L311.352539,0.184570312 L314.982422,0.184570312 C316.640625,0.184570312 317.868164,0.495117188 318.665039,1.11621094 C319.461914,1.73730469 319.860352,2.67480469 319.860352,3.92871094 C319.860352,5.52832031 319.02832,6.66796875 317.364258,7.34765625 L320.994141,13.0341797 L318.603516,13.0341797 L315.527344,7.90136719 L313.453125,7.90136719 Z" id="Shape"></path>
                <path d="M328.355859,13.0341797 L324.629297,2.30273438 L324.558984,2.30273438 C324.658594,3.89648438 324.708398,5.390625 324.708398,6.78515625 L324.708398,13.0341797 L322.801172,13.0341797 L322.801172,0.184570312 L325.763086,0.184570312 L329.331445,10.40625 L329.38418,10.40625 L333.058008,0.184570312 L336.028711,0.184570312 L336.028711,13.0341797 L334.007227,13.0341797 L334.007227,6.6796875 C334.007227,6.04101562 334.02334,5.20898438 334.055566,4.18359375 C334.087793,3.15820312 334.115625,2.53710938 334.139062,2.3203125 L334.06875,2.3203125 L330.210352,13.0341797 L328.355859,13.0341797 Z" id="Path"></path>
            </g>
            <g id="lightshift-pressed" transform="translate(0.000000, 234.761719)">
                <polygon id="Path" points="2.06542969 13.7724609 0 13.7724609 0 0.0966796875 2.06542969 0.0966796875"></polygon>
                <path d="M7.02773437,13.7724609 L4.96230469,13.7724609 L4.96230469,4.05175781 L7.02773437,4.05175781 L7.02773437,13.7724609 Z M4.83925781,1.4765625 C4.83925781,1.10742188 4.94033203,0.823242188 5.14248047,0.624023438 C5.34462891,0.424804688 5.63320312,0.325195312 6.00820312,0.325195312 C6.37148437,0.325195312 6.65419922,0.424804688 6.85634766,0.624023438 C7.05849609,0.823242188 7.15957031,1.10742188 7.15957031,1.4765625 C7.15957031,1.828125 7.05849609,2.10498047 6.85634766,2.30712891 C6.65419922,2.50927734 6.37148437,2.61035156 6.00820312,2.61035156 C5.63320312,2.61035156 5.34462891,2.50927734 5.14248047,2.30712891 C4.94033203,2.10498047 4.83925781,1.828125 4.83925781,1.4765625 Z" id="Shape"></path>
                <path d="M18.1335937,4.05175781 L18.1335937,5.18554688 L16.4724609,5.49316406 C16.6248047,5.69824219 16.7507812,5.95019531 16.8503906,6.24902344 C16.95,6.54785156 16.9998047,6.86425781 16.9998047,7.19824219 C16.9998047,8.20019531 16.6541016,8.98828125 15.9626953,9.5625 C15.2712891,10.1367188 14.3191406,10.4238281 13.10625,10.4238281 C12.7957031,10.4238281 12.5144531,10.4003906 12.2625,10.3535156 C11.8171875,10.6289062 11.5945312,10.9511719 11.5945312,11.3203125 C11.5945312,11.5429688 11.6985352,11.7099609 11.906543,11.8212891 C12.1145508,11.9326172 12.496875,11.9882812 13.0535156,11.9882812 L14.7498047,11.9882812 C15.8220703,11.9882812 16.6365234,12.2167969 17.1931641,12.6738281 C17.7498047,13.1308594 18.028125,13.7900391 18.028125,14.6513672 C18.028125,15.7529297 17.5740234,16.6025391 16.6658203,17.2001953 C15.7576172,17.7978516 14.4451172,18.0966797 12.7283203,18.0966797 C11.4041016,18.0966797 10.3933594,17.8623047 9.69609375,17.3935547 C8.99882812,16.9248047 8.65019531,16.2568359 8.65019531,15.3896484 C8.65019531,14.7919922 8.83916015,14.2895508 9.21708984,13.8823242 C9.59501953,13.4750977 10.1238281,13.1923828 10.8035156,13.0341797 C10.528125,12.9169922 10.3010742,12.7280273 10.1223633,12.4672852 C9.94365234,12.206543 9.85429687,11.9326172 9.85429687,11.6455078 C9.85429687,11.2822266 9.95683594,10.9746094 10.1619141,10.7226562 C10.3669922,10.4707031 10.6716797,10.2216797 11.0759766,9.97558594 C10.5720703,9.75878906 10.1633789,9.40576172 9.84990234,8.91650391 C9.53642578,8.42724609 9.3796875,7.85449219 9.3796875,7.19824219 C9.3796875,6.14355469 9.71220703,5.32617188 10.3772461,4.74609375 C11.0422852,4.16601562 11.9900391,3.87597656 13.2205078,3.87597656 C13.4958984,3.87597656 13.7844727,3.89501953 14.0862305,3.93310547 C14.3879883,3.97119141 14.6150391,4.01074219 14.7673828,4.05175781 L18.1335937,4.05175781 Z M10.4958984,15.2841797 C10.4958984,15.7294922 10.696582,16.0722656 11.0979492,16.3125 C11.4993164,16.5527344 12.0632812,16.6728516 12.7898437,16.6728516 C13.9148437,16.6728516 14.7527344,16.5117188 15.3035156,16.1894531 C15.8542969,15.8671875 16.1296875,15.4394531 16.1296875,14.90625 C16.1296875,14.484375 15.9788086,14.184082 15.6770508,14.0053711 C15.375293,13.8266602 14.8142578,13.7373047 13.9939453,13.7373047 L12.4294922,13.7373047 C11.8376953,13.7373047 11.3674805,13.8764648 11.0188477,14.1547852 C10.6702148,14.4331055 10.4958984,14.8095703 10.4958984,15.2841797 Z M11.3835937,7.19824219 C11.3835937,7.80761719 11.540332,8.27636719 11.8538086,8.60449219 C12.1672852,8.93261719 12.6169922,9.09667969 13.2029297,9.09667969 C14.3982422,9.09667969 14.9958984,8.45800781 14.9958984,7.18066406 C14.9958984,6.54785156 14.8479492,6.06005859 14.5520508,5.71728516 C14.2561523,5.37451172 13.8064453,5.203125 13.2029297,5.203125 C12.6052734,5.203125 12.1526367,5.37304688 11.8450195,5.71289062 C11.5374023,6.05273438 11.3835937,6.54785156 11.3835937,7.19824219 Z" id="Shape"></path>
                <path d="M28.4308594,13.7724609 L26.3566406,13.7724609 L26.3566406,7.79589844 C26.3566406,7.04589844 26.2057617,6.48632812 25.9040039,6.1171875 C25.6022461,5.74804688 25.1232422,5.56347656 24.4669922,5.56347656 C23.5998047,5.56347656 22.9625977,5.82275391 22.5553711,6.34130859 C22.1481445,6.85986328 21.9445312,7.72851562 21.9445312,8.94726562 L21.9445312,13.7724609 L19.8791016,13.7724609 L19.8791016,0.0966796875 L21.9445312,0.0966796875 L21.9445312,3.56835937 C21.9445312,4.125 21.909375,4.71972656 21.8390625,5.35253906 L21.9708984,5.35253906 C22.2521484,4.88378906 22.6432617,4.52050781 23.1442383,4.26269531 C23.6452148,4.00488281 24.2296875,3.87597656 24.8976562,3.87597656 C27.253125,3.87597656 28.4308594,5.0625 28.4308594,7.43554688 L28.4308594,13.7724609 Z" id="Path"></path>
                <path d="M34.8697266,12.2783203 C35.3736328,12.2783203 35.8775391,12.1992188 36.3814453,12.0410156 L36.3814453,13.5966797 C36.1529297,13.6962891 35.8584961,13.7797852 35.4981445,13.847168 C35.137793,13.9145508 34.7642578,13.9482422 34.3775391,13.9482422 C32.4205078,13.9482422 31.4419922,12.9169922 31.4419922,10.8544922 L31.4419922,5.61621094 L30.1148437,5.61621094 L30.1148437,4.70214844 L31.5386719,3.94628906 L32.2417969,1.88964844 L33.5162109,1.88964844 L33.5162109,4.05175781 L36.2847656,4.05175781 L36.2847656,5.61621094 L33.5162109,5.61621094 L33.5162109,10.8193359 C33.5162109,11.3173828 33.6407227,11.6850586 33.8897461,11.9223633 C34.1387695,12.159668 34.4654297,12.2783203 34.8697266,12.2783203 Z" id="Path"></path>
                <path d="M44.7978516,11.0039062 C44.7978516,11.953125 44.4521484,12.6811523 43.7607422,13.1879883 C43.0693359,13.6948242 42.0791016,13.9482422 40.7900391,13.9482422 C39.4951172,13.9482422 38.4550781,13.7519531 37.6699219,13.359375 L37.6699219,11.5751953 C38.8125,12.1025391 39.8759766,12.3662109 40.8603516,12.3662109 C42.1318359,12.3662109 42.7675781,11.9824219 42.7675781,11.2148438 C42.7675781,10.96875 42.6972656,10.7636719 42.5566406,10.5996094 C42.4160156,10.4355469 42.1845703,10.265625 41.8623047,10.0898438 C41.5400391,9.9140625 41.0917969,9.71484375 40.5175781,9.4921875 C39.3984375,9.05859375 38.6411133,8.625 38.2456055,8.19140625 C37.8500977,7.7578125 37.6523437,7.1953125 37.6523437,6.50390625 C37.6523437,5.671875 37.987793,5.02587891 38.6586914,4.56591797 C39.3295898,4.10595703 40.2421875,3.87597656 41.3964844,3.87597656 C42.5390625,3.87597656 43.6201172,4.10742188 44.6396484,4.5703125 L43.9716797,6.12597656 C42.9228516,5.69238281 42.0410156,5.47558594 41.3261719,5.47558594 C40.2363281,5.47558594 39.6914062,5.78613281 39.6914062,6.40722656 C39.6914062,6.71191406 39.8334961,6.96972656 40.1176758,7.18066406 C40.4018555,7.39160156 41.0214844,7.68164062 41.9765625,8.05078125 C42.7792969,8.36132812 43.3623047,8.64550781 43.7255859,8.90332031 C44.0888672,9.16113281 44.3583984,9.45849609 44.5341797,9.79541016 C44.7099609,10.1323242 44.7978516,10.5351562 44.7978516,11.0039062 Z" id="Path"></path>
                <path d="M55.5257812,13.7724609 L53.4515625,13.7724609 L53.4515625,7.79589844 C53.4515625,7.04589844 53.3006836,6.48632812 52.9989258,6.1171875 C52.697168,5.74804688 52.2181641,5.56347656 51.5619141,5.56347656 C50.6947266,5.56347656 50.0575195,5.82275391 49.650293,6.34130859 C49.2430664,6.85986328 49.0394531,7.72851562 49.0394531,8.94726562 L49.0394531,13.7724609 L46.9740234,13.7724609 L46.9740234,0.0966796875 L49.0394531,0.0966796875 L49.0394531,3.56835937 C49.0394531,4.125 49.0042969,4.71972656 48.9339844,5.35253906 L49.0658203,5.35253906 C49.3470703,4.88378906 49.7381836,4.52050781 50.2391602,4.26269531 C50.7401367,4.00488281 51.3246094,3.87597656 51.9925781,3.87597656 C54.3480469,3.87597656 55.5257812,5.0625 55.5257812,7.43554688 L55.5257812,13.7724609 Z" id="Path"></path>
                <path d="M60.4089844,13.7724609 L58.3435547,13.7724609 L58.3435547,4.05175781 L60.4089844,4.05175781 L60.4089844,13.7724609 Z M58.2205078,1.4765625 C58.2205078,1.10742188 58.321582,0.823242188 58.5237305,0.624023438 C58.7258789,0.424804688 59.0144531,0.325195312 59.3894531,0.325195312 C59.7527344,0.325195312 60.0354492,0.424804688 60.2375977,0.624023438 C60.4397461,0.823242188 60.5408203,1.10742188 60.5408203,1.4765625 C60.5408203,1.828125 60.4397461,2.10498047 60.2375977,2.30712891 C60.0354492,2.50927734 59.7527344,2.61035156 59.3894531,2.61035156 C59.0144531,2.61035156 58.7258789,2.50927734 58.5237305,2.30712891 C58.321582,2.10498047 58.2205078,1.828125 58.2205078,1.4765625 Z" id="Shape"></path>
                <path d="M68.1837891,5.61621094 L65.8107422,5.61621094 L65.8107422,13.7724609 L63.7365234,13.7724609 L63.7365234,5.61621094 L62.1369141,5.61621094 L62.1369141,4.64941406 L63.7365234,4.01660156 L63.7365234,3.38378906 C63.7365234,2.23535156 64.0060547,1.38427734 64.5451172,0.830566406 C65.0841797,0.276855469 65.9074219,0 67.0148437,0 C67.7414062,0 68.45625,0.120117188 69.159375,0.360351562 L68.6144531,1.92480469 C68.1046875,1.76074219 67.6183594,1.67871094 67.1554687,1.67871094 C66.6867187,1.67871094 66.3454101,1.82373047 66.131543,2.11376953 C65.9176758,2.40380859 65.8107422,2.83886719 65.8107422,3.41894531 L65.8107422,4.05175781 L68.1837891,4.05175781 L68.1837891,5.61621094 Z" id="Path"></path>
                <path d="M73.4009766,12.2783203 C73.9048828,12.2783203 74.4087891,12.1992188 74.9126953,12.0410156 L74.9126953,13.5966797 C74.6841797,13.6962891 74.3897461,13.7797852 74.0293945,13.847168 C73.669043,13.9145508 73.2955078,13.9482422 72.9087891,13.9482422 C70.9517578,13.9482422 69.9732422,12.9169922 69.9732422,10.8544922 L69.9732422,5.61621094 L68.6460937,5.61621094 L68.6460937,4.70214844 L70.0699219,3.94628906 L70.7730469,1.88964844 L72.0474609,1.88964844 L72.0474609,4.05175781 L74.8160156,4.05175781 L74.8160156,5.61621094 L72.0474609,5.61621094 L72.0474609,10.8193359 C72.0474609,11.3173828 72.1719726,11.6850586 72.4209961,11.9223633 C72.6700195,12.159668 72.9966797,12.2783203 73.4009766,12.2783203 Z" id="Path"></path>
                <path d="M9.29794922,37.9482422 C8.06748047,37.9482422 7.11240234,37.5058594 6.43271484,36.6210938 L6.30966797,36.6210938 C6.39169922,37.4414062 6.43271484,37.9394531 6.43271484,38.1152344 L6.43271484,42.0966797 L4.36728515,42.0966797 L4.36728515,28.0517578 L6.03720703,28.0517578 C6.08408203,28.2333984 6.18076172,28.6669922 6.32724609,29.3525391 L6.43271484,29.3525391 C7.07724609,28.3681641 8.04404297,27.8759766 9.33310547,27.8759766 C10.5459961,27.8759766 11.4908203,28.3154297 12.1675781,29.1943359 C12.8443359,30.0732422 13.1827148,31.3066406 13.1827148,32.8945312 C13.1827148,34.4824219 12.8384766,35.7216797 12.15,36.6123047 C11.4615234,37.5029297 10.5108398,37.9482422 9.29794922,37.9482422 Z M8.79697265,29.5634766 C7.97666015,29.5634766 7.37753906,29.8037109 6.99960937,30.2841797 C6.62167969,30.7646484 6.43271484,31.5322266 6.43271484,32.5869141 L6.43271484,32.8945312 C6.43271484,34.078125 6.62021484,34.9350586 6.99521484,35.465332 C7.37021484,35.9956055 7.98251953,36.2607422 8.8321289,36.2607422 C9.54697265,36.2607422 10.0977539,35.9677734 10.4844727,35.3818359 C10.8711914,34.7958984 11.0645508,33.9609375 11.0645508,32.8769531 C11.0645508,31.7871094 10.8726562,30.9624023 10.4888672,30.402832 C10.1050781,29.8432617 9.54111328,29.5634766 8.79697265,29.5634766 Z" id="Shape"></path>
                <path d="M20.456543,27.8759766 C20.8725586,27.8759766 21.215332,27.9052734 21.4848633,27.9638672 L21.2827148,29.8886719 C20.9897461,29.8183594 20.6850586,29.7832031 20.3686523,29.7832031 C19.5424805,29.7832031 18.8730469,30.0527344 18.3603516,30.5917969 C17.8476562,31.1308594 17.5913086,31.8310547 17.5913086,32.6923828 L17.5913086,37.7724609 L15.5258789,37.7724609 L15.5258789,28.0517578 L17.1430664,28.0517578 L17.4155273,29.765625 L17.5209961,29.765625 C17.8432617,29.1855469 18.2636719,28.7255859 18.7822266,28.3857422 C19.3007812,28.0458984 19.8588867,27.8759766 20.456543,27.8759766 Z" id="Path"></path>
                <path d="M27.4754883,37.9482422 C25.9637695,37.9482422 24.7816406,37.5073242 23.9291016,36.6254883 C23.0765625,35.7436523 22.650293,34.5292969 22.650293,32.9824219 C22.650293,31.3945312 23.0458008,30.1464844 23.8368164,29.2382812 C24.627832,28.3300781 25.7147461,27.8759766 27.0975586,27.8759766 C28.3807617,27.8759766 29.3944336,28.265625 30.1385742,29.0449219 C30.8827148,29.8242188 31.2547852,30.8964844 31.2547852,32.2617188 L31.2547852,33.3779297 L24.7772461,33.3779297 C24.806543,34.3212891 25.0614258,35.0463867 25.5418945,35.5532227 C26.0223633,36.0600586 26.6991211,36.3134766 27.572168,36.3134766 C28.1463867,36.3134766 28.6810547,36.2592773 29.1761719,36.1508789 C29.6712891,36.0424805 30.2030273,35.8623047 30.7713867,35.6103516 L30.7713867,37.2890625 C30.2674805,37.5292969 29.7577148,37.6992188 29.2420898,37.7988281 C28.7264648,37.8984375 28.1375977,37.9482422 27.4754883,37.9482422 Z M27.0975586,29.4404297 C26.4413086,29.4404297 25.9154297,29.6484375 25.5199219,30.0644531 C25.1244141,30.4804688 24.8885742,31.0869141 24.8124023,31.8837891 L29.2245117,31.8837891 C29.212793,31.0810547 29.0194336,30.4731445 28.6444336,30.0600586 C28.2694336,29.6469727 27.7538086,29.4404297 27.0975586,29.4404297 Z" id="Shape"></path>
                <path d="M40.0754883,35.0039062 C40.0754883,35.953125 39.7297852,36.6811523 39.0383789,37.1879883 C38.3469727,37.6948242 37.3567383,37.9482422 36.0676758,37.9482422 C34.7727539,37.9482422 33.7327148,37.7519531 32.9475586,37.359375 L32.9475586,35.5751953 C34.0901367,36.1025391 35.1536133,36.3662109 36.1379883,36.3662109 C37.4094727,36.3662109 38.0452148,35.9824219 38.0452148,35.2148438 C38.0452148,34.96875 37.9749023,34.7636719 37.8342773,34.5996094 C37.6936523,34.4355469 37.462207,34.265625 37.1399414,34.0898438 C36.8176758,33.9140625 36.3694336,33.7148438 35.7952148,33.4921875 C34.6760742,33.0585938 33.91875,32.625 33.5232422,32.1914062 C33.1277344,31.7578125 32.9299805,31.1953125 32.9299805,30.5039062 C32.9299805,29.671875 33.2654297,29.0258789 33.9363281,28.565918 C34.6072266,28.105957 35.5198242,27.8759766 36.6741211,27.8759766 C37.8166992,27.8759766 38.8977539,28.1074219 39.9172852,28.5703125 L39.2493164,30.1259766 C38.2004883,29.6923828 37.3186523,29.4755859 36.6038086,29.4755859 C35.5139648,29.4755859 34.969043,29.7861328 34.969043,30.4072266 C34.969043,30.7119141 35.1111328,30.9697266 35.3953125,31.1806641 C35.6794922,31.3916016 36.2991211,31.6816406 37.2541992,32.0507812 C38.0569336,32.3613281 38.6399414,32.6455078 39.0032227,32.9033203 C39.3665039,33.1611328 39.6360352,33.4584961 39.8118164,33.7954102 C39.9875977,34.1323242 40.0754883,34.5351562 40.0754883,35.0039062 Z" id="Path"></path>
                <path d="M48.7819336,35.0039062 C48.7819336,35.953125 48.4362305,36.6811523 47.7448242,37.1879883 C47.053418,37.6948242 46.0631836,37.9482422 44.7741211,37.9482422 C43.4791992,37.9482422 42.4391602,37.7519531 41.6540039,37.359375 L41.6540039,35.5751953 C42.796582,36.1025391 43.8600586,36.3662109 44.8444336,36.3662109 C46.115918,36.3662109 46.7516602,35.9824219 46.7516602,35.2148438 C46.7516602,34.96875 46.6813477,34.7636719 46.5407227,34.5996094 C46.4000977,34.4355469 46.1686523,34.265625 45.8463867,34.0898438 C45.5241211,33.9140625 45.0758789,33.7148438 44.5016602,33.4921875 C43.3825195,33.0585938 42.6251953,32.625 42.2296875,32.1914062 C41.8341797,31.7578125 41.6364258,31.1953125 41.6364258,30.5039062 C41.6364258,29.671875 41.971875,29.0258789 42.6427734,28.565918 C43.3136719,28.105957 44.2262695,27.8759766 45.3805664,27.8759766 C46.5231445,27.8759766 47.6041992,28.1074219 48.6237305,28.5703125 L47.9557617,30.1259766 C46.9069336,29.6923828 46.0250977,29.4755859 45.3102539,29.4755859 C44.2204102,29.4755859 43.6754883,29.7861328 43.6754883,30.4072266 C43.6754883,30.7119141 43.8175781,30.9697266 44.1017578,31.1806641 C44.3859375,31.3916016 45.0055664,31.6816406 45.9606445,32.0507812 C46.7633789,32.3613281 47.3463867,32.6455078 47.709668,32.9033203 C48.0729492,33.1611328 48.3424805,33.4584961 48.5182617,33.7954102 C48.694043,34.1323242 48.7819336,34.5351562 48.7819336,35.0039062 Z" id="Path"></path>
                <path d="M55.2032227,37.9482422 C53.6915039,37.9482422 52.509375,37.5073242 51.6568359,36.6254883 C50.8042969,35.7436523 50.3780273,34.5292969 50.3780273,32.9824219 C50.3780273,31.3945312 50.7735352,30.1464844 51.5645508,29.2382812 C52.3555664,28.3300781 53.4424805,27.8759766 54.825293,27.8759766 C56.1084961,27.8759766 57.122168,28.265625 57.8663086,29.0449219 C58.6104492,29.8242188 58.9825195,30.8964844 58.9825195,32.2617188 L58.9825195,33.3779297 L52.5049805,33.3779297 C52.5342773,34.3212891 52.7891602,35.0463867 53.2696289,35.5532227 C53.7500977,36.0600586 54.4268555,36.3134766 55.2999023,36.3134766 C55.8741211,36.3134766 56.4087891,36.2592773 56.9039062,36.1508789 C57.3990234,36.0424805 57.9307617,35.8623047 58.4991211,35.6103516 L58.4991211,37.2890625 C57.9952148,37.5292969 57.4854492,37.6992188 56.9698242,37.7988281 C56.4541992,37.8984375 55.865332,37.9482422 55.2032227,37.9482422 Z M54.825293,29.4404297 C54.169043,29.4404297 53.6431641,29.6484375 53.2476562,30.0644531 C52.8521484,30.4804688 52.6163086,31.0869141 52.5401367,31.8837891 L56.9522461,31.8837891 C56.9405273,31.0810547 56.747168,30.4731445 56.372168,30.0600586 C55.997168,29.6469727 55.481543,29.4404297 54.825293,29.4404297 Z" id="Shape"></path>
                <path d="M64.5512695,37.9482422 C63.3383789,37.9482422 62.3920898,37.5087891 61.7124023,36.6298828 C61.0327148,35.7509766 60.6928711,34.5175781 60.6928711,32.9296875 C60.6928711,31.3359375 61.0371094,30.0952148 61.7255859,29.2075195 C62.4140625,28.3198242 63.3676758,27.8759766 64.5864258,27.8759766 C65.8637695,27.8759766 66.8364258,28.3476562 67.5043945,29.2910156 L67.6098633,29.2910156 C67.5102539,28.59375 67.4604492,28.0429688 67.4604492,27.6386719 L67.4604492,24.0966797 L69.534668,24.0966797 L69.534668,37.7724609 L67.9174805,37.7724609 L67.5571289,36.4980469 L67.4604492,36.4980469 C66.7983398,37.4648438 65.8286133,37.9482422 64.5512695,37.9482422 Z M65.1049805,36.2783203 C65.9545898,36.2783203 66.5727539,36.0395508 66.9594726,35.5620117 C67.3461914,35.0844727 67.5454101,34.3095703 67.5571289,33.2373047 L67.5571289,32.9472656 C67.5571289,31.7226562 67.3579101,30.8525391 66.9594726,30.3369141 C66.5610351,29.8212891 65.9370117,29.5634766 65.0874023,29.5634766 C64.3608398,29.5634766 63.8012695,29.8579102 63.4086914,30.4467773 C63.0161133,31.0356445 62.8198242,31.875 62.8198242,32.9648438 C62.8198242,34.0429688 63.0102539,34.8647461 63.3911133,35.4301758 C63.7719726,35.9956055 64.3432617,36.2783203 65.1049805,36.2783203 Z" id="Shape"></path>
            </g>
            <g id="SAME-side-key-presse" transform="translate(217.985156, 234.858398)">
                <path d="M14.4896484,10.1865234 C14.4896484,11.3291016 14.0765625,12.2255859 13.2503906,12.8759766 C12.4242187,13.5263672 11.2845703,13.8515625 9.83144531,13.8515625 C8.37832031,13.8515625 7.18886719,13.6259766 6.26308594,13.1748047 L6.26308594,11.1884766 C6.84902344,11.4638672 7.47158203,11.6806641 8.13076172,11.8388672 C8.78994141,11.9970703 9.40371094,12.0761719 9.97207031,12.0761719 C10.8041016,12.0761719 11.4178711,11.9179688 11.8133789,11.6015625 C12.2088867,11.2851562 12.4066406,10.8603516 12.4066406,10.3271484 C12.4066406,9.84667969 12.225,9.43945312 11.8617187,9.10546875 C11.4984375,8.77148438 10.7484375,8.37597656 9.61171875,7.91894531 C8.43984375,7.44433594 7.61367187,6.90234375 7.13320312,6.29296875 C6.65273437,5.68359375 6.4125,4.95117188 6.4125,4.09570312 C6.4125,3.0234375 6.79335937,2.1796875 7.55507812,1.56445312 C8.31679687,0.94921875 9.33925781,0.641601562 10.6224609,0.641601562 C11.8529297,0.641601562 13.0775391,0.911132812 14.2962891,1.45019531 L13.6283203,3.1640625 C12.4857422,2.68359375 11.4662109,2.44335938 10.5697266,2.44335938 C9.89003906,2.44335938 9.37441406,2.59130859 9.02285156,2.88720703 C8.67128906,3.18310547 8.49550781,3.57421875 8.49550781,4.06054688 C8.49550781,4.39453125 8.56582031,4.68017578 8.70644531,4.91748047 C8.84707031,5.15478516 9.07851562,5.37890625 9.40078125,5.58984375 C9.72304687,5.80078125 10.303125,6.07910156 11.1410156,6.42480469 C12.084375,6.81738281 12.7757812,7.18359375 13.2152344,7.5234375 C13.6546875,7.86328125 13.9769531,8.24707031 14.1820312,8.67480469 C14.3871094,9.10253906 14.4896484,9.60644531 14.4896484,10.1865234 Z" id="Path"></path>
                <path d="M24.8923828,13.6757812 L23.6091797,10.1074219 L18.6960937,10.1074219 L17.4392578,13.6757812 L15.2244141,13.6757812 L20.0320312,0.7734375 L22.3171875,0.7734375 L27.1248047,13.6757812 L24.8923828,13.6757812 Z M23.0554687,8.296875 L21.8513672,4.79882812 C21.7634766,4.56445312 21.6418945,4.1953125 21.4866211,3.69140625 C21.3313477,3.1875 21.2244141,2.81835938 21.1658203,2.58398438 C21.0076172,3.3046875 20.7761719,4.09277344 20.4714844,4.94824219 L19.3113281,8.296875 L23.0554687,8.296875 Z" id="Shape"></path>
                <path d="M34.3195312,13.6757812 L30.5929687,2.94433594 L30.5226562,2.94433594 C30.6222656,4.53808594 30.6720703,6.03222656 30.6720703,7.42675781 L30.6720703,13.6757812 L28.7648437,13.6757812 L28.7648437,0.826171875 L31.7267578,0.826171875 L35.2951172,11.0478516 L35.3478516,11.0478516 L39.0216797,0.826171875 L41.9923828,0.826171875 L41.9923828,13.6757812 L39.9708984,13.6757812 L39.9708984,7.32128906 C39.9708984,6.68261719 39.9870117,5.85058594 40.0192383,4.82519531 C40.0514648,3.79980469 40.0792969,3.17871094 40.1027344,2.96191406 L40.0324219,2.96191406 L36.1740234,13.6757812 L34.3195312,13.6757812 Z" id="Path"></path>
                <polygon id="Path" points="52.5884766 13.6757812 45.3199219 13.6757812 45.3199219 0.826171875 52.5884766 0.826171875 52.5884766 2.6015625 47.4205078 2.6015625 47.4205078 6.09960938 52.2632812 6.09960938 52.2632812 7.85742188 47.4205078 7.85742188 47.4205078 11.8916016 52.5884766 11.8916016"></polygon>
                <polygon id="Path" points="54.2460937 9.72949219 54.2460937 7.97167969 58.7636719 7.97167969 58.7636719 9.72949219"></polygon>
                <path d="M67.3558594,10.9072266 C67.3558594,11.8564453 67.0101562,12.5844727 66.31875,13.0913086 C65.6273437,13.5981445 64.6371094,13.8515625 63.3480469,13.8515625 C62.053125,13.8515625 61.0130859,13.6552734 60.2279297,13.2626953 L60.2279297,11.4785156 C61.3705078,12.0058594 62.4339844,12.2695312 63.4183594,12.2695312 C64.6898437,12.2695312 65.3255859,11.8857422 65.3255859,11.1181641 C65.3255859,10.8720703 65.2552734,10.6669922 65.1146484,10.5029297 C64.9740234,10.3388672 64.7425781,10.1689453 64.4203125,9.99316406 C64.0980469,9.81738281 63.6498047,9.61816406 63.0755859,9.39550781 C61.9564453,8.96191406 61.1991211,8.52832031 60.8036133,8.09472656 C60.4081055,7.66113281 60.2103516,7.09863281 60.2103516,6.40722656 C60.2103516,5.57519531 60.5458008,4.92919922 61.2166992,4.46923828 C61.8875977,4.00927734 62.8001953,3.77929688 63.9544922,3.77929688 C65.0970703,3.77929688 66.178125,4.01074219 67.1976562,4.47363281 L66.5296875,6.02929688 C65.4808594,5.59570312 64.5990234,5.37890625 63.8841797,5.37890625 C62.7943359,5.37890625 62.2494141,5.68945312 62.2494141,6.31054688 C62.2494141,6.61523438 62.3915039,6.87304688 62.6756836,7.08398438 C62.9598633,7.29492188 63.5794922,7.58496094 64.5345703,7.95410156 C65.3373047,8.26464844 65.9203125,8.54882812 66.2835937,8.80664062 C66.646875,9.06445312 66.9164062,9.36181641 67.0921875,9.69873047 C67.2679687,10.0356445 67.3558594,10.4384766 67.3558594,10.9072266 Z" id="Path"></path>
                <path d="M71.5974609,13.6757812 L69.5320312,13.6757812 L69.5320312,3.95507812 L71.5974609,3.95507812 L71.5974609,13.6757812 Z M69.4089844,1.37988281 C69.4089844,1.01074219 69.5100586,0.7265625 69.712207,0.52734375 C69.9143555,0.328125 70.2029297,0.228515625 70.5779297,0.228515625 C70.9412109,0.228515625 71.2239258,0.328125 71.4260742,0.52734375 C71.6282227,0.7265625 71.7292969,1.01074219 71.7292969,1.37988281 C71.7292969,1.73144531 71.6282227,2.00830078 71.4260742,2.21044922 C71.2239258,2.41259766 70.9412109,2.51367188 70.5779297,2.51367188 C70.2029297,2.51367188 69.9143555,2.41259766 69.712207,2.21044922 C69.5100586,2.00830078 69.4089844,1.73144531 69.4089844,1.37988281 Z" id="Shape"></path>
                <path d="M77.7726562,13.8515625 C76.5597656,13.8515625 75.6134766,13.4121094 74.9337891,12.5332031 C74.2541016,11.6542969 73.9142578,10.4208984 73.9142578,8.83300781 C73.9142578,7.23925781 74.2584961,5.99853516 74.9469726,5.11083984 C75.6354492,4.22314453 76.5890625,3.77929688 77.8078125,3.77929688 C79.0851562,3.77929688 80.0578125,4.25097656 80.7257812,5.19433594 L80.83125,5.19433594 C80.7316406,4.49707031 80.6818359,3.94628906 80.6818359,3.54199219 L80.6818359,0 L82.7560547,0 L82.7560547,13.6757812 L81.1388672,13.6757812 L80.7785156,12.4013672 L80.6818359,12.4013672 C80.0197266,13.3681641 79.05,13.8515625 77.7726562,13.8515625 Z M78.3263672,12.1816406 C79.1759766,12.1816406 79.7941406,11.9428711 80.1808594,11.465332 C80.5675781,10.987793 80.7667969,10.2128906 80.7785156,9.140625 L80.7785156,8.85058594 C80.7785156,7.62597656 80.5792969,6.75585938 80.1808594,6.24023438 C79.7824219,5.72460938 79.1583984,5.46679688 78.3087891,5.46679688 C77.5822266,5.46679688 77.0226562,5.76123047 76.6300781,6.35009766 C76.2375,6.93896484 76.0412109,7.77832031 76.0412109,8.86816406 C76.0412109,9.94628906 76.2316406,10.7680664 76.6125,11.3334961 C76.9933594,11.8989258 77.5646484,12.1816406 78.3263672,12.1816406 Z" id="Shape"></path>
                <path d="M89.8980469,13.8515625 C88.3863281,13.8515625 87.2041992,13.4106445 86.3516601,12.5288086 C85.4991211,11.6469727 85.0728516,10.4326172 85.0728516,8.88574219 C85.0728516,7.29785156 85.4683594,6.04980469 86.259375,5.14160156 C87.0503906,4.23339844 88.1373047,3.77929688 89.5201172,3.77929688 C90.8033203,3.77929688 91.8169922,4.16894531 92.5611328,4.94824219 C93.3052734,5.72753906 93.6773437,6.79980469 93.6773437,8.16503906 L93.6773437,9.28125 L87.1998047,9.28125 C87.2291016,10.2246094 87.4839844,10.949707 87.9644531,11.456543 C88.4449219,11.9633789 89.1216797,12.2167969 89.9947266,12.2167969 C90.5689453,12.2167969 91.1036133,12.1625977 91.5987305,12.0541992 C92.0938476,11.9458008 92.6255859,11.765625 93.1939453,11.5136719 L93.1939453,13.1923828 C92.6900391,13.4326172 92.1802734,13.6025391 91.6646484,13.7021484 C91.1490234,13.8017578 90.5601562,13.8515625 89.8980469,13.8515625 Z M89.5201172,5.34375 C88.8638672,5.34375 88.3379883,5.55175781 87.9424805,5.96777344 C87.5469726,6.38378906 87.3111328,6.99023438 87.2349609,7.78710938 L91.6470703,7.78710938 C91.6353516,6.984375 91.4419922,6.37646484 91.0669922,5.96337891 C90.6919922,5.55029297 90.1763672,5.34375 89.5201172,5.34375 Z" id="Shape"></path>
                <polygon id="Path" points="1.99511719 32.5429688 3.1640625 31.0839844 6.09960938 27.9550781 8.48144531 27.9550781 4.5703125 32.1298828 8.72753906 37.6757812 6.30175781 37.6757812 3.18164062 33.4130859 2.04785156 34.3447266 2.04785156 37.6757812 0 37.6757812 0 24 2.04785156 24 2.04785156 30.6708984 1.94238281 32.5429688"></polygon>
                <path d="M14.4808594,37.8515625 C12.9691406,37.8515625 11.7870117,37.4106445 10.9344727,36.5288086 C10.0819336,35.6469727 9.65566406,34.4326172 9.65566406,32.8857422 C9.65566406,31.2978516 10.0511719,30.0498047 10.8421875,29.1416016 C11.6332031,28.2333984 12.7201172,27.7792969 14.1029297,27.7792969 C15.3861328,27.7792969 16.3998047,28.1689453 17.1439453,28.9482422 C17.8880859,29.7275391 18.2601562,30.7998047 18.2601562,32.1650391 L18.2601562,33.28125 L11.7826172,33.28125 C11.8119141,34.2246094 12.0667969,34.949707 12.5472656,35.456543 C13.0277344,35.9633789 13.7044922,36.2167969 14.5775391,36.2167969 C15.1517578,36.2167969 15.6864258,36.1625977 16.181543,36.0541992 C16.6766602,35.9458008 17.2083984,35.765625 17.7767578,35.5136719 L17.7767578,37.1923828 C17.2728516,37.4326172 16.7630859,37.6025391 16.2474609,37.7021484 C15.7318359,37.8017578 15.1429687,37.8515625 14.4808594,37.8515625 Z M14.1029297,29.34375 C13.4466797,29.34375 12.9208008,29.5517578 12.525293,29.9677734 C12.1297852,30.3837891 11.8939453,30.9902344 11.8177734,31.7871094 L16.2298828,31.7871094 C16.2181641,30.984375 16.0248047,30.3764648 15.6498047,29.9633789 C15.2748047,29.550293 14.7591797,29.34375 14.1029297,29.34375 Z" id="Shape"></path>
                <path d="M19.0740234,27.9550781 L21.3240234,27.9550781 L23.3015625,33.4658203 C23.6003906,34.2509766 23.7996094,34.9892578 23.8992187,35.6806641 L23.9695312,35.6806641 C24.0222656,35.3583984 24.1189453,34.9672852 24.2595703,34.5073242 C24.4001953,34.0473633 25.1443359,31.8632812 26.4919922,27.9550781 L28.7244141,27.9550781 L24.5671875,38.9677734 C23.8113281,40.9892578 22.5515625,42 20.7878906,42 C20.3308594,42 19.8855469,41.9501953 19.4519531,41.8505859 L19.4519531,40.2158203 C19.7625,40.2861328 20.1169922,40.3212891 20.5154297,40.3212891 C21.5115234,40.3212891 22.2117187,39.7441406 22.6160156,38.5898438 L22.9763672,37.6757812 L19.0740234,27.9550781 Z" id="Path"></path>
                <path d="M39.6949219,37.8515625 C38.4644531,37.8515625 37.509375,37.4091797 36.8296875,36.5244141 L36.7066406,36.5244141 C36.7886719,37.3447266 36.8296875,37.8427734 36.8296875,38.0185547 L36.8296875,42 L34.7642578,42 L34.7642578,27.9550781 L36.4341797,27.9550781 C36.4810547,28.1367188 36.5777344,28.5703125 36.7242187,29.2558594 L36.8296875,29.2558594 C37.4742187,28.2714844 38.4410156,27.7792969 39.7300781,27.7792969 C40.9429687,27.7792969 41.887793,28.21875 42.5645508,29.0976562 C43.2413086,29.9765625 43.5796875,31.2099609 43.5796875,32.7978516 C43.5796875,34.3857422 43.2354492,35.625 42.5469727,36.515625 C41.8584961,37.40625 40.9078125,37.8515625 39.6949219,37.8515625 Z M39.1939453,29.4667969 C38.3736328,29.4667969 37.7745117,29.7070312 37.396582,30.1875 C37.0186523,30.6679688 36.8296875,31.4355469 36.8296875,32.4902344 L36.8296875,32.7978516 C36.8296875,33.9814453 37.0171875,34.8383789 37.3921875,35.3686523 C37.7671875,35.8989258 38.3794922,36.1640625 39.2291016,36.1640625 C39.9439453,36.1640625 40.4947266,35.8710938 40.8814453,35.2851562 C41.2681641,34.6992188 41.4615234,33.8642578 41.4615234,32.7802734 C41.4615234,31.6904297 41.2696289,30.8657227 40.8858398,30.3061523 C40.5020508,29.746582 39.9380859,29.4667969 39.1939453,29.4667969 Z" id="Shape"></path>
                <path d="M50.8535156,27.7792969 C51.2695312,27.7792969 51.6123047,27.8085938 51.8818359,27.8671875 L51.6796875,29.7919922 C51.3867187,29.7216797 51.0820312,29.6865234 50.765625,29.6865234 C49.9394531,29.6865234 49.2700195,29.9560547 48.7573242,30.4951172 C48.2446289,31.0341797 47.9882812,31.734375 47.9882812,32.5957031 L47.9882812,37.6757812 L45.9228516,37.6757812 L45.9228516,27.9550781 L47.5400391,27.9550781 L47.8125,29.6689453 L47.9179687,29.6689453 C48.2402344,29.0888672 48.6606445,28.6289062 49.1791992,28.2890625 C49.6977539,27.9492188 50.2558594,27.7792969 50.8535156,27.7792969 Z" id="Path"></path>
                <path d="M57.8724609,37.8515625 C56.3607422,37.8515625 55.1786133,37.4106445 54.3260742,36.5288086 C53.4735352,35.6469727 53.0472656,34.4326172 53.0472656,32.8857422 C53.0472656,31.2978516 53.4427734,30.0498047 54.2337891,29.1416016 C55.0248047,28.2333984 56.1117187,27.7792969 57.4945312,27.7792969 C58.7777344,27.7792969 59.7914062,28.1689453 60.5355469,28.9482422 C61.2796875,29.7275391 61.6517578,30.7998047 61.6517578,32.1650391 L61.6517578,33.28125 L55.1742187,33.28125 C55.2035156,34.2246094 55.4583984,34.949707 55.9388672,35.456543 C56.4193359,35.9633789 57.0960937,36.2167969 57.9691406,36.2167969 C58.5433594,36.2167969 59.0780273,36.1625977 59.5731445,36.0541992 C60.0682617,35.9458008 60.6,35.765625 61.1683594,35.5136719 L61.1683594,37.1923828 C60.6644531,37.4326172 60.1546875,37.6025391 59.6390625,37.7021484 C59.1234375,37.8017578 58.5345703,37.8515625 57.8724609,37.8515625 Z M57.4945312,29.34375 C56.8382812,29.34375 56.3124023,29.5517578 55.9168945,29.9677734 C55.5213867,30.3837891 55.2855469,30.9902344 55.209375,31.7871094 L59.6214844,31.7871094 C59.6097656,30.984375 59.4164062,30.3764648 59.0414062,29.9633789 C58.6664062,29.550293 58.1507812,29.34375 57.4945312,29.34375 Z" id="Shape"></path>
                <path d="M70.4724609,34.9072266 C70.4724609,35.8564453 70.1267578,36.5844727 69.4353516,37.0913086 C68.7439453,37.5981445 67.7537109,37.8515625 66.4646484,37.8515625 C65.1697266,37.8515625 64.1296875,37.6552734 63.3445312,37.2626953 L63.3445312,35.4785156 C64.4871094,36.0058594 65.5505859,36.2695312 66.5349609,36.2695312 C67.8064453,36.2695312 68.4421875,35.8857422 68.4421875,35.1181641 C68.4421875,34.8720703 68.371875,34.6669922 68.23125,34.5029297 C68.090625,34.3388672 67.8591797,34.1689453 67.5369141,33.9931641 C67.2146484,33.8173828 66.7664062,33.6181641 66.1921875,33.3955078 C65.0730469,32.9619141 64.3157227,32.5283203 63.9202148,32.0947266 C63.524707,31.6611328 63.3269531,31.0986328 63.3269531,30.4072266 C63.3269531,29.5751953 63.6624023,28.9291992 64.3333008,28.4692383 C65.0041992,28.0092773 65.9167969,27.7792969 67.0710937,27.7792969 C68.2136719,27.7792969 69.2947266,28.0107422 70.3142578,28.4736328 L69.6462891,30.0292969 C68.5974609,29.5957031 67.715625,29.3789062 67.0007812,29.3789062 C65.9109375,29.3789062 65.3660156,29.6894531 65.3660156,30.3105469 C65.3660156,30.6152344 65.5081055,30.8730469 65.7922852,31.0839844 C66.0764648,31.2949219 66.6960937,31.5849609 67.6511719,31.9541016 C68.4539062,32.2646484 69.0369141,32.5488281 69.4001953,32.8066406 C69.7634766,33.0644531 70.0330078,33.3618164 70.2087891,33.6987305 C70.3845703,34.0356445 70.4724609,34.4384766 70.4724609,34.9072266 Z" id="Path"></path>
                <path d="M79.1789062,34.9072266 C79.1789062,35.8564453 78.8332031,36.5844727 78.1417969,37.0913086 C77.4503906,37.5981445 76.4601562,37.8515625 75.1710937,37.8515625 C73.8761719,37.8515625 72.8361328,37.6552734 72.0509766,37.2626953 L72.0509766,35.4785156 C73.1935547,36.0058594 74.2570312,36.2695312 75.2414062,36.2695312 C76.5128906,36.2695312 77.1486328,35.8857422 77.1486328,35.1181641 C77.1486328,34.8720703 77.0783203,34.6669922 76.9376953,34.5029297 C76.7970703,34.3388672 76.565625,34.1689453 76.2433594,33.9931641 C75.9210937,33.8173828 75.4728516,33.6181641 74.8986328,33.3955078 C73.7794922,32.9619141 73.022168,32.5283203 72.6266601,32.0947266 C72.2311523,31.6611328 72.0333984,31.0986328 72.0333984,30.4072266 C72.0333984,29.5751953 72.3688476,28.9291992 73.0397461,28.4692383 C73.7106445,28.0092773 74.6232422,27.7792969 75.7775391,27.7792969 C76.9201172,27.7792969 78.0011719,28.0107422 79.0207031,28.4736328 L78.3527344,30.0292969 C77.3039062,29.5957031 76.4220703,29.3789062 75.7072266,29.3789062 C74.6173828,29.3789062 74.0724609,29.6894531 74.0724609,30.3105469 C74.0724609,30.6152344 74.2145508,30.8730469 74.4987305,31.0839844 C74.7829101,31.2949219 75.4025391,31.5849609 76.3576172,31.9541016 C77.1603516,32.2646484 77.7433594,32.5488281 78.1066406,32.8066406 C78.4699219,33.0644531 78.7394531,33.3618164 78.9152344,33.6987305 C79.0910156,34.0356445 79.1789062,34.4384766 79.1789062,34.9072266 Z" id="Path"></path>
                <path d="M85.6001953,37.8515625 C84.0884766,37.8515625 82.9063476,37.4106445 82.0538086,36.5288086 C81.2012695,35.6469727 80.775,34.4326172 80.775,32.8857422 C80.775,31.2978516 81.1705078,30.0498047 81.9615234,29.1416016 C82.7525391,28.2333984 83.8394531,27.7792969 85.2222656,27.7792969 C86.5054687,27.7792969 87.5191406,28.1689453 88.2632812,28.9482422 C89.0074219,29.7275391 89.3794922,30.7998047 89.3794922,32.1650391 L89.3794922,33.28125 L82.9019531,33.28125 C82.93125,34.2246094 83.1861328,34.949707 83.6666016,35.456543 C84.1470703,35.9633789 84.8238281,36.2167969 85.696875,36.2167969 C86.2710937,36.2167969 86.8057617,36.1625977 87.3008789,36.0541992 C87.7959961,35.9458008 88.3277344,35.765625 88.8960937,35.5136719 L88.8960937,37.1923828 C88.3921875,37.4326172 87.8824219,37.6025391 87.3667969,37.7021484 C86.8511719,37.8017578 86.2623047,37.8515625 85.6001953,37.8515625 Z M85.2222656,29.34375 C84.5660156,29.34375 84.0401367,29.5517578 83.6446289,29.9677734 C83.2491211,30.3837891 83.0132812,30.9902344 82.9371094,31.7871094 L87.3492187,31.7871094 C87.3375,30.984375 87.1441406,30.3764648 86.7691406,29.9633789 C86.3941406,29.550293 85.8785156,29.34375 85.2222656,29.34375 Z" id="Shape"></path>
                <path d="M94.9482422,37.8515625 C93.7353516,37.8515625 92.7890625,37.4121094 92.109375,36.5332031 C91.4296875,35.6542969 91.0898437,34.4208984 91.0898437,32.8330078 C91.0898437,31.2392578 91.434082,29.9985352 92.1225586,29.1108398 C92.8110351,28.2231445 93.7646484,27.7792969 94.9833984,27.7792969 C96.2607422,27.7792969 97.2333984,28.2509766 97.9013672,29.1943359 L98.0068359,29.1943359 C97.9072266,28.4970703 97.8574219,27.9462891 97.8574219,27.5419922 L97.8574219,24 L99.9316406,24 L99.9316406,37.6757812 L98.3144531,37.6757812 L97.9541016,36.4013672 L97.8574219,36.4013672 C97.1953125,37.3681641 96.2255859,37.8515625 94.9482422,37.8515625 Z M95.5019531,36.1816406 C96.3515625,36.1816406 96.9697266,35.9428711 97.3564453,35.465332 C97.7431641,34.987793 97.9423828,34.2128906 97.9541016,33.140625 L97.9541016,32.8505859 C97.9541016,31.6259766 97.7548828,30.7558594 97.3564453,30.2402344 C96.9580078,29.7246094 96.3339844,29.4667969 95.484375,29.4667969 C94.7578125,29.4667969 94.1982422,29.7612305 93.8056641,30.3500977 C93.4130859,30.9389648 93.2167969,31.7783203 93.2167969,32.8681641 C93.2167969,33.9462891 93.4072266,34.7680664 93.7880859,35.3334961 C94.1689453,35.8989258 94.7402344,36.1816406 95.5019531,36.1816406 Z" id="Shape"></path>
            </g>
            <g id="lightshift-released" transform="translate(691.352051, 234.761719)">
                <polygon id="Path" points="3.71337891 13.7724609 1.64794922 13.7724609 1.64794922 0.0966796875 3.71337891 0.0966796875"></polygon>
                <path d="M8.67568359,13.7724609 L6.61025391,13.7724609 L6.61025391,4.05175781 L8.67568359,4.05175781 L8.67568359,13.7724609 Z M6.48720703,1.4765625 C6.48720703,1.10742188 6.58828125,0.823242188 6.79042969,0.624023438 C6.99257812,0.424804688 7.28115234,0.325195312 7.65615234,0.325195312 C8.01943359,0.325195312 8.30214844,0.424804688 8.50429687,0.624023438 C8.70644531,0.823242188 8.80751953,1.10742188 8.80751953,1.4765625 C8.80751953,1.828125 8.70644531,2.10498047 8.50429687,2.30712891 C8.30214844,2.50927734 8.01943359,2.61035156 7.65615234,2.61035156 C7.28115234,2.61035156 6.99257812,2.50927734 6.79042969,2.30712891 C6.58828125,2.10498047 6.48720703,1.828125 6.48720703,1.4765625 Z" id="Shape"></path>
                <path d="M19.781543,4.05175781 L19.781543,5.18554688 L18.1204102,5.49316406 C18.2727539,5.69824219 18.3987305,5.95019531 18.4983398,6.24902344 C18.5979492,6.54785156 18.6477539,6.86425781 18.6477539,7.19824219 C18.6477539,8.20019531 18.3020508,8.98828125 17.6106445,9.5625 C16.9192383,10.1367188 15.9670898,10.4238281 14.7541992,10.4238281 C14.4436523,10.4238281 14.1624023,10.4003906 13.9104492,10.3535156 C13.4651367,10.6289062 13.2424805,10.9511719 13.2424805,11.3203125 C13.2424805,11.5429688 13.3464844,11.7099609 13.5544922,11.8212891 C13.7625,11.9326172 14.1448242,11.9882812 14.7014648,11.9882812 L16.3977539,11.9882812 C17.4700195,11.9882812 18.2844727,12.2167969 18.8411133,12.6738281 C19.3977539,13.1308594 19.6760742,13.7900391 19.6760742,14.6513672 C19.6760742,15.7529297 19.2219727,16.6025391 18.3137695,17.2001953 C17.4055664,17.7978516 16.0930664,18.0966797 14.3762695,18.0966797 C13.0520508,18.0966797 12.0413086,17.8623047 11.344043,17.3935547 C10.6467773,16.9248047 10.2981445,16.2568359 10.2981445,15.3896484 C10.2981445,14.7919922 10.4871094,14.2895508 10.8650391,13.8823242 C11.2429687,13.4750977 11.7717773,13.1923828 12.4514648,13.0341797 C12.1760742,12.9169922 11.9490234,12.7280273 11.7703125,12.4672852 C11.5916016,12.206543 11.5022461,11.9326172 11.5022461,11.6455078 C11.5022461,11.2822266 11.6047852,10.9746094 11.8098633,10.7226562 C12.0149414,10.4707031 12.3196289,10.2216797 12.7239258,9.97558594 C12.2200195,9.75878906 11.8113281,9.40576172 11.4978516,8.91650391 C11.184375,8.42724609 11.0276367,7.85449219 11.0276367,7.19824219 C11.0276367,6.14355469 11.3601562,5.32617188 12.0251953,4.74609375 C12.6902344,4.16601562 13.6379883,3.87597656 14.868457,3.87597656 C15.1438477,3.87597656 15.4324219,3.89501953 15.7341797,3.93310547 C16.0359375,3.97119141 16.2629883,4.01074219 16.415332,4.05175781 L19.781543,4.05175781 Z M12.1438477,15.2841797 C12.1438477,15.7294922 12.3445312,16.0722656 12.7458984,16.3125 C13.1472656,16.5527344 13.7112305,16.6728516 14.437793,16.6728516 C15.562793,16.6728516 16.4006836,16.5117188 16.9514648,16.1894531 C17.5022461,15.8671875 17.7776367,15.4394531 17.7776367,14.90625 C17.7776367,14.484375 17.6267578,14.184082 17.325,14.0053711 C17.0232422,13.8266602 16.462207,13.7373047 15.6418945,13.7373047 L14.0774414,13.7373047 C13.4856445,13.7373047 13.0154297,13.8764648 12.6667969,14.1547852 C12.3181641,14.4331055 12.1438477,14.8095703 12.1438477,15.2841797 Z M13.031543,7.19824219 C13.031543,7.80761719 13.1882812,8.27636719 13.5017578,8.60449219 C13.8152344,8.93261719 14.2649414,9.09667969 14.8508789,9.09667969 C16.0461914,9.09667969 16.6438477,8.45800781 16.6438477,7.18066406 C16.6438477,6.54785156 16.4958984,6.06005859 16.2,5.71728516 C15.9041016,5.37451172 15.4543945,5.203125 14.8508789,5.203125 C14.2532227,5.203125 13.8005859,5.37304688 13.4929687,5.71289062 C13.1853516,6.05273438 13.031543,6.54785156 13.031543,7.19824219 Z" id="Shape"></path>
                <path d="M30.0788086,13.7724609 L28.0045898,13.7724609 L28.0045898,7.79589844 C28.0045898,7.04589844 27.8537109,6.48632812 27.5519531,6.1171875 C27.2501953,5.74804688 26.7711914,5.56347656 26.1149414,5.56347656 C25.2477539,5.56347656 24.6105469,5.82275391 24.2033203,6.34130859 C23.7960937,6.85986328 23.5924805,7.72851562 23.5924805,8.94726562 L23.5924805,13.7724609 L21.5270508,13.7724609 L21.5270508,0.0966796875 L23.5924805,0.0966796875 L23.5924805,3.56835937 C23.5924805,4.125 23.5573242,4.71972656 23.4870117,5.35253906 L23.6188477,5.35253906 C23.9000977,4.88378906 24.2912109,4.52050781 24.7921875,4.26269531 C25.2931641,4.00488281 25.8776367,3.87597656 26.5456055,3.87597656 C28.9010742,3.87597656 30.0788086,5.0625 30.0788086,7.43554688 L30.0788086,13.7724609 Z" id="Path"></path>
                <path d="M36.5176758,12.2783203 C37.021582,12.2783203 37.5254883,12.1992188 38.0293945,12.0410156 L38.0293945,13.5966797 C37.8008789,13.6962891 37.5064453,13.7797852 37.1460937,13.847168 C36.7857422,13.9145508 36.412207,13.9482422 36.0254883,13.9482422 C34.068457,13.9482422 33.0899414,12.9169922 33.0899414,10.8544922 L33.0899414,5.61621094 L31.762793,5.61621094 L31.762793,4.70214844 L33.1866211,3.94628906 L33.8897461,1.88964844 L35.1641602,1.88964844 L35.1641602,4.05175781 L37.9327148,4.05175781 L37.9327148,5.61621094 L35.1641602,5.61621094 L35.1641602,10.8193359 C35.1641602,11.3173828 35.2886719,11.6850586 35.5376953,11.9223633 C35.7867187,12.159668 36.1133789,12.2783203 36.5176758,12.2783203 Z" id="Path"></path>
                <path d="M46.4458008,11.0039062 C46.4458008,11.953125 46.1000977,12.6811523 45.4086914,13.1879883 C44.7172852,13.6948242 43.7270508,13.9482422 42.4379883,13.9482422 C41.1430664,13.9482422 40.1030273,13.7519531 39.3178711,13.359375 L39.3178711,11.5751953 C40.4604492,12.1025391 41.5239258,12.3662109 42.5083008,12.3662109 C43.7797852,12.3662109 44.4155273,11.9824219 44.4155273,11.2148438 C44.4155273,10.96875 44.3452148,10.7636719 44.2045898,10.5996094 C44.0639648,10.4355469 43.8325195,10.265625 43.5102539,10.0898438 C43.1879883,9.9140625 42.7397461,9.71484375 42.1655273,9.4921875 C41.0463867,9.05859375 40.2890625,8.625 39.8935547,8.19140625 C39.4980469,7.7578125 39.300293,7.1953125 39.300293,6.50390625 C39.300293,5.671875 39.6357422,5.02587891 40.3066406,4.56591797 C40.9775391,4.10595703 41.8901367,3.87597656 43.0444336,3.87597656 C44.1870117,3.87597656 45.2680664,4.10742188 46.2875977,4.5703125 L45.6196289,6.12597656 C44.5708008,5.69238281 43.6889648,5.47558594 42.9741211,5.47558594 C41.8842773,5.47558594 41.3393555,5.78613281 41.3393555,6.40722656 C41.3393555,6.71191406 41.4814453,6.96972656 41.765625,7.18066406 C42.0498047,7.39160156 42.6694336,7.68164062 43.6245117,8.05078125 C44.4272461,8.36132812 45.0102539,8.64550781 45.3735352,8.90332031 C45.7368164,9.16113281 46.0063477,9.45849609 46.1821289,9.79541016 C46.3579102,10.1323242 46.4458008,10.5351562 46.4458008,11.0039062 Z" id="Path"></path>
                <path d="M57.1737305,13.7724609 L55.0995117,13.7724609 L55.0995117,7.79589844 C55.0995117,7.04589844 54.9486328,6.48632812 54.646875,6.1171875 C54.3451172,5.74804688 53.8661133,5.56347656 53.2098633,5.56347656 C52.3426758,5.56347656 51.7054687,5.82275391 51.2982422,6.34130859 C50.8910156,6.85986328 50.6874023,7.72851562 50.6874023,8.94726562 L50.6874023,13.7724609 L48.6219727,13.7724609 L48.6219727,0.0966796875 L50.6874023,0.0966796875 L50.6874023,3.56835937 C50.6874023,4.125 50.6522461,4.71972656 50.5819336,5.35253906 L50.7137695,5.35253906 C50.9950195,4.88378906 51.3861328,4.52050781 51.8871094,4.26269531 C52.3880859,4.00488281 52.9725586,3.87597656 53.6405273,3.87597656 C55.9959961,3.87597656 57.1737305,5.0625 57.1737305,7.43554688 L57.1737305,13.7724609 Z" id="Path"></path>
                <path d="M62.0569336,13.7724609 L59.9915039,13.7724609 L59.9915039,4.05175781 L62.0569336,4.05175781 L62.0569336,13.7724609 Z M59.868457,1.4765625 C59.868457,1.10742188 59.9695312,0.823242188 60.1716797,0.624023438 C60.3738281,0.424804688 60.6624023,0.325195312 61.0374023,0.325195312 C61.4006836,0.325195312 61.6833984,0.424804688 61.8855469,0.624023438 C62.0876953,0.823242188 62.1887695,1.10742188 62.1887695,1.4765625 C62.1887695,1.828125 62.0876953,2.10498047 61.8855469,2.30712891 C61.6833984,2.50927734 61.4006836,2.61035156 61.0374023,2.61035156 C60.6624023,2.61035156 60.3738281,2.50927734 60.1716797,2.30712891 C59.9695312,2.10498047 59.868457,1.828125 59.868457,1.4765625 Z" id="Shape"></path>
                <path d="M69.8317383,5.61621094 L67.4586914,5.61621094 L67.4586914,13.7724609 L65.3844726,13.7724609 L65.3844726,5.61621094 L63.7848633,5.61621094 L63.7848633,4.64941406 L65.3844726,4.01660156 L65.3844726,3.38378906 C65.3844726,2.23535156 65.6540039,1.38427734 66.1930664,0.830566406 C66.7321289,0.276855469 67.5553711,0 68.662793,0 C69.3893555,0 70.1041992,0.120117188 70.8073242,0.360351562 L70.2624023,1.92480469 C69.7526367,1.76074219 69.2663086,1.67871094 68.803418,1.67871094 C68.334668,1.67871094 67.9933594,1.82373047 67.7794922,2.11376953 C67.565625,2.40380859 67.4586914,2.83886719 67.4586914,3.41894531 L67.4586914,4.05175781 L69.8317383,4.05175781 L69.8317383,5.61621094 Z" id="Path"></path>
                <path d="M75.0489258,12.2783203 C75.552832,12.2783203 76.0567383,12.1992188 76.5606445,12.0410156 L76.5606445,13.5966797 C76.3321289,13.6962891 76.0376953,13.7797852 75.6773437,13.847168 C75.3169922,13.9145508 74.943457,13.9482422 74.5567383,13.9482422 C72.599707,13.9482422 71.6211914,12.9169922 71.6211914,10.8544922 L71.6211914,5.61621094 L70.294043,5.61621094 L70.294043,4.70214844 L71.7178711,3.94628906 L72.4209961,1.88964844 L73.6954101,1.88964844 L73.6954101,4.05175781 L76.4639648,4.05175781 L76.4639648,5.61621094 L73.6954101,5.61621094 L73.6954101,10.8193359 C73.6954101,11.3173828 73.8199219,11.6850586 74.0689453,11.9223633 C74.3179687,12.159668 74.6446289,12.2783203 75.0489258,12.2783203 Z" id="Path"></path>
                <path d="M8.04726562,27.8759766 C8.46328125,27.8759766 8.80605469,27.9052734 9.07558594,27.9638672 L8.8734375,29.8886719 C8.58046875,29.8183594 8.27578125,29.7832031 7.959375,29.7832031 C7.13320312,29.7832031 6.46376953,30.0527344 5.95107422,30.5917969 C5.43837891,31.1308594 5.18203125,31.8310547 5.18203125,32.6923828 L5.18203125,37.7724609 L3.11660156,37.7724609 L3.11660156,28.0517578 L4.73378906,28.0517578 L5.00625,29.765625 L5.11171875,29.765625 C5.43398437,29.1855469 5.85439453,28.7255859 6.37294922,28.3857422 C6.89150391,28.0458984 7.44960937,27.8759766 8.04726562,27.8759766 Z" id="Path"></path>
                <path d="M15.0662109,37.9482422 C13.5544922,37.9482422 12.3723633,37.5073242 11.5198242,36.6254883 C10.6672852,35.7436523 10.2410156,34.5292969 10.2410156,32.9824219 C10.2410156,31.3945312 10.6365234,30.1464844 11.4275391,29.2382812 C12.2185547,28.3300781 13.3054687,27.8759766 14.6882812,27.8759766 C15.9714844,27.8759766 16.9851562,28.265625 17.7292969,29.0449219 C18.4734375,29.8242188 18.8455078,30.8964844 18.8455078,32.2617188 L18.8455078,33.3779297 L12.3679687,33.3779297 C12.3972656,34.3212891 12.6521484,35.0463867 13.1326172,35.5532227 C13.6130859,36.0600586 14.2898437,36.3134766 15.1628906,36.3134766 C15.7371094,36.3134766 16.2717773,36.2592773 16.7668945,36.1508789 C17.2620117,36.0424805 17.79375,35.8623047 18.3621094,35.6103516 L18.3621094,37.2890625 C17.8582031,37.5292969 17.3484375,37.6992188 16.8328125,37.7988281 C16.3171875,37.8984375 15.7283203,37.9482422 15.0662109,37.9482422 Z M14.6882812,29.4404297 C14.0320312,29.4404297 13.5061523,29.6484375 13.1106445,30.0644531 C12.7151367,30.4804688 12.4792969,31.0869141 12.403125,31.8837891 L16.8152344,31.8837891 C16.8035156,31.0810547 16.6101562,30.4731445 16.2351562,30.0600586 C15.8601562,29.6469727 15.3445312,29.4404297 14.6882812,29.4404297 Z" id="Shape"></path>
                <polygon id="Path" points="23.2013672 37.7724609 21.1359375 37.7724609 21.1359375 24.0966797 23.2013672 24.0966797"></polygon>
                <path d="M30.3433594,37.9482422 C28.8316406,37.9482422 27.6495117,37.5073242 26.7969727,36.6254883 C25.9444336,35.7436523 25.5181641,34.5292969 25.5181641,32.9824219 C25.5181641,31.3945312 25.9136719,30.1464844 26.7046875,29.2382812 C27.4957031,28.3300781 28.5826172,27.8759766 29.9654297,27.8759766 C31.2486328,27.8759766 32.2623047,28.265625 33.0064453,29.0449219 C33.7505859,29.8242188 34.1226562,30.8964844 34.1226562,32.2617188 L34.1226562,33.3779297 L27.6451172,33.3779297 C27.6744141,34.3212891 27.9292969,35.0463867 28.4097656,35.5532227 C28.8902344,36.0600586 29.5669922,36.3134766 30.4400391,36.3134766 C31.0142578,36.3134766 31.5489258,36.2592773 32.044043,36.1508789 C32.5391602,36.0424805 33.0708984,35.8623047 33.6392578,35.6103516 L33.6392578,37.2890625 C33.1353516,37.5292969 32.6255859,37.6992188 32.1099609,37.7988281 C31.5943359,37.8984375 31.0054687,37.9482422 30.3433594,37.9482422 Z M29.9654297,29.4404297 C29.3091797,29.4404297 28.7833008,29.6484375 28.387793,30.0644531 C27.9922852,30.4804688 27.7564453,31.0869141 27.6802734,31.8837891 L32.0923828,31.8837891 C32.0806641,31.0810547 31.8873047,30.4731445 31.5123047,30.0600586 C31.1373047,29.6469727 30.6216797,29.4404297 29.9654297,29.4404297 Z" id="Shape"></path>
                <path d="M42.4951172,37.7724609 L42.0820312,36.4189453 L42.0117187,36.4189453 C41.5429687,37.0107422 41.0712891,37.4135742 40.5966797,37.6274414 C40.1220703,37.8413086 39.5126953,37.9482422 38.7685547,37.9482422 C37.8134766,37.9482422 37.0678711,37.6904297 36.5317383,37.1748047 C35.9956055,36.6591797 35.7275391,35.9296875 35.7275391,34.9863281 C35.7275391,33.984375 36.0996094,33.2285156 36.84375,32.71875 C37.5878906,32.2089844 38.7216797,31.9306641 40.2451172,31.8837891 L41.9238281,31.8310547 L41.9238281,31.3125 C41.9238281,30.6914062 41.7788086,30.2270508 41.4887695,29.9194336 C41.1987305,29.6118164 40.7490234,29.4580078 40.1396484,29.4580078 C39.6416016,29.4580078 39.1640625,29.53125 38.7070312,29.6777344 C38.25,29.8242188 37.8105469,29.9970703 37.3886719,30.1962891 L36.7207031,28.7197266 C37.2480469,28.4443359 37.8251953,28.2348633 38.4521484,28.0913086 C39.0791016,27.9477539 39.6708984,27.8759766 40.2275391,27.8759766 C41.4638672,27.8759766 42.3969727,28.1455078 43.0268555,28.6845703 C43.6567383,29.2236328 43.9716797,30.0703125 43.9716797,31.2246094 L43.9716797,37.7724609 L42.4951172,37.7724609 Z M39.4189453,36.3662109 C40.1689453,36.3662109 40.7709961,36.1567383 41.2250977,35.737793 C41.6791992,35.3188477 41.90625,34.7314453 41.90625,33.9755859 L41.90625,33.1318359 L40.6582031,33.1845703 C39.6855469,33.2197266 38.9780273,33.3823242 38.5356445,33.6723633 C38.0932617,33.9624023 37.8720703,34.40625 37.8720703,35.0039062 C37.8720703,35.4375 38.0009766,35.7729492 38.2587891,36.0102539 C38.5166016,36.2475586 38.9033203,36.3662109 39.4189453,36.3662109 Z" id="Shape"></path>
                <path d="M53.3285156,35.0039062 C53.3285156,35.953125 52.9828125,36.6811523 52.2914062,37.1879883 C51.6,37.6948242 50.6097656,37.9482422 49.3207031,37.9482422 C48.0257812,37.9482422 46.9857422,37.7519531 46.2005859,37.359375 L46.2005859,35.5751953 C47.3431641,36.1025391 48.4066406,36.3662109 49.3910156,36.3662109 C50.6625,36.3662109 51.2982422,35.9824219 51.2982422,35.2148438 C51.2982422,34.96875 51.2279297,34.7636719 51.0873047,34.5996094 C50.9466797,34.4355469 50.7152344,34.265625 50.3929687,34.0898438 C50.0707031,33.9140625 49.6224609,33.7148438 49.0482422,33.4921875 C47.9291016,33.0585938 47.1717773,32.625 46.7762695,32.1914062 C46.3807617,31.7578125 46.1830078,31.1953125 46.1830078,30.5039062 C46.1830078,29.671875 46.518457,29.0258789 47.1893555,28.565918 C47.8602539,28.105957 48.7728516,27.8759766 49.9271484,27.8759766 C51.0697266,27.8759766 52.1507812,28.1074219 53.1703125,28.5703125 L52.5023437,30.1259766 C51.4535156,29.6923828 50.5716797,29.4755859 49.8568359,29.4755859 C48.7669922,29.4755859 48.2220703,29.7861328 48.2220703,30.4072266 C48.2220703,30.7119141 48.3641602,30.9697266 48.6483398,31.1806641 C48.9325195,31.3916016 49.5521484,31.6816406 50.5072266,32.0507812 C51.3099609,32.3613281 51.8929687,32.6455078 52.25625,32.9033203 C52.6195312,33.1611328 52.8890625,33.4584961 53.0648437,33.7954102 C53.240625,34.1323242 53.3285156,34.5351562 53.3285156,35.0039062 Z" id="Path"></path>
                <path d="M59.7498047,37.9482422 C58.2380859,37.9482422 57.055957,37.5073242 56.203418,36.6254883 C55.3508789,35.7436523 54.9246094,34.5292969 54.9246094,32.9824219 C54.9246094,31.3945312 55.3201172,30.1464844 56.1111328,29.2382812 C56.9021484,28.3300781 57.9890625,27.8759766 59.371875,27.8759766 C60.6550781,27.8759766 61.66875,28.265625 62.4128906,29.0449219 C63.1570312,29.8242188 63.5291016,30.8964844 63.5291016,32.2617188 L63.5291016,33.3779297 L57.0515625,33.3779297 C57.0808594,34.3212891 57.3357422,35.0463867 57.8162109,35.5532227 C58.2966797,36.0600586 58.9734375,36.3134766 59.8464844,36.3134766 C60.4207031,36.3134766 60.9553711,36.2592773 61.4504883,36.1508789 C61.9456055,36.0424805 62.4773437,35.8623047 63.0457031,35.6103516 L63.0457031,37.2890625 C62.5417969,37.5292969 62.0320312,37.6992188 61.5164062,37.7988281 C61.0007812,37.8984375 60.4119141,37.9482422 59.7498047,37.9482422 Z M59.371875,29.4404297 C58.715625,29.4404297 58.1897461,29.6484375 57.7942383,30.0644531 C57.3987305,30.4804688 57.1628906,31.0869141 57.0867187,31.8837891 L61.4988281,31.8837891 C61.4871094,31.0810547 61.29375,30.4731445 60.91875,30.0600586 C60.54375,29.6469727 60.028125,29.4404297 59.371875,29.4404297 Z" id="Shape"></path>
                <path d="M69.0978516,37.9482422 C67.8849609,37.9482422 66.9386719,37.5087891 66.2589844,36.6298828 C65.5792969,35.7509766 65.2394531,34.5175781 65.2394531,32.9296875 C65.2394531,31.3359375 65.5836914,30.0952148 66.272168,29.2075195 C66.9606445,28.3198242 67.9142578,27.8759766 69.1330078,27.8759766 C70.4103516,27.8759766 71.3830078,28.3476562 72.0509766,29.2910156 L72.1564453,29.2910156 C72.0568359,28.59375 72.0070312,28.0429688 72.0070312,27.6386719 L72.0070312,24.0966797 L74.08125,24.0966797 L74.08125,37.7724609 L72.4640625,37.7724609 L72.1037109,36.4980469 L72.0070312,36.4980469 C71.3449219,37.4648438 70.3751953,37.9482422 69.0978516,37.9482422 Z M69.6515625,36.2783203 C70.5011719,36.2783203 71.1193359,36.0395508 71.5060547,35.5620117 C71.8927734,35.0844727 72.0919922,34.3095703 72.1037109,33.2373047 L72.1037109,32.9472656 C72.1037109,31.7226562 71.9044922,30.8525391 71.5060547,30.3369141 C71.1076172,29.8212891 70.4835937,29.5634766 69.6339844,29.5634766 C68.9074219,29.5634766 68.3478516,29.8579102 67.9552734,30.4467773 C67.5626953,31.0356445 67.3664062,31.875 67.3664062,32.9648438 C67.3664062,34.0429688 67.5568359,34.8647461 67.9376953,35.4301758 C68.3185547,35.9956055 68.8898437,36.2783203 69.6515625,36.2783203 Z" id="Shape"></path>
                <path d="M0,56.8417969 C0,55.2890625 0.227050781,53.8359375 0.681152344,52.4824219 C1.13525391,51.1289062 1.79003906,49.9423828 2.64550781,48.9228516 L4.44726562,48.9228516 C3.6328125,50.0244141 3.00878906,51.2592773 2.57519531,52.6274414 C2.14160156,53.9956055 1.92480469,55.3945312 1.92480469,56.8242188 C1.92480469,58.2539062 2.14160156,59.6396484 2.57519531,60.9814453 C3.00878906,62.3232422 3.62695312,63.5361328 4.4296875,64.6201172 L2.64550781,64.6201172 C1.78417969,63.6240234 1.12792969,62.4609375 0.676757812,61.1308594 C0.225585938,59.8007812 0,58.3710938 0,56.8417969 Z" id="Path"></path>
                <path d="M10.4431641,54.46875 L10.4431641,52.8955078 L18.9070312,52.8955078 L18.9070312,54.46875 L10.4431641,54.46875 Z M10.4431641,57.9755859 L10.4431641,56.4111328 L18.9070312,56.4111328 L18.9070312,57.9755859 L10.4431641,57.9755859 Z" id="Shape"></path>
                <polygon id="Path" points="20.6085937 58.0986328 27.0509766 55.4355469 20.6085937 52.4121094 20.6085937 50.6982422 29.1955078 54.9873047 29.1955078 56.0507812 20.6085937 59.8300781"></polygon>
                <polygon id="Path" points="40.7373047 61.7724609 38.6367187 61.7724609 38.6367187 50.7246094 34.8574219 50.7246094 34.8574219 48.9228516 44.5166016 48.9228516 44.5166016 50.7246094 40.7373047 50.7246094"></polygon>
                <path d="M54.4007812,61.7724609 L53.1175781,58.2041016 L48.2044922,58.2041016 L46.9476562,61.7724609 L44.7328125,61.7724609 L49.5404297,48.8701172 L51.8255859,48.8701172 L56.6332031,61.7724609 L54.4007812,61.7724609 Z M52.5638672,56.3935547 L51.3597656,52.8955078 C51.271875,52.6611328 51.150293,52.2919922 50.9950195,51.7880859 C50.8397461,51.2841797 50.7328125,50.9150391 50.6742187,50.6806641 C50.5160156,51.4013672 50.2845703,52.1894531 49.9798828,53.0449219 L48.8197266,56.3935547 L52.5638672,56.3935547 Z" id="Shape"></path>
                <path d="M66.7810547,52.8076172 C66.7810547,54.1494141 66.3416016,55.1777344 65.4626953,55.8925781 C64.5837891,56.6074219 63.3328125,56.9648438 61.7097656,56.9648438 L60.3738281,56.9648438 L60.3738281,61.7724609 L58.2732422,61.7724609 L58.2732422,48.9228516 L61.9734375,48.9228516 C63.5789062,48.9228516 64.781543,49.2509766 65.5813477,49.9072266 C66.3811523,50.5634766 66.7810547,51.5302734 66.7810547,52.8076172 Z M60.3738281,55.1982422 L61.4900391,55.1982422 C62.5681641,55.1982422 63.3591797,55.0107422 63.8630859,54.6357422 C64.3669922,54.2607422 64.6189453,53.6748047 64.6189453,52.8779297 C64.6189453,52.1396484 64.3933594,51.5888672 63.9421875,51.2255859 C63.4910156,50.8623047 62.7878906,50.6806641 61.8328125,50.6806641 L60.3738281,50.6806641 L60.3738281,55.1982422 Z" id="Shape"></path>
                <path d="M77.1978516,56.8417969 C77.1978516,58.3828125 76.9708008,59.8183594 76.5166992,61.1484375 C76.0625976,62.4785156 75.4078125,63.6357422 74.5523437,64.6201172 L72.7681641,64.6201172 C73.5767578,63.5244141 74.1963867,62.3085938 74.6270508,60.9726562 C75.0577148,59.6367188 75.2730469,58.2539062 75.2730469,56.8242188 C75.2730469,55.3886719 75.05625,53.9897461 74.6226562,52.6274414 C74.1890625,51.2651367 73.5650391,50.0302734 72.7505859,48.9228516 L74.5523437,48.9228516 C75.4136719,49.9482422 76.0699219,51.1391602 76.5210937,52.4956055 C76.9722656,53.8520508 77.1978516,55.3007812 77.1978516,56.8417969 Z" id="Path"></path>
            </g>
        </g>
    </g>
</svg>